solid CATIA STL
  facet normal  0.000000e+000  0.000000e+000  9.999999e-001
    outer loop
      vertex  7.000000e+000  0.000000e+000  5.000000e+000
      vertex  1.489063e+001 -1.612151e+000  5.000000e+000
      vertex  6.306782e+000  3.037186e+000  5.000000e+000
    endloop
  endfacet
  facet normal  0.000000e+000  0.000000e+000  9.999999e-001
    outer loop
      vertex  7.000000e+000  0.000000e+000  5.000000e+000
      vertex  6.306782e+000 -3.037186e+000  5.000000e+000
      vertex  1.489063e+001 -1.612151e+000  5.000000e+000
    endloop
  endfacet
  facet normal  -0.000000e+000  0.000000e+000  9.999999e-001
    outer loop
      vertex -7.000000e+000  8.572244e-016  5.000000e+000
      vertex -1.480575e+001 -2.609016e+000  5.000000e+000
      vertex -6.306782e+000 -3.037186e+000  5.000000e+000
    endloop
  endfacet
  facet normal  0.000000e+000  0.000000e+000  1.000000e+000
    outer loop
      vertex  1.557647e+000  6.824495e+000  5.000000e+000
      vertex -1.836910e-016  1.900000e+001  5.000000e+000
      vertex -1.557647e+000  6.824495e+000  5.000000e+000
    endloop
  endfacet
  facet normal  0.000000e+000  0.000000e+000  1.000000e+000
    outer loop
      vertex -1.000000e+000  2.000000e+001  5.000000e+000
      vertex -7.071068e-001  2.070711e+001  5.000000e+000
      vertex -9.946840e+000  2.011403e+001  5.000000e+000
    endloop
  endfacet
  facet normal  0.000000e+000  0.000000e+000  1.000000e+000
    outer loop
      vertex -1.000000e+000 -2.000000e+001  5.000000e+000
      vertex -7.071068e-001 -1.929289e+001  5.000000e+000
      vertex -8.016988e+000 -1.972849e+001  5.000000e+000
    endloop
  endfacet
  facet normal  0.000000e+000  -0.000000e+000  1.000000e+000
    outer loop
      vertex  6.123032e-017 -1.900000e+001  5.000000e+000
      vertex  9.946840e+000 -1.731150e+001  5.000000e+000
      vertex  1.146474e+001 -1.471979e+001  5.000000e+000
    endloop
  endfacet
  facet normal  -0.000000e+000  0.000000e+000  1.000000e+000
    outer loop
      vertex -1.146474e+001  1.752232e+001  5.000000e+000
      vertex -1.375188e+001  1.138538e+001  5.000000e+000
      vertex -1.557647e+000  6.824495e+000  5.000000e+000
    endloop
  endfacet
  facet normal  0.000000e+000  -0.000000e+000  1.000000e+000
    outer loop
      vertex -1.146474e+001  1.752232e+001  5.000000e+000
      vertex -1.557647e+000  6.824495e+000  5.000000e+000
      vertex -1.836910e-016  1.900000e+001  5.000000e+000
    endloop
  endfacet
  facet normal  0.000000e+000  0.000000e+000  1.000000e+000
    outer loop
      vertex -1.146474e+001  1.752232e+001  5.000000e+000
      vertex -1.836910e-016  1.900000e+001  5.000000e+000
      vertex -7.071068e-001  1.929289e+001  5.000000e+000
    endloop
  endfacet
  facet normal  0.000000e+000  0.000000e+000  1.000000e+000
    outer loop
      vertex -1.146474e+001  1.752232e+001  5.000000e+000
      vertex -7.071068e-001  1.929289e+001  5.000000e+000
      vertex -1.000000e+000  2.000000e+001  5.000000e+000
    endloop
  endfacet
  facet normal  0.000000e+000  0.000000e+000  1.000000e+000
    outer loop
      vertex -1.146474e+001  1.752232e+001  5.000000e+000
      vertex -1.000000e+000  2.000000e+001  5.000000e+000
      vertex -9.946840e+000  2.011403e+001  5.000000e+000
    endloop
  endfacet
  facet normal  0.000000e+000  -0.000000e+000  1.000000e+000
    outer loop
      vertex -1.355176e+001 -9.316048e+000  5.000000e+000
      vertex -1.122766e+001 -1.517680e+001  5.000000e+000
      vertex -1.557647e+000 -6.824495e+000  5.000000e+000
    endloop
  endfacet
  facet normal  0.000000e+000  0.000000e+000  1.000000e+000
    outer loop
      vertex -1.355176e+001 -9.316048e+000  5.000000e+000
      vertex -1.557647e+000 -6.824495e+000  5.000000e+000
      vertex -4.364429e+000 -5.472820e+000  5.000000e+000
    endloop
  endfacet
  facet normal  0.000000e+000  0.000000e+000  9.999999e-001
    outer loop
      vertex -1.355176e+001 -9.316048e+000  5.000000e+000
      vertex -4.364429e+000 -5.472820e+000  5.000000e+000
      vertex -6.306782e+000 -3.037186e+000  5.000000e+000
    endloop
  endfacet
  facet normal  0.000000e+000  0.000000e+000  1.000000e+000
    outer loop
      vertex -1.355176e+001 -9.316048e+000  5.000000e+000
      vertex -6.306782e+000 -3.037186e+000  5.000000e+000
      vertex -1.480575e+001 -2.609016e+000  5.000000e+000
    endloop
  endfacet
  facet normal  -0.000000e+000  -0.000000e+000  1.000000e+000
    outer loop
      vertex -5.506886e+000 -2.185302e+001  5.000000e+000
      vertex -2.802807e+000 -2.315843e+001  5.000000e+000
      vertex  3.293560e-015 -2.359873e+001  5.000000e+000
    endloop
  endfacet
  facet normal  0.000000e+000  0.000000e+000  9.999999e-001
    outer loop
      vertex -5.506886e+000 -2.185302e+001  5.000000e+000
      vertex  3.293560e-015 -2.359873e+001  5.000000e+000
      vertex -1.836910e-016 -2.100000e+001  5.000000e+000
    endloop
  endfacet
  facet normal  0.000000e+000  0.000000e+000  1.000000e+000
    outer loop
      vertex -5.506886e+000 -2.185302e+001  5.000000e+000
      vertex -1.836910e-016 -2.100000e+001  5.000000e+000
      vertex -7.071068e-001 -2.070711e+001  5.000000e+000
    endloop
  endfacet
  facet normal  0.000000e+000  0.000000e+000  1.000000e+000
    outer loop
      vertex -5.506886e+000 -2.185302e+001  5.000000e+000
      vertex -7.071068e-001 -2.070711e+001  5.000000e+000
      vertex -1.000000e+000 -2.000000e+001  5.000000e+000
    endloop
  endfacet
  facet normal  0.000000e+000  0.000000e+000  1.000000e+000
    outer loop
      vertex -5.506886e+000 -2.185302e+001  5.000000e+000
      vertex -1.000000e+000 -2.000000e+001  5.000000e+000
      vertex -8.016988e+000 -1.972849e+001  5.000000e+000
    endloop
  endfacet
  facet normal  -0.000000e+000  -0.000000e+000  1.000000e+000
    outer loop
      vertex  6.123032e-017  2.100000e+001  5.000000e+000
      vertex  7.071068e-001  2.070711e+001  5.000000e+000
      vertex  9.718731e+000  2.044407e+001  5.000000e+000
    endloop
  endfacet
  facet normal  0.000000e+000  0.000000e+000  1.000000e+000
    outer loop
      vertex  6.123032e-017  2.100000e+001  5.000000e+000
      vertex  9.718731e+000  2.044407e+001  5.000000e+000
      vertex  8.016988e+000  2.253102e+001  5.000000e+000
    endloop
  endfacet
  facet normal  0.000000e+000  0.000000e+000  1.000000e+000
    outer loop
      vertex  6.123032e-017  2.100000e+001  5.000000e+000
      vertex  8.016988e+000  2.253102e+001  5.000000e+000
      vertex  5.506886e+000  2.465555e+001  5.000000e+000
    endloop
  endfacet
  facet normal  0.000000e+000  0.000000e+000  1.000000e+000
    outer loop
      vertex  6.123032e-017  2.100000e+001  5.000000e+000
      vertex  5.506886e+000  2.465555e+001  5.000000e+000
      vertex  2.802807e+000  2.596096e+001  5.000000e+000
    endloop
  endfacet
  facet normal  0.000000e+000  0.000000e+000  9.999999e-001
    outer loop
      vertex  6.123032e-017  2.100000e+001  5.000000e+000
      vertex  2.802807e+000  2.596096e+001  5.000000e+000
      vertex  1.530808e-015  2.640127e+001  5.000000e+000
    endloop
  endfacet
  facet normal  0.000000e+000  0.000000e+000  1.000000e+000
    outer loop
      vertex  6.123032e-017  2.100000e+001  5.000000e+000
      vertex  1.530808e-015  2.640127e+001  5.000000e+000
      vertex -2.881901e+000  2.593552e+001  5.000000e+000
    endloop
  endfacet
  facet normal  0.000000e+000  0.000000e+000  1.000000e+000
    outer loop
      vertex  6.123032e-017  2.100000e+001  5.000000e+000
      vertex -2.881901e+000  2.593552e+001  5.000000e+000
      vertex -5.656423e+000  2.455563e+001  5.000000e+000
    endloop
  endfacet
  facet normal  0.000000e+000  0.000000e+000  1.000000e+000
    outer loop
      vertex  6.123032e-017  2.100000e+001  5.000000e+000
      vertex -5.656423e+000  2.455563e+001  5.000000e+000
      vertex -8.220187e+000  2.231302e+001  5.000000e+000
    endloop
  endfacet
  facet normal  0.000000e+000  0.000000e+000  1.000000e+000
    outer loop
      vertex  6.123032e-017  2.100000e+001  5.000000e+000
      vertex -8.220187e+000  2.231302e+001  5.000000e+000
      vertex -9.946840e+000  2.011403e+001  5.000000e+000
    endloop
  endfacet
  facet normal  0.000000e+000  0.000000e+000  1.000000e+000
    outer loop
      vertex  6.123032e-017  2.100000e+001  5.000000e+000
      vertex -9.946840e+000  2.011403e+001  5.000000e+000
      vertex -7.071068e-001  2.070711e+001  5.000000e+000
    endloop
  endfacet
  facet normal  0.000000e+000  0.000000e+000  9.999999e-001
    outer loop
      vertex  1.375188e+001 -8.582849e+000  5.000000e+000
      vertex  1.489063e+001 -1.612151e+000  5.000000e+000
      vertex  6.306782e+000 -3.037186e+000  5.000000e+000
    endloop
  endfacet
  facet normal  0.000000e+000  0.000000e+000  1.000000e+000
    outer loop
      vertex  1.375188e+001 -8.582849e+000  5.000000e+000
      vertex  6.306782e+000 -3.037186e+000  5.000000e+000
      vertex  4.364429e+000 -5.472820e+000  5.000000e+000
    endloop
  endfacet
  facet normal  0.000000e+000  0.000000e+000  1.000000e+000
    outer loop
      vertex  1.375188e+001 -8.582849e+000  5.000000e+000
      vertex  4.364429e+000 -5.472820e+000  5.000000e+000
      vertex  1.557647e+000 -6.824495e+000  5.000000e+000
    endloop
  endfacet
  facet normal  0.000000e+000  0.000000e+000  1.000000e+000
    outer loop
      vertex  1.146474e+001 -1.471979e+001  5.000000e+000
      vertex  1.375188e+001 -8.582849e+000  5.000000e+000
      vertex  6.123032e-017 -1.900000e+001  5.000000e+000
    endloop
  endfacet
  facet normal  0.000000e+000  0.000000e+000  1.000000e+000
    outer loop
      vertex  6.123032e-017 -1.900000e+001  5.000000e+000
      vertex  1.375188e+001 -8.582849e+000  5.000000e+000
      vertex  1.557647e+000 -6.824495e+000  5.000000e+000
    endloop
  endfacet
  facet normal  0.000000e+000  0.000000e+000  1.000000e+000
    outer loop
      vertex  6.123032e-017 -1.900000e+001  5.000000e+000
      vertex  1.557647e+000 -6.824495e+000  5.000000e+000
      vertex -1.122766e+001 -1.517680e+001  5.000000e+000
    endloop
  endfacet
  facet normal  0.000000e+000  0.000000e+000  1.000000e+000
    outer loop
      vertex -1.122766e+001 -1.517680e+001  5.000000e+000
      vertex  1.557647e+000 -6.824495e+000  5.000000e+000
      vertex -1.557647e+000 -6.824495e+000  5.000000e+000
    endloop
  endfacet
  facet normal  0.000000e+000  0.000000e+000  1.000000e+000
    outer loop
      vertex  6.306782e+000  3.037186e+000  5.000000e+000
      vertex  1.489063e+001 -1.612151e+000  5.000000e+000
      vertex  4.364429e+000  5.472820e+000  5.000000e+000
    endloop
  endfacet
  facet normal  0.000000e+000  0.000000e+000  1.000000e+000
    outer loop
      vertex  4.364429e+000  5.472820e+000  5.000000e+000
      vertex  1.489063e+001 -1.612151e+000  5.000000e+000
      vertex  1.480575e+001  5.411548e+000  5.000000e+000
    endloop
  endfacet
  facet normal  0.000000e+000  0.000000e+000  1.000000e+000
    outer loop
      vertex  4.364429e+000  5.472820e+000  5.000000e+000
      vertex  1.480575e+001  5.411548e+000  5.000000e+000
      vertex  1.557647e+000  6.824495e+000  5.000000e+000
    endloop
  endfacet
  facet normal  -0.000000e+000  0.000000e+000  1.000000e+000
    outer loop
      vertex  1.557647e+000  6.824495e+000  5.000000e+000
      vertex  1.480575e+001  5.411548e+000  5.000000e+000
      vertex  1.355176e+001  1.211858e+001  5.000000e+000
    endloop
  endfacet
  facet normal  0.000000e+000  0.000000e+000  1.000000e+000
    outer loop
      vertex  1.557647e+000  6.824495e+000  5.000000e+000
      vertex  1.355176e+001  1.211858e+001  5.000000e+000
      vertex -1.836910e-016  1.900000e+001  5.000000e+000
    endloop
  endfacet
  facet normal  0.000000e+000  0.000000e+000  1.000000e+000
    outer loop
      vertex -1.836910e-016  1.900000e+001  5.000000e+000
      vertex  1.355176e+001  1.211858e+001  5.000000e+000
      vertex  1.122766e+001  1.797933e+001  5.000000e+000
    endloop
  endfacet
  facet normal  0.000000e+000  0.000000e+000  1.000000e+000
    outer loop
      vertex -1.836910e-016  1.900000e+001  5.000000e+000
      vertex  1.122766e+001  1.797933e+001  5.000000e+000
      vertex  7.071068e-001  1.929289e+001  5.000000e+000
    endloop
  endfacet
  facet normal  0.000000e+000  0.000000e+000  9.999999e-001
    outer loop
      vertex -1.557647e+000  6.824495e+000  5.000000e+000
      vertex -1.375188e+001  1.138538e+001  5.000000e+000
      vertex -4.364429e+000  5.472820e+000  5.000000e+000
    endloop
  endfacet
  facet normal  0.000000e+000  0.000000e+000  1.000000e+000
    outer loop
      vertex -4.364429e+000  5.472820e+000  5.000000e+000
      vertex -1.375188e+001  1.138538e+001  5.000000e+000
      vertex -1.489063e+001  4.414683e+000  5.000000e+000
    endloop
  endfacet
  facet normal  -0.000000e+000  0.000000e+000  1.000000e+000
    outer loop
      vertex -4.364429e+000  5.472820e+000  5.000000e+000
      vertex -1.489063e+001  4.414683e+000  5.000000e+000
      vertex -6.306782e+000  3.037186e+000  5.000000e+000
    endloop
  endfacet
  facet normal  0.000000e+000  0.000000e+000  1.000000e+000
    outer loop
      vertex -6.306782e+000  3.037186e+000  5.000000e+000
      vertex -1.489063e+001  4.414683e+000  5.000000e+000
      vertex -1.480575e+001 -2.609016e+000  5.000000e+000
    endloop
  endfacet
  facet normal  0.000000e+000  0.000000e+000  9.999999e-001
    outer loop
      vertex -6.306782e+000  3.037186e+000  5.000000e+000
      vertex -1.480575e+001 -2.609016e+000  5.000000e+000
      vertex -7.000000e+000  8.572244e-016  5.000000e+000
    endloop
  endfacet
  facet normal  0.000000e+000  0.000000e+000  1.000000e+000
    outer loop
      vertex -8.016988e+000 -1.972849e+001  5.000000e+000
      vertex -7.071068e-001 -1.929289e+001  5.000000e+000
      vertex -9.718731e+000 -1.764154e+001  5.000000e+000
    endloop
  endfacet
  facet normal  0.000000e+000  0.000000e+000  1.000000e+000
    outer loop
      vertex -9.718731e+000 -1.764154e+001  5.000000e+000
      vertex -7.071068e-001 -1.929289e+001  5.000000e+000
      vertex  6.123032e-017 -1.900000e+001  5.000000e+000
    endloop
  endfacet
  facet normal  0.000000e+000  0.000000e+000  1.000000e+000
    outer loop
      vertex -9.718731e+000 -1.764154e+001  5.000000e+000
      vertex  6.123032e-017 -1.900000e+001  5.000000e+000
      vertex -1.122766e+001 -1.517680e+001  5.000000e+000
    endloop
  endfacet
  facet normal  0.000000e+000  0.000000e+000  9.999999e-001
    outer loop
      vertex  9.718731e+000  2.044407e+001  5.000000e+000
      vertex  7.071068e-001  2.070711e+001  5.000000e+000
      vertex  1.122766e+001  1.797933e+001  5.000000e+000
    endloop
  endfacet
  facet normal  0.000000e+000  0.000000e+000  1.000000e+000
    outer loop
      vertex  1.122766e+001  1.797933e+001  5.000000e+000
      vertex  7.071068e-001  2.070711e+001  5.000000e+000
      vertex  1.000000e+000  2.000000e+001  5.000000e+000
    endloop
  endfacet
  facet normal  0.000000e+000  0.000000e+000  9.999999e-001
    outer loop
      vertex  1.122766e+001  1.797933e+001  5.000000e+000
      vertex  1.000000e+000  2.000000e+001  5.000000e+000
      vertex  7.071068e-001  1.929289e+001  5.000000e+000
    endloop
  endfacet
  facet normal  -0.000000e+000  0.000000e+000  1.000000e+000
    outer loop
      vertex  9.946840e+000 -1.731150e+001  5.000000e+000
      vertex  6.123032e-017 -1.900000e+001  5.000000e+000
      vertex  8.220187e+000 -1.951049e+001  5.000000e+000
    endloop
  endfacet
  facet normal  0.000000e+000  0.000000e+000  1.000000e+000
    outer loop
      vertex  8.220187e+000 -1.951049e+001  5.000000e+000
      vertex  6.123032e-017 -1.900000e+001  5.000000e+000
      vertex  7.071068e-001 -1.929289e+001  5.000000e+000
    endloop
  endfacet
  facet normal  0.000000e+000  0.000000e+000  1.000000e+000
    outer loop
      vertex  8.220187e+000 -1.951049e+001  5.000000e+000
      vertex  7.071068e-001 -1.929289e+001  5.000000e+000
      vertex  5.656423e+000 -2.175310e+001  5.000000e+000
    endloop
  endfacet
  facet normal  0.000000e+000  0.000000e+000  1.000000e+000
    outer loop
      vertex  5.656423e+000 -2.175310e+001  5.000000e+000
      vertex  7.071068e-001 -1.929289e+001  5.000000e+000
      vertex  1.000000e+000 -2.000000e+001  5.000000e+000
    endloop
  endfacet
  facet normal  0.000000e+000  0.000000e+000  1.000000e+000
    outer loop
      vertex  5.656423e+000 -2.175310e+001  5.000000e+000
      vertex  1.000000e+000 -2.000000e+001  5.000000e+000
      vertex  7.071068e-001 -2.070711e+001  5.000000e+000
    endloop
  endfacet
  facet normal  0.000000e+000  0.000000e+000  1.000000e+000
    outer loop
      vertex  3.293560e-015 -2.359873e+001  5.000000e+000
      vertex  2.881901e+000 -2.313299e+001  5.000000e+000
      vertex -1.836910e-016 -2.100000e+001  5.000000e+000
    endloop
  endfacet
  facet normal  0.000000e+000  0.000000e+000  1.000000e+000
    outer loop
      vertex -1.836910e-016 -2.100000e+001  5.000000e+000
      vertex  2.881901e+000 -2.313299e+001  5.000000e+000
      vertex  5.656423e+000 -2.175310e+001  5.000000e+000
    endloop
  endfacet
  facet normal  0.000000e+000  0.000000e+000  9.999999e-001
    outer loop
      vertex -1.836910e-016 -2.100000e+001  5.000000e+000
      vertex  5.656423e+000 -2.175310e+001  5.000000e+000
      vertex  7.071068e-001 -2.070711e+001  5.000000e+000
    endloop
  endfacet
  facet normal  0.000000e+000  0.000000e+000 -1.000000e+000
    outer loop
      vertex -9.946840e+000  2.011403e+001  0.000000e+000
      vertex -7.071068e-001  2.070711e+001  0.000000e+000
      vertex -1.000000e+000  2.000000e+001  0.000000e+000
    endloop
  endfacet
  facet normal  0.000000e+000  0.000000e+000 -1.000000e+000
    outer loop
      vertex -8.016988e+000 -1.972849e+001  0.000000e+000
      vertex -7.071068e-001 -1.929289e+001  0.000000e+000
      vertex -1.000000e+000 -2.000000e+001  0.000000e+000
    endloop
  endfacet
  facet normal  0.000000e+000  -0.000000e+000 -1.000000e+000
    outer loop
      vertex -1.836910e-016  1.900000e+001  0.000000e+000
      vertex  7.071068e-001  1.929289e+001  0.000000e+000
      vertex  1.122766e+001  1.797933e+001  0.000000e+000
    endloop
  endfacet
  facet normal  -0.000000e+000  0.000000e+000 -9.999999e-001
    outer loop
      vertex  6.123032e-017 -1.900000e+001  0.000000e+000
      vertex -7.071068e-001 -1.929289e+001  0.000000e+000
      vertex -8.016988e+000 -1.972849e+001  0.000000e+000
    endloop
  endfacet
  facet normal  0.000000e+000  0.000000e+000 -1.000000e+000
    outer loop
      vertex  6.123032e-017 -1.900000e+001  0.000000e+000
      vertex -8.016988e+000 -1.972849e+001  0.000000e+000
      vertex -9.718731e+000 -1.764154e+001  0.000000e+000
    endloop
  endfacet
  facet normal  0.000000e+000  0.000000e+000 -1.000000e+000
    outer loop
      vertex  6.123032e-017 -1.900000e+001  0.000000e+000
      vertex -9.718731e+000 -1.764154e+001  0.000000e+000
      vertex -1.122766e+001 -1.517680e+001  0.000000e+000
    endloop
  endfacet
  facet normal  0.000000e+000  0.000000e+000 -1.000000e+000
    outer loop
      vertex  6.123032e-017 -1.900000e+001  0.000000e+000
      vertex -1.122766e+001 -1.517680e+001  0.000000e+000
      vertex -1.355176e+001 -9.316048e+000  0.000000e+000
    endloop
  endfacet
  facet normal  0.000000e+000  0.000000e+000 -1.000000e+000
    outer loop
      vertex  6.123032e-017 -1.900000e+001  0.000000e+000
      vertex -1.355176e+001 -9.316048e+000  0.000000e+000
      vertex -1.480575e+001 -2.609016e+000  0.000000e+000
    endloop
  endfacet
  facet normal  0.000000e+000  0.000000e+000 -1.000000e+000
    outer loop
      vertex  6.123032e-017 -1.900000e+001  0.000000e+000
      vertex -1.480575e+001 -2.609016e+000  0.000000e+000
      vertex -1.489063e+001  4.414683e+000  0.000000e+000
    endloop
  endfacet
  facet normal  0.000000e+000  0.000000e+000 -1.000000e+000
    outer loop
      vertex  6.123032e-017 -1.900000e+001  0.000000e+000
      vertex -1.489063e+001  4.414683e+000  0.000000e+000
      vertex -1.375188e+001  1.138538e+001  0.000000e+000
    endloop
  endfacet
  facet normal  0.000000e+000  0.000000e+000 -1.000000e+000
    outer loop
      vertex  6.123032e-017 -1.900000e+001  0.000000e+000
      vertex -1.375188e+001  1.138538e+001  0.000000e+000
      vertex -1.146474e+001  1.752232e+001  0.000000e+000
    endloop
  endfacet
  facet normal  0.000000e+000  0.000000e+000 -1.000000e+000
    outer loop
      vertex  6.123032e-017 -1.900000e+001  0.000000e+000
      vertex -1.146474e+001  1.752232e+001  0.000000e+000
      vertex -1.836910e-016  1.900000e+001  0.000000e+000
    endloop
  endfacet
  facet normal  0.000000e+000  0.000000e+000 -9.999999e-001
    outer loop
      vertex  6.123032e-017 -1.900000e+001  0.000000e+000
      vertex -1.836910e-016  1.900000e+001  0.000000e+000
      vertex  1.122766e+001  1.797933e+001  0.000000e+000
    endloop
  endfacet
  facet normal  0.000000e+000  -0.000000e+000 -1.000000e+000
    outer loop
      vertex  6.123032e-017 -1.900000e+001  0.000000e+000
      vertex  1.122766e+001  1.797933e+001  0.000000e+000
      vertex  1.355176e+001  1.211858e+001  0.000000e+000
    endloop
  endfacet
  facet normal  0.000000e+000  -0.000000e+000 -1.000000e+000
    outer loop
      vertex  6.123032e-017 -1.900000e+001  0.000000e+000
      vertex  1.355176e+001  1.211858e+001  0.000000e+000
      vertex  1.480575e+001  5.411548e+000  0.000000e+000
    endloop
  endfacet
  facet normal  0.000000e+000  -0.000000e+000 -1.000000e+000
    outer loop
      vertex  6.123032e-017 -1.900000e+001  0.000000e+000
      vertex  1.480575e+001  5.411548e+000  0.000000e+000
      vertex  1.489063e+001 -1.612151e+000  0.000000e+000
    endloop
  endfacet
  facet normal  0.000000e+000  0.000000e+000 -1.000000e+000
    outer loop
      vertex  6.123032e-017 -1.900000e+001  0.000000e+000
      vertex  1.489063e+001 -1.612151e+000  0.000000e+000
      vertex  1.375188e+001 -8.582849e+000  0.000000e+000
    endloop
  endfacet
  facet normal  0.000000e+000  0.000000e+000 -1.000000e+000
    outer loop
      vertex  6.123032e-017 -1.900000e+001  0.000000e+000
      vertex  1.375188e+001 -8.582849e+000  0.000000e+000
      vertex  1.146474e+001 -1.471979e+001  0.000000e+000
    endloop
  endfacet
  facet normal  0.000000e+000  0.000000e+000 -1.000000e+000
    outer loop
      vertex  6.123032e-017 -1.900000e+001  0.000000e+000
      vertex  1.146474e+001 -1.471979e+001  0.000000e+000
      vertex  9.946840e+000 -1.731150e+001  0.000000e+000
    endloop
  endfacet
  facet normal  0.000000e+000  0.000000e+000 -1.000000e+000
    outer loop
      vertex  6.123032e-017 -1.900000e+001  0.000000e+000
      vertex  9.946840e+000 -1.731150e+001  0.000000e+000
      vertex  8.220187e+000 -1.951049e+001  0.000000e+000
    endloop
  endfacet
  facet normal  0.000000e+000  0.000000e+000 -1.000000e+000
    outer loop
      vertex  6.123032e-017 -1.900000e+001  0.000000e+000
      vertex  8.220187e+000 -1.951049e+001  0.000000e+000
      vertex  7.071068e-001 -1.929289e+001  0.000000e+000
    endloop
  endfacet
  facet normal  0.000000e+000  -0.000000e+000 -1.000000e+000
    outer loop
      vertex -1.146474e+001  1.752232e+001  0.000000e+000
      vertex -9.946840e+000  2.011403e+001  0.000000e+000
      vertex -1.000000e+000  2.000000e+001  0.000000e+000
    endloop
  endfacet
  facet normal  0.000000e+000  -0.000000e+000 -1.000000e+000
    outer loop
      vertex -1.146474e+001  1.752232e+001  0.000000e+000
      vertex -1.000000e+000  2.000000e+001  0.000000e+000
      vertex -7.071068e-001  1.929289e+001  0.000000e+000
    endloop
  endfacet
  facet normal  0.000000e+000  -0.000000e+000 -1.000000e+000
    outer loop
      vertex -1.146474e+001  1.752232e+001  0.000000e+000
      vertex -7.071068e-001  1.929289e+001  0.000000e+000
      vertex -1.836910e-016  1.900000e+001  0.000000e+000
    endloop
  endfacet
  facet normal  0.000000e+000  0.000000e+000 -1.000000e+000
    outer loop
      vertex -5.506886e+000 -2.185302e+001  0.000000e+000
      vertex -8.016988e+000 -1.972849e+001  0.000000e+000
      vertex -1.000000e+000 -2.000000e+001  0.000000e+000
    endloop
  endfacet
  facet normal  0.000000e+000  -0.000000e+000 -1.000000e+000
    outer loop
      vertex -5.506886e+000 -2.185302e+001  0.000000e+000
      vertex -1.000000e+000 -2.000000e+001  0.000000e+000
      vertex -7.071068e-001 -2.070711e+001  0.000000e+000
    endloop
  endfacet
  facet normal  0.000000e+000  -0.000000e+000 -1.000000e+000
    outer loop
      vertex -5.506886e+000 -2.185302e+001  0.000000e+000
      vertex -7.071068e-001 -2.070711e+001  0.000000e+000
      vertex -1.836910e-016 -2.100000e+001  0.000000e+000
    endloop
  endfacet
  facet normal  0.000000e+000  -0.000000e+000 -9.999999e-001
    outer loop
      vertex -5.506886e+000 -2.185302e+001  0.000000e+000
      vertex -1.836910e-016 -2.100000e+001  0.000000e+000
      vertex  3.293560e-015 -2.359873e+001  0.000000e+000
    endloop
  endfacet
  facet normal  0.000000e+000  0.000000e+000 -1.000000e+000
    outer loop
      vertex -5.506886e+000 -2.185302e+001  0.000000e+000
      vertex  3.293560e-015 -2.359873e+001  0.000000e+000
      vertex -2.802807e+000 -2.315843e+001  0.000000e+000
    endloop
  endfacet
  facet normal  -0.000000e+000  0.000000e+000 -1.000000e+000
    outer loop
      vertex  6.123032e-017  2.100000e+001  0.000000e+000
      vertex -7.071068e-001  2.070711e+001  0.000000e+000
      vertex -9.946840e+000  2.011403e+001  0.000000e+000
    endloop
  endfacet
  facet normal  0.000000e+000  0.000000e+000 -1.000000e+000
    outer loop
      vertex  6.123032e-017  2.100000e+001  0.000000e+000
      vertex -9.946840e+000  2.011403e+001  0.000000e+000
      vertex -8.220187e+000  2.231302e+001  0.000000e+000
    endloop
  endfacet
  facet normal  0.000000e+000  0.000000e+000 -1.000000e+000
    outer loop
      vertex  6.123032e-017  2.100000e+001  0.000000e+000
      vertex -8.220187e+000  2.231302e+001  0.000000e+000
      vertex -5.656423e+000  2.455563e+001  0.000000e+000
    endloop
  endfacet
  facet normal  0.000000e+000  0.000000e+000 -1.000000e+000
    outer loop
      vertex  6.123032e-017  2.100000e+001  0.000000e+000
      vertex -5.656423e+000  2.455563e+001  0.000000e+000
      vertex -2.881901e+000  2.593552e+001  0.000000e+000
    endloop
  endfacet
  facet normal  0.000000e+000  0.000000e+000 -1.000000e+000
    outer loop
      vertex  6.123032e-017  2.100000e+001  0.000000e+000
      vertex -2.881901e+000  2.593552e+001  0.000000e+000
      vertex  1.530808e-015  2.640127e+001  0.000000e+000
    endloop
  endfacet
  facet normal  0.000000e+000  -0.000000e+000 -9.999999e-001
    outer loop
      vertex  6.123032e-017  2.100000e+001  0.000000e+000
      vertex  1.530808e-015  2.640127e+001  0.000000e+000
      vertex  2.802807e+000  2.596096e+001  0.000000e+000
    endloop
  endfacet
  facet normal  0.000000e+000  -0.000000e+000 -1.000000e+000
    outer loop
      vertex  6.123032e-017  2.100000e+001  0.000000e+000
      vertex  2.802807e+000  2.596096e+001  0.000000e+000
      vertex  5.506886e+000  2.465555e+001  0.000000e+000
    endloop
  endfacet
  facet normal  0.000000e+000  -0.000000e+000 -1.000000e+000
    outer loop
      vertex  6.123032e-017  2.100000e+001  0.000000e+000
      vertex  5.506886e+000  2.465555e+001  0.000000e+000
      vertex  8.016988e+000  2.253102e+001  0.000000e+000
    endloop
  endfacet
  facet normal  0.000000e+000  -0.000000e+000 -1.000000e+000
    outer loop
      vertex  6.123032e-017  2.100000e+001  0.000000e+000
      vertex  8.016988e+000  2.253102e+001  0.000000e+000
      vertex  9.718731e+000  2.044407e+001  0.000000e+000
    endloop
  endfacet
  facet normal  0.000000e+000  0.000000e+000 -1.000000e+000
    outer loop
      vertex  6.123032e-017  2.100000e+001  0.000000e+000
      vertex  9.718731e+000  2.044407e+001  0.000000e+000
      vertex  7.071068e-001  2.070711e+001  0.000000e+000
    endloop
  endfacet
  facet normal  0.000000e+000  -0.000000e+000 -9.999999e-001
    outer loop
      vertex  7.071068e-001  1.929289e+001  0.000000e+000
      vertex  1.000000e+000  2.000000e+001  0.000000e+000
      vertex  1.122766e+001  1.797933e+001  0.000000e+000
    endloop
  endfacet
  facet normal  0.000000e+000  0.000000e+000 -1.000000e+000
    outer loop
      vertex  1.122766e+001  1.797933e+001  0.000000e+000
      vertex  1.000000e+000  2.000000e+001  0.000000e+000
      vertex  7.071068e-001  2.070711e+001  0.000000e+000
    endloop
  endfacet
  facet normal  0.000000e+000  0.000000e+000 -9.999999e-001
    outer loop
      vertex  1.122766e+001  1.797933e+001  0.000000e+000
      vertex  7.071068e-001  2.070711e+001  0.000000e+000
      vertex  9.718731e+000  2.044407e+001  0.000000e+000
    endloop
  endfacet
  facet normal  0.000000e+000  -0.000000e+000 -1.000000e+000
    outer loop
      vertex  7.071068e-001 -2.070711e+001  0.000000e+000
      vertex  1.000000e+000 -2.000000e+001  0.000000e+000
      vertex  5.656423e+000 -2.175310e+001  0.000000e+000
    endloop
  endfacet
  facet normal  0.000000e+000  0.000000e+000 -1.000000e+000
    outer loop
      vertex  5.656423e+000 -2.175310e+001  0.000000e+000
      vertex  1.000000e+000 -2.000000e+001  0.000000e+000
      vertex  7.071068e-001 -1.929289e+001  0.000000e+000
    endloop
  endfacet
  facet normal  0.000000e+000  0.000000e+000 -1.000000e+000
    outer loop
      vertex  5.656423e+000 -2.175310e+001  0.000000e+000
      vertex  7.071068e-001 -1.929289e+001  0.000000e+000
      vertex  8.220187e+000 -1.951049e+001  0.000000e+000
    endloop
  endfacet
  facet normal  0.000000e+000  0.000000e+000 -9.999999e-001
    outer loop
      vertex  7.071068e-001 -2.070711e+001  0.000000e+000
      vertex  5.656423e+000 -2.175310e+001  0.000000e+000
      vertex -1.836910e-016 -2.100000e+001  0.000000e+000
    endloop
  endfacet
  facet normal  0.000000e+000  0.000000e+000 -1.000000e+000
    outer loop
      vertex -1.836910e-016 -2.100000e+001  0.000000e+000
      vertex  5.656423e+000 -2.175310e+001  0.000000e+000
      vertex  2.881901e+000 -2.313299e+001  0.000000e+000
    endloop
  endfacet
  facet normal  -0.000000e+000  0.000000e+000 -1.000000e+000
    outer loop
      vertex -1.836910e-016 -2.100000e+001  0.000000e+000
      vertex  2.881901e+000 -2.313299e+001  0.000000e+000
      vertex  3.293560e-015 -2.359873e+001  0.000000e+000
    endloop
  endfacet
  facet normal -3.826826e-001  9.238799e-001  0.000000e+000
    outer loop
      vertex -1.836910e-016 -2.100000e+001  0.000000e+000
      vertex  7.071068e-001 -2.070711e+001  5.000000e+000
      vertex  7.071068e-001 -2.070711e+001  0.000000e+000
    endloop
  endfacet
  facet normal -9.238797e-001  3.826831e-001  0.000000e+000
    outer loop
      vertex  7.071068e-001 -2.070711e+001  0.000000e+000
      vertex  7.071068e-001 -2.070711e+001  5.000000e+000
      vertex  1.000000e+000 -2.000000e+001  5.000000e+000
    endloop
  endfacet
  facet normal -9.238797e-001  3.826831e-001  0.000000e+000
    outer loop
      vertex  7.071068e-001 -2.070711e+001  0.000000e+000
      vertex  1.000000e+000 -2.000000e+001  5.000000e+000
      vertex  1.000000e+000 -2.000000e+001  0.000000e+000
    endloop
  endfacet
  facet normal -3.826826e-001  9.238799e-001  0.000000e+000
    outer loop
      vertex  7.071068e-001 -2.070711e+001  5.000000e+000
      vertex -1.836910e-016 -2.100000e+001  0.000000e+000
      vertex -1.836910e-016 -2.100000e+001  5.000000e+000
    endloop
  endfacet
  facet normal  3.826826e-001  9.238799e-001  0.000000e+000
    outer loop
      vertex -1.836910e-016 -2.100000e+001  5.000000e+000
      vertex -1.836910e-016 -2.100000e+001  0.000000e+000
      vertex -7.071068e-001 -2.070711e+001  0.000000e+000
    endloop
  endfacet
  facet normal  3.826826e-001  9.238799e-001  -0.000000e+000
    outer loop
      vertex -1.836910e-016 -2.100000e+001  5.000000e+000
      vertex -7.071068e-001 -2.070711e+001  0.000000e+000
      vertex -7.071068e-001 -2.070711e+001  5.000000e+000
    endloop
  endfacet
  facet normal  9.238797e-001  3.826831e-001  0.000000e+000
    outer loop
      vertex -7.071068e-001 -2.070711e+001  5.000000e+000
      vertex -7.071068e-001 -2.070711e+001  0.000000e+000
      vertex -1.000000e+000 -2.000000e+001  0.000000e+000
    endloop
  endfacet
  facet normal  9.238797e-001  3.826831e-001  -0.000000e+000
    outer loop
      vertex -7.071068e-001 -2.070711e+001  5.000000e+000
      vertex -1.000000e+000 -2.000000e+001  0.000000e+000
      vertex -1.000000e+000 -2.000000e+001  5.000000e+000
    endloop
  endfacet
  facet normal  3.826826e-001 -9.238799e-001  0.000000e+000
    outer loop
      vertex  6.123032e-017 -1.900000e+001  0.000000e+000
      vertex -7.071068e-001 -1.929289e+001  5.000000e+000
      vertex -7.071068e-001 -1.929289e+001  0.000000e+000
    endloop
  endfacet
  facet normal  9.238797e-001 -3.826831e-001  0.000000e+000
    outer loop
      vertex -7.071068e-001 -1.929289e+001  0.000000e+000
      vertex -7.071068e-001 -1.929289e+001  5.000000e+000
      vertex -1.000000e+000 -2.000000e+001  5.000000e+000
    endloop
  endfacet
  facet normal  9.238797e-001 -3.826831e-001  0.000000e+000
    outer loop
      vertex -7.071068e-001 -1.929289e+001  0.000000e+000
      vertex -1.000000e+000 -2.000000e+001  5.000000e+000
      vertex -1.000000e+000 -2.000000e+001  0.000000e+000
    endloop
  endfacet
  facet normal  3.826826e-001 -9.238799e-001  0.000000e+000
    outer loop
      vertex -7.071068e-001 -1.929289e+001  5.000000e+000
      vertex  6.123032e-017 -1.900000e+001  0.000000e+000
      vertex  6.123032e-017 -1.900000e+001  5.000000e+000
    endloop
  endfacet
  facet normal -3.826826e-001 -9.238799e-001  -0.000000e+000
    outer loop
      vertex  6.123032e-017 -1.900000e+001  5.000000e+000
      vertex  6.123032e-017 -1.900000e+001  0.000000e+000
      vertex  7.071068e-001 -1.929289e+001  0.000000e+000
    endloop
  endfacet
  facet normal -3.826826e-001 -9.238799e-001  0.000000e+000
    outer loop
      vertex  6.123032e-017 -1.900000e+001  5.000000e+000
      vertex  7.071068e-001 -1.929289e+001  0.000000e+000
      vertex  7.071068e-001 -1.929289e+001  5.000000e+000
    endloop
  endfacet
  facet normal -9.238797e-001 -3.826831e-001  -0.000000e+000
    outer loop
      vertex  7.071068e-001 -1.929289e+001  5.000000e+000
      vertex  7.071068e-001 -1.929289e+001  0.000000e+000
      vertex  1.000000e+000 -2.000000e+001  0.000000e+000
    endloop
  endfacet
  facet normal -9.238797e-001 -3.826831e-001  0.000000e+000
    outer loop
      vertex  7.071068e-001 -1.929289e+001  5.000000e+000
      vertex  1.000000e+000 -2.000000e+001  0.000000e+000
      vertex  1.000000e+000 -2.000000e+001  5.000000e+000
    endloop
  endfacet
  facet normal -3.826826e-001  9.238799e-001  0.000000e+000
    outer loop
      vertex -1.836910e-016  1.900000e+001  0.000000e+000
      vertex  7.071068e-001  1.929289e+001  5.000000e+000
      vertex  7.071068e-001  1.929289e+001  0.000000e+000
    endloop
  endfacet
  facet normal -9.238797e-001  3.826831e-001  0.000000e+000
    outer loop
      vertex  7.071068e-001  1.929289e+001  0.000000e+000
      vertex  7.071068e-001  1.929289e+001  5.000000e+000
      vertex  1.000000e+000  2.000000e+001  5.000000e+000
    endloop
  endfacet
  facet normal -9.238797e-001  3.826831e-001  0.000000e+000
    outer loop
      vertex  7.071068e-001  1.929289e+001  0.000000e+000
      vertex  1.000000e+000  2.000000e+001  5.000000e+000
      vertex  1.000000e+000  2.000000e+001  0.000000e+000
    endloop
  endfacet
  facet normal -3.826826e-001  9.238799e-001  0.000000e+000
    outer loop
      vertex  7.071068e-001  1.929289e+001  5.000000e+000
      vertex -1.836910e-016  1.900000e+001  0.000000e+000
      vertex -1.836910e-016  1.900000e+001  5.000000e+000
    endloop
  endfacet
  facet normal  3.826826e-001  9.238799e-001  0.000000e+000
    outer loop
      vertex -1.836910e-016  1.900000e+001  5.000000e+000
      vertex -1.836910e-016  1.900000e+001  0.000000e+000
      vertex -7.071068e-001  1.929289e+001  0.000000e+000
    endloop
  endfacet
  facet normal  3.826826e-001  9.238799e-001  -0.000000e+000
    outer loop
      vertex -1.836910e-016  1.900000e+001  5.000000e+000
      vertex -7.071068e-001  1.929289e+001  0.000000e+000
      vertex -7.071068e-001  1.929289e+001  5.000000e+000
    endloop
  endfacet
  facet normal  9.238797e-001  3.826831e-001  0.000000e+000
    outer loop
      vertex -7.071068e-001  1.929289e+001  5.000000e+000
      vertex -7.071068e-001  1.929289e+001  0.000000e+000
      vertex -1.000000e+000  2.000000e+001  0.000000e+000
    endloop
  endfacet
  facet normal  9.238797e-001  3.826831e-001  -0.000000e+000
    outer loop
      vertex -7.071068e-001  1.929289e+001  5.000000e+000
      vertex -1.000000e+000  2.000000e+001  0.000000e+000
      vertex -1.000000e+000  2.000000e+001  5.000000e+000
    endloop
  endfacet
  facet normal  3.826826e-001 -9.238799e-001  0.000000e+000
    outer loop
      vertex  6.123032e-017  2.100000e+001  0.000000e+000
      vertex -7.071068e-001  2.070711e+001  5.000000e+000
      vertex -7.071068e-001  2.070711e+001  0.000000e+000
    endloop
  endfacet
  facet normal  9.238797e-001 -3.826831e-001  0.000000e+000
    outer loop
      vertex -7.071068e-001  2.070711e+001  0.000000e+000
      vertex -7.071068e-001  2.070711e+001  5.000000e+000
      vertex -1.000000e+000  2.000000e+001  5.000000e+000
    endloop
  endfacet
  facet normal  9.238797e-001 -3.826831e-001  0.000000e+000
    outer loop
      vertex -7.071068e-001  2.070711e+001  0.000000e+000
      vertex -1.000000e+000  2.000000e+001  5.000000e+000
      vertex -1.000000e+000  2.000000e+001  0.000000e+000
    endloop
  endfacet
  facet normal  3.826826e-001 -9.238799e-001  0.000000e+000
    outer loop
      vertex -7.071068e-001  2.070711e+001  5.000000e+000
      vertex  6.123032e-017  2.100000e+001  0.000000e+000
      vertex  6.123032e-017  2.100000e+001  5.000000e+000
    endloop
  endfacet
  facet normal -3.826826e-001 -9.238799e-001  -0.000000e+000
    outer loop
      vertex  6.123032e-017  2.100000e+001  5.000000e+000
      vertex  6.123032e-017  2.100000e+001  0.000000e+000
      vertex  7.071068e-001  2.070711e+001  0.000000e+000
    endloop
  endfacet
  facet normal -3.826826e-001 -9.238799e-001  0.000000e+000
    outer loop
      vertex  6.123032e-017  2.100000e+001  5.000000e+000
      vertex  7.071068e-001  2.070711e+001  0.000000e+000
      vertex  7.071068e-001  2.070711e+001  5.000000e+000
    endloop
  endfacet
  facet normal -9.238797e-001 -3.826831e-001  -0.000000e+000
    outer loop
      vertex  7.071068e-001  2.070711e+001  5.000000e+000
      vertex  7.071068e-001  2.070711e+001  0.000000e+000
      vertex  1.000000e+000  2.000000e+001  0.000000e+000
    endloop
  endfacet
  facet normal -9.238797e-001 -3.826831e-001  0.000000e+000
    outer loop
      vertex  7.071068e-001  2.070711e+001  5.000000e+000
      vertex  1.000000e+000  2.000000e+001  0.000000e+000
      vertex  1.000000e+000  2.000000e+001  5.000000e+000
    endloop
  endfacet
  facet normal  0.000000e+000  0.000000e+000  1.000000e+000
    outer loop
      vertex  1.557647e+000 -6.824495e+000  3.000000e+001
      vertex  4.364429e+000 -5.472820e+000  3.000000e+001
      vertex -1.557647e+000 -6.824495e+000  3.000000e+001
    endloop
  endfacet
  facet normal  0.000000e+000  0.000000e+000  1.000000e+000
    outer loop
      vertex -1.557647e+000 -6.824495e+000  3.000000e+001
      vertex  4.364429e+000 -5.472820e+000  3.000000e+001
      vertex  1.236068e+000 -3.804226e+000  3.000000e+001
    endloop
  endfacet
  facet normal  0.000000e+000  0.000000e+000  1.000000e+000
    outer loop
      vertex -1.557647e+000 -6.824495e+000  3.000000e+001
      vertex  1.236068e+000 -3.804226e+000  3.000000e+001
      vertex -4.364429e+000 -5.472820e+000  3.000000e+001
    endloop
  endfacet
  facet normal  0.000000e+000  0.000000e+000  1.000000e+000
    outer loop
      vertex -4.364429e+000 -5.472820e+000  3.000000e+001
      vertex  1.236068e+000 -3.804226e+000  3.000000e+001
      vertex -1.236068e+000 -3.804226e+000  3.000000e+001
    endloop
  endfacet
  facet normal  0.000000e+000  0.000000e+000  1.000000e+000
    outer loop
      vertex -4.364429e+000 -5.472820e+000  3.000000e+001
      vertex -1.236068e+000 -3.804226e+000  3.000000e+001
      vertex -6.306782e+000 -3.037186e+000  3.000000e+001
    endloop
  endfacet
  facet normal  -0.000000e+000  0.000000e+000  1.000000e+000
    outer loop
      vertex -6.306782e+000 -3.037186e+000  3.000000e+001
      vertex -1.236068e+000 -3.804226e+000  3.000000e+001
      vertex -3.236068e+000 -2.351141e+000  3.000000e+001
    endloop
  endfacet
  facet normal  0.000000e+000  0.000000e+000  1.000000e+000
    outer loop
      vertex -6.306782e+000 -3.037186e+000  3.000000e+001
      vertex -3.236068e+000 -2.351141e+000  3.000000e+001
      vertex -7.000000e+000  8.572244e-016  3.000000e+001
    endloop
  endfacet
  facet normal  0.000000e+000  0.000000e+000  9.999999e-001
    outer loop
      vertex -7.000000e+000  8.572244e-016  3.000000e+001
      vertex -3.236068e+000 -2.351141e+000  3.000000e+001
      vertex -4.000000e+000  4.898425e-016  3.000000e+001
    endloop
  endfacet
  facet normal  0.000000e+000  0.000000e+000  1.000000e+000
    outer loop
      vertex -7.000000e+000  8.572244e-016  3.000000e+001
      vertex -4.000000e+000  4.898425e-016  3.000000e+001
      vertex -6.306782e+000  3.037186e+000  3.000000e+001
    endloop
  endfacet
  facet normal  0.000000e+000  0.000000e+000  9.999999e-001
    outer loop
      vertex -6.306782e+000  3.037186e+000  3.000000e+001
      vertex -4.000000e+000  4.898425e-016  3.000000e+001
      vertex -3.236068e+000  2.351141e+000  3.000000e+001
    endloop
  endfacet
  facet normal  0.000000e+000  0.000000e+000  1.000000e+000
    outer loop
      vertex -6.306782e+000  3.037186e+000  3.000000e+001
      vertex -3.236068e+000  2.351141e+000  3.000000e+001
      vertex -4.364429e+000  5.472820e+000  3.000000e+001
    endloop
  endfacet
  facet normal  0.000000e+000  0.000000e+000  1.000000e+000
    outer loop
      vertex -4.364429e+000  5.472820e+000  3.000000e+001
      vertex -3.236068e+000  2.351141e+000  3.000000e+001
      vertex -1.236068e+000  3.804226e+000  3.000000e+001
    endloop
  endfacet
  facet normal  0.000000e+000  0.000000e+000  1.000000e+000
    outer loop
      vertex -4.364429e+000  5.472820e+000  3.000000e+001
      vertex -1.236068e+000  3.804226e+000  3.000000e+001
      vertex -1.557647e+000  6.824495e+000  3.000000e+001
    endloop
  endfacet
  facet normal  0.000000e+000  0.000000e+000  1.000000e+000
    outer loop
      vertex -1.557647e+000  6.824495e+000  3.000000e+001
      vertex -1.236068e+000  3.804226e+000  3.000000e+001
      vertex  1.236068e+000  3.804226e+000  3.000000e+001
    endloop
  endfacet
  facet normal  0.000000e+000  -0.000000e+000  1.000000e+000
    outer loop
      vertex -1.557647e+000  6.824495e+000  3.000000e+001
      vertex  1.236068e+000  3.804226e+000  3.000000e+001
      vertex  1.557647e+000  6.824495e+000  3.000000e+001
    endloop
  endfacet
  facet normal  0.000000e+000  0.000000e+000  1.000000e+000
    outer loop
      vertex  1.557647e+000  6.824495e+000  3.000000e+001
      vertex  1.236068e+000  3.804226e+000  3.000000e+001
      vertex  4.364429e+000  5.472820e+000  3.000000e+001
    endloop
  endfacet
  facet normal  -0.000000e+000  0.000000e+000  1.000000e+000
    outer loop
      vertex  4.364429e+000  5.472820e+000  3.000000e+001
      vertex  1.236068e+000  3.804226e+000  3.000000e+001
      vertex  6.306782e+000  3.037186e+000  3.000000e+001
    endloop
  endfacet
  facet normal  0.000000e+000  0.000000e+000  1.000000e+000
    outer loop
      vertex  6.306782e+000  3.037186e+000  3.000000e+001
      vertex  1.236068e+000  3.804226e+000  3.000000e+001
      vertex  3.236068e+000  2.351141e+000  3.000000e+001
    endloop
  endfacet
  facet normal  -0.000000e+000  0.000000e+000  1.000000e+000
    outer loop
      vertex  6.306782e+000  3.037186e+000  3.000000e+001
      vertex  3.236068e+000  2.351141e+000  3.000000e+001
      vertex  7.000000e+000  0.000000e+000  3.000000e+001
    endloop
  endfacet
  facet normal  0.000000e+000  0.000000e+000  9.999999e-001
    outer loop
      vertex  7.000000e+000  0.000000e+000  3.000000e+001
      vertex  3.236068e+000  2.351141e+000  3.000000e+001
      vertex  4.000000e+000  0.000000e+000  3.000000e+001
    endloop
  endfacet
  facet normal  -0.000000e+000  0.000000e+000  1.000000e+000
    outer loop
      vertex  7.000000e+000  0.000000e+000  3.000000e+001
      vertex  4.000000e+000  0.000000e+000  3.000000e+001
      vertex  6.306782e+000 -3.037186e+000  3.000000e+001
    endloop
  endfacet
  facet normal  0.000000e+000  0.000000e+000  9.999999e-001
    outer loop
      vertex  6.306782e+000 -3.037186e+000  3.000000e+001
      vertex  4.000000e+000  0.000000e+000  3.000000e+001
      vertex  3.236068e+000 -2.351141e+000  3.000000e+001
    endloop
  endfacet
  facet normal  0.000000e+000  0.000000e+000  1.000000e+000
    outer loop
      vertex  6.306782e+000 -3.037186e+000  3.000000e+001
      vertex  3.236068e+000 -2.351141e+000  3.000000e+001
      vertex  4.364429e+000 -5.472820e+000  3.000000e+001
    endloop
  endfacet
  facet normal  0.000000e+000  0.000000e+000  1.000000e+000
    outer loop
      vertex  4.364429e+000 -5.472820e+000  3.000000e+001
      vertex  3.236068e+000 -2.351141e+000  3.000000e+001
      vertex  1.236068e+000 -3.804226e+000  3.000000e+001
    endloop
  endfacet
  facet normal -5.877853e-001  8.090169e-001  0.000000e+000
    outer loop
      vertex  1.236068e+000 -3.804226e+000  2.000000e+000
      vertex  3.236068e+000 -2.351141e+000  3.000000e+001
      vertex  3.236068e+000 -2.351141e+000  2.000000e+000
    endloop
  endfacet
  facet normal -9.510565e-001  3.090170e-001  0.000000e+000
    outer loop
      vertex  3.236068e+000 -2.351141e+000  2.000000e+000
      vertex  3.236068e+000 -2.351141e+000  3.000000e+001
      vertex  4.000000e+000  0.000000e+000  3.000000e+001
    endloop
  endfacet
  facet normal -9.510565e-001  3.090170e-001  0.000000e+000
    outer loop
      vertex  3.236068e+000 -2.351141e+000  2.000000e+000
      vertex  4.000000e+000  0.000000e+000  3.000000e+001
      vertex  4.000000e+000  0.000000e+000  2.000000e+000
    endloop
  endfacet
  facet normal -5.877853e-001  8.090169e-001  0.000000e+000
    outer loop
      vertex  3.236068e+000 -2.351141e+000  3.000000e+001
      vertex  1.236068e+000 -3.804226e+000  2.000000e+000
      vertex  1.236068e+000 -3.804226e+000  3.000000e+001
    endloop
  endfacet
  facet normal  0.000000e+000  1.000000e+000  0.000000e+000
    outer loop
      vertex  1.236068e+000 -3.804226e+000  3.000000e+001
      vertex  1.236068e+000 -3.804226e+000  2.000000e+000
      vertex -1.236068e+000 -3.804226e+000  2.000000e+000
    endloop
  endfacet
  facet normal  0.000000e+000  1.000000e+000  0.000000e+000
    outer loop
      vertex  1.236068e+000 -3.804226e+000  3.000000e+001
      vertex -1.236068e+000 -3.804226e+000  2.000000e+000
      vertex -1.236068e+000 -3.804226e+000  3.000000e+001
    endloop
  endfacet
  facet normal  5.877853e-001  8.090169e-001  0.000000e+000
    outer loop
      vertex -1.236068e+000 -3.804226e+000  3.000000e+001
      vertex -1.236068e+000 -3.804226e+000  2.000000e+000
      vertex -3.236068e+000 -2.351141e+000  2.000000e+000
    endloop
  endfacet
  facet normal  5.877853e-001  8.090169e-001  -0.000000e+000
    outer loop
      vertex -1.236068e+000 -3.804226e+000  3.000000e+001
      vertex -3.236068e+000 -2.351141e+000  2.000000e+000
      vertex -3.236068e+000 -2.351141e+000  3.000000e+001
    endloop
  endfacet
  facet normal  9.510565e-001  3.090170e-001  0.000000e+000
    outer loop
      vertex -3.236068e+000 -2.351141e+000  3.000000e+001
      vertex -3.236068e+000 -2.351141e+000  2.000000e+000
      vertex -4.000000e+000  4.898425e-016  2.000000e+000
    endloop
  endfacet
  facet normal  9.510565e-001  3.090170e-001  -0.000000e+000
    outer loop
      vertex -3.236068e+000 -2.351141e+000  3.000000e+001
      vertex -4.000000e+000  4.898425e-016  2.000000e+000
      vertex -4.000000e+000  4.898425e-016  3.000000e+001
    endloop
  endfacet
  facet normal  5.877853e-001 -8.090169e-001  0.000000e+000
    outer loop
      vertex -1.236068e+000  3.804226e+000  2.000000e+000
      vertex -3.236068e+000  2.351141e+000  3.000000e+001
      vertex -3.236068e+000  2.351141e+000  2.000000e+000
    endloop
  endfacet
  facet normal  9.510565e-001 -3.090170e-001  0.000000e+000
    outer loop
      vertex -3.236068e+000  2.351141e+000  2.000000e+000
      vertex -3.236068e+000  2.351141e+000  3.000000e+001
      vertex -4.000000e+000  4.898425e-016  3.000000e+001
    endloop
  endfacet
  facet normal  9.510565e-001 -3.090170e-001  0.000000e+000
    outer loop
      vertex -3.236068e+000  2.351141e+000  2.000000e+000
      vertex -4.000000e+000  4.898425e-016  3.000000e+001
      vertex -4.000000e+000  4.898425e-016  2.000000e+000
    endloop
  endfacet
  facet normal  5.877853e-001 -8.090169e-001  0.000000e+000
    outer loop
      vertex -3.236068e+000  2.351141e+000  3.000000e+001
      vertex -1.236068e+000  3.804226e+000  2.000000e+000
      vertex -1.236068e+000  3.804226e+000  3.000000e+001
    endloop
  endfacet
  facet normal  0.000000e+000 -1.000000e+000  0.000000e+000
    outer loop
      vertex -1.236068e+000  3.804226e+000  3.000000e+001
      vertex -1.236068e+000  3.804226e+000  2.000000e+000
      vertex  1.236068e+000  3.804226e+000  2.000000e+000
    endloop
  endfacet
  facet normal  0.000000e+000 -1.000000e+000  0.000000e+000
    outer loop
      vertex -1.236068e+000  3.804226e+000  3.000000e+001
      vertex  1.236068e+000  3.804226e+000  2.000000e+000
      vertex  1.236068e+000  3.804226e+000  3.000000e+001
    endloop
  endfacet
  facet normal -5.877853e-001 -8.090169e-001  -0.000000e+000
    outer loop
      vertex  1.236068e+000  3.804226e+000  3.000000e+001
      vertex  1.236068e+000  3.804226e+000  2.000000e+000
      vertex  3.236068e+000  2.351141e+000  2.000000e+000
    endloop
  endfacet
  facet normal -5.877853e-001 -8.090169e-001  0.000000e+000
    outer loop
      vertex  1.236068e+000  3.804226e+000  3.000000e+001
      vertex  3.236068e+000  2.351141e+000  2.000000e+000
      vertex  3.236068e+000  2.351141e+000  3.000000e+001
    endloop
  endfacet
  facet normal -9.510565e-001 -3.090170e-001  -0.000000e+000
    outer loop
      vertex  3.236068e+000  2.351141e+000  3.000000e+001
      vertex  3.236068e+000  2.351141e+000  2.000000e+000
      vertex  4.000000e+000  0.000000e+000  2.000000e+000
    endloop
  endfacet
  facet normal -9.510565e-001 -3.090170e-001  0.000000e+000
    outer loop
      vertex  3.236068e+000  2.351141e+000  3.000000e+001
      vertex  4.000000e+000  0.000000e+000  2.000000e+000
      vertex  4.000000e+000  0.000000e+000  3.000000e+001
    endloop
  endfacet
  facet normal  -0.000000e+000  0.000000e+000  9.999999e-001
    outer loop
      vertex  1.236068e+000  3.804226e+000  2.000000e+000
      vertex -1.236068e+000  3.804226e+000  2.000000e+000
      vertex  3.236068e+000  2.351141e+000  2.000000e+000
    endloop
  endfacet
  facet normal  0.000000e+000  0.000000e+000  1.000000e+000
    outer loop
      vertex  3.236068e+000  2.351141e+000  2.000000e+000
      vertex -1.236068e+000  3.804226e+000  2.000000e+000
      vertex -3.236068e+000  2.351141e+000  2.000000e+000
    endloop
  endfacet
  facet normal  -0.000000e+000  0.000000e+000  1.000000e+000
    outer loop
      vertex  3.236068e+000  2.351141e+000  2.000000e+000
      vertex -3.236068e+000  2.351141e+000  2.000000e+000
      vertex  4.000000e+000  0.000000e+000  2.000000e+000
    endloop
  endfacet
  facet normal  0.000000e+000  0.000000e+000  1.000000e+000
    outer loop
      vertex  4.000000e+000  0.000000e+000  2.000000e+000
      vertex -3.236068e+000  2.351141e+000  2.000000e+000
      vertex -4.000000e+000  4.898425e-016  2.000000e+000
    endloop
  endfacet
  facet normal  0.000000e+000  0.000000e+000  1.000000e+000
    outer loop
      vertex  4.000000e+000  0.000000e+000  2.000000e+000
      vertex -4.000000e+000  4.898425e-016  2.000000e+000
      vertex  3.236068e+000 -2.351141e+000  2.000000e+000
    endloop
  endfacet
  facet normal  0.000000e+000  0.000000e+000  1.000000e+000
    outer loop
      vertex  3.236068e+000 -2.351141e+000  2.000000e+000
      vertex -4.000000e+000  4.898425e-016  2.000000e+000
      vertex -3.236068e+000 -2.351141e+000  2.000000e+000
    endloop
  endfacet
  facet normal  -0.000000e+000  0.000000e+000  1.000000e+000
    outer loop
      vertex  3.236068e+000 -2.351141e+000  2.000000e+000
      vertex -3.236068e+000 -2.351141e+000  2.000000e+000
      vertex  1.236068e+000 -3.804226e+000  2.000000e+000
    endloop
  endfacet
  facet normal  0.000000e+000  0.000000e+000  9.999999e-001
    outer loop
      vertex  1.236068e+000 -3.804226e+000  2.000000e+000
      vertex -3.236068e+000 -2.351141e+000  2.000000e+000
      vertex -1.236068e+000 -3.804226e+000  2.000000e+000
    endloop
  endfacet
  facet normal  9.749279e-001 -2.225209e-001  0.000000e+000
    outer loop
      vertex  7.000000e+000  0.000000e+000  5.000000e+000
      vertex  7.000000e+000  0.000000e+000  3.000000e+001
      vertex  6.306782e+000 -3.037186e+000  5.000000e+000
    endloop
  endfacet
  facet normal  9.749279e-001 -2.225209e-001  0.000000e+000
    outer loop
      vertex  6.306782e+000 -3.037186e+000  5.000000e+000
      vertex  7.000000e+000  0.000000e+000  3.000000e+001
      vertex  6.306782e+000 -3.037186e+000  3.000000e+001
    endloop
  endfacet
  facet normal  7.818314e-001 -6.234899e-001  0.000000e+000
    outer loop
      vertex  6.306782e+000 -3.037186e+000  5.000000e+000
      vertex  6.306782e+000 -3.037186e+000  3.000000e+001
      vertex  4.364429e+000 -5.472820e+000  5.000000e+000
    endloop
  endfacet
  facet normal  7.818314e-001 -6.234899e-001  0.000000e+000
    outer loop
      vertex  4.364429e+000 -5.472820e+000  5.000000e+000
      vertex  6.306782e+000 -3.037186e+000  3.000000e+001
      vertex  4.364429e+000 -5.472820e+000  3.000000e+001
    endloop
  endfacet
  facet normal  4.338838e-001 -9.009688e-001  0.000000e+000
    outer loop
      vertex  4.364429e+000 -5.472820e+000  5.000000e+000
      vertex  4.364429e+000 -5.472820e+000  3.000000e+001
      vertex  1.557647e+000 -6.824495e+000  5.000000e+000
    endloop
  endfacet
  facet normal  4.338838e-001 -9.009688e-001  0.000000e+000
    outer loop
      vertex  1.557647e+000 -6.824495e+000  5.000000e+000
      vertex  4.364429e+000 -5.472820e+000  3.000000e+001
      vertex  1.557647e+000 -6.824495e+000  3.000000e+001
    endloop
  endfacet
  facet normal  0.000000e+000 -1.000000e+000  -0.000000e+000
    outer loop
      vertex  1.557647e+000 -6.824495e+000  5.000000e+000
      vertex  1.557647e+000 -6.824495e+000  3.000000e+001
      vertex -1.557647e+000 -6.824495e+000  5.000000e+000
    endloop
  endfacet
  facet normal  0.000000e+000 -1.000000e+000  0.000000e+000
    outer loop
      vertex -1.557647e+000 -6.824495e+000  5.000000e+000
      vertex  1.557647e+000 -6.824495e+000  3.000000e+001
      vertex -1.557647e+000 -6.824495e+000  3.000000e+001
    endloop
  endfacet
  facet normal -4.338838e-001 -9.009688e-001  -0.000000e+000
    outer loop
      vertex -1.557647e+000 -6.824495e+000  5.000000e+000
      vertex -1.557647e+000 -6.824495e+000  3.000000e+001
      vertex -4.364429e+000 -5.472820e+000  5.000000e+000
    endloop
  endfacet
  facet normal -4.338838e-001 -9.009688e-001  0.000000e+000
    outer loop
      vertex -4.364429e+000 -5.472820e+000  5.000000e+000
      vertex -1.557647e+000 -6.824495e+000  3.000000e+001
      vertex -4.364429e+000 -5.472820e+000  3.000000e+001
    endloop
  endfacet
  facet normal -7.818314e-001 -6.234899e-001  -0.000000e+000
    outer loop
      vertex -4.364429e+000 -5.472820e+000  5.000000e+000
      vertex -4.364429e+000 -5.472820e+000  3.000000e+001
      vertex -6.306782e+000 -3.037186e+000  5.000000e+000
    endloop
  endfacet
  facet normal -7.818314e-001 -6.234899e-001  0.000000e+000
    outer loop
      vertex -6.306782e+000 -3.037186e+000  5.000000e+000
      vertex -4.364429e+000 -5.472820e+000  3.000000e+001
      vertex -6.306782e+000 -3.037186e+000  3.000000e+001
    endloop
  endfacet
  facet normal -9.749279e-001 -2.225209e-001  -0.000000e+000
    outer loop
      vertex -6.306782e+000 -3.037186e+000  5.000000e+000
      vertex -6.306782e+000 -3.037186e+000  3.000000e+001
      vertex -7.000000e+000  8.572244e-016  5.000000e+000
    endloop
  endfacet
  facet normal -9.749279e-001 -2.225209e-001  0.000000e+000
    outer loop
      vertex -7.000000e+000  8.572244e-016  5.000000e+000
      vertex -6.306782e+000 -3.037186e+000  3.000000e+001
      vertex -7.000000e+000  8.572244e-016  3.000000e+001
    endloop
  endfacet
  facet normal -9.749279e-001  2.225209e-001  0.000000e+000
    outer loop
      vertex -7.000000e+000  8.572244e-016  5.000000e+000
      vertex -7.000000e+000  8.572244e-016  3.000000e+001
      vertex -6.306782e+000  3.037186e+000  5.000000e+000
    endloop
  endfacet
  facet normal -9.749279e-001  2.225209e-001  0.000000e+000
    outer loop
      vertex -6.306782e+000  3.037186e+000  5.000000e+000
      vertex -7.000000e+000  8.572244e-016  3.000000e+001
      vertex -6.306782e+000  3.037186e+000  3.000000e+001
    endloop
  endfacet
  facet normal -7.818314e-001  6.234899e-001  0.000000e+000
    outer loop
      vertex -6.306782e+000  3.037186e+000  5.000000e+000
      vertex -6.306782e+000  3.037186e+000  3.000000e+001
      vertex -4.364429e+000  5.472820e+000  5.000000e+000
    endloop
  endfacet
  facet normal -7.818314e-001  6.234899e-001  0.000000e+000
    outer loop
      vertex -4.364429e+000  5.472820e+000  5.000000e+000
      vertex -6.306782e+000  3.037186e+000  3.000000e+001
      vertex -4.364429e+000  5.472820e+000  3.000000e+001
    endloop
  endfacet
  facet normal -4.338838e-001  9.009688e-001  0.000000e+000
    outer loop
      vertex -4.364429e+000  5.472820e+000  5.000000e+000
      vertex -4.364429e+000  5.472820e+000  3.000000e+001
      vertex -1.557647e+000  6.824495e+000  5.000000e+000
    endloop
  endfacet
  facet normal -4.338838e-001  9.009688e-001  0.000000e+000
    outer loop
      vertex -1.557647e+000  6.824495e+000  5.000000e+000
      vertex -4.364429e+000  5.472820e+000  3.000000e+001
      vertex -1.557647e+000  6.824495e+000  3.000000e+001
    endloop
  endfacet
  facet normal  0.000000e+000  1.000000e+000  0.000000e+000
    outer loop
      vertex -1.557647e+000  6.824495e+000  5.000000e+000
      vertex -1.557647e+000  6.824495e+000  3.000000e+001
      vertex  1.557647e+000  6.824495e+000  5.000000e+000
    endloop
  endfacet
  facet normal  0.000000e+000  1.000000e+000  -0.000000e+000
    outer loop
      vertex  1.557647e+000  6.824495e+000  5.000000e+000
      vertex -1.557647e+000  6.824495e+000  3.000000e+001
      vertex  1.557647e+000  6.824495e+000  3.000000e+001
    endloop
  endfacet
  facet normal  4.338838e-001  9.009688e-001  0.000000e+000
    outer loop
      vertex  1.557647e+000  6.824495e+000  5.000000e+000
      vertex  1.557647e+000  6.824495e+000  3.000000e+001
      vertex  4.364429e+000  5.472820e+000  5.000000e+000
    endloop
  endfacet
  facet normal  4.338838e-001  9.009688e-001  -0.000000e+000
    outer loop
      vertex  4.364429e+000  5.472820e+000  5.000000e+000
      vertex  1.557647e+000  6.824495e+000  3.000000e+001
      vertex  4.364429e+000  5.472820e+000  3.000000e+001
    endloop
  endfacet
  facet normal  7.818314e-001  6.234899e-001  0.000000e+000
    outer loop
      vertex  4.364429e+000  5.472820e+000  5.000000e+000
      vertex  4.364429e+000  5.472820e+000  3.000000e+001
      vertex  6.306782e+000  3.037186e+000  5.000000e+000
    endloop
  endfacet
  facet normal  7.818314e-001  6.234899e-001  -0.000000e+000
    outer loop
      vertex  6.306782e+000  3.037186e+000  5.000000e+000
      vertex  4.364429e+000  5.472820e+000  3.000000e+001
      vertex  6.306782e+000  3.037186e+000  3.000000e+001
    endloop
  endfacet
  facet normal  9.749279e-001  2.225209e-001  0.000000e+000
    outer loop
      vertex  6.306782e+000  3.037186e+000  5.000000e+000
      vertex  6.306782e+000  3.037186e+000  3.000000e+001
      vertex  7.000000e+000  0.000000e+000  5.000000e+000
    endloop
  endfacet
  facet normal  9.749279e-001  2.225209e-001  -0.000000e+000
    outer loop
      vertex  7.000000e+000  0.000000e+000  5.000000e+000
      vertex  6.306782e+000  3.037186e+000  3.000000e+001
      vertex  7.000000e+000  0.000000e+000  3.000000e+001
    endloop
  endfacet
  facet normal  1.551913e-001  9.878845e-001  0.000000e+000
    outer loop
      vertex  1.530808e-015  2.640127e+001  0.000000e+000
      vertex  1.530808e-015  2.640127e+001  5.000000e+000
      vertex  2.802807e+000  2.596096e+001  0.000000e+000
    endloop
  endfacet
  facet normal  1.551913e-001  9.878845e-001  -0.000000e+000
    outer loop
      vertex  2.802807e+000  2.596096e+001  0.000000e+000
      vertex  1.530808e-015  2.640127e+001  5.000000e+000
      vertex  2.802807e+000  2.596096e+001  5.000000e+000
    endloop
  endfacet
  facet normal  4.347472e-001  9.005526e-001  0.000000e+000
    outer loop
      vertex  2.802807e+000  2.596096e+001  0.000000e+000
      vertex  2.802807e+000  2.596096e+001  5.000000e+000
      vertex  5.506886e+000  2.465555e+001  0.000000e+000
    endloop
  endfacet
  facet normal  4.347472e-001  9.005526e-001  -0.000000e+000
    outer loop
      vertex  5.506886e+000  2.465555e+001  0.000000e+000
      vertex  2.802807e+000  2.596096e+001  5.000000e+000
      vertex  5.506886e+000  2.465555e+001  5.000000e+000
    endloop
  endfacet
  facet normal  6.460482e-001  7.632966e-001  0.000000e+000
    outer loop
      vertex  5.506886e+000  2.465555e+001  0.000000e+000
      vertex  5.506886e+000  2.465555e+001  5.000000e+000
      vertex  8.016988e+000  2.253102e+001  0.000000e+000
    endloop
  endfacet
  facet normal  6.460482e-001  7.632966e-001  -0.000000e+000
    outer loop
      vertex  8.016988e+000  2.253102e+001  0.000000e+000
      vertex  5.506886e+000  2.465555e+001  5.000000e+000
      vertex  8.016988e+000  2.253102e+001  5.000000e+000
    endloop
  endfacet
  facet normal  7.750040e-001  6.319563e-001  0.000000e+000
    outer loop
      vertex  8.016988e+000  2.253102e+001  0.000000e+000
      vertex  8.016988e+000  2.253102e+001  5.000000e+000
      vertex  9.718731e+000  2.044407e+001  0.000000e+000
    endloop
  endfacet
  facet normal  7.750040e-001  6.319563e-001  -0.000000e+000
    outer loop
      vertex  9.718731e+000  2.044407e+001  0.000000e+000
      vertex  8.016988e+000  2.253102e+001  5.000000e+000
      vertex  9.718731e+000  2.044407e+001  5.000000e+000
    endloop
  endfacet
  facet normal  8.528661e-001  5.221297e-001  0.000000e+000
    outer loop
      vertex  9.718731e+000  2.044407e+001  0.000000e+000
      vertex  9.718731e+000  2.044407e+001  5.000000e+000
      vertex  1.122766e+001  1.797933e+001  0.000000e+000
    endloop
  endfacet
  facet normal  8.528661e-001  5.221297e-001  -0.000000e+000
    outer loop
      vertex  1.122766e+001  1.797933e+001  0.000000e+000
      vertex  9.718731e+000  2.044407e+001  5.000000e+000
      vertex  1.122766e+001  1.797933e+001  5.000000e+000
    endloop
  endfacet
  facet normal  9.295776e-001  3.686263e-001  0.000000e+000
    outer loop
      vertex  1.122766e+001  1.797933e+001  0.000000e+000
      vertex  1.122766e+001  1.797933e+001  5.000000e+000
      vertex  1.355176e+001  1.211858e+001  0.000000e+000
    endloop
  endfacet
  facet normal  9.295776e-001  3.686263e-001  -0.000000e+000
    outer loop
      vertex  1.355176e+001  1.211858e+001  0.000000e+000
      vertex  1.122766e+001  1.797933e+001  5.000000e+000
      vertex  1.355176e+001  1.211858e+001  5.000000e+000
    endloop
  endfacet
  facet normal  9.829668e-001  1.837828e-001  0.000000e+000
    outer loop
      vertex  1.355176e+001  1.211858e+001  0.000000e+000
      vertex  1.355176e+001  1.211858e+001  5.000000e+000
      vertex  1.480575e+001  5.411548e+000  0.000000e+000
    endloop
  endfacet
  facet normal  9.829668e-001  1.837828e-001  -0.000000e+000
    outer loop
      vertex  1.480575e+001  5.411548e+000  0.000000e+000
      vertex  1.355176e+001  1.211858e+001  5.000000e+000
      vertex  1.480575e+001  5.411548e+000  5.000000e+000
    endloop
  endfacet
  facet normal  9.999270e-001  1.208390e-002  0.000000e+000
    outer loop
      vertex  1.480575e+001  5.411548e+000  0.000000e+000
      vertex  1.480575e+001  5.411548e+000  5.000000e+000
      vertex  1.489063e+001 -1.612151e+000  0.000000e+000
    endloop
  endfacet
  facet normal  9.999270e-001  1.208390e-002  -0.000000e+000
    outer loop
      vertex  1.489063e+001 -1.612151e+000  0.000000e+000
      vertex  1.480575e+001  5.411548e+000  5.000000e+000
      vertex  1.489063e+001 -1.612151e+000  5.000000e+000
    endloop
  endfacet
  facet normal  9.869176e-001 -1.612254e-001  0.000000e+000
    outer loop
      vertex  1.489063e+001 -1.612151e+000  0.000000e+000
      vertex  1.489063e+001 -1.612151e+000  5.000000e+000
      vertex  1.375188e+001 -8.582849e+000  0.000000e+000
    endloop
  endfacet
  facet normal  9.869176e-001 -1.612254e-001  0.000000e+000
    outer loop
      vertex  1.375188e+001 -8.582849e+000  0.000000e+000
      vertex  1.489063e+001 -1.612151e+000  5.000000e+000
      vertex  1.375188e+001 -8.582849e+000  5.000000e+000
    endloop
  endfacet
  facet normal  9.370403e-001 -3.492210e-001  0.000000e+000
    outer loop
      vertex  1.375188e+001 -8.582849e+000  0.000000e+000
      vertex  1.375188e+001 -8.582849e+000  5.000000e+000
      vertex  1.146474e+001 -1.471979e+001  0.000000e+000
    endloop
  endfacet
  facet normal  9.370403e-001 -3.492210e-001  0.000000e+000
    outer loop
      vertex  1.146474e+001 -1.471979e+001  0.000000e+000
      vertex  1.375188e+001 -8.582849e+000  5.000000e+000
      vertex  1.146474e+001 -1.471979e+001  5.000000e+000
    endloop
  endfacet
  facet normal  8.628990e-001 -5.053765e-001  0.000000e+000
    outer loop
      vertex  1.146474e+001 -1.471979e+001  0.000000e+000
      vertex  1.146474e+001 -1.471979e+001  5.000000e+000
      vertex  9.946840e+000 -1.731150e+001  0.000000e+000
    endloop
  endfacet
  facet normal  8.628990e-001 -5.053765e-001  0.000000e+000
    outer loop
      vertex  9.946840e+000 -1.731150e+001  0.000000e+000
      vertex  1.146474e+001 -1.471979e+001  5.000000e+000
      vertex  9.946840e+000 -1.731150e+001  5.000000e+000
    endloop
  endfacet
  facet normal  7.865130e-001 -6.175738e-001  0.000000e+000
    outer loop
      vertex  9.946840e+000 -1.731150e+001  0.000000e+000
      vertex  9.946840e+000 -1.731150e+001  5.000000e+000
      vertex  8.220187e+000 -1.951049e+001  0.000000e+000
    endloop
  endfacet
  facet normal  7.865130e-001 -6.175738e-001  0.000000e+000
    outer loop
      vertex  8.220187e+000 -1.951049e+001  0.000000e+000
      vertex  9.946840e+000 -1.731150e+001  5.000000e+000
      vertex  8.220187e+000 -1.951049e+001  5.000000e+000
    endloop
  endfacet
  facet normal  6.583913e-001 -7.526758e-001  0.000000e+000
    outer loop
      vertex  8.220187e+000 -1.951049e+001  0.000000e+000
      vertex  8.220187e+000 -1.951049e+001  5.000000e+000
      vertex  5.656423e+000 -2.175310e+001  0.000000e+000
    endloop
  endfacet
  facet normal  6.583913e-001 -7.526758e-001  0.000000e+000
    outer loop
      vertex  5.656423e+000 -2.175310e+001  0.000000e+000
      vertex  8.220187e+000 -1.951049e+001  5.000000e+000
      vertex  5.656423e+000 -2.175310e+001  5.000000e+000
    endloop
  endfacet
  facet normal  4.453087e-001 -8.953770e-001  0.000000e+000
    outer loop
      vertex  5.656423e+000 -2.175310e+001  0.000000e+000
      vertex  5.656423e+000 -2.175310e+001  5.000000e+000
      vertex  2.881901e+000 -2.313299e+001  0.000000e+000
    endloop
  endfacet
  facet normal  4.453087e-001 -8.953770e-001  0.000000e+000
    outer loop
      vertex  2.881901e+000 -2.313299e+001  0.000000e+000
      vertex  5.656423e+000 -2.175310e+001  5.000000e+000
      vertex  2.881901e+000 -2.313299e+001  5.000000e+000
    endloop
  endfacet
  facet normal  1.595413e-001 -9.871913e-001  0.000000e+000
    outer loop
      vertex  2.881901e+000 -2.313299e+001  0.000000e+000
      vertex  2.881901e+000 -2.313299e+001  5.000000e+000
      vertex  3.293560e-015 -2.359873e+001  0.000000e+000
    endloop
  endfacet
  facet normal  1.595413e-001 -9.871913e-001  0.000000e+000
    outer loop
      vertex  3.293560e-015 -2.359873e+001  0.000000e+000
      vertex  2.881901e+000 -2.313299e+001  5.000000e+000
      vertex  3.293560e-015 -2.359873e+001  5.000000e+000
    endloop
  endfacet
  facet normal -1.551919e-001 -9.878843e-001  -0.000000e+000
    outer loop
      vertex  3.293560e-015 -2.359873e+001  0.000000e+000
      vertex  3.293560e-015 -2.359873e+001  5.000000e+000
      vertex -2.802807e+000 -2.315843e+001  0.000000e+000
    endloop
  endfacet
  facet normal -1.551919e-001 -9.878843e-001  0.000000e+000
    outer loop
      vertex -2.802807e+000 -2.315843e+001  0.000000e+000
      vertex  3.293560e-015 -2.359873e+001  5.000000e+000
      vertex -2.802807e+000 -2.315843e+001  5.000000e+000
    endloop
  endfacet
  facet normal -4.347467e-001 -9.005528e-001  -0.000000e+000
    outer loop
      vertex -2.802807e+000 -2.315843e+001  0.000000e+000
      vertex -2.802807e+000 -2.315843e+001  5.000000e+000
      vertex -5.506886e+000 -2.185302e+001  0.000000e+000
    endloop
  endfacet
  facet normal -4.347467e-001 -9.005528e-001  0.000000e+000
    outer loop
      vertex -5.506886e+000 -2.185302e+001  0.000000e+000
      vertex -2.802807e+000 -2.315843e+001  5.000000e+000
      vertex -5.506886e+000 -2.185302e+001  5.000000e+000
    endloop
  endfacet
  facet normal -6.460485e-001 -7.632962e-001  -0.000000e+000
    outer loop
      vertex -5.506886e+000 -2.185302e+001  0.000000e+000
      vertex -5.506886e+000 -2.185302e+001  5.000000e+000
      vertex -8.016988e+000 -1.972849e+001  0.000000e+000
    endloop
  endfacet
  facet normal -6.460485e-001 -7.632962e-001  0.000000e+000
    outer loop
      vertex -8.016988e+000 -1.972849e+001  0.000000e+000
      vertex -5.506886e+000 -2.185302e+001  5.000000e+000
      vertex -8.016988e+000 -1.972849e+001  5.000000e+000
    endloop
  endfacet
  facet normal -7.750037e-001 -6.319566e-001  -0.000000e+000
    outer loop
      vertex -8.016988e+000 -1.972849e+001  0.000000e+000
      vertex -8.016988e+000 -1.972849e+001  5.000000e+000
      vertex -9.718731e+000 -1.764154e+001  0.000000e+000
    endloop
  endfacet
  facet normal -7.750037e-001 -6.319566e-001  0.000000e+000
    outer loop
      vertex -9.718731e+000 -1.764154e+001  0.000000e+000
      vertex -8.016988e+000 -1.972849e+001  5.000000e+000
      vertex -9.718731e+000 -1.764154e+001  5.000000e+000
    endloop
  endfacet
  facet normal -8.528661e-001 -5.221297e-001  -0.000000e+000
    outer loop
      vertex -9.718731e+000 -1.764154e+001  0.000000e+000
      vertex -9.718731e+000 -1.764154e+001  5.000000e+000
      vertex -1.122766e+001 -1.517680e+001  0.000000e+000
    endloop
  endfacet
  facet normal -8.528661e-001 -5.221297e-001  0.000000e+000
    outer loop
      vertex -1.122766e+001 -1.517680e+001  0.000000e+000
      vertex -9.718731e+000 -1.764154e+001  5.000000e+000
      vertex -1.122766e+001 -1.517680e+001  5.000000e+000
    endloop
  endfacet
  facet normal -9.295776e-001 -3.686263e-001  -0.000000e+000
    outer loop
      vertex -1.122766e+001 -1.517680e+001  0.000000e+000
      vertex -1.122766e+001 -1.517680e+001  5.000000e+000
      vertex -1.355176e+001 -9.316048e+000  0.000000e+000
    endloop
  endfacet
  facet normal -9.295776e-001 -3.686263e-001  0.000000e+000
    outer loop
      vertex -1.355176e+001 -9.316048e+000  0.000000e+000
      vertex -1.122766e+001 -1.517680e+001  5.000000e+000
      vertex -1.355176e+001 -9.316048e+000  5.000000e+000
    endloop
  endfacet
  facet normal -9.829668e-001 -1.837828e-001  -0.000000e+000
    outer loop
      vertex -1.355176e+001 -9.316048e+000  0.000000e+000
      vertex -1.355176e+001 -9.316048e+000  5.000000e+000
      vertex -1.480575e+001 -2.609016e+000  0.000000e+000
    endloop
  endfacet
  facet normal -9.829668e-001 -1.837828e-001  0.000000e+000
    outer loop
      vertex -1.480575e+001 -2.609016e+000  0.000000e+000
      vertex -1.355176e+001 -9.316048e+000  5.000000e+000
      vertex -1.480575e+001 -2.609016e+000  5.000000e+000
    endloop
  endfacet
  facet normal -9.999270e-001 -1.208390e-002  -0.000000e+000
    outer loop
      vertex -1.480575e+001 -2.609016e+000  0.000000e+000
      vertex -1.480575e+001 -2.609016e+000  5.000000e+000
      vertex -1.489063e+001  4.414683e+000  0.000000e+000
    endloop
  endfacet
  facet normal -9.999270e-001 -1.208390e-002  0.000000e+000
    outer loop
      vertex -1.489063e+001  4.414683e+000  0.000000e+000
      vertex -1.480575e+001 -2.609016e+000  5.000000e+000
      vertex -1.489063e+001  4.414683e+000  5.000000e+000
    endloop
  endfacet
  facet normal -9.869176e-001  1.612254e-001  0.000000e+000
    outer loop
      vertex -1.489063e+001  4.414683e+000  0.000000e+000
      vertex -1.489063e+001  4.414683e+000  5.000000e+000
      vertex -1.375188e+001  1.138538e+001  0.000000e+000
    endloop
  endfacet
  facet normal -9.869176e-001  1.612254e-001  0.000000e+000
    outer loop
      vertex -1.375188e+001  1.138538e+001  0.000000e+000
      vertex -1.489063e+001  4.414683e+000  5.000000e+000
      vertex -1.375188e+001  1.138538e+001  5.000000e+000
    endloop
  endfacet
  facet normal -9.370403e-001  3.492210e-001  0.000000e+000
    outer loop
      vertex -1.375188e+001  1.138538e+001  0.000000e+000
      vertex -1.375188e+001  1.138538e+001  5.000000e+000
      vertex -1.146474e+001  1.752232e+001  0.000000e+000
    endloop
  endfacet
  facet normal -9.370403e-001  3.492210e-001  0.000000e+000
    outer loop
      vertex -1.146474e+001  1.752232e+001  0.000000e+000
      vertex -1.375188e+001  1.138538e+001  5.000000e+000
      vertex -1.146474e+001  1.752232e+001  5.000000e+000
    endloop
  endfacet
  facet normal -8.628990e-001  5.053765e-001  0.000000e+000
    outer loop
      vertex -1.146474e+001  1.752232e+001  0.000000e+000
      vertex -1.146474e+001  1.752232e+001  5.000000e+000
      vertex -9.946840e+000  2.011403e+001  0.000000e+000
    endloop
  endfacet
  facet normal -8.628990e-001  5.053765e-001  0.000000e+000
    outer loop
      vertex -9.946840e+000  2.011403e+001  0.000000e+000
      vertex -1.146474e+001  1.752232e+001  5.000000e+000
      vertex -9.946840e+000  2.011403e+001  5.000000e+000
    endloop
  endfacet
  facet normal -7.865130e-001  6.175738e-001  0.000000e+000
    outer loop
      vertex -9.946840e+000  2.011403e+001  0.000000e+000
      vertex -9.946840e+000  2.011403e+001  5.000000e+000
      vertex -8.220187e+000  2.231302e+001  0.000000e+000
    endloop
  endfacet
  facet normal -7.865130e-001  6.175738e-001  0.000000e+000
    outer loop
      vertex -8.220187e+000  2.231302e+001  0.000000e+000
      vertex -9.946840e+000  2.011403e+001  5.000000e+000
      vertex -8.220187e+000  2.231302e+001  5.000000e+000
    endloop
  endfacet
  facet normal -6.583913e-001  7.526758e-001  0.000000e+000
    outer loop
      vertex -8.220187e+000  2.231302e+001  0.000000e+000
      vertex -8.220187e+000  2.231302e+001  5.000000e+000
      vertex -5.656423e+000  2.455563e+001  0.000000e+000
    endloop
  endfacet
  facet normal -6.583913e-001  7.526758e-001  0.000000e+000
    outer loop
      vertex -5.656423e+000  2.455563e+001  0.000000e+000
      vertex -8.220187e+000  2.231302e+001  5.000000e+000
      vertex -5.656423e+000  2.455563e+001  5.000000e+000
    endloop
  endfacet
  facet normal -4.453093e-001  8.953769e-001  0.000000e+000
    outer loop
      vertex -5.656423e+000  2.455563e+001  0.000000e+000
      vertex -5.656423e+000  2.455563e+001  5.000000e+000
      vertex -2.881901e+000  2.593552e+001  0.000000e+000
    endloop
  endfacet
  facet normal -4.453093e-001  8.953769e-001  0.000000e+000
    outer loop
      vertex -2.881901e+000  2.593552e+001  0.000000e+000
      vertex -5.656423e+000  2.455563e+001  5.000000e+000
      vertex -2.881901e+000  2.593552e+001  5.000000e+000
    endloop
  endfacet
  facet normal -1.595407e-001  9.871914e-001  0.000000e+000
    outer loop
      vertex -2.881901e+000  2.593552e+001  0.000000e+000
      vertex -2.881901e+000  2.593552e+001  5.000000e+000
      vertex  1.530808e-015  2.640127e+001  0.000000e+000
    endloop
  endfacet
  facet normal -1.595407e-001  9.871914e-001  0.000000e+000
    outer loop
      vertex  1.530808e-015  2.640127e+001  0.000000e+000
      vertex -2.881901e+000  2.593552e+001  5.000000e+000
      vertex  1.530808e-015  2.640127e+001  5.000000e+000
    endloop
  endfacet
endsolid CATIA STL
