solid CATIA STL
  facet normal  0.000000e+000  0.000000e+000 -1.000000e+000
    outer loop
      vertex  1.899671e+001  2.246659e+001  0.000000e+000
      vertex  2.039195e+001  1.911291e+001  0.000000e+000
      vertex  1.000000e+001  2.000000e+001  0.000000e+000
    endloop
  endfacet
  facet normal  -0.000000e+000  -0.000000e+000 -1.000000e+000
    outer loop
      vertex -1.000000e+001  2.600000e+001  0.000000e+000
      vertex  0.000000e+000  2.000000e+001  0.000000e+000
      vertex  0.000000e+000  1.000000e+001  0.000000e+000
    endloop
  endfacet
  facet normal  -0.000000e+000  -0.000000e+000 -1.000000e+000
    outer loop
      vertex -1.000000e+001  2.600000e+001  0.000000e+000
      vertex  0.000000e+000  1.000000e+001  0.000000e+000
      vertex  0.000000e+000 -7.000000e+000  0.000000e+000
    endloop
  endfacet
  facet normal  -0.000000e+000  -0.000000e+000 -1.000000e+000
    outer loop
      vertex -1.000000e+001  2.600000e+001  0.000000e+000
      vertex  0.000000e+000 -7.000000e+000  0.000000e+000
      vertex  0.000000e+000 -2.500000e+001  0.000000e+000
    endloop
  endfacet
  facet normal  0.000000e+000  0.000000e+000 -1.000000e+000
    outer loop
      vertex -1.000000e+001  2.600000e+001  0.000000e+000
      vertex  0.000000e+000 -2.500000e+001  0.000000e+000
      vertex -1.000000e+001 -2.500000e+001  0.000000e+000
    endloop
  endfacet
  facet normal  0.000000e+000  0.000000e+000 -1.000000e+000
    outer loop
      vertex  1.000000e+001 -7.000000e+000  0.000000e+000
      vertex  0.000000e+000 -7.000000e+000  0.000000e+000
      vertex  0.000000e+000  1.000000e+001  0.000000e+000
    endloop
  endfacet
  facet normal  0.000000e+000  0.000000e+000 -1.000000e+000
    outer loop
      vertex  1.000000e+001 -7.000000e+000  0.000000e+000
      vertex  0.000000e+000  1.000000e+001  0.000000e+000
      vertex  9.136734e+000  9.260937e+000  0.000000e+000
    endloop
  endfacet
  facet normal  0.000000e+000  0.000000e+000 -1.000000e+000
    outer loop
      vertex  1.000000e+001 -7.000000e+000  0.000000e+000
      vertex  9.136734e+000  9.260937e+000  0.000000e+000
      vertex  3.202506e+001 -2.500000e+001  0.000000e+000
    endloop
  endfacet
  facet normal  0.000000e+000  0.000000e+000 -1.000000e+000
    outer loop
      vertex  1.000000e+001 -7.000000e+000  0.000000e+000
      vertex  3.202506e+001 -2.500000e+001  0.000000e+000
      vertex  2.202506e+001 -2.500000e+001  0.000000e+000
    endloop
  endfacet
  facet normal  0.000000e+000  0.000000e+000 -1.000000e+000
    outer loop
      vertex  1.000000e+001  1.000000e+001  0.000000e+000
      vertex  1.000000e+001  2.000000e+001  0.000000e+000
      vertex  2.039195e+001  1.911291e+001  0.000000e+000
    endloop
  endfacet
  facet normal  0.000000e+000  0.000000e+000 -1.000000e+000
    outer loop
      vertex  1.000000e+001  1.000000e+001  0.000000e+000
      vertex  2.039195e+001  1.911291e+001  0.000000e+000
      vertex  2.023789e+001  1.548383e+001  0.000000e+000
    endloop
  endfacet
  facet normal  0.000000e+000  0.000000e+000 -1.000000e+000
    outer loop
      vertex  1.000000e+001  1.000000e+001  0.000000e+000
      vertex  2.023789e+001  1.548383e+001  0.000000e+000
      vertex  1.856343e+001  1.226045e+001  0.000000e+000
    endloop
  endfacet
  facet normal  0.000000e+000  0.000000e+000 -1.000000e+000
    outer loop
      vertex  1.000000e+001  1.000000e+001  0.000000e+000
      vertex  1.856343e+001  1.226045e+001  0.000000e+000
      vertex  1.568284e+001  1.004773e+001  0.000000e+000
    endloop
  endfacet
  facet normal  0.000000e+000  0.000000e+000 -1.000000e+000
    outer loop
      vertex  1.000000e+001  1.000000e+001  0.000000e+000
      vertex  1.568284e+001  1.004773e+001  0.000000e+000
      vertex  1.213673e+001  9.260937e+000  0.000000e+000
    endloop
  endfacet
  facet normal  0.000000e+000  0.000000e+000 -1.000000e+000
    outer loop
      vertex  1.000000e+001  1.000000e+001  0.000000e+000
      vertex  1.213673e+001  9.260937e+000  0.000000e+000
      vertex  9.136734e+000  9.260937e+000  0.000000e+000
    endloop
  endfacet
  facet normal  0.000000e+000  0.000000e+000 -1.000000e+000
    outer loop
      vertex  1.000000e+001  1.000000e+001  0.000000e+000
      vertex  9.136734e+000  9.260937e+000  0.000000e+000
      vertex  0.000000e+000  1.000000e+001  0.000000e+000
    endloop
  endfacet
  facet normal  0.000000e+000  0.000000e+000 -9.999999e-001
    outer loop
      vertex  1.899671e+001  2.246659e+001  0.000000e+000
      vertex  1.000000e+001  2.000000e+001  0.000000e+000
      vertex  1.631402e+001  2.491549e+001  0.000000e+000
    endloop
  endfacet
  facet normal  -0.000000e+000  0.000000e+000 -1.000000e+000
    outer loop
      vertex  1.631402e+001  2.491549e+001  0.000000e+000
      vertex  1.000000e+001  2.000000e+001  0.000000e+000
      vertex  1.284735e+001  2.600000e+001  0.000000e+000
    endloop
  endfacet
  facet normal  0.000000e+000  0.000000e+000 -1.000000e+000
    outer loop
      vertex  1.000000e+001  2.000000e+001  0.000000e+000
      vertex  0.000000e+000  2.000000e+001  0.000000e+000
      vertex  1.284735e+001  2.600000e+001  0.000000e+000
    endloop
  endfacet
  facet normal  -0.000000e+000  0.000000e+000 -1.000000e+000
    outer loop
      vertex  1.284735e+001  2.600000e+001  0.000000e+000
      vertex  0.000000e+000  2.000000e+001  0.000000e+000
      vertex -1.000000e+001  2.600000e+001  0.000000e+000
    endloop
  endfacet
  facet normal  0.000000e+000  0.000000e+000  1.000000e+000
    outer loop
      vertex  1.000000e+001  2.000000e+001  1.000000e+001
      vertex  2.039195e+001  1.911291e+001  1.000000e+001
      vertex  1.899671e+001  2.246659e+001  1.000000e+001
    endloop
  endfacet
  facet normal  0.000000e+000  0.000000e+000  1.000000e+000
    outer loop
      vertex -1.000000e+001  2.600000e+001  1.000000e+001
      vertex -1.000000e+001 -2.500000e+001  1.000000e+001
      vertex  0.000000e+000 -2.500000e+001  1.000000e+001
    endloop
  endfacet
  facet normal  0.000000e+000  -0.000000e+000  1.000000e+000
    outer loop
      vertex -1.000000e+001  2.600000e+001  1.000000e+001
      vertex  0.000000e+000 -2.500000e+001  1.000000e+001
      vertex  0.000000e+000 -7.000000e+000  1.000000e+001
    endloop
  endfacet
  facet normal  0.000000e+000  -0.000000e+000  1.000000e+000
    outer loop
      vertex -1.000000e+001  2.600000e+001  1.000000e+001
      vertex  0.000000e+000 -7.000000e+000  1.000000e+001
      vertex  0.000000e+000  1.000000e+001  1.000000e+001
    endloop
  endfacet
  facet normal  0.000000e+000  -0.000000e+000  1.000000e+000
    outer loop
      vertex -1.000000e+001  2.600000e+001  1.000000e+001
      vertex  0.000000e+000  1.000000e+001  1.000000e+001
      vertex  0.000000e+000  2.000000e+001  1.000000e+001
    endloop
  endfacet
  facet normal  0.000000e+000  -0.000000e+000  1.000000e+000
    outer loop
      vertex  1.000000e+001 -7.000000e+000  1.000000e+001
      vertex  2.202506e+001 -2.500000e+001  1.000000e+001
      vertex  3.202506e+001 -2.500000e+001  1.000000e+001
    endloop
  endfacet
  facet normal  0.000000e+000  0.000000e+000  1.000000e+000
    outer loop
      vertex  1.000000e+001 -7.000000e+000  1.000000e+001
      vertex  3.202506e+001 -2.500000e+001  1.000000e+001
      vertex  9.136734e+000  9.260937e+000  1.000000e+001
    endloop
  endfacet
  facet normal  0.000000e+000  0.000000e+000  1.000000e+000
    outer loop
      vertex  1.000000e+001 -7.000000e+000  1.000000e+001
      vertex  9.136734e+000  9.260937e+000  1.000000e+001
      vertex  0.000000e+000  1.000000e+001  1.000000e+001
    endloop
  endfacet
  facet normal  0.000000e+000  0.000000e+000  1.000000e+000
    outer loop
      vertex  1.000000e+001 -7.000000e+000  1.000000e+001
      vertex  0.000000e+000  1.000000e+001  1.000000e+001
      vertex  0.000000e+000 -7.000000e+000  1.000000e+001
    endloop
  endfacet
  facet normal  -0.000000e+000  0.000000e+000  1.000000e+000
    outer loop
      vertex  1.000000e+001  1.000000e+001  1.000000e+001
      vertex  0.000000e+000  1.000000e+001  1.000000e+001
      vertex  9.136734e+000  9.260937e+000  1.000000e+001
    endloop
  endfacet
  facet normal  0.000000e+000  0.000000e+000  1.000000e+000
    outer loop
      vertex  1.000000e+001  1.000000e+001  1.000000e+001
      vertex  9.136734e+000  9.260937e+000  1.000000e+001
      vertex  1.213673e+001  9.260937e+000  1.000000e+001
    endloop
  endfacet
  facet normal  0.000000e+000  -0.000000e+000  1.000000e+000
    outer loop
      vertex  1.000000e+001  1.000000e+001  1.000000e+001
      vertex  1.213673e+001  9.260937e+000  1.000000e+001
      vertex  1.568284e+001  1.004773e+001  1.000000e+001
    endloop
  endfacet
  facet normal  0.000000e+000  -0.000000e+000  1.000000e+000
    outer loop
      vertex  1.000000e+001  1.000000e+001  1.000000e+001
      vertex  1.568284e+001  1.004773e+001  1.000000e+001
      vertex  1.856343e+001  1.226045e+001  1.000000e+001
    endloop
  endfacet
  facet normal  0.000000e+000  -0.000000e+000  1.000000e+000
    outer loop
      vertex  1.000000e+001  1.000000e+001  1.000000e+001
      vertex  1.856343e+001  1.226045e+001  1.000000e+001
      vertex  2.023789e+001  1.548383e+001  1.000000e+001
    endloop
  endfacet
  facet normal  0.000000e+000  -0.000000e+000  1.000000e+000
    outer loop
      vertex  1.000000e+001  1.000000e+001  1.000000e+001
      vertex  2.023789e+001  1.548383e+001  1.000000e+001
      vertex  2.039195e+001  1.911291e+001  1.000000e+001
    endloop
  endfacet
  facet normal  0.000000e+000  0.000000e+000  1.000000e+000
    outer loop
      vertex  1.000000e+001  1.000000e+001  1.000000e+001
      vertex  2.039195e+001  1.911291e+001  1.000000e+001
      vertex  1.000000e+001  2.000000e+001  1.000000e+001
    endloop
  endfacet
  facet normal  0.000000e+000  0.000000e+000  9.999999e-001
    outer loop
      vertex  1.899671e+001  2.246659e+001  1.000000e+001
      vertex  1.631402e+001  2.491549e+001  1.000000e+001
      vertex  1.000000e+001  2.000000e+001  1.000000e+001
    endloop
  endfacet
  facet normal  0.000000e+000  0.000000e+000  1.000000e+000
    outer loop
      vertex  1.000000e+001  2.000000e+001  1.000000e+001
      vertex  1.631402e+001  2.491549e+001  1.000000e+001
      vertex  1.284735e+001  2.600000e+001  1.000000e+001
    endloop
  endfacet
  facet normal  0.000000e+000  0.000000e+000  1.000000e+000
    outer loop
      vertex  1.000000e+001  2.000000e+001  1.000000e+001
      vertex  1.284735e+001  2.600000e+001  1.000000e+001
      vertex  0.000000e+000  2.000000e+001  1.000000e+001
    endloop
  endfacet
  facet normal  0.000000e+000  -0.000000e+000  1.000000e+000
    outer loop
      vertex  0.000000e+000  2.000000e+001  1.000000e+001
      vertex  1.284735e+001  2.600000e+001  1.000000e+001
      vertex -1.000000e+001  2.600000e+001  1.000000e+001
    endloop
  endfacet
  facet normal  0.000000e+000  1.000000e+000  -0.000000e+000
    outer loop
      vertex  1.000000e+001  1.000000e+001  1.000000e+001
      vertex  1.000000e+001  1.000000e+001  0.000000e+000
      vertex  0.000000e+000  1.000000e+001  1.000000e+001
    endloop
  endfacet
  facet normal  0.000000e+000  1.000000e+000  0.000000e+000
    outer loop
      vertex  0.000000e+000  1.000000e+001  1.000000e+001
      vertex  1.000000e+001  1.000000e+001  0.000000e+000
      vertex  0.000000e+000  1.000000e+001  0.000000e+000
    endloop
  endfacet
  facet normal  1.000000e+000  0.000000e+000  0.000000e+000
    outer loop
      vertex  0.000000e+000  1.000000e+001  1.000000e+001
      vertex  0.000000e+000  1.000000e+001  0.000000e+000
      vertex  0.000000e+000  2.000000e+001  1.000000e+001
    endloop
  endfacet
  facet normal  1.000000e+000  0.000000e+000  0.000000e+000
    outer loop
      vertex  0.000000e+000  2.000000e+001  1.000000e+001
      vertex  0.000000e+000  1.000000e+001  0.000000e+000
      vertex  0.000000e+000  2.000000e+001  0.000000e+000
    endloop
  endfacet
  facet normal  0.000000e+000 -1.000000e+000  0.000000e+000
    outer loop
      vertex  0.000000e+000  2.000000e+001  1.000000e+001
      vertex  0.000000e+000  2.000000e+001  0.000000e+000
      vertex  1.000000e+001  2.000000e+001  1.000000e+001
    endloop
  endfacet
  facet normal  0.000000e+000 -1.000000e+000  -0.000000e+000
    outer loop
      vertex  1.000000e+001  2.000000e+001  1.000000e+001
      vertex  0.000000e+000  2.000000e+001  0.000000e+000
      vertex  1.000000e+001  2.000000e+001  0.000000e+000
    endloop
  endfacet
  facet normal -1.000000e+000  0.000000e+000  0.000000e+000
    outer loop
      vertex  1.000000e+001  2.000000e+001  1.000000e+001
      vertex  1.000000e+001  2.000000e+001  0.000000e+000
      vertex  1.000000e+001  1.000000e+001  1.000000e+001
    endloop
  endfacet
  facet normal -1.000000e+000  0.000000e+000  0.000000e+000
    outer loop
      vertex  1.000000e+001  1.000000e+001  1.000000e+001
      vertex  1.000000e+001  2.000000e+001  0.000000e+000
      vertex  1.000000e+001  1.000000e+001  0.000000e+000
    endloop
  endfacet
  facet normal  0.000000e+000  1.000000e+000  -0.000000e+000
    outer loop
      vertex  1.284735e+001  2.600000e+001  1.000000e+001
      vertex  1.284735e+001  2.600000e+001  0.000000e+000
      vertex -1.000000e+001  2.600000e+001  1.000000e+001
    endloop
  endfacet
  facet normal  0.000000e+000  1.000000e+000  0.000000e+000
    outer loop
      vertex -1.000000e+001  2.600000e+001  1.000000e+001
      vertex  1.284735e+001  2.600000e+001  0.000000e+000
      vertex -1.000000e+001  2.600000e+001  0.000000e+000
    endloop
  endfacet
  facet normal  2.985693e-001  9.543879e-001  0.000000e+000
    outer loop
      vertex  1.284735e+001  2.600000e+001  0.000000e+000
      vertex  1.284735e+001  2.600000e+001  1.000000e+001
      vertex  1.631402e+001  2.491549e+001  0.000000e+000
    endloop
  endfacet
  facet normal  2.985693e-001  9.543879e-001  -0.000000e+000
    outer loop
      vertex  1.631402e+001  2.491549e+001  0.000000e+000
      vertex  1.284735e+001  2.600000e+001  1.000000e+001
      vertex  1.631402e+001  2.491549e+001  1.000000e+001
    endloop
  endfacet
  facet normal  6.741917e-001  7.385564e-001  0.000000e+000
    outer loop
      vertex  1.631402e+001  2.491549e+001  0.000000e+000
      vertex  1.631402e+001  2.491549e+001  1.000000e+001
      vertex  1.899671e+001  2.246659e+001  0.000000e+000
    endloop
  endfacet
  facet normal  6.741917e-001  7.385564e-001  -0.000000e+000
    outer loop
      vertex  1.899671e+001  2.246659e+001  0.000000e+000
      vertex  1.631402e+001  2.491549e+001  1.000000e+001
      vertex  1.899671e+001  2.246659e+001  1.000000e+001
    endloop
  endfacet
  facet normal  9.232849e-001  3.841157e-001  0.000000e+000
    outer loop
      vertex  1.899671e+001  2.246659e+001  0.000000e+000
      vertex  1.899671e+001  2.246659e+001  1.000000e+001
      vertex  2.039195e+001  1.911291e+001  0.000000e+000
    endloop
  endfacet
  facet normal  9.232849e-001  3.841157e-001  -0.000000e+000
    outer loop
      vertex  2.039195e+001  1.911291e+001  0.000000e+000
      vertex  1.899671e+001  2.246659e+001  1.000000e+001
      vertex  2.039195e+001  1.911291e+001  1.000000e+001
    endloop
  endfacet
  facet normal  9.991001e-001 -4.241502e-002  0.000000e+000
    outer loop
      vertex  2.039195e+001  1.911291e+001  0.000000e+000
      vertex  2.039195e+001  1.911291e+001  1.000000e+001
      vertex  2.023789e+001  1.548383e+001  0.000000e+000
    endloop
  endfacet
  facet normal  9.991001e-001 -4.241502e-002  0.000000e+000
    outer loop
      vertex  2.023789e+001  1.548383e+001  0.000000e+000
      vertex  2.039195e+001  1.911291e+001  1.000000e+001
      vertex  2.023789e+001  1.548383e+001  1.000000e+001
    endloop
  endfacet
  facet normal  8.874083e-001 -4.609842e-001  0.000000e+000
    outer loop
      vertex  2.023789e+001  1.548383e+001  0.000000e+000
      vertex  2.023789e+001  1.548383e+001  1.000000e+001
      vertex  1.856343e+001  1.226045e+001  0.000000e+000
    endloop
  endfacet
  facet normal  8.874083e-001 -4.609842e-001  0.000000e+000
    outer loop
      vertex  1.856343e+001  1.226045e+001  0.000000e+000
      vertex  2.023789e+001  1.548383e+001  1.000000e+001
      vertex  1.856343e+001  1.226045e+001  1.000000e+001
    endloop
  endfacet
  facet normal  6.091714e-001 -7.930387e-001  0.000000e+000
    outer loop
      vertex  1.856343e+001  1.226045e+001  0.000000e+000
      vertex  1.856343e+001  1.226045e+001  1.000000e+001
      vertex  1.568284e+001  1.004773e+001  0.000000e+000
    endloop
  endfacet
  facet normal  6.091714e-001 -7.930387e-001  0.000000e+000
    outer loop
      vertex  1.568284e+001  1.004773e+001  0.000000e+000
      vertex  1.856343e+001  1.226045e+001  1.000000e+001
      vertex  1.568284e+001  1.004773e+001  1.000000e+001
    endloop
  endfacet
  facet normal  2.166079e-001 -9.762587e-001  0.000000e+000
    outer loop
      vertex  1.568284e+001  1.004773e+001  0.000000e+000
      vertex  1.568284e+001  1.004773e+001  1.000000e+001
      vertex  1.213673e+001  9.260937e+000  0.000000e+000
    endloop
  endfacet
  facet normal  2.166079e-001 -9.762587e-001  0.000000e+000
    outer loop
      vertex  1.213673e+001  9.260937e+000  0.000000e+000
      vertex  1.568284e+001  1.004773e+001  1.000000e+001
      vertex  1.213673e+001  9.260937e+000  1.000000e+001
    endloop
  endfacet
  facet normal  0.000000e+000 -1.000000e+000  0.000000e+000
    outer loop
      vertex  9.136734e+000  9.260937e+000  0.000000e+000
      vertex  1.213673e+001  9.260937e+000  0.000000e+000
      vertex  9.136734e+000  9.260937e+000  1.000000e+001
    endloop
  endfacet
  facet normal  0.000000e+000 -1.000000e+000  0.000000e+000
    outer loop
      vertex  9.136734e+000  9.260937e+000  1.000000e+001
      vertex  1.213673e+001  9.260937e+000  0.000000e+000
      vertex  1.213673e+001  9.260937e+000  1.000000e+001
    endloop
  endfacet
  facet normal  8.315156e-001  5.555015e-001  -0.000000e+000
    outer loop
      vertex  3.202506e+001 -2.500000e+001  1.000000e+001
      vertex  3.202506e+001 -2.500000e+001  0.000000e+000
      vertex  9.136734e+000  9.260937e+000  1.000000e+001
    endloop
  endfacet
  facet normal  8.315156e-001  5.555015e-001  0.000000e+000
    outer loop
      vertex  9.136734e+000  9.260937e+000  1.000000e+001
      vertex  3.202506e+001 -2.500000e+001  0.000000e+000
      vertex  9.136734e+000  9.260937e+000  0.000000e+000
    endloop
  endfacet
  facet normal  0.000000e+000 -1.000000e+000  0.000000e+000
    outer loop
      vertex  2.202506e+001 -2.500000e+001  1.000000e+001
      vertex  2.202506e+001 -2.500000e+001  0.000000e+000
      vertex  3.202506e+001 -2.500000e+001  1.000000e+001
    endloop
  endfacet
  facet normal  0.000000e+000 -1.000000e+000  -0.000000e+000
    outer loop
      vertex  3.202506e+001 -2.500000e+001  1.000000e+001
      vertex  2.202506e+001 -2.500000e+001  0.000000e+000
      vertex  3.202506e+001 -2.500000e+001  0.000000e+000
    endloop
  endfacet
  facet normal -8.315156e-001 -5.555015e-001  0.000000e+000
    outer loop
      vertex  1.000000e+001 -7.000000e+000  1.000000e+001
      vertex  1.000000e+001 -7.000000e+000  0.000000e+000
      vertex  2.202506e+001 -2.500000e+001  1.000000e+001
    endloop
  endfacet
  facet normal -8.315156e-001 -5.555015e-001  -0.000000e+000
    outer loop
      vertex  2.202506e+001 -2.500000e+001  1.000000e+001
      vertex  1.000000e+001 -7.000000e+000  0.000000e+000
      vertex  2.202506e+001 -2.500000e+001  0.000000e+000
    endloop
  endfacet
  facet normal  0.000000e+000 -1.000000e+000  0.000000e+000
    outer loop
      vertex  0.000000e+000 -7.000000e+000  0.000000e+000
      vertex  1.000000e+001 -7.000000e+000  0.000000e+000
      vertex  0.000000e+000 -7.000000e+000  1.000000e+001
    endloop
  endfacet
  facet normal  0.000000e+000 -1.000000e+000  0.000000e+000
    outer loop
      vertex  0.000000e+000 -7.000000e+000  1.000000e+001
      vertex  1.000000e+001 -7.000000e+000  0.000000e+000
      vertex  1.000000e+001 -7.000000e+000  1.000000e+001
    endloop
  endfacet
  facet normal  1.000000e+000  0.000000e+000  0.000000e+000
    outer loop
      vertex  0.000000e+000 -2.500000e+001  1.000000e+001
      vertex  0.000000e+000 -2.500000e+001  0.000000e+000
      vertex  0.000000e+000 -7.000000e+000  1.000000e+001
    endloop
  endfacet
  facet normal  1.000000e+000  0.000000e+000  0.000000e+000
    outer loop
      vertex  0.000000e+000 -7.000000e+000  1.000000e+001
      vertex  0.000000e+000 -2.500000e+001  0.000000e+000
      vertex  0.000000e+000 -7.000000e+000  0.000000e+000
    endloop
  endfacet
  facet normal  0.000000e+000 -1.000000e+000  0.000000e+000
    outer loop
      vertex -1.000000e+001 -2.500000e+001  1.000000e+001
      vertex -1.000000e+001 -2.500000e+001  0.000000e+000
      vertex  0.000000e+000 -2.500000e+001  1.000000e+001
    endloop
  endfacet
  facet normal  0.000000e+000 -1.000000e+000  -0.000000e+000
    outer loop
      vertex  0.000000e+000 -2.500000e+001  1.000000e+001
      vertex -1.000000e+001 -2.500000e+001  0.000000e+000
      vertex  0.000000e+000 -2.500000e+001  0.000000e+000
    endloop
  endfacet
  facet normal -1.000000e+000  0.000000e+000  0.000000e+000
    outer loop
      vertex -1.000000e+001  2.600000e+001  1.000000e+001
      vertex -1.000000e+001  2.600000e+001  0.000000e+000
      vertex -1.000000e+001 -2.500000e+001  1.000000e+001
    endloop
  endfacet
  facet normal -1.000000e+000  0.000000e+000  0.000000e+000
    outer loop
      vertex -1.000000e+001 -2.500000e+001  1.000000e+001
      vertex -1.000000e+001  2.600000e+001  0.000000e+000
      vertex -1.000000e+001 -2.500000e+001  0.000000e+000
    endloop
  endfacet
endsolid CATIA STL
