solid CATIA STL
  facet normal  0.000000e+000  0.000000e+000  9.999999e-001
    outer loop
      vertex -1.548262e+001 -9.293149e-001  1.600000e+001
      vertex -6.936501e+000 -1.387300e+001  1.600000e+001
      vertex -1.127631e+001 -4.104242e+000  1.600000e+001
    endloop
  endfacet
  facet normal  0.000000e+000  0.000000e+000  9.999999e-001
    outer loop
      vertex -1.548262e+001 -9.293149e-001  1.600000e+001
      vertex -1.127631e+001 -4.104242e+000  1.600000e+001
      vertex -1.200000e+001  4.672091e-007  1.600000e+001
    endloop
  endfacet
  facet normal  0.000000e+000  -0.000000e+000  1.000000e+000
    outer loop
      vertex -1.548262e+001 -9.293149e-001  1.600000e+001
      vertex -1.200000e+001  4.672091e-007  1.600000e+001
      vertex -1.127631e+001  4.104242e+000  1.600000e+001
    endloop
  endfacet
  facet normal  0.000000e+000  -0.000000e+000  9.999999e-001
    outer loop
      vertex -1.548262e+001 -9.293149e-001  1.600000e+001
      vertex -1.127631e+001  4.104242e+000  1.600000e+001
      vertex -9.192533e+000  7.713451e+000  1.600000e+001
    endloop
  endfacet
  facet normal  -0.000000e+000  0.000000e+000  1.000000e+000
    outer loop
      vertex  6.936501e+000  1.387300e+001  1.600000e+001
      vertex -8.546122e+000  1.294369e+001  1.600000e+001
      vertex  2.083778e+000  1.181769e+001  1.600000e+001
    endloop
  endfacet
  facet normal  -0.000000e+000  0.000000e+000  1.000000e+000
    outer loop
      vertex  6.936501e+000  1.387300e+001  1.600000e+001
      vertex  2.083778e+000  1.181769e+001  1.600000e+001
      vertex  6.000000e+000  1.039230e+001  1.600000e+001
    endloop
  endfacet
  facet normal  -0.000000e+000  0.000000e+000  1.000000e+000
    outer loop
      vertex  6.936501e+000  1.387300e+001  1.600000e+001
      vertex  6.000000e+000  1.039230e+001  1.600000e+001
      vertex  9.192533e+000  7.713451e+000  1.600000e+001
    endloop
  endfacet
  facet normal  0.000000e+000  0.000000e+000  1.000000e+000
    outer loop
      vertex  1.548262e+001  9.293149e-001  1.600000e+001
      vertex  6.936501e+000  1.387300e+001  1.600000e+001
      vertex  9.192533e+000  7.713451e+000  1.600000e+001
    endloop
  endfacet
  facet normal  0.000000e+000  0.000000e+000  1.000000e+000
    outer loop
      vertex  1.548262e+001  9.293149e-001  1.600000e+001
      vertex  9.192533e+000  7.713451e+000  1.600000e+001
      vertex  1.127631e+001  4.104242e+000  1.600000e+001
    endloop
  endfacet
  facet normal  0.000000e+000  0.000000e+000  9.999999e-001
    outer loop
      vertex  1.548262e+001  9.293149e-001  1.600000e+001
      vertex  1.127631e+001  4.104242e+000  1.600000e+001
      vertex  1.200000e+001 -2.953665e-015  1.600000e+001
    endloop
  endfacet
  facet normal  -0.000000e+000  0.000000e+000  1.000000e+000
    outer loop
      vertex  1.548262e+001  9.293149e-001  1.600000e+001
      vertex  1.200000e+001 -2.953665e-015  1.600000e+001
      vertex  1.127631e+001 -4.104242e+000  1.600000e+001
    endloop
  endfacet
  facet normal  -0.000000e+000  0.000000e+000  1.000000e+000
    outer loop
      vertex  1.548262e+001  9.293149e-001  1.600000e+001
      vertex  1.127631e+001 -4.104242e+000  1.600000e+001
      vertex  8.546122e+000 -1.294369e+001  1.600000e+001
    endloop
  endfacet
  facet normal  0.000000e+000  0.000000e+000  9.999999e-001
    outer loop
      vertex -8.546122e+000  1.294369e+001  1.600000e+001
      vertex -1.548262e+001 -9.293149e-001  1.600000e+001
      vertex -9.192533e+000  7.713451e+000  1.600000e+001
    endloop
  endfacet
  facet normal  0.000000e+000  0.000000e+000  9.999999e-001
    outer loop
      vertex -8.546122e+000  1.294369e+001  1.600000e+001
      vertex -9.192533e+000  7.713451e+000  1.600000e+001
      vertex -6.000000e+000  1.039231e+001  1.600000e+001
    endloop
  endfacet
  facet normal  0.000000e+000  -0.000000e+000  1.000000e+000
    outer loop
      vertex -8.546122e+000  1.294369e+001  1.600000e+001
      vertex -6.000000e+000  1.039231e+001  1.600000e+001
      vertex -2.083778e+000  1.181769e+001  1.600000e+001
    endloop
  endfacet
  facet normal  0.000000e+000  -0.000000e+000  1.000000e+000
    outer loop
      vertex -8.546122e+000  1.294369e+001  1.600000e+001
      vertex -2.083778e+000  1.181769e+001  1.600000e+001
      vertex  2.083778e+000  1.181769e+001  1.600000e+001
    endloop
  endfacet
  facet normal  0.000000e+000  0.000000e+000  1.000000e+000
    outer loop
      vertex -6.936501e+000 -1.387300e+001  1.600000e+001
      vertex  8.546122e+000 -1.294369e+001  1.600000e+001
      vertex  2.083778e+000 -1.181769e+001  1.600000e+001
    endloop
  endfacet
  facet normal  0.000000e+000  0.000000e+000  1.000000e+000
    outer loop
      vertex -6.936501e+000 -1.387300e+001  1.600000e+001
      vertex  2.083778e+000 -1.181769e+001  1.600000e+001
      vertex -2.083778e+000 -1.181769e+001  1.600000e+001
    endloop
  endfacet
  facet normal  0.000000e+000  0.000000e+000  1.000000e+000
    outer loop
      vertex -6.936501e+000 -1.387300e+001  1.600000e+001
      vertex -2.083778e+000 -1.181769e+001  1.600000e+001
      vertex -6.000000e+000 -1.039230e+001  1.600000e+001
    endloop
  endfacet
  facet normal  0.000000e+000  0.000000e+000  1.000000e+000
    outer loop
      vertex -6.936501e+000 -1.387300e+001  1.600000e+001
      vertex -6.000000e+000 -1.039230e+001  1.600000e+001
      vertex -9.192533e+000 -7.713451e+000  1.600000e+001
    endloop
  endfacet
  facet normal  0.000000e+000  0.000000e+000  1.000000e+000
    outer loop
      vertex -6.936501e+000 -1.387300e+001  1.600000e+001
      vertex -9.192533e+000 -7.713451e+000  1.600000e+001
      vertex -1.127631e+001 -4.104242e+000  1.600000e+001
    endloop
  endfacet
  facet normal  0.000000e+000  0.000000e+000  9.999999e-001
    outer loop
      vertex  8.546122e+000 -1.294369e+001  1.600000e+001
      vertex  1.127631e+001 -4.104242e+000  1.600000e+001
      vertex  9.192533e+000 -7.713451e+000  1.600000e+001
    endloop
  endfacet
  facet normal  0.000000e+000  0.000000e+000  9.999999e-001
    outer loop
      vertex  8.546122e+000 -1.294369e+001  1.600000e+001
      vertex  9.192533e+000 -7.713451e+000  1.600000e+001
      vertex  6.000000e+000 -1.039230e+001  1.600000e+001
    endloop
  endfacet
  facet normal  0.000000e+000  0.000000e+000  1.000000e+000
    outer loop
      vertex  8.546122e+000 -1.294369e+001  1.600000e+001
      vertex  6.000000e+000 -1.039230e+001  1.600000e+001
      vertex  2.083778e+000 -1.181769e+001  1.600000e+001
    endloop
  endfacet
  facet normal -1.950903e-001  9.807853e-001  0.000000e+000
    outer loop
      vertex -1.836910e-015 -1.000000e+001  0.000000e+000
      vertex  3.826834e+000 -9.238795e+000  1.400000e+001
      vertex  3.826834e+000 -9.238795e+000  0.000000e+000
    endloop
  endfacet
  facet normal -5.555702e-001  8.314695e-001  0.000000e+000
    outer loop
      vertex  3.826834e+000 -9.238795e+000  0.000000e+000
      vertex  3.826834e+000 -9.238795e+000  1.400000e+001
      vertex  7.071068e+000 -7.071068e+000  1.400000e+001
    endloop
  endfacet
  facet normal -5.555702e-001  8.314695e-001  0.000000e+000
    outer loop
      vertex  3.826834e+000 -9.238795e+000  0.000000e+000
      vertex  7.071068e+000 -7.071068e+000  1.400000e+001
      vertex  7.071068e+000 -7.071068e+000  0.000000e+000
    endloop
  endfacet
  facet normal -8.314695e-001  5.555702e-001  0.000000e+000
    outer loop
      vertex  7.071068e+000 -7.071068e+000  0.000000e+000
      vertex  7.071068e+000 -7.071068e+000  1.400000e+001
      vertex  9.238795e+000 -3.826834e+000  1.400000e+001
    endloop
  endfacet
  facet normal -8.314695e-001  5.555702e-001  0.000000e+000
    outer loop
      vertex  7.071068e+000 -7.071068e+000  0.000000e+000
      vertex  9.238795e+000 -3.826834e+000  1.400000e+001
      vertex  9.238795e+000 -3.826834e+000  0.000000e+000
    endloop
  endfacet
  facet normal -9.807853e-001  1.950903e-001  0.000000e+000
    outer loop
      vertex  9.238795e+000 -3.826834e+000  0.000000e+000
      vertex  9.238795e+000 -3.826834e+000  1.400000e+001
      vertex  1.000000e+001 -2.449213e-015  1.400000e+001
    endloop
  endfacet
  facet normal -9.807853e-001  1.950903e-001  3.412984e-017
    outer loop
      vertex  9.238795e+000 -3.826834e+000  0.000000e+000
      vertex  1.000000e+001 -2.449213e-015  1.400000e+001
      vertex  1.000000e+001  0.000000e+000  0.000000e+000
    endloop
  endfacet
  facet normal -1.950903e-001  9.807853e-001  0.000000e+000
    outer loop
      vertex  3.826834e+000 -9.238795e+000  1.400000e+001
      vertex -1.836910e-015 -1.000000e+001  0.000000e+000
      vertex -1.836910e-015 -1.000000e+001  1.400000e+001
    endloop
  endfacet
  facet normal  1.950903e-001  9.807853e-001  0.000000e+000
    outer loop
      vertex -1.836910e-015 -1.000000e+001  1.400000e+001
      vertex -1.836910e-015 -1.000000e+001  0.000000e+000
      vertex -3.826834e+000 -9.238795e+000  0.000000e+000
    endloop
  endfacet
  facet normal  1.950903e-001  9.807853e-001  -0.000000e+000
    outer loop
      vertex -1.836910e-015 -1.000000e+001  1.400000e+001
      vertex -3.826834e+000 -9.238795e+000  0.000000e+000
      vertex -3.826834e+000 -9.238795e+000  1.400000e+001
    endloop
  endfacet
  facet normal  5.555702e-001  8.314695e-001  0.000000e+000
    outer loop
      vertex -3.826834e+000 -9.238795e+000  1.400000e+001
      vertex -3.826834e+000 -9.238795e+000  0.000000e+000
      vertex -7.071068e+000 -7.071068e+000  0.000000e+000
    endloop
  endfacet
  facet normal  5.555702e-001  8.314695e-001  -0.000000e+000
    outer loop
      vertex -3.826834e+000 -9.238795e+000  1.400000e+001
      vertex -7.071068e+000 -7.071068e+000  0.000000e+000
      vertex -7.071068e+000 -7.071068e+000  1.400000e+001
    endloop
  endfacet
  facet normal  8.314695e-001  5.555702e-001  0.000000e+000
    outer loop
      vertex -7.071068e+000 -7.071068e+000  1.400000e+001
      vertex -7.071068e+000 -7.071068e+000  0.000000e+000
      vertex -9.238795e+000 -3.826834e+000  0.000000e+000
    endloop
  endfacet
  facet normal  8.314695e-001  5.555702e-001  -0.000000e+000
    outer loop
      vertex -7.071068e+000 -7.071068e+000  1.400000e+001
      vertex -9.238795e+000 -3.826834e+000  0.000000e+000
      vertex -9.238795e+000 -3.826834e+000  1.400000e+001
    endloop
  endfacet
  facet normal  9.807853e-001  1.950903e-001  0.000000e+000
    outer loop
      vertex -9.238795e+000 -3.826834e+000  1.400000e+001
      vertex -9.238795e+000 -3.826834e+000  0.000000e+000
      vertex -1.000000e+001  1.224606e-015  0.000000e+000
    endloop
  endfacet
  facet normal  9.807853e-001  1.950903e-001  -0.000000e+000
    outer loop
      vertex -9.238795e+000 -3.826834e+000  1.400000e+001
      vertex -1.000000e+001  1.224606e-015  0.000000e+000
      vertex -1.000000e+001  1.224606e-015  1.400000e+001
    endloop
  endfacet
  facet normal  1.950903e-001 -9.807853e-001  0.000000e+000
    outer loop
      vertex  6.123032e-016  1.000000e+001  0.000000e+000
      vertex -3.826834e+000  9.238795e+000  1.400000e+001
      vertex -3.826834e+000  9.238795e+000  0.000000e+000
    endloop
  endfacet
  facet normal  5.555702e-001 -8.314695e-001  0.000000e+000
    outer loop
      vertex -3.826834e+000  9.238795e+000  0.000000e+000
      vertex -3.826834e+000  9.238795e+000  1.400000e+001
      vertex -7.071068e+000  7.071068e+000  1.400000e+001
    endloop
  endfacet
  facet normal  5.555702e-001 -8.314695e-001  0.000000e+000
    outer loop
      vertex -3.826834e+000  9.238795e+000  0.000000e+000
      vertex -7.071068e+000  7.071068e+000  1.400000e+001
      vertex -7.071068e+000  7.071068e+000  0.000000e+000
    endloop
  endfacet
  facet normal  8.314695e-001 -5.555702e-001  0.000000e+000
    outer loop
      vertex -7.071068e+000  7.071068e+000  0.000000e+000
      vertex -7.071068e+000  7.071068e+000  1.400000e+001
      vertex -9.238795e+000  3.826834e+000  1.400000e+001
    endloop
  endfacet
  facet normal  8.314695e-001 -5.555702e-001  0.000000e+000
    outer loop
      vertex -7.071068e+000  7.071068e+000  0.000000e+000
      vertex -9.238795e+000  3.826834e+000  1.400000e+001
      vertex -9.238795e+000  3.826834e+000  0.000000e+000
    endloop
  endfacet
  facet normal  9.807853e-001 -1.950903e-001  0.000000e+000
    outer loop
      vertex -9.238795e+000  3.826834e+000  0.000000e+000
      vertex -9.238795e+000  3.826834e+000  1.400000e+001
      vertex -1.000000e+001  1.224606e-015  1.400000e+001
    endloop
  endfacet
  facet normal  9.807853e-001 -1.950903e-001  0.000000e+000
    outer loop
      vertex -9.238795e+000  3.826834e+000  0.000000e+000
      vertex -1.000000e+001  1.224606e-015  1.400000e+001
      vertex -1.000000e+001  1.224606e-015  0.000000e+000
    endloop
  endfacet
  facet normal  1.950903e-001 -9.807853e-001  0.000000e+000
    outer loop
      vertex -3.826834e+000  9.238795e+000  1.400000e+001
      vertex  6.123032e-016  1.000000e+001  0.000000e+000
      vertex  6.123032e-016  1.000000e+001  1.400000e+001
    endloop
  endfacet
  facet normal -1.950903e-001 -9.807853e-001  -0.000000e+000
    outer loop
      vertex  6.123032e-016  1.000000e+001  1.400000e+001
      vertex  6.123032e-016  1.000000e+001  0.000000e+000
      vertex  3.826834e+000  9.238795e+000  0.000000e+000
    endloop
  endfacet
  facet normal -1.950903e-001 -9.807853e-001  0.000000e+000
    outer loop
      vertex  6.123032e-016  1.000000e+001  1.400000e+001
      vertex  3.826834e+000  9.238795e+000  0.000000e+000
      vertex  3.826834e+000  9.238795e+000  1.400000e+001
    endloop
  endfacet
  facet normal -5.555702e-001 -8.314695e-001  -0.000000e+000
    outer loop
      vertex  3.826834e+000  9.238795e+000  1.400000e+001
      vertex  3.826834e+000  9.238795e+000  0.000000e+000
      vertex  7.071068e+000  7.071068e+000  0.000000e+000
    endloop
  endfacet
  facet normal -5.555702e-001 -8.314695e-001  0.000000e+000
    outer loop
      vertex  3.826834e+000  9.238795e+000  1.400000e+001
      vertex  7.071068e+000  7.071068e+000  0.000000e+000
      vertex  7.071068e+000  7.071068e+000  1.400000e+001
    endloop
  endfacet
  facet normal -8.314695e-001 -5.555702e-001  -0.000000e+000
    outer loop
      vertex  7.071068e+000  7.071068e+000  1.400000e+001
      vertex  7.071068e+000  7.071068e+000  0.000000e+000
      vertex  9.238795e+000  3.826834e+000  0.000000e+000
    endloop
  endfacet
  facet normal -8.314695e-001 -5.555702e-001  0.000000e+000
    outer loop
      vertex  7.071068e+000  7.071068e+000  1.400000e+001
      vertex  9.238795e+000  3.826834e+000  0.000000e+000
      vertex  9.238795e+000  3.826834e+000  1.400000e+001
    endloop
  endfacet
  facet normal -9.807853e-001 -1.950903e-001  -0.000000e+000
    outer loop
      vertex  9.238795e+000  3.826834e+000  1.400000e+001
      vertex  9.238795e+000  3.826834e+000  0.000000e+000
      vertex  1.000000e+001  0.000000e+000  0.000000e+000
    endloop
  endfacet
  facet normal -9.807853e-001 -1.950903e-001 -3.412984e-017
    outer loop
      vertex  9.238795e+000  3.826834e+000  1.400000e+001
      vertex  1.000000e+001  0.000000e+000  0.000000e+000
      vertex  1.000000e+001 -2.449213e-015  1.400000e+001
    endloop
  endfacet
  facet normal -6.844804e-001  1.361516e-001  7.162048e-001
    outer loop
      vertex  9.238795e+000 -3.826834e+000  1.400000e+001
      vertex  1.127631e+001 -4.104242e+000  1.600000e+001
      vertex  1.000000e+001 -2.449213e-015  1.400000e+001
    endloop
  endfacet
  facet normal -7.016738e-001  1.237239e-001  7.016738e-001
    outer loop
      vertex  1.127631e+001 -4.104242e+000  1.600000e+001
      vertex  1.200000e+001 -2.953665e-015  1.600000e+001
      vertex  1.000000e+001 -2.449213e-015  1.400000e+001
    endloop
  endfacet
  facet normal  7.016739e-001  1.237239e-001  7.016739e-001
    outer loop
      vertex -1.200000e+001  4.672091e-007  1.600000e+001
      vertex -1.127631e+001 -4.104242e+000  1.600000e+001
      vertex -1.000000e+001  1.224606e-015  1.400000e+001
    endloop
  endfacet
  facet normal  6.844804e-001  1.361516e-001  7.162048e-001
    outer loop
      vertex -1.127631e+001 -4.104242e+000  1.600000e+001
      vertex -9.238795e+000 -3.826834e+000  1.400000e+001
      vertex -1.000000e+001  1.224606e-015  1.400000e+001
    endloop
  endfacet
  facet normal  6.273594e-001  3.622062e-001  6.893670e-001
    outer loop
      vertex -1.127631e+001 -4.104242e+000  1.600000e+001
      vertex -9.192533e+000 -7.713451e+000  1.600000e+001
      vertex -9.238795e+000 -3.826834e+000  1.400000e+001
    endloop
  endfacet
  facet normal  4.711946e-001  5.615480e-001  6.801762e-001
    outer loop
      vertex -9.192533e+000 -7.713451e+000  1.600000e+001
      vertex -6.000000e+000 -1.039230e+001  1.600000e+001
      vertex -7.071068e+000 -7.071068e+000  1.400000e+001
    endloop
  endfacet
  facet normal  5.704542e-001  3.811653e-001  7.275267e-001
    outer loop
      vertex -9.238795e+000 -3.826834e+000  1.400000e+001
      vertex -9.192533e+000 -7.713451e+000  1.600000e+001
      vertex -7.071068e+000 -7.071068e+000  1.400000e+001
    endloop
  endfacet
  facet normal  2.525063e-001  6.937553e-001  6.744956e-001
    outer loop
      vertex -6.000000e+000 -1.039230e+001  1.600000e+001
      vertex -2.083778e+000 -1.181769e+001  1.600000e+001
      vertex -3.826834e+000 -9.238795e+000  1.400000e+001
    endloop
  endfacet
  facet normal  3.768522e-001  5.639991e-001  7.347702e-001
    outer loop
      vertex -7.071068e+000 -7.071068e+000  1.400000e+001
      vertex -6.000000e+000 -1.039230e+001  1.600000e+001
      vertex -3.826834e+000 -9.238795e+000  1.400000e+001
    endloop
  endfacet
  facet normal  0.000000e+000  7.400301e-001  6.725737e-001
    outer loop
      vertex -2.083778e+000 -1.181769e+001  1.600000e+001
      vertex  2.083778e+000 -1.181769e+001  1.600000e+001
      vertex -1.836910e-015 -1.000000e+001  1.400000e+001
    endloop
  endfacet
  facet normal  1.315822e-001  6.615086e-001  7.383037e-001
    outer loop
      vertex -3.826834e+000 -9.238795e+000  1.400000e+001
      vertex -2.083778e+000 -1.181769e+001  1.600000e+001
      vertex -1.836910e-015 -1.000000e+001  1.400000e+001
    endloop
  endfacet
  facet normal -2.525063e-001  6.937553e-001  6.744956e-001
    outer loop
      vertex  2.083778e+000 -1.181769e+001  1.600000e+001
      vertex  6.000000e+000 -1.039230e+001  1.600000e+001
      vertex  3.826834e+000 -9.238795e+000  1.400000e+001
    endloop
  endfacet
  facet normal -1.315822e-001  6.615086e-001  7.383037e-001
    outer loop
      vertex -1.836910e-015 -1.000000e+001  1.400000e+001
      vertex  2.083778e+000 -1.181769e+001  1.600000e+001
      vertex  3.826834e+000 -9.238795e+000  1.400000e+001
    endloop
  endfacet
  facet normal -4.711946e-001  5.615480e-001  6.801762e-001
    outer loop
      vertex  6.000000e+000 -1.039230e+001  1.600000e+001
      vertex  9.192533e+000 -7.713451e+000  1.600000e+001
      vertex  7.071068e+000 -7.071068e+000  1.400000e+001
    endloop
  endfacet
  facet normal -3.768522e-001  5.639991e-001  7.347702e-001
    outer loop
      vertex  3.826834e+000 -9.238795e+000  1.400000e+001
      vertex  6.000000e+000 -1.039230e+001  1.600000e+001
      vertex  7.071068e+000 -7.071068e+000  1.400000e+001
    endloop
  endfacet
  facet normal -6.273594e-001  3.622062e-001  6.893670e-001
    outer loop
      vertex  9.192533e+000 -7.713451e+000  1.600000e+001
      vertex  1.127631e+001 -4.104242e+000  1.600000e+001
      vertex  9.238795e+000 -3.826834e+000  1.400000e+001
    endloop
  endfacet
  facet normal -5.704542e-001  3.811653e-001  7.275267e-001
    outer loop
      vertex  7.071068e+000 -7.071068e+000  1.400000e+001
      vertex  9.192533e+000 -7.713451e+000  1.600000e+001
      vertex  9.238795e+000 -3.826834e+000  1.400000e+001
    endloop
  endfacet
  facet normal  6.844805e-001 -1.361516e-001  7.162046e-001
    outer loop
      vertex -9.238795e+000  3.826834e+000  1.400000e+001
      vertex -1.127631e+001  4.104242e+000  1.600000e+001
      vertex -1.000000e+001  1.224606e-015  1.400000e+001
    endloop
  endfacet
  facet normal  7.016738e-001 -1.237241e-001  7.016738e-001
    outer loop
      vertex -1.127631e+001  4.104242e+000  1.600000e+001
      vertex -1.200000e+001  4.672091e-007  1.600000e+001
      vertex -1.000000e+001  1.224606e-015  1.400000e+001
    endloop
  endfacet
  facet normal -7.016738e-001 -1.237239e-001  7.016738e-001
    outer loop
      vertex  1.200000e+001 -2.953665e-015  1.600000e+001
      vertex  1.127631e+001  4.104242e+000  1.600000e+001
      vertex  1.000000e+001 -2.449213e-015  1.400000e+001
    endloop
  endfacet
  facet normal -6.844804e-001 -1.361516e-001  7.162048e-001
    outer loop
      vertex  1.127631e+001  4.104242e+000  1.600000e+001
      vertex  9.238795e+000  3.826834e+000  1.400000e+001
      vertex  1.000000e+001 -2.449213e-015  1.400000e+001
    endloop
  endfacet
  facet normal -6.273594e-001 -3.622062e-001  6.893670e-001
    outer loop
      vertex  1.127631e+001  4.104242e+000  1.600000e+001
      vertex  9.192533e+000  7.713451e+000  1.600000e+001
      vertex  9.238795e+000  3.826834e+000  1.400000e+001
    endloop
  endfacet
  facet normal -4.711946e-001 -5.615480e-001  6.801762e-001
    outer loop
      vertex  9.192533e+000  7.713451e+000  1.600000e+001
      vertex  6.000000e+000  1.039230e+001  1.600000e+001
      vertex  7.071068e+000  7.071068e+000  1.400000e+001
    endloop
  endfacet
  facet normal -5.704542e-001 -3.811653e-001  7.275267e-001
    outer loop
      vertex  9.238795e+000  3.826834e+000  1.400000e+001
      vertex  9.192533e+000  7.713451e+000  1.600000e+001
      vertex  7.071068e+000  7.071068e+000  1.400000e+001
    endloop
  endfacet
  facet normal -2.525063e-001 -6.937553e-001  6.744955e-001
    outer loop
      vertex  6.000000e+000  1.039230e+001  1.600000e+001
      vertex  2.083778e+000  1.181769e+001  1.600000e+001
      vertex  3.826834e+000  9.238795e+000  1.400000e+001
    endloop
  endfacet
  facet normal -3.768522e-001 -5.639991e-001  7.347702e-001
    outer loop
      vertex  7.071068e+000  7.071068e+000  1.400000e+001
      vertex  6.000000e+000  1.039230e+001  1.600000e+001
      vertex  3.826834e+000  9.238795e+000  1.400000e+001
    endloop
  endfacet
  facet normal  0.000000e+000 -7.400301e-001  6.725737e-001
    outer loop
      vertex  2.083778e+000  1.181769e+001  1.600000e+001
      vertex -2.083778e+000  1.181769e+001  1.600000e+001
      vertex  6.123032e-016  1.000000e+001  1.400000e+001
    endloop
  endfacet
  facet normal -1.315822e-001 -6.615085e-001  7.383038e-001
    outer loop
      vertex  3.826834e+000  9.238795e+000  1.400000e+001
      vertex  2.083778e+000  1.181769e+001  1.600000e+001
      vertex  6.123032e-016  1.000000e+001  1.400000e+001
    endloop
  endfacet
  facet normal  2.525061e-001 -6.937553e-001  6.744956e-001
    outer loop
      vertex -2.083778e+000  1.181769e+001  1.600000e+001
      vertex -6.000000e+000  1.039231e+001  1.600000e+001
      vertex -3.826834e+000  9.238795e+000  1.400000e+001
    endloop
  endfacet
  facet normal  1.315822e-001 -6.615086e-001  7.383037e-001
    outer loop
      vertex  6.123032e-016  1.000000e+001  1.400000e+001
      vertex -2.083778e+000  1.181769e+001  1.600000e+001
      vertex -3.826834e+000  9.238795e+000  1.400000e+001
    endloop
  endfacet
  facet normal  4.711947e-001 -5.615479e-001  6.801762e-001
    outer loop
      vertex -6.000000e+000  1.039231e+001  1.600000e+001
      vertex -9.192533e+000  7.713451e+000  1.600000e+001
      vertex -7.071068e+000  7.071068e+000  1.400000e+001
    endloop
  endfacet
  facet normal  3.768522e-001 -5.639991e-001  7.347703e-001
    outer loop
      vertex -3.826834e+000  9.238795e+000  1.400000e+001
      vertex -6.000000e+000  1.039231e+001  1.600000e+001
      vertex -7.071068e+000  7.071068e+000  1.400000e+001
    endloop
  endfacet
  facet normal  6.273596e-001 -3.622061e-001  6.893669e-001
    outer loop
      vertex -9.192533e+000  7.713451e+000  1.600000e+001
      vertex -1.127631e+001  4.104242e+000  1.600000e+001
      vertex -9.238795e+000  3.826834e+000  1.400000e+001
    endloop
  endfacet
  facet normal  5.704542e-001 -3.811653e-001  7.275267e-001
    outer loop
      vertex -7.071068e+000  7.071068e+000  1.400000e+001
      vertex -9.192533e+000  7.713451e+000  1.600000e+001
      vertex -9.238795e+000  3.826834e+000  1.400000e+001
    endloop
  endfacet
  facet normal  8.944272e-001 -4.472136e-001  0.000000e+000
    outer loop
      vertex  9.818579e+000 -1.487091e+001  0.000000e+000
      vertex  1.778787e+001  1.067683e+000  0.000000e+000
      vertex  9.818579e+000 -1.487091e+001  1.400000e+001
    endloop
  endfacet
  facet normal  8.944272e-001 -4.472136e-001  0.000000e+000
    outer loop
      vertex  9.818579e+000 -1.487091e+001  1.400000e+001
      vertex  1.778787e+001  1.067683e+000  0.000000e+000
      vertex  1.778787e+001  1.067683e+000  1.400000e+001
    endloop
  endfacet
  facet normal  8.345119e-001  5.509899e-001  0.000000e+000
    outer loop
      vertex  1.778787e+001  1.067683e+000  0.000000e+000
      vertex  7.969296e+000  1.593859e+001  0.000000e+000
      vertex  1.778787e+001  1.067683e+000  1.400000e+001
    endloop
  endfacet
  facet normal  8.345119e-001  5.509899e-001  0.000000e+000
    outer loop
      vertex  1.778787e+001  1.067683e+000  1.400000e+001
      vertex  7.969296e+000  1.593859e+001  0.000000e+000
      vertex  7.969296e+000  1.593859e+001  1.400000e+001
    endloop
  endfacet
  facet normal -5.991525e-002  9.982035e-001  0.000000e+000
    outer loop
      vertex  7.969296e+000  1.593859e+001  0.000000e+000
      vertex -9.818579e+000  1.487091e+001  0.000000e+000
      vertex  7.969296e+000  1.593859e+001  1.400000e+001
    endloop
  endfacet
  facet normal -5.991525e-002  9.982035e-001  0.000000e+000
    outer loop
      vertex  7.969296e+000  1.593859e+001  1.400000e+001
      vertex -9.818579e+000  1.487091e+001  0.000000e+000
      vertex -9.818579e+000  1.487091e+001  1.400000e+001
    endloop
  endfacet
  facet normal -8.944272e-001  4.472136e-001  0.000000e+000
    outer loop
      vertex -9.818579e+000  1.487091e+001  0.000000e+000
      vertex -1.778787e+001 -1.067683e+000  0.000000e+000
      vertex -9.818579e+000  1.487091e+001  1.400000e+001
    endloop
  endfacet
  facet normal -8.944272e-001  4.472136e-001  0.000000e+000
    outer loop
      vertex -9.818579e+000  1.487091e+001  1.400000e+001
      vertex -1.778787e+001 -1.067683e+000  0.000000e+000
      vertex -1.778787e+001 -1.067683e+000  1.400000e+001
    endloop
  endfacet
  facet normal -8.345119e-001 -5.509899e-001  0.000000e+000
    outer loop
      vertex -1.778787e+001 -1.067683e+000  0.000000e+000
      vertex -7.969296e+000 -1.593859e+001  0.000000e+000
      vertex -1.778787e+001 -1.067683e+000  1.400000e+001
    endloop
  endfacet
  facet normal -8.345119e-001 -5.509899e-001  0.000000e+000
    outer loop
      vertex -1.778787e+001 -1.067683e+000  1.400000e+001
      vertex -7.969296e+000 -1.593859e+001  0.000000e+000
      vertex -7.969296e+000 -1.593859e+001  1.400000e+001
    endloop
  endfacet
  facet normal  5.991525e-002 -9.982035e-001  0.000000e+000
    outer loop
      vertex -7.969296e+000 -1.593859e+001  0.000000e+000
      vertex  9.818579e+000 -1.487091e+001  0.000000e+000
      vertex -7.969296e+000 -1.593859e+001  1.400000e+001
    endloop
  endfacet
  facet normal  5.991525e-002 -9.982035e-001  0.000000e+000
    outer loop
      vertex -7.969296e+000 -1.593859e+001  1.400000e+001
      vertex  9.818579e+000 -1.487091e+001  0.000000e+000
      vertex  9.818579e+000 -1.487091e+001  1.400000e+001
    endloop
  endfacet
  facet normal -5.900891e-001 -3.896087e-001  7.071068e-001
    outer loop
      vertex -7.969296e+000 -1.593859e+001  1.400000e+001
      vertex -6.936501e+000 -1.387300e+001  1.600000e+001
      vertex -1.778787e+001 -1.067683e+000  1.400000e+001
    endloop
  endfacet
  facet normal -5.900891e-001 -3.896088e-001  7.071066e-001
    outer loop
      vertex -1.778787e+001 -1.067683e+000  1.400000e+001
      vertex -6.936501e+000 -1.387300e+001  1.600000e+001
      vertex -1.548262e+001 -9.293149e-001  1.600000e+001
    endloop
  endfacet
  facet normal -6.324557e-001  3.162278e-001  7.071066e-001
    outer loop
      vertex -1.778787e+001 -1.067683e+000  1.400000e+001
      vertex -1.548262e+001 -9.293149e-001  1.600000e+001
      vertex -9.818579e+000  1.487091e+001  1.400000e+001
    endloop
  endfacet
  facet normal -6.324555e-001  3.162278e-001  7.071068e-001
    outer loop
      vertex -9.818579e+000  1.487091e+001  1.400000e+001
      vertex -1.548262e+001 -9.293149e-001  1.600000e+001
      vertex -8.546122e+000  1.294369e+001  1.600000e+001
    endloop
  endfacet
  facet normal -4.236649e-002  7.058366e-001  7.071067e-001
    outer loop
      vertex -9.818579e+000  1.487091e+001  1.400000e+001
      vertex -8.546122e+000  1.294369e+001  1.600000e+001
      vertex  7.969296e+000  1.593859e+001  1.400000e+001
    endloop
  endfacet
  facet normal -4.236647e-002  7.058365e-001  7.071067e-001
    outer loop
      vertex  7.969296e+000  1.593859e+001  1.400000e+001
      vertex -8.546122e+000  1.294369e+001  1.600000e+001
      vertex  6.936501e+000  1.387300e+001  1.600000e+001
    endloop
  endfacet
  facet normal  5.900891e-001  3.896087e-001  7.071068e-001
    outer loop
      vertex  7.969296e+000  1.593859e+001  1.400000e+001
      vertex  6.936501e+000  1.387300e+001  1.600000e+001
      vertex  1.778787e+001  1.067683e+000  1.400000e+001
    endloop
  endfacet
  facet normal  5.900891e-001  3.896088e-001  7.071066e-001
    outer loop
      vertex  1.778787e+001  1.067683e+000  1.400000e+001
      vertex  6.936501e+000  1.387300e+001  1.600000e+001
      vertex  1.548262e+001  9.293149e-001  1.600000e+001
    endloop
  endfacet
  facet normal  6.324557e-001 -3.162278e-001  7.071066e-001
    outer loop
      vertex  1.778787e+001  1.067683e+000  1.400000e+001
      vertex  1.548262e+001  9.293149e-001  1.600000e+001
      vertex  9.818579e+000 -1.487091e+001  1.400000e+001
    endloop
  endfacet
  facet normal  6.324555e-001 -3.162278e-001  7.071068e-001
    outer loop
      vertex  9.818579e+000 -1.487091e+001  1.400000e+001
      vertex  1.548262e+001  9.293149e-001  1.600000e+001
      vertex  8.546122e+000 -1.294369e+001  1.600000e+001
    endloop
  endfacet
  facet normal  4.236649e-002 -7.058366e-001  7.071067e-001
    outer loop
      vertex  9.818579e+000 -1.487091e+001  1.400000e+001
      vertex  8.546122e+000 -1.294369e+001  1.600000e+001
      vertex -7.969296e+000 -1.593859e+001  1.400000e+001
    endloop
  endfacet
  facet normal  4.236647e-002 -7.058365e-001  7.071067e-001
    outer loop
      vertex -7.969296e+000 -1.593859e+001  1.400000e+001
      vertex  8.546122e+000 -1.294369e+001  1.600000e+001
      vertex -6.936501e+000 -1.387300e+001  1.600000e+001
    endloop
  endfacet
  facet normal  0.000000e+000  0.000000e+000 -1.000000e+000
    outer loop
      vertex -1.778787e+001 -1.067683e+000  0.000000e+000
      vertex -7.071068e+000  7.071068e+000  0.000000e+000
      vertex -9.238795e+000  3.826834e+000  0.000000e+000
    endloop
  endfacet
  facet normal  0.000000e+000  0.000000e+000 -1.000000e+000
    outer loop
      vertex -1.778787e+001 -1.067683e+000  0.000000e+000
      vertex -9.238795e+000  3.826834e+000  0.000000e+000
      vertex -1.000000e+001  1.224606e-015  0.000000e+000
    endloop
  endfacet
  facet normal  0.000000e+000  -0.000000e+000 -1.000000e+000
    outer loop
      vertex -1.778787e+001 -1.067683e+000  0.000000e+000
      vertex -1.000000e+001  1.224606e-015  0.000000e+000
      vertex -9.238795e+000 -3.826834e+000  0.000000e+000
    endloop
  endfacet
  facet normal  -0.000000e+000  -0.000000e+000 -1.000000e+000
    outer loop
      vertex -1.778787e+001 -1.067683e+000  0.000000e+000
      vertex -9.238795e+000 -3.826834e+000  0.000000e+000
      vertex -7.969296e+000 -1.593859e+001  0.000000e+000
    endloop
  endfacet
  facet normal  0.000000e+000  0.000000e+000 -1.000000e+000
    outer loop
      vertex  1.778787e+001  1.067683e+000  0.000000e+000
      vertex  9.818579e+000 -1.487091e+001  0.000000e+000
      vertex  1.000000e+001  0.000000e+000  0.000000e+000
    endloop
  endfacet
  facet normal  0.000000e+000  0.000000e+000 -1.000000e+000
    outer loop
      vertex  1.778787e+001  1.067683e+000  0.000000e+000
      vertex  1.000000e+001  0.000000e+000  0.000000e+000
      vertex  9.238795e+000  3.826834e+000  0.000000e+000
    endloop
  endfacet
  facet normal  0.000000e+000  0.000000e+000 -1.000000e+000
    outer loop
      vertex  1.778787e+001  1.067683e+000  0.000000e+000
      vertex  9.238795e+000  3.826834e+000  0.000000e+000
      vertex  7.071068e+000  7.071068e+000  0.000000e+000
    endloop
  endfacet
  facet normal  0.000000e+000  0.000000e+000 -1.000000e+000
    outer loop
      vertex  1.778787e+001  1.067683e+000  0.000000e+000
      vertex  7.071068e+000  7.071068e+000  0.000000e+000
      vertex  3.826834e+000  9.238795e+000  0.000000e+000
    endloop
  endfacet
  facet normal  0.000000e+000  0.000000e+000 -1.000000e+000
    outer loop
      vertex  1.778787e+001  1.067683e+000  0.000000e+000
      vertex  3.826834e+000  9.238795e+000  0.000000e+000
      vertex  7.969296e+000  1.593859e+001  0.000000e+000
    endloop
  endfacet
  facet normal  0.000000e+000  0.000000e+000 -1.000000e+000
    outer loop
      vertex -9.818579e+000  1.487091e+001  0.000000e+000
      vertex  7.969296e+000  1.593859e+001  0.000000e+000
      vertex  3.826834e+000  9.238795e+000  0.000000e+000
    endloop
  endfacet
  facet normal  0.000000e+000  0.000000e+000 -1.000000e+000
    outer loop
      vertex -9.818579e+000  1.487091e+001  0.000000e+000
      vertex  3.826834e+000  9.238795e+000  0.000000e+000
      vertex  6.123032e-016  1.000000e+001  0.000000e+000
    endloop
  endfacet
  facet normal  -0.000000e+000  0.000000e+000 -1.000000e+000
    outer loop
      vertex -9.818579e+000  1.487091e+001  0.000000e+000
      vertex  6.123032e-016  1.000000e+001  0.000000e+000
      vertex -3.826834e+000  9.238795e+000  0.000000e+000
    endloop
  endfacet
  facet normal  -0.000000e+000  0.000000e+000 -1.000000e+000
    outer loop
      vertex -9.818579e+000  1.487091e+001  0.000000e+000
      vertex -3.826834e+000  9.238795e+000  0.000000e+000
      vertex -7.071068e+000  7.071068e+000  0.000000e+000
    endloop
  endfacet
  facet normal  -0.000000e+000  0.000000e+000 -1.000000e+000
    outer loop
      vertex -9.818579e+000  1.487091e+001  0.000000e+000
      vertex -7.071068e+000  7.071068e+000  0.000000e+000
      vertex -1.778787e+001 -1.067683e+000  0.000000e+000
    endloop
  endfacet
  facet normal  0.000000e+000  0.000000e+000 -1.000000e+000
    outer loop
      vertex -7.969296e+000 -1.593859e+001  0.000000e+000
      vertex -9.238795e+000 -3.826834e+000  0.000000e+000
      vertex -7.071068e+000 -7.071068e+000  0.000000e+000
    endloop
  endfacet
  facet normal  0.000000e+000  -0.000000e+000 -1.000000e+000
    outer loop
      vertex -7.969296e+000 -1.593859e+001  0.000000e+000
      vertex -7.071068e+000 -7.071068e+000  0.000000e+000
      vertex -3.826834e+000 -9.238795e+000  0.000000e+000
    endloop
  endfacet
  facet normal  0.000000e+000  -0.000000e+000 -1.000000e+000
    outer loop
      vertex -7.969296e+000 -1.593859e+001  0.000000e+000
      vertex -3.826834e+000 -9.238795e+000  0.000000e+000
      vertex -1.836910e-015 -1.000000e+001  0.000000e+000
    endloop
  endfacet
  facet normal  0.000000e+000  -0.000000e+000 -1.000000e+000
    outer loop
      vertex -7.969296e+000 -1.593859e+001  0.000000e+000
      vertex -1.836910e-015 -1.000000e+001  0.000000e+000
      vertex  9.818579e+000 -1.487091e+001  0.000000e+000
    endloop
  endfacet
  facet normal  0.000000e+000  0.000000e+000 -1.000000e+000
    outer loop
      vertex  9.818579e+000 -1.487091e+001  0.000000e+000
      vertex -1.836910e-015 -1.000000e+001  0.000000e+000
      vertex  3.826834e+000 -9.238795e+000  0.000000e+000
    endloop
  endfacet
  facet normal  0.000000e+000  0.000000e+000 -1.000000e+000
    outer loop
      vertex  9.818579e+000 -1.487091e+001  0.000000e+000
      vertex  3.826834e+000 -9.238795e+000  0.000000e+000
      vertex  7.071068e+000 -7.071068e+000  0.000000e+000
    endloop
  endfacet
  facet normal  0.000000e+000  0.000000e+000 -9.999999e-001
    outer loop
      vertex  9.818579e+000 -1.487091e+001  0.000000e+000
      vertex  7.071068e+000 -7.071068e+000  0.000000e+000
      vertex  9.238795e+000 -3.826834e+000  0.000000e+000
    endloop
  endfacet
  facet normal  0.000000e+000  0.000000e+000 -9.999999e-001
    outer loop
      vertex  9.818579e+000 -1.487091e+001  0.000000e+000
      vertex  9.238795e+000 -3.826834e+000  0.000000e+000
      vertex  1.000000e+001  0.000000e+000  0.000000e+000
    endloop
  endfacet
endsolid CATIA STL
