solid CATIA STL
  facet normal  9.866759e-001 -1.626738e-001  2.784677e-003
    outer loop
      vertex -2.711894e+001  4.562144e+000  6.704196e+001
      vertex -2.746396e+001  1.407414e+000  5.000000e+000
      vertex -2.646220e+001  7.483433e+000  5.000000e+000
    endloop
  endfacet
  facet normal  9.595470e-001  2.815389e-001  2.333269e-003
    outer loop
      vertex -2.535483e+001 -1.064813e+001  5.000000e+000
      vertex -2.708856e+001 -4.739180e+000  5.000000e+000
      vertex -2.671085e+001 -6.540689e+000  6.704196e+001
    endloop
  endfacet
  facet normal  9.358164e-001  3.524762e-001 -2.881748e-003
    outer loop
      vertex -2.438868e+001 -1.270599e+001  6.704196e+001
      vertex -2.535483e+001 -1.064813e+001  5.000000e+000
      vertex -2.671085e+001 -6.540689e+000  6.704196e+001
    endloop
  endfacet
  facet normal  8.728403e-001  4.879990e-001  2.594079e-003
    outer loop
      vertex -2.234970e+001 -1.602314e+001  5.000000e+000
      vertex -2.535483e+001 -1.064813e+001  5.000000e+000
      vertex -2.438868e+001 -1.270599e+001  6.704196e+001
    endloop
  endfacet
  facet normal  8.251272e-001  5.649384e-001 -3.087653e-003
    outer loop
      vertex -2.066678e+001 -1.814206e+001  6.704196e+001
      vertex -2.234970e+001 -1.602314e+001  5.000000e+000
      vertex -2.438868e+001 -1.270599e+001  6.704196e+001
    endloop
  endfacet
  facet normal  7.423661e-001  6.699889e-001  2.745071e-003
    outer loop
      vertex -1.822386e+001 -2.059468e+001  5.000000e+000
      vertex -2.234970e+001 -1.602314e+001  5.000000e+000
      vertex -2.066678e+001 -1.814206e+001  6.704196e+001
    endloop
  endfacet
  facet normal  6.670820e-001  7.449775e-001 -3.183689e-003
    outer loop
      vertex -1.575875e+001 -2.253690e+001  6.704196e+001
      vertex -1.822386e+001 -2.059468e+001  5.000000e+000
      vertex -2.066678e+001 -1.814206e+001  6.704196e+001
    endloop
  endfacet
  facet normal  5.746669e-001  8.183827e-001  2.786170e-003
    outer loop
      vertex -1.575875e+001 -2.253690e+001  6.704196e+001
      vertex -1.318420e+001 -2.413352e+001  5.000000e+000
      vertex -1.822386e+001 -2.059468e+001  5.000000e+000
    endloop
  endfacet
  facet normal  4.707515e-001  8.822602e-001 -3.169859e-003
    outer loop
      vertex -1.318420e+001 -2.413352e+001  5.000000e+000
      vertex -1.575875e+001 -2.253690e+001  6.704196e+001
      vertex -9.946280e+000 -2.563828e+001  6.704196e+001
    endloop
  endfacet
  facet normal  3.781517e-001  9.257397e-001  2.717405e-003
    outer loop
      vertex -9.946280e+000 -2.563828e+001  6.704196e+001
      vertex -7.483433e+000 -2.646220e+001  5.000000e+000
      vertex -1.318420e+001 -2.413352e+001  5.000000e+000
    endloop
  endfacet
  facet normal  2.474026e-001  9.689080e-001 -3.046148e-003
    outer loop
      vertex -7.483433e+000 -2.646220e+001  5.000000e+000
      vertex -9.946280e+000 -2.563828e+001  6.704196e+001
      vertex -3.562965e+000 -2.726821e+001  6.704196e+001
    endloop
  endfacet
  facet normal  1.626739e-001  9.866765e-001  2.538747e-003
    outer loop
      vertex -3.562965e+000 -2.726821e+001  6.704196e+001
      vertex -1.407414e+000 -2.746396e+001  5.000000e+000
      vertex -7.483433e+000 -2.646220e+001  5.000000e+000
    endloop
  endfacet
  facet normal  9.854988e-003  9.999475e-001 -2.812580e-003
    outer loop
      vertex -1.407414e+000 -2.746396e+001  5.000000e+000
      vertex -3.562965e+000 -2.726821e+001  6.704196e+001
      vertex  3.024840e+000 -2.733314e+001  6.704196e+001
    endloop
  endfacet
  facet normal -6.096052e-002  9.981377e-001  2.250268e-003
    outer loop
      vertex  3.024840e+000 -2.733314e+001  6.704196e+001
      vertex  4.739180e+000 -2.708856e+001  5.000000e+000
      vertex -1.407414e+000 -2.746396e+001  5.000000e+000
    endloop
  endfacet
  facet normal -2.282587e-001  9.735973e-001 -2.469245e-003
    outer loop
      vertex  4.739180e+000 -2.708856e+001  5.000000e+000
      vertex  3.024840e+000 -2.733314e+001  6.704196e+001
      vertex  9.439039e+000 -2.582933e+001  6.704196e+001
    endloop
  endfacet
  facet normal -2.815392e-001  9.595479e-001  1.852055e-003
    outer loop
      vertex  9.439039e+000 -2.582933e+001  6.704196e+001
      vertex  1.064813e+001 -2.535483e+001  5.000000e+000
      vertex  4.739180e+000 -2.708856e+001  5.000000e+000
    endloop
  endfacet
  facet normal -4.532724e-001  8.913698e-001 -2.016169e-003
    outer loop
      vertex  1.064813e+001 -2.535483e+001  5.000000e+000
      vertex  9.439039e+000 -2.582933e+001  6.704196e+001
      vertex  1.531151e+001 -2.284311e+001  6.704196e+001
    endloop
  endfacet
  facet normal -4.880002e-001  8.728424e-001  1.344202e-003
    outer loop
      vertex  1.531151e+001 -2.284311e+001  6.704196e+001
      vertex  1.602314e+001 -2.234970e+001  5.000000e+000
      vertex  1.064813e+001 -2.535483e+001  5.000000e+000
    endloop
  endfacet
  facet normal -6.522722e-001  7.579834e-001 -1.453497e-003
    outer loop
      vertex  1.602314e+001 -2.234970e+001  5.000000e+000
      vertex  1.531151e+001 -2.284311e+001  6.704196e+001
      vertex  2.030520e+001 -1.854586e+001  6.704196e+001
    endloop
  endfacet
  facet normal  9.927967e-001  1.197837e-001 -2.566037e-003
    outer loop
      vertex -2.750000e+001 -4.000503e-014  6.704196e+001
      vertex -2.671085e+001 -6.540689e+000  6.704196e+001
      vertex -2.708856e+001 -4.739180e+000  5.000000e+000
    endloop
  endfacet
  facet normal  9.981382e-001  6.096056e-002  1.962687e-003
    outer loop
      vertex -2.750000e+001 -4.000503e-014  6.704196e+001
      vertex -2.708856e+001 -4.739180e+000  5.000000e+000
      vertex -2.746396e+001  1.407414e+000  5.000000e+000
    endloop
  endfacet
  facet normal  9.965289e-001 -8.323693e-002 -1.309348e-003
    outer loop
      vertex -2.750000e+001 -4.000503e-014  6.704196e+001
      vertex -2.746396e+001  1.407414e+000  5.000000e+000
      vertex -2.711894e+001  4.562144e+000  6.704196e+001
    endloop
  endfacet
  facet normal  9.689115e-001 -2.474035e-001 -1.392922e-003
    outer loop
      vertex -2.711894e+001  4.562144e+000  6.704196e+001
      vertex -2.646220e+001  7.483433e+000  5.000000e+000
      vertex -2.598632e+001  8.997854e+000  6.704196e+001
    endloop
  endfacet
  facet normal  9.257410e-001 -3.781522e-001  2.129739e-003
    outer loop
      vertex -2.598632e+001  8.997854e+000  6.704196e+001
      vertex -2.646220e+001  7.483433e+000  5.000000e+000
      vertex -2.413352e+001  1.318420e+001  5.000000e+000
    endloop
  endfacet
  facet normal  9.144430e-001 -4.047148e-001  0.000000e+000
    outer loop
      vertex -2.598632e+001  8.997854e+000  6.704196e+001
      vertex -2.413352e+001  1.318420e+001  5.000000e+000
      vertex -2.413352e+001  1.318420e+001  6.704196e+001
    endloop
  endfacet
  facet normal -6.699913e-001  7.423686e-001  7.268058e-004
    outer loop
      vertex  1.602314e+001 -2.234970e+001  5.000000e+000
      vertex  2.030520e+001 -1.854586e+001  6.704196e+001
      vertex  2.059468e+001 -1.822386e+001  5.000000e+000
    endloop
  endfacet
  facet normal -8.138363e-001  5.810938e-001 -7.813760e-004
    outer loop
      vertex  2.059468e+001 -1.822386e+001  5.000000e+000
      vertex  2.030520e+001 -1.854586e+001  6.704196e+001
      vertex  2.413352e+001 -1.318420e+001  6.704196e+001
    endloop
  endfacet
  facet normal -8.183858e-001  5.746691e-001  0.000000e+000
    outer loop
      vertex  2.059468e+001 -1.822386e+001  5.000000e+000
      vertex  2.413352e+001 -1.318420e+001  6.704196e+001
      vertex  2.413352e+001 -1.318420e+001  5.000000e+000
    endloop
  endfacet
  facet normal -9.866759e-001  1.626738e-001  2.784677e-003
    outer loop
      vertex  2.711894e+001 -4.562144e+000  6.704196e+001
      vertex  2.746396e+001 -1.407414e+000  5.000000e+000
      vertex  2.646220e+001 -7.483433e+000  5.000000e+000
    endloop
  endfacet
  facet normal -9.595470e-001 -2.815389e-001  2.333269e-003
    outer loop
      vertex  2.535483e+001  1.064813e+001  5.000000e+000
      vertex  2.708856e+001  4.739180e+000  5.000000e+000
      vertex  2.671085e+001  6.540689e+000  6.704196e+001
    endloop
  endfacet
  facet normal -9.358164e-001 -3.524762e-001 -2.881748e-003
    outer loop
      vertex  2.438868e+001  1.270599e+001  6.704196e+001
      vertex  2.535483e+001  1.064813e+001  5.000000e+000
      vertex  2.671085e+001  6.540689e+000  6.704196e+001
    endloop
  endfacet
  facet normal -8.728403e-001 -4.879990e-001  2.594079e-003
    outer loop
      vertex  2.234970e+001  1.602314e+001  5.000000e+000
      vertex  2.535483e+001  1.064813e+001  5.000000e+000
      vertex  2.438868e+001  1.270599e+001  6.704196e+001
    endloop
  endfacet
  facet normal -8.251272e-001 -5.649384e-001 -3.087653e-003
    outer loop
      vertex  2.066678e+001  1.814206e+001  6.704196e+001
      vertex  2.234970e+001  1.602314e+001  5.000000e+000
      vertex  2.438868e+001  1.270599e+001  6.704196e+001
    endloop
  endfacet
  facet normal -7.423661e-001 -6.699889e-001  2.745071e-003
    outer loop
      vertex  1.822386e+001  2.059468e+001  5.000000e+000
      vertex  2.234970e+001  1.602314e+001  5.000000e+000
      vertex  2.066678e+001  1.814206e+001  6.704196e+001
    endloop
  endfacet
  facet normal -6.670820e-001 -7.449775e-001 -3.183689e-003
    outer loop
      vertex  1.575875e+001  2.253690e+001  6.704196e+001
      vertex  1.822386e+001  2.059468e+001  5.000000e+000
      vertex  2.066678e+001  1.814206e+001  6.704196e+001
    endloop
  endfacet
  facet normal -5.746669e-001 -8.183827e-001  2.786170e-003
    outer loop
      vertex  1.575875e+001  2.253690e+001  6.704196e+001
      vertex  1.318420e+001  2.413352e+001  5.000000e+000
      vertex  1.822386e+001  2.059468e+001  5.000000e+000
    endloop
  endfacet
  facet normal -4.707515e-001 -8.822602e-001 -3.169859e-003
    outer loop
      vertex  1.318420e+001  2.413352e+001  5.000000e+000
      vertex  1.575875e+001  2.253690e+001  6.704196e+001
      vertex  9.946280e+000  2.563828e+001  6.704196e+001
    endloop
  endfacet
  facet normal -3.781517e-001 -9.257397e-001  2.717405e-003
    outer loop
      vertex  9.946280e+000  2.563828e+001  6.704196e+001
      vertex  7.483433e+000  2.646220e+001  5.000000e+000
      vertex  1.318420e+001  2.413352e+001  5.000000e+000
    endloop
  endfacet
  facet normal -2.474026e-001 -9.689080e-001 -3.046148e-003
    outer loop
      vertex  7.483433e+000  2.646220e+001  5.000000e+000
      vertex  9.946280e+000  2.563828e+001  6.704196e+001
      vertex  3.562965e+000  2.726821e+001  6.704196e+001
    endloop
  endfacet
  facet normal -1.626739e-001 -9.866765e-001  2.538747e-003
    outer loop
      vertex  3.562965e+000  2.726821e+001  6.704196e+001
      vertex  1.407414e+000  2.746396e+001  5.000000e+000
      vertex  7.483433e+000  2.646220e+001  5.000000e+000
    endloop
  endfacet
  facet normal -9.854988e-003 -9.999475e-001 -2.812580e-003
    outer loop
      vertex  1.407414e+000  2.746396e+001  5.000000e+000
      vertex  3.562965e+000  2.726821e+001  6.704196e+001
      vertex -3.024840e+000  2.733314e+001  6.704196e+001
    endloop
  endfacet
  facet normal  6.096052e-002 -9.981377e-001  2.250268e-003
    outer loop
      vertex -3.024840e+000  2.733314e+001  6.704196e+001
      vertex -4.739180e+000  2.708856e+001  5.000000e+000
      vertex  1.407414e+000  2.746396e+001  5.000000e+000
    endloop
  endfacet
  facet normal  2.282587e-001 -9.735973e-001 -2.469245e-003
    outer loop
      vertex -4.739180e+000  2.708856e+001  5.000000e+000
      vertex -3.024840e+000  2.733314e+001  6.704196e+001
      vertex -9.439039e+000  2.582933e+001  6.704196e+001
    endloop
  endfacet
  facet normal  2.815392e-001 -9.595479e-001  1.852055e-003
    outer loop
      vertex -9.439039e+000  2.582933e+001  6.704196e+001
      vertex -1.064813e+001  2.535483e+001  5.000000e+000
      vertex -4.739180e+000  2.708856e+001  5.000000e+000
    endloop
  endfacet
  facet normal  4.532724e-001 -8.913698e-001 -2.016169e-003
    outer loop
      vertex -1.064813e+001  2.535483e+001  5.000000e+000
      vertex -9.439039e+000  2.582933e+001  6.704196e+001
      vertex -1.531151e+001  2.284311e+001  6.704196e+001
    endloop
  endfacet
  facet normal  4.880002e-001 -8.728424e-001  1.344202e-003
    outer loop
      vertex -1.531151e+001  2.284311e+001  6.704196e+001
      vertex -1.602314e+001  2.234970e+001  5.000000e+000
      vertex -1.064813e+001  2.535483e+001  5.000000e+000
    endloop
  endfacet
  facet normal  6.522722e-001 -7.579834e-001 -1.453497e-003
    outer loop
      vertex -1.602314e+001  2.234970e+001  5.000000e+000
      vertex -1.531151e+001  2.284311e+001  6.704196e+001
      vertex -2.030520e+001  1.854586e+001  6.704196e+001
    endloop
  endfacet
  facet normal -9.927967e-001 -1.197837e-001 -2.566037e-003
    outer loop
      vertex  2.750000e+001 -6.653938e-014  6.704196e+001
      vertex  2.671085e+001  6.540689e+000  6.704196e+001
      vertex  2.708856e+001  4.739180e+000  5.000000e+000
    endloop
  endfacet
  facet normal -9.981382e-001 -6.096056e-002  1.962687e-003
    outer loop
      vertex  2.750000e+001 -6.653938e-014  6.704196e+001
      vertex  2.708856e+001  4.739180e+000  5.000000e+000
      vertex  2.746396e+001 -1.407414e+000  5.000000e+000
    endloop
  endfacet
  facet normal -9.965289e-001  8.323693e-002 -1.309348e-003
    outer loop
      vertex  2.750000e+001 -6.653938e-014  6.704196e+001
      vertex  2.746396e+001 -1.407414e+000  5.000000e+000
      vertex  2.711894e+001 -4.562144e+000  6.704196e+001
    endloop
  endfacet
  facet normal -9.689115e-001  2.474035e-001 -1.392922e-003
    outer loop
      vertex  2.711894e+001 -4.562144e+000  6.704196e+001
      vertex  2.646220e+001 -7.483433e+000  5.000000e+000
      vertex  2.598632e+001 -8.997854e+000  6.704196e+001
    endloop
  endfacet
  facet normal -9.257410e-001  3.781522e-001  2.129739e-003
    outer loop
      vertex  2.598632e+001 -8.997854e+000  6.704196e+001
      vertex  2.646220e+001 -7.483433e+000  5.000000e+000
      vertex  2.413352e+001 -1.318420e+001  5.000000e+000
    endloop
  endfacet
  facet normal -9.144430e-001  4.047148e-001  0.000000e+000
    outer loop
      vertex  2.598632e+001 -8.997854e+000  6.704196e+001
      vertex  2.413352e+001 -1.318420e+001  5.000000e+000
      vertex  2.413352e+001 -1.318420e+001  6.704196e+001
    endloop
  endfacet
  facet normal  6.699913e-001 -7.423686e-001  7.268058e-004
    outer loop
      vertex -1.602314e+001  2.234970e+001  5.000000e+000
      vertex -2.030520e+001  1.854586e+001  6.704196e+001
      vertex -2.059468e+001  1.822386e+001  5.000000e+000
    endloop
  endfacet
  facet normal  8.138363e-001 -5.810938e-001 -7.813760e-004
    outer loop
      vertex -2.059468e+001  1.822386e+001  5.000000e+000
      vertex -2.030520e+001  1.854586e+001  6.704196e+001
      vertex -2.413352e+001  1.318420e+001  6.704196e+001
    endloop
  endfacet
  facet normal  8.183858e-001 -5.746691e-001  0.000000e+000
    outer loop
      vertex -2.059468e+001  1.822386e+001  5.000000e+000
      vertex -2.413352e+001  1.318420e+001  6.704196e+001
      vertex -2.413352e+001  1.318420e+001  5.000000e+000
    endloop
  endfacet
  facet normal  9.438794e-001 -3.302777e-001 -2.855662e-003
    outer loop
      vertex  2.924784e+001 -6.675628e+000  4.000000e+000
      vertex  2.834871e+001 -9.815841e+000  7.000000e+001
      vertex  2.702907e+001 -1.301651e+001  4.000000e+000
    endloop
  endfacet
  facet normal  7.071055e-001 -7.071055e-001 -1.890321e-003
    outer loop
      vertex  1.870469e+001 -2.345494e+001  4.000000e+000
      vertex  2.345494e+001 -1.870469e+001  4.000000e+000
      vertex  2.255155e+001 -1.978453e+001  7.000000e+001
    endloop
  endfacet
  facet normal  6.747280e-001 -7.380645e-001  1.718517e-003
    outer loop
      vertex  2.255155e+001 -1.978453e+001  7.000000e+001
      vertex  1.768721e+001 -2.423144e+001  7.000000e+001
      vertex  1.870469e+001 -2.345494e+001  4.000000e+000
    endloop
  endfacet
  facet normal  5.320312e-001 -8.467230e-001 -1.759735e-003
    outer loop
      vertex  1.301651e+001 -2.702907e+001  4.000000e+000
      vertex  1.870469e+001 -2.345494e+001  4.000000e+000
      vertex  1.768721e+001 -2.423144e+001  7.000000e+001
    endloop
  endfacet
  facet normal  4.972824e-001 -8.675872e-001  1.583769e-003
    outer loop
      vertex  1.768721e+001 -2.423144e+001  7.000000e+001
      vertex  1.196923e+001 -2.750886e+001  7.000000e+001
      vertex  1.301651e+001 -2.702907e+001  4.000000e+000
    endloop
  endfacet
  facet normal  3.302786e-001 -9.438822e-001 -1.620859e-003
    outer loop
      vertex  6.675628e+000 -2.924784e+001  4.000000e+000
      vertex  1.301651e+001 -2.702907e+001  4.000000e+000
      vertex  1.196923e+001 -2.750886e+001  7.000000e+001
    endloop
  endfacet
  facet normal  2.958368e-001 -9.552374e-001  1.440774e-003
    outer loop
      vertex  1.196923e+001 -2.750886e+001  7.000000e+001
      vertex  5.673587e+000 -2.945862e+001  7.000000e+001
      vertex  6.675628e+000 -2.924784e+001  4.000000e+000
    endloop
  endfacet
  facet normal  1.119644e-001 -9.937111e-001 -1.473733e-003
    outer loop
      vertex -3.215608e-014 -3.000000e+001  4.000000e+000
      vertex  6.675628e+000 -2.924784e+001  4.000000e+000
      vertex  5.673587e+000 -2.945862e+001  7.000000e+001
    endloop
  endfacet
  facet normal  8.011305e-002 -9.967849e-001  1.289532e-003
    outer loop
      vertex  5.673587e+000 -2.945862e+001  7.000000e+001
      vertex -8.958852e-001 -2.998662e+001  7.000000e+001
      vertex -3.215608e-014 -3.000000e+001  4.000000e+000
    endloop
  endfacet
  facet normal -1.119644e-001 -9.937113e-001 -1.318354e-003
    outer loop
      vertex -6.675628e+000 -2.924784e+001  4.000000e+000
      vertex -3.215608e-014 -3.000000e+001  4.000000e+000
      vertex -8.958852e-001 -2.998662e+001  7.000000e+001
    endloop
  endfacet
  facet normal -1.394772e-001 -9.902247e-001  1.130020e-003
    outer loop
      vertex -8.958852e-001 -2.998662e+001  7.000000e+001
      vertex -7.422119e+000 -2.906737e+001  7.000000e+001
      vertex -6.675628e+000 -2.924784e+001  4.000000e+000
    endloop
  endfacet
  facet normal -3.302788e-001 -9.438828e-001 -1.154748e-003
    outer loop
      vertex -1.301651e+001 -2.702907e+001  4.000000e+000
      vertex -6.675628e+000 -2.924784e+001  4.000000e+000
      vertex -7.422119e+000 -2.906737e+001  7.000000e+001
    endloop
  endfacet
  facet normal -3.523363e-001 -9.358730e-001  9.622890e-004
    outer loop
      vertex -7.422119e+000 -2.906737e+001  7.000000e+001
      vertex -1.359014e+001 -2.674524e+001  7.000000e+001
      vertex -1.301651e+001 -2.702907e+001  4.000000e+000
    endloop
  endfacet
  facet normal -5.320317e-001 -8.467238e-001 -9.828700e-004
    outer loop
      vertex -1.870469e+001 -2.345494e+001  4.000000e+000
      vertex -1.301651e+001 -2.702907e+001  4.000000e+000
      vertex -1.359014e+001 -2.674524e+001  7.000000e+001
    endloop
  endfacet
  facet normal -5.481902e-001 -8.363533e-001  7.863058e-004
    outer loop
      vertex -1.359014e+001 -2.674524e+001  7.000000e+001
      vertex -1.910226e+001 -2.313231e+001  7.000000e+001
      vertex -1.870469e+001 -2.345494e+001  4.000000e+000
    endloop
  endfacet
  facet normal -7.071066e-001 -7.071066e-001 -8.027619e-004
    outer loop
      vertex -2.345494e+001 -1.870469e+001  4.000000e+000
      vertex -1.870469e+001 -2.345494e+001  4.000000e+000
      vertex -1.910226e+001 -2.313231e+001  7.000000e+001
    endloop
  endfacet
  facet normal -7.175871e-001 -6.964685e-001  6.020781e-004
    outer loop
      vertex -1.910226e+001 -2.313231e+001  7.000000e+001
      vertex -2.369244e+001 -1.840294e+001  7.000000e+001
      vertex -2.345494e+001 -1.870469e+001  4.000000e+000
    endloop
  endfacet
  facet normal -8.467241e-001 -5.320319e-001 -6.144235e-004
    outer loop
      vertex -2.702907e+001 -1.301651e+001  4.000000e+000
      vertex -2.345494e+001 -1.870469e+001  4.000000e+000
      vertex -2.369244e+001 -1.840294e+001  7.000000e+001
    endloop
  endfacet
  facet normal  8.196086e-001 -5.729209e-001  1.845024e-003
    outer loop
      vertex  2.632748e+001 -1.438277e+001  7.000000e+001
      vertex  2.255155e+001 -1.978453e+001  7.000000e+001
      vertex  2.345494e+001 -1.870469e+001  4.000000e+000
    endloop
  endfacet
  facet normal  8.467225e-001 -5.320309e-001 -2.012691e-003
    outer loop
      vertex  2.632748e+001 -1.438277e+001  7.000000e+001
      vertex  2.345494e+001 -1.870469e+001  4.000000e+000
      vertex  2.702907e+001 -1.301651e+001  4.000000e+000
    endloop
  endfacet
  facet normal  9.144422e-001 -4.047144e-001  1.342735e-003
    outer loop
      vertex  2.632748e+001 -1.438277e+001  7.000000e+001
      vertex  2.702907e+001 -1.301651e+001  4.000000e+000
      vertex  2.834871e+001 -9.815841e+000  7.000000e+001
    endloop
  endfacet
  facet normal  9.937122e-001 -1.119645e-001  1.058823e-016
    outer loop
      vertex  3.000000e+001 -3.399299e-014  4.000000e+000
      vertex  3.000000e+001  2.842171e-014  7.000000e+001
      vertex  2.924784e+001 -6.675628e+000  4.000000e+000
    endloop
  endfacet
  facet normal  9.965255e-001 -8.323652e-002 -2.937781e-003
    outer loop
      vertex  2.924784e+001 -6.675628e+000  4.000000e+000
      vertex  3.000000e+001  2.842171e-014  7.000000e+001
      vertex  2.958430e+001 -4.976884e+000  7.000000e+001
    endloop
  endfacet
  facet normal  9.689114e-001 -2.474036e-001  1.428416e-003
    outer loop
      vertex  2.924784e+001 -6.675628e+000  4.000000e+000
      vertex  2.958430e+001 -4.976884e+000  7.000000e+001
      vertex  2.834871e+001 -9.815841e+000  7.000000e+001
    endloop
  endfacet
  facet normal -9.939488e-001 -1.098443e-001  0.000000e+000
    outer loop
      vertex -3.000000e+001  1.699650e-014  7.000000e+001
      vertex -3.000000e+001  1.699650e-014  4.000000e+000
      vertex -2.927605e+001 -6.550774e+000  7.000000e+001
    endloop
  endfacet
  facet normal -9.937121e-001 -1.119645e-001 -2.130403e-004
    outer loop
      vertex -2.927605e+001 -6.550774e+000  7.000000e+001
      vertex -3.000000e+001  1.699650e-014  4.000000e+000
      vertex -2.924784e+001 -6.675628e+000  4.000000e+000
    endloop
  endfacet
  facet normal -9.459777e-001 -3.242315e-001  2.089193e-004
    outer loop
      vertex -2.927605e+001 -6.550774e+000  7.000000e+001
      vertex -2.924784e+001 -6.675628e+000  4.000000e+000
      vertex -2.713916e+001 -1.278539e+001  7.000000e+001
    endloop
  endfacet
  facet normal -9.438832e-001 -3.302790e-001 -4.178328e-004
    outer loop
      vertex -2.713916e+001 -1.278539e+001  7.000000e+001
      vertex -2.924784e+001 -6.675628e+000  4.000000e+000
      vertex -2.702907e+001 -1.301651e+001  4.000000e+000
    endloop
  endfacet
  facet normal -8.523511e-001 -5.229698e-001  4.096257e-004
    outer loop
      vertex -2.713916e+001 -1.278539e+001  7.000000e+001
      vertex -2.702907e+001 -1.301651e+001  4.000000e+000
      vertex -2.369244e+001 -1.840294e+001  7.000000e+001
    endloop
  endfacet
  facet normal -9.438794e-001  3.302777e-001 -2.855662e-003
    outer loop
      vertex -2.924784e+001  6.675628e+000  4.000000e+000
      vertex -2.834871e+001  9.815841e+000  7.000000e+001
      vertex -2.702907e+001  1.301651e+001  4.000000e+000
    endloop
  endfacet
  facet normal -7.071055e-001  7.071055e-001 -1.890321e-003
    outer loop
      vertex -1.870469e+001  2.345494e+001  4.000000e+000
      vertex -2.345494e+001  1.870469e+001  4.000000e+000
      vertex -2.255155e+001  1.978453e+001  7.000000e+001
    endloop
  endfacet
  facet normal -6.747280e-001  7.380645e-001  1.718517e-003
    outer loop
      vertex -2.255155e+001  1.978453e+001  7.000000e+001
      vertex -1.768721e+001  2.423144e+001  7.000000e+001
      vertex -1.870469e+001  2.345494e+001  4.000000e+000
    endloop
  endfacet
  facet normal -5.320312e-001  8.467230e-001 -1.759735e-003
    outer loop
      vertex -1.301651e+001  2.702907e+001  4.000000e+000
      vertex -1.870469e+001  2.345494e+001  4.000000e+000
      vertex -1.768721e+001  2.423144e+001  7.000000e+001
    endloop
  endfacet
  facet normal -4.972824e-001  8.675872e-001  1.583769e-003
    outer loop
      vertex -1.768721e+001  2.423144e+001  7.000000e+001
      vertex -1.196923e+001  2.750886e+001  7.000000e+001
      vertex -1.301651e+001  2.702907e+001  4.000000e+000
    endloop
  endfacet
  facet normal -3.302786e-001  9.438822e-001 -1.620859e-003
    outer loop
      vertex -6.675628e+000  2.924784e+001  4.000000e+000
      vertex -1.301651e+001  2.702907e+001  4.000000e+000
      vertex -1.196923e+001  2.750886e+001  7.000000e+001
    endloop
  endfacet
  facet normal -2.958368e-001  9.552374e-001  1.440774e-003
    outer loop
      vertex -1.196923e+001  2.750886e+001  7.000000e+001
      vertex -5.673587e+000  2.945862e+001  7.000000e+001
      vertex -6.675628e+000  2.924784e+001  4.000000e+000
    endloop
  endfacet
  facet normal -1.119644e-001  9.937111e-001 -1.473733e-003
    outer loop
      vertex  8.498248e-015  3.000000e+001  4.000000e+000
      vertex -6.675628e+000  2.924784e+001  4.000000e+000
      vertex -5.673587e+000  2.945862e+001  7.000000e+001
    endloop
  endfacet
  facet normal -8.011305e-002  9.967849e-001  1.289532e-003
    outer loop
      vertex -5.673587e+000  2.945862e+001  7.000000e+001
      vertex  8.958852e-001  2.998662e+001  7.000000e+001
      vertex  8.498248e-015  3.000000e+001  4.000000e+000
    endloop
  endfacet
  facet normal  1.119644e-001  9.937113e-001 -1.318354e-003
    outer loop
      vertex  6.675628e+000  2.924784e+001  4.000000e+000
      vertex  8.498248e-015  3.000000e+001  4.000000e+000
      vertex  8.958852e-001  2.998662e+001  7.000000e+001
    endloop
  endfacet
  facet normal  1.394772e-001  9.902247e-001  1.130020e-003
    outer loop
      vertex  8.958852e-001  2.998662e+001  7.000000e+001
      vertex  7.422119e+000  2.906737e+001  7.000000e+001
      vertex  6.675628e+000  2.924784e+001  4.000000e+000
    endloop
  endfacet
  facet normal  3.302788e-001  9.438828e-001 -1.154748e-003
    outer loop
      vertex  1.301651e+001  2.702907e+001  4.000000e+000
      vertex  6.675628e+000  2.924784e+001  4.000000e+000
      vertex  7.422119e+000  2.906737e+001  7.000000e+001
    endloop
  endfacet
  facet normal  3.523363e-001  9.358730e-001  9.622890e-004
    outer loop
      vertex  7.422119e+000  2.906737e+001  7.000000e+001
      vertex  1.359014e+001  2.674524e+001  7.000000e+001
      vertex  1.301651e+001  2.702907e+001  4.000000e+000
    endloop
  endfacet
  facet normal  5.320317e-001  8.467238e-001 -9.828700e-004
    outer loop
      vertex  1.870469e+001  2.345494e+001  4.000000e+000
      vertex  1.301651e+001  2.702907e+001  4.000000e+000
      vertex  1.359014e+001  2.674524e+001  7.000000e+001
    endloop
  endfacet
  facet normal  5.481902e-001  8.363533e-001  7.863058e-004
    outer loop
      vertex  1.359014e+001  2.674524e+001  7.000000e+001
      vertex  1.910226e+001  2.313231e+001  7.000000e+001
      vertex  1.870469e+001  2.345494e+001  4.000000e+000
    endloop
  endfacet
  facet normal  7.071066e-001  7.071066e-001 -8.027619e-004
    outer loop
      vertex  2.345494e+001  1.870469e+001  4.000000e+000
      vertex  1.870469e+001  2.345494e+001  4.000000e+000
      vertex  1.910226e+001  2.313231e+001  7.000000e+001
    endloop
  endfacet
  facet normal  7.175871e-001  6.964685e-001  6.020781e-004
    outer loop
      vertex  1.910226e+001  2.313231e+001  7.000000e+001
      vertex  2.369244e+001  1.840294e+001  7.000000e+001
      vertex  2.345494e+001  1.870469e+001  4.000000e+000
    endloop
  endfacet
  facet normal  8.467241e-001  5.320319e-001 -6.144235e-004
    outer loop
      vertex  2.702907e+001  1.301651e+001  4.000000e+000
      vertex  2.345494e+001  1.870469e+001  4.000000e+000
      vertex  2.369244e+001  1.840294e+001  7.000000e+001
    endloop
  endfacet
  facet normal -8.196086e-001  5.729209e-001  1.845024e-003
    outer loop
      vertex -2.632748e+001  1.438277e+001  7.000000e+001
      vertex -2.255155e+001  1.978453e+001  7.000000e+001
      vertex -2.345494e+001  1.870469e+001  4.000000e+000
    endloop
  endfacet
  facet normal -8.467225e-001  5.320309e-001 -2.012691e-003
    outer loop
      vertex -2.632748e+001  1.438277e+001  7.000000e+001
      vertex -2.345494e+001  1.870469e+001  4.000000e+000
      vertex -2.702907e+001  1.301651e+001  4.000000e+000
    endloop
  endfacet
  facet normal -9.144422e-001  4.047144e-001  1.342735e-003
    outer loop
      vertex -2.632748e+001  1.438277e+001  7.000000e+001
      vertex -2.702907e+001  1.301651e+001  4.000000e+000
      vertex -2.834871e+001  9.815841e+000  7.000000e+001
    endloop
  endfacet
  facet normal -9.937122e-001  1.119645e-001  0.000000e+000
    outer loop
      vertex -3.000000e+001  1.699650e-014  4.000000e+000
      vertex -3.000000e+001  1.699650e-014  7.000000e+001
      vertex -2.924784e+001  6.675628e+000  4.000000e+000
    endloop
  endfacet
  facet normal -9.965255e-001  8.323652e-002 -2.937781e-003
    outer loop
      vertex -2.924784e+001  6.675628e+000  4.000000e+000
      vertex -3.000000e+001  1.699650e-014  7.000000e+001
      vertex -2.958430e+001  4.976884e+000  7.000000e+001
    endloop
  endfacet
  facet normal -9.689114e-001  2.474036e-001  1.428416e-003
    outer loop
      vertex -2.924784e+001  6.675628e+000  4.000000e+000
      vertex -2.958430e+001  4.976884e+000  7.000000e+001
      vertex -2.834871e+001  9.815841e+000  7.000000e+001
    endloop
  endfacet
  facet normal  9.939488e-001  1.098443e-001 -1.038772e-016
    outer loop
      vertex  3.000000e+001  2.842171e-014  7.000000e+001
      vertex  3.000000e+001 -3.399299e-014  4.000000e+000
      vertex  2.927605e+001  6.550774e+000  7.000000e+001
    endloop
  endfacet
  facet normal  9.937121e-001  1.119645e-001 -2.130403e-004
    outer loop
      vertex  2.927605e+001  6.550774e+000  7.000000e+001
      vertex  3.000000e+001 -3.399299e-014  4.000000e+000
      vertex  2.924784e+001  6.675628e+000  4.000000e+000
    endloop
  endfacet
  facet normal  9.459777e-001  3.242315e-001  2.089193e-004
    outer loop
      vertex  2.927605e+001  6.550774e+000  7.000000e+001
      vertex  2.924784e+001  6.675628e+000  4.000000e+000
      vertex  2.713916e+001  1.278539e+001  7.000000e+001
    endloop
  endfacet
  facet normal  9.438832e-001  3.302790e-001 -4.178328e-004
    outer loop
      vertex  2.713916e+001  1.278539e+001  7.000000e+001
      vertex  2.924784e+001  6.675628e+000  4.000000e+000
      vertex  2.702907e+001  1.301651e+001  4.000000e+000
    endloop
  endfacet
  facet normal  8.523511e-001  5.229698e-001  4.096257e-004
    outer loop
      vertex  2.713916e+001  1.278539e+001  7.000000e+001
      vertex  2.702907e+001  1.301651e+001  4.000000e+000
      vertex  2.369244e+001  1.840294e+001  7.000000e+001
    endloop
  endfacet
  facet normal -9.362098e-001  7.819866e-002  3.426311e-001
    outer loop
      vertex  2.750000e+001 -6.653938e-014  6.704196e+001
      vertex  2.711894e+001 -4.562144e+000  6.704196e+001
      vertex  2.820871e+001  2.664535e-014  6.897845e+001
    endloop
  endfacet
  facet normal -9.362097e-001  7.819837e-002  3.426318e-001
    outer loop
      vertex  2.820871e+001  2.664535e-014  6.897845e+001
      vertex  2.711894e+001 -4.562144e+000  6.704196e+001
      vertex  2.781783e+001 -4.679716e+000  6.897845e+001
    endloop
  endfacet
  facet normal -4.949665e-001  4.134285e-002  8.679279e-001
    outer loop
      vertex  2.820871e+001  2.664535e-014  6.897845e+001
      vertex  2.781783e+001 -4.679716e+000  6.897845e+001
      vertex  3.000000e+001  2.842171e-014  7.000000e+001
    endloop
  endfacet
  facet normal -4.949667e-001  4.134295e-002  8.679278e-001
    outer loop
      vertex  3.000000e+001  2.842171e-014  7.000000e+001
      vertex  2.781783e+001 -4.679716e+000  6.897845e+001
      vertex  2.958430e+001 -4.976884e+000  7.000000e+001
    endloop
  endfacet
  facet normal -8.590916e-001  3.802173e-001  3.426314e-001
    outer loop
      vertex  2.598632e+001 -8.997854e+000  6.704196e+001
      vertex  2.413352e+001 -1.318420e+001  6.704196e+001
      vertex  2.665602e+001 -9.229741e+000  6.897845e+001
    endloop
  endfacet
  facet normal -8.590916e-001  3.802172e-001  3.426316e-001
    outer loop
      vertex  2.665602e+001 -9.229741e+000  6.897845e+001
      vertex  2.413352e+001 -1.318420e+001  6.704196e+001
      vertex  2.475547e+001 -1.352398e+001  6.897845e+001
    endloop
  endfacet
  facet normal -4.541950e-001  2.010178e-001  8.679279e-001
    outer loop
      vertex  2.665602e+001 -9.229741e+000  6.897845e+001
      vertex  2.475547e+001 -1.352398e+001  6.897845e+001
      vertex  2.834871e+001 -9.815841e+000  7.000000e+001
    endloop
  endfacet
  facet normal -4.541951e-001  2.010179e-001  8.679278e-001
    outer loop
      vertex  2.834871e+001 -9.815841e+000  7.000000e+001
      vertex  2.475547e+001 -1.352398e+001  6.897845e+001
      vertex  2.632748e+001 -1.438277e+001  7.000000e+001
    endloop
  endfacet
  facet normal -9.102640e-001  2.324284e-001  3.426317e-001
    outer loop
      vertex  2.711894e+001 -4.562144e+000  6.704196e+001
      vertex  2.598632e+001 -8.997854e+000  6.704196e+001
      vertex  2.781783e+001 -4.679716e+000  6.897845e+001
    endloop
  endfacet
  facet normal -9.102641e-001  2.324285e-001  3.426314e-001
    outer loop
      vertex  2.781783e+001 -4.679716e+000  6.897845e+001
      vertex  2.598632e+001 -8.997854e+000  6.704196e+001
      vertex  2.665602e+001 -9.229741e+000  6.897845e+001
    endloop
  endfacet
  facet normal -4.812494e-001  1.228831e-001  8.679278e-001
    outer loop
      vertex  2.781783e+001 -4.679716e+000  6.897845e+001
      vertex  2.665602e+001 -9.229741e+000  6.897845e+001
      vertex  2.958430e+001 -4.976884e+000  7.000000e+001
    endloop
  endfacet
  facet normal -4.812494e-001  1.228831e-001  8.679278e-001
    outer loop
      vertex  2.958430e+001 -4.976884e+000  7.000000e+001
      vertex  2.665602e+001 -9.229741e+000  6.897845e+001
      vertex  2.834871e+001 -9.815841e+000  7.000000e+001
    endloop
  endfacet
  facet normal  4.947595e-001  5.044111e-002  8.675648e-001
    outer loop
      vertex -3.000000e+001  1.699650e-014  7.000000e+001
      vertex -2.762834e+001 -5.692630e+000  6.897845e+001
      vertex -2.820871e+001 -4.085621e-014  6.897845e+001
    endloop
  endfacet
  facet normal  5.049508e-001  5.580362e-002  8.613424e-001
    outer loop
      vertex -3.000000e+001  1.699650e-014  7.000000e+001
      vertex -2.927605e+001 -6.550774e+000  7.000000e+001
      vertex -2.762834e+001 -5.692630e+000  6.897845e+001
    endloop
  endfacet
  facet normal -4.163825e-001  2.910587e-001  8.613422e-001
    outer loop
      vertex  2.632748e+001 -1.438277e+001  7.000000e+001
      vertex  2.151696e+001 -1.824149e+001  6.897845e+001
      vertex  2.255155e+001 -1.978453e+001  7.000000e+001
    endloop
  endfacet
  facet normal -4.100098e-001  2.814668e-001  8.675647e-001
    outer loop
      vertex  2.632748e+001 -1.438277e+001  7.000000e+001
      vertex  2.475547e+001 -1.352398e+001  6.897845e+001
      vertex  2.151696e+001 -1.824149e+001  6.897845e+001
    endloop
  endfacet
  facet normal -7.746821e-001  5.318099e-001  3.421197e-001
    outer loop
      vertex  2.413352e+001 -1.318420e+001  6.704196e+001
      vertex  2.151696e+001 -1.824149e+001  6.897845e+001
      vertex  2.475547e+001 -1.352398e+001  6.897845e+001
    endloop
  endfacet
  facet normal -7.508982e-001  5.361549e-001  3.856033e-001
    outer loop
      vertex  2.413352e+001 -1.318420e+001  6.704196e+001
      vertex  2.030520e+001 -1.854586e+001  6.704196e+001
      vertex  2.151696e+001 -1.824149e+001  6.897845e+001
    endloop
  endfacet
  facet normal  9.160215e-001  1.105205e-001  3.856032e-001
    outer loop
      vertex -2.750000e+001 -4.000503e-014  6.704196e+001
      vertex -2.762834e+001 -5.692630e+000  6.897845e+001
      vertex -2.671085e+001 -6.540689e+000  6.704196e+001
    endloop
  endfacet
  facet normal  9.348109e-001  9.530470e-002  3.421192e-001
    outer loop
      vertex -2.750000e+001 -4.000503e-014  6.704196e+001
      vertex -2.820871e+001 -4.085621e-014  6.897845e+001
      vertex -2.762834e+001 -5.692630e+000  6.897845e+001
    endloop
  endfacet
  facet normal  4.650910e-001  1.463187e-001  8.730871e-001
    outer loop
      vertex -2.927605e+001 -6.550774e+000  7.000000e+001
      vertex -2.591112e+001 -1.115102e+001  6.897845e+001
      vertex -2.762834e+001 -5.692630e+000  6.897845e+001
    endloop
  endfacet
  facet normal  4.192224e-001  2.333954e-001  8.773706e-001
    outer loop
      vertex -2.713916e+001 -1.278539e+001  7.000000e+001
      vertex -2.312770e+001 -1.615056e+001  6.897845e+001
      vertex -2.591112e+001 -1.115102e+001  6.897845e+001
    endloop
  endfacet
  facet normal  4.890159e-001  1.676090e-001  8.560203e-001
    outer loop
      vertex -2.713916e+001 -1.278539e+001  7.000000e+001
      vertex -2.591112e+001 -1.115102e+001  6.897845e+001
      vertex -2.927605e+001 -6.550774e+000  7.000000e+001
    endloop
  endfacet
  facet normal  8.525332e-001  3.211075e-001  4.124042e-001
    outer loop
      vertex -2.591112e+001 -1.115102e+001  6.897845e+001
      vertex -2.438868e+001 -1.270599e+001  6.704196e+001
      vertex -2.671085e+001 -6.540689e+000  6.704196e+001
    endloop
  endfacet
  facet normal  9.083847e-001  2.857800e-001  3.052326e-001
    outer loop
      vertex -2.591112e+001 -1.115102e+001  6.897845e+001
      vertex -2.671085e+001 -6.540689e+000  6.704196e+001
      vertex -2.762834e+001 -5.692630e+000  6.897845e+001
    endloop
  endfacet
  facet normal  3.590370e-001  3.093512e-001  8.805648e-001
    outer loop
      vertex -2.369244e+001 -1.840294e+001  7.000000e+001
      vertex -1.939263e+001 -2.048554e+001  6.897845e+001
      vertex -2.312770e+001 -1.615056e+001  6.897845e+001
    endloop
  endfacet
  facet normal  4.468579e-001  2.741748e-001  8.515552e-001
    outer loop
      vertex -2.369244e+001 -1.840294e+001  7.000000e+001
      vertex -2.312770e+001 -1.615056e+001  6.897845e+001
      vertex -2.713916e+001 -1.278539e+001  7.000000e+001
    endloop
  endfacet
  facet normal  7.474514e-001  5.117563e-001  4.235820e-001
    outer loop
      vertex -2.312770e+001 -1.615056e+001  6.897845e+001
      vertex -2.066678e+001 -1.814206e+001  6.704196e+001
      vertex -2.438868e+001 -1.270599e+001  6.704196e+001
    endloop
  endfacet
  facet normal  8.377178e-001  4.663860e-001  2.841004e-001
    outer loop
      vertex -2.312770e+001 -1.615056e+001  6.897845e+001
      vertex -2.438868e+001 -1.270599e+001  6.704196e+001
      vertex -2.591112e+001 -1.115102e+001  6.897845e+001
    endloop
  endfacet
  facet normal  2.867005e-001  3.721690e-001  8.827757e-001
    outer loop
      vertex -1.910226e+001 -2.313231e+001  7.000000e+001
      vertex -1.485958e+001 -2.397758e+001  6.897845e+001
      vertex -1.939263e+001 -2.048554e+001  6.897845e+001
    endloop
  endfacet
  facet normal  3.802281e-001  3.690380e-001  8.480788e-001
    outer loop
      vertex -1.910226e+001 -2.313231e+001  7.000000e+001
      vertex -1.939263e+001 -2.048554e+001  6.897845e+001
      vertex -2.369244e+001 -1.840294e+001  7.000000e+001
    endloop
  endfacet
  facet normal  6.054340e-001  6.761310e-001  4.198768e-001
    outer loop
      vertex -1.939263e+001 -2.048554e+001  6.897845e+001
      vertex -1.575875e+001 -2.253690e+001  6.704196e+001
      vertex -2.066678e+001 -1.814206e+001  6.704196e+001
    endloop
  endfacet
  facet normal  7.273168e-001  6.266662e-001  2.798209e-001
    outer loop
      vertex -1.939263e+001 -2.048554e+001  6.897845e+001
      vertex -2.066678e+001 -1.814206e+001  6.704196e+001
      vertex -2.312770e+001 -1.615056e+001  6.897845e+001
    endloop
  endfacet
  facet normal  2.046243e-001  4.201669e-001  8.840751e-001
    outer loop
      vertex -1.359014e+001 -2.674524e+001  7.000000e+001
      vertex -9.715083e+000 -2.648299e+001  6.897845e+001
      vertex -1.485958e+001 -2.397758e+001  6.897845e+001
    endloop
  endfacet
  facet normal  2.925481e-001  4.463297e-001  8.456981e-001
    outer loop
      vertex -1.359014e+001 -2.674524e+001  7.000000e+001
      vertex -1.485958e+001 -2.397758e+001  6.897845e+001
      vertex -1.910226e+001 -2.313231e+001  7.000000e+001
    endloop
  endfacet
  facet normal  4.312389e-001  8.082076e-001  4.010407e-001
    outer loop
      vertex -1.485958e+001 -2.397758e+001  6.897845e+001
      vertex -9.946280e+000 -2.563828e+001  6.704196e+001
      vertex -1.575875e+001 -2.253690e+001  6.704196e+001
    endloop
  endfacet
  facet normal  5.835583e-001  7.575230e-001  2.926066e-001
    outer loop
      vertex -1.485958e+001 -2.397758e+001  6.897845e+001
      vertex -1.575875e+001 -2.253690e+001  6.704196e+001
      vertex -1.939263e+001 -2.048554e+001  6.897845e+001
    endloop
  endfacet
  facet normal  1.154222e-001  4.520297e-001  8.845037e-001
    outer loop
      vertex -7.422119e+000 -2.906737e+001  7.000000e+001
      vertex -4.170833e+000 -2.789867e+001  6.897845e+001
      vertex -9.715083e+000 -2.648299e+001  6.897845e+001
    endloop
  endfacet
  facet normal  1.887022e-001  5.012294e-001  8.444883e-001
    outer loop
      vertex -7.422119e+000 -2.906737e+001  7.000000e+001
      vertex -9.715083e+000 -2.648299e+001  6.897845e+001
      vertex -1.359014e+001 -2.674524e+001  7.000000e+001
    endloop
  endfacet
  facet normal  2.186408e-002  4.668334e-001  8.840749e-001
    outer loop
      vertex -8.958852e-001 -2.998662e+001  7.000000e+001
      vertex  1.545040e+000 -2.816637e+001  6.897845e+001
      vertex -4.170833e+000 -2.789867e+001  6.897845e+001
    endloop
  endfacet
  facet normal  7.470041e-002  5.303389e-001  8.444883e-001
    outer loop
      vertex -8.958852e-001 -2.998662e+001  7.000000e+001
      vertex -4.170833e+000 -2.789867e+001  6.897845e+001
      vertex -7.422119e+000 -2.906737e+001  7.000000e+001
    endloop
  endfacet
  facet normal  2.302519e-001  9.017404e-001  3.658527e-001
    outer loop
      vertex -4.170833e+000 -2.789867e+001  6.897845e+001
      vertex -3.562965e+000 -2.726821e+001  6.704196e+001
      vertex -9.946280e+000 -2.563828e+001  6.704196e+001
    endloop
  endfacet
  facet normal  2.302523e-001  9.017407e-001  3.658521e-001
    outer loop
      vertex -9.715083e+000 -2.648299e+001  6.897845e+001
      vertex -4.170833e+000 -2.789867e+001  6.897845e+001
      vertex -9.946280e+000 -2.563828e+001  6.704196e+001
    endloop
  endfacet
  facet normal  4.145523e-001  8.512242e-001  3.218131e-001
    outer loop
      vertex -9.715083e+000 -2.648299e+001  6.897845e+001
      vertex -9.946280e+000 -2.563828e+001  6.704196e+001
      vertex -1.485958e+001 -2.397758e+001  6.897845e+001
    endloop
  endfacet
  facet normal -7.317623e-002  4.640606e-001  8.827757e-001
    outer loop
      vertex  5.673587e+000 -2.945862e+001  7.000000e+001
      vertex  7.197337e+000 -2.727508e+001  6.897845e+001
      vertex  1.545040e+000 -2.816637e+001  6.897845e+001
    endloop
  endfacet
  facet normal -4.275331e-002  5.319465e-001  8.456980e-001
    outer loop
      vertex  5.673587e+000 -2.945862e+001  7.000000e+001
      vertex  1.545040e+000 -2.816637e+001  6.897845e+001
      vertex -8.958852e-001 -2.998662e+001  7.000000e+001
    endloop
  endfacet
  facet normal  9.027797e-003  9.160156e-001  4.010413e-001
    outer loop
      vertex  1.545040e+000 -2.816637e+001  6.897845e+001
      vertex  3.024840e+000 -2.733314e+001  6.704196e+001
      vertex -3.562965e+000 -2.726821e+001  6.704196e+001
    endloop
  endfacet
  facet normal  4.429483e-002  9.457663e-001  3.218139e-001
    outer loop
      vertex  1.545040e+000 -2.816637e+001  6.897845e+001
      vertex -3.562965e+000 -2.726821e+001  6.704196e+001
      vertex -4.170833e+000 -2.789867e+001  6.897845e+001
    endloop
  endfacet
  facet normal -1.667737e-001  4.436126e-001  8.805648e-001
    outer loop
      vertex  1.196923e+001 -2.750886e+001  7.000000e+001
      vertex  1.255348e+001 -2.526147e+001  6.897845e+001
      vertex  7.197337e+000 -2.727508e+001  6.897845e+001
    endloop
  endfacet
  facet normal -1.567553e-001  5.061523e-001  8.480788e-001
    outer loop
      vertex  1.196923e+001 -2.750886e+001  7.000000e+001
      vertex  7.197337e+000 -2.727508e+001  6.897845e+001
      vertex  5.673587e+000 -2.945862e+001  7.000000e+001
    endloop
  endfacet
  facet normal -2.071639e-001  8.836214e-001  4.198767e-001
    outer loop
      vertex  7.197337e+000 -2.727508e+001  6.897845e+001
      vertex  9.439039e+000 -2.582933e+001  6.704196e+001
      vertex  3.024840e+000 -2.733314e+001  6.704196e+001
    endloop
  endfacet
  facet normal -1.489449e-001  9.445617e-001  2.926069e-001
    outer loop
      vertex  7.197337e+000 -2.727508e+001  6.897845e+001
      vertex  3.024840e+000 -2.733314e+001  6.704196e+001
      vertex  1.545040e+000 -2.816637e+001  6.897845e+001
    endloop
  endfacet
  facet normal -2.560063e-001  4.058093e-001  8.773708e-001
    outer loop
      vertex  1.768721e+001 -2.423144e+001  7.000000e+001
      vertex  1.739306e+001 -2.220839e+001  6.897845e+001
      vertex  1.255348e+001 -2.526147e+001  6.897845e+001
    endloop
  endfacet
  facet normal -2.607080e-001  4.548461e-001  8.515553e-001
    outer loop
      vertex  1.768721e+001 -2.423144e+001  7.000000e+001
      vertex  1.255348e+001 -2.526147e+001  6.897845e+001
      vertex  1.196923e+001 -2.750886e+001  7.000000e+001
    endloop
  endfacet
  facet normal -4.106013e-001  8.074561e-001  4.235816e-001
    outer loop
      vertex  1.255348e+001 -2.526147e+001  6.897845e+001
      vertex  1.531151e+001 -2.284311e+001  6.704196e+001
      vertex  9.439039e+000 -2.582933e+001  6.704196e+001
    endloop
  endfacet
  facet normal -3.378408e-001  8.986456e-001  2.798208e-001
    outer loop
      vertex  1.255348e+001 -2.526147e+001  6.897845e+001
      vertex  9.439039e+000 -2.582933e+001  6.704196e+001
      vertex  7.197337e+000 -2.727508e+001  6.897845e+001
    endloop
  endfacet
  facet normal -3.380070e-001  3.513836e-001  8.730869e-001
    outer loop
      vertex  2.255155e+001 -1.978453e+001  7.000000e+001
      vertex  2.151696e+001 -1.824149e+001  6.897845e+001
      vertex  1.739306e+001 -2.220839e+001  6.897845e+001
    endloop
  endfacet
  facet normal -3.487957e-001  3.815370e-001  8.560206e-001
    outer loop
      vertex  2.255155e+001 -1.978453e+001  7.000000e+001
      vertex  1.739306e+001 -2.220839e+001  6.897845e+001
      vertex  1.768721e+001 -2.423144e+001  7.000000e+001
    endloop
  endfacet
  facet normal -5.942214e-001  6.905246e-001  4.124036e-001
    outer loop
      vertex  1.739306e+001 -2.220839e+001  6.897845e+001
      vertex  2.030520e+001 -1.854586e+001  6.704196e+001
      vertex  1.531151e+001 -2.284311e+001  6.704196e+001
    endloop
  endfacet
  facet normal -5.115693e-001  8.109157e-001  2.840996e-001
    outer loop
      vertex  1.739306e+001 -2.220839e+001  6.897845e+001
      vertex  1.531151e+001 -2.284311e+001  6.704196e+001
      vertex  1.255348e+001 -2.526147e+001  6.897845e+001
    endloop
  endfacet
  facet normal -6.601722e-001  6.862985e-001  3.052326e-001
    outer loop
      vertex  2.151696e+001 -1.824149e+001  6.897845e+001
      vertex  2.030520e+001 -1.854586e+001  6.704196e+001
      vertex  1.739306e+001 -2.220839e+001  6.897845e+001
    endloop
  endfacet
  facet normal  9.362098e-001 -7.819866e-002  3.426311e-001
    outer loop
      vertex -2.750000e+001 -4.000503e-014  6.704196e+001
      vertex -2.711894e+001  4.562144e+000  6.704196e+001
      vertex -2.820871e+001 -4.085621e-014  6.897845e+001
    endloop
  endfacet
  facet normal  9.362097e-001 -7.819837e-002  3.426318e-001
    outer loop
      vertex -2.820871e+001 -4.085621e-014  6.897845e+001
      vertex -2.711894e+001  4.562144e+000  6.704196e+001
      vertex -2.781783e+001  4.679716e+000  6.897845e+001
    endloop
  endfacet
  facet normal  4.949665e-001 -4.134285e-002  8.679279e-001
    outer loop
      vertex -2.820871e+001 -4.085621e-014  6.897845e+001
      vertex -2.781783e+001  4.679716e+000  6.897845e+001
      vertex -3.000000e+001  1.699650e-014  7.000000e+001
    endloop
  endfacet
  facet normal  4.949667e-001 -4.134295e-002  8.679278e-001
    outer loop
      vertex -3.000000e+001  1.699650e-014  7.000000e+001
      vertex -2.781783e+001  4.679716e+000  6.897845e+001
      vertex -2.958430e+001  4.976884e+000  7.000000e+001
    endloop
  endfacet
  facet normal  8.590916e-001 -3.802173e-001  3.426314e-001
    outer loop
      vertex -2.598632e+001  8.997854e+000  6.704196e+001
      vertex -2.413352e+001  1.318420e+001  6.704196e+001
      vertex -2.665602e+001  9.229741e+000  6.897845e+001
    endloop
  endfacet
  facet normal  8.590916e-001 -3.802172e-001  3.426316e-001
    outer loop
      vertex -2.665602e+001  9.229741e+000  6.897845e+001
      vertex -2.413352e+001  1.318420e+001  6.704196e+001
      vertex -2.475547e+001  1.352398e+001  6.897845e+001
    endloop
  endfacet
  facet normal  4.541950e-001 -2.010178e-001  8.679279e-001
    outer loop
      vertex -2.665602e+001  9.229741e+000  6.897845e+001
      vertex -2.475547e+001  1.352398e+001  6.897845e+001
      vertex -2.834871e+001  9.815841e+000  7.000000e+001
    endloop
  endfacet
  facet normal  4.541951e-001 -2.010179e-001  8.679278e-001
    outer loop
      vertex -2.834871e+001  9.815841e+000  7.000000e+001
      vertex -2.475547e+001  1.352398e+001  6.897845e+001
      vertex -2.632748e+001  1.438277e+001  7.000000e+001
    endloop
  endfacet
  facet normal  9.102640e-001 -2.324284e-001  3.426317e-001
    outer loop
      vertex -2.711894e+001  4.562144e+000  6.704196e+001
      vertex -2.598632e+001  8.997854e+000  6.704196e+001
      vertex -2.781783e+001  4.679716e+000  6.897845e+001
    endloop
  endfacet
  facet normal  9.102641e-001 -2.324285e-001  3.426314e-001
    outer loop
      vertex -2.781783e+001  4.679716e+000  6.897845e+001
      vertex -2.598632e+001  8.997854e+000  6.704196e+001
      vertex -2.665602e+001  9.229741e+000  6.897845e+001
    endloop
  endfacet
  facet normal  4.812494e-001 -1.228831e-001  8.679278e-001
    outer loop
      vertex -2.781783e+001  4.679716e+000  6.897845e+001
      vertex -2.665602e+001  9.229741e+000  6.897845e+001
      vertex -2.958430e+001  4.976884e+000  7.000000e+001
    endloop
  endfacet
  facet normal  4.812494e-001 -1.228831e-001  8.679278e-001
    outer loop
      vertex -2.958430e+001  4.976884e+000  7.000000e+001
      vertex -2.665602e+001  9.229741e+000  6.897845e+001
      vertex -2.834871e+001  9.815841e+000  7.000000e+001
    endloop
  endfacet
  facet normal -4.947595e-001 -5.044111e-002  8.675648e-001
    outer loop
      vertex  3.000000e+001  2.842171e-014  7.000000e+001
      vertex  2.762834e+001  5.692630e+000  6.897845e+001
      vertex  2.820871e+001  2.664535e-014  6.897845e+001
    endloop
  endfacet
  facet normal -5.049508e-001 -5.580362e-002  8.613424e-001
    outer loop
      vertex  3.000000e+001  2.842171e-014  7.000000e+001
      vertex  2.927605e+001  6.550774e+000  7.000000e+001
      vertex  2.762834e+001  5.692630e+000  6.897845e+001
    endloop
  endfacet
  facet normal  4.163825e-001 -2.910587e-001  8.613422e-001
    outer loop
      vertex -2.632748e+001  1.438277e+001  7.000000e+001
      vertex -2.151696e+001  1.824149e+001  6.897845e+001
      vertex -2.255155e+001  1.978453e+001  7.000000e+001
    endloop
  endfacet
  facet normal  4.100098e-001 -2.814668e-001  8.675647e-001
    outer loop
      vertex -2.632748e+001  1.438277e+001  7.000000e+001
      vertex -2.475547e+001  1.352398e+001  6.897845e+001
      vertex -2.151696e+001  1.824149e+001  6.897845e+001
    endloop
  endfacet
  facet normal  7.746821e-001 -5.318099e-001  3.421197e-001
    outer loop
      vertex -2.413352e+001  1.318420e+001  6.704196e+001
      vertex -2.151696e+001  1.824149e+001  6.897845e+001
      vertex -2.475547e+001  1.352398e+001  6.897845e+001
    endloop
  endfacet
  facet normal  7.508982e-001 -5.361549e-001  3.856033e-001
    outer loop
      vertex -2.413352e+001  1.318420e+001  6.704196e+001
      vertex -2.030520e+001  1.854586e+001  6.704196e+001
      vertex -2.151696e+001  1.824149e+001  6.897845e+001
    endloop
  endfacet
  facet normal -9.160215e-001 -1.105205e-001  3.856032e-001
    outer loop
      vertex  2.750000e+001 -6.653938e-014  6.704196e+001
      vertex  2.762834e+001  5.692630e+000  6.897845e+001
      vertex  2.671085e+001  6.540689e+000  6.704196e+001
    endloop
  endfacet
  facet normal -9.348109e-001 -9.530470e-002  3.421192e-001
    outer loop
      vertex  2.750000e+001 -6.653938e-014  6.704196e+001
      vertex  2.820871e+001  2.664535e-014  6.897845e+001
      vertex  2.762834e+001  5.692630e+000  6.897845e+001
    endloop
  endfacet
  facet normal -4.650910e-001 -1.463187e-001  8.730871e-001
    outer loop
      vertex  2.927605e+001  6.550774e+000  7.000000e+001
      vertex  2.591112e+001  1.115102e+001  6.897845e+001
      vertex  2.762834e+001  5.692630e+000  6.897845e+001
    endloop
  endfacet
  facet normal -4.192224e-001 -2.333954e-001  8.773706e-001
    outer loop
      vertex  2.713916e+001  1.278539e+001  7.000000e+001
      vertex  2.312770e+001  1.615056e+001  6.897845e+001
      vertex  2.591112e+001  1.115102e+001  6.897845e+001
    endloop
  endfacet
  facet normal -4.890159e-001 -1.676090e-001  8.560203e-001
    outer loop
      vertex  2.713916e+001  1.278539e+001  7.000000e+001
      vertex  2.591112e+001  1.115102e+001  6.897845e+001
      vertex  2.927605e+001  6.550774e+000  7.000000e+001
    endloop
  endfacet
  facet normal -8.525332e-001 -3.211075e-001  4.124042e-001
    outer loop
      vertex  2.591112e+001  1.115102e+001  6.897845e+001
      vertex  2.438868e+001  1.270599e+001  6.704196e+001
      vertex  2.671085e+001  6.540689e+000  6.704196e+001
    endloop
  endfacet
  facet normal -9.083847e-001 -2.857800e-001  3.052326e-001
    outer loop
      vertex  2.591112e+001  1.115102e+001  6.897845e+001
      vertex  2.671085e+001  6.540689e+000  6.704196e+001
      vertex  2.762834e+001  5.692630e+000  6.897845e+001
    endloop
  endfacet
  facet normal -3.590370e-001 -3.093512e-001  8.805648e-001
    outer loop
      vertex  2.369244e+001  1.840294e+001  7.000000e+001
      vertex  1.939263e+001  2.048554e+001  6.897845e+001
      vertex  2.312770e+001  1.615056e+001  6.897845e+001
    endloop
  endfacet
  facet normal -4.468579e-001 -2.741748e-001  8.515552e-001
    outer loop
      vertex  2.369244e+001  1.840294e+001  7.000000e+001
      vertex  2.312770e+001  1.615056e+001  6.897845e+001
      vertex  2.713916e+001  1.278539e+001  7.000000e+001
    endloop
  endfacet
  facet normal -7.474514e-001 -5.117563e-001  4.235820e-001
    outer loop
      vertex  2.312770e+001  1.615056e+001  6.897845e+001
      vertex  2.066678e+001  1.814206e+001  6.704196e+001
      vertex  2.438868e+001  1.270599e+001  6.704196e+001
    endloop
  endfacet
  facet normal -8.377178e-001 -4.663860e-001  2.841004e-001
    outer loop
      vertex  2.312770e+001  1.615056e+001  6.897845e+001
      vertex  2.438868e+001  1.270599e+001  6.704196e+001
      vertex  2.591112e+001  1.115102e+001  6.897845e+001
    endloop
  endfacet
  facet normal -2.867005e-001 -3.721690e-001  8.827757e-001
    outer loop
      vertex  1.910226e+001  2.313231e+001  7.000000e+001
      vertex  1.485958e+001  2.397758e+001  6.897845e+001
      vertex  1.939263e+001  2.048554e+001  6.897845e+001
    endloop
  endfacet
  facet normal -3.802281e-001 -3.690380e-001  8.480788e-001
    outer loop
      vertex  1.910226e+001  2.313231e+001  7.000000e+001
      vertex  1.939263e+001  2.048554e+001  6.897845e+001
      vertex  2.369244e+001  1.840294e+001  7.000000e+001
    endloop
  endfacet
  facet normal -6.054340e-001 -6.761310e-001  4.198768e-001
    outer loop
      vertex  1.939263e+001  2.048554e+001  6.897845e+001
      vertex  1.575875e+001  2.253690e+001  6.704196e+001
      vertex  2.066678e+001  1.814206e+001  6.704196e+001
    endloop
  endfacet
  facet normal -7.273168e-001 -6.266662e-001  2.798209e-001
    outer loop
      vertex  1.939263e+001  2.048554e+001  6.897845e+001
      vertex  2.066678e+001  1.814206e+001  6.704196e+001
      vertex  2.312770e+001  1.615056e+001  6.897845e+001
    endloop
  endfacet
  facet normal -2.046243e-001 -4.201669e-001  8.840751e-001
    outer loop
      vertex  1.359014e+001  2.674524e+001  7.000000e+001
      vertex  9.715083e+000  2.648299e+001  6.897845e+001
      vertex  1.485958e+001  2.397758e+001  6.897845e+001
    endloop
  endfacet
  facet normal -2.925481e-001 -4.463297e-001  8.456981e-001
    outer loop
      vertex  1.359014e+001  2.674524e+001  7.000000e+001
      vertex  1.485958e+001  2.397758e+001  6.897845e+001
      vertex  1.910226e+001  2.313231e+001  7.000000e+001
    endloop
  endfacet
  facet normal -4.312389e-001 -8.082076e-001  4.010407e-001
    outer loop
      vertex  1.485958e+001  2.397758e+001  6.897845e+001
      vertex  9.946280e+000  2.563828e+001  6.704196e+001
      vertex  1.575875e+001  2.253690e+001  6.704196e+001
    endloop
  endfacet
  facet normal -5.835583e-001 -7.575230e-001  2.926066e-001
    outer loop
      vertex  1.485958e+001  2.397758e+001  6.897845e+001
      vertex  1.575875e+001  2.253690e+001  6.704196e+001
      vertex  1.939263e+001  2.048554e+001  6.897845e+001
    endloop
  endfacet
  facet normal -1.154222e-001 -4.520297e-001  8.845037e-001
    outer loop
      vertex  7.422119e+000  2.906737e+001  7.000000e+001
      vertex  4.170833e+000  2.789867e+001  6.897845e+001
      vertex  9.715083e+000  2.648299e+001  6.897845e+001
    endloop
  endfacet
  facet normal -1.887022e-001 -5.012294e-001  8.444883e-001
    outer loop
      vertex  7.422119e+000  2.906737e+001  7.000000e+001
      vertex  9.715083e+000  2.648299e+001  6.897845e+001
      vertex  1.359014e+001  2.674524e+001  7.000000e+001
    endloop
  endfacet
  facet normal -2.186408e-002 -4.668334e-001  8.840749e-001
    outer loop
      vertex  8.958852e-001  2.998662e+001  7.000000e+001
      vertex -1.545040e+000  2.816637e+001  6.897845e+001
      vertex  4.170833e+000  2.789867e+001  6.897845e+001
    endloop
  endfacet
  facet normal -7.470041e-002 -5.303389e-001  8.444883e-001
    outer loop
      vertex  8.958852e-001  2.998662e+001  7.000000e+001
      vertex  4.170833e+000  2.789867e+001  6.897845e+001
      vertex  7.422119e+000  2.906737e+001  7.000000e+001
    endloop
  endfacet
  facet normal -2.302519e-001 -9.017404e-001  3.658527e-001
    outer loop
      vertex  4.170833e+000  2.789867e+001  6.897845e+001
      vertex  3.562965e+000  2.726821e+001  6.704196e+001
      vertex  9.946280e+000  2.563828e+001  6.704196e+001
    endloop
  endfacet
  facet normal -2.302523e-001 -9.017407e-001  3.658521e-001
    outer loop
      vertex  9.715083e+000  2.648299e+001  6.897845e+001
      vertex  4.170833e+000  2.789867e+001  6.897845e+001
      vertex  9.946280e+000  2.563828e+001  6.704196e+001
    endloop
  endfacet
  facet normal -4.145523e-001 -8.512242e-001  3.218131e-001
    outer loop
      vertex  9.715083e+000  2.648299e+001  6.897845e+001
      vertex  9.946280e+000  2.563828e+001  6.704196e+001
      vertex  1.485958e+001  2.397758e+001  6.897845e+001
    endloop
  endfacet
  facet normal  7.317623e-002 -4.640606e-001  8.827757e-001
    outer loop
      vertex -5.673587e+000  2.945862e+001  7.000000e+001
      vertex -7.197337e+000  2.727508e+001  6.897845e+001
      vertex -1.545040e+000  2.816637e+001  6.897845e+001
    endloop
  endfacet
  facet normal  4.275331e-002 -5.319465e-001  8.456980e-001
    outer loop
      vertex -5.673587e+000  2.945862e+001  7.000000e+001
      vertex -1.545040e+000  2.816637e+001  6.897845e+001
      vertex  8.958852e-001  2.998662e+001  7.000000e+001
    endloop
  endfacet
  facet normal -9.027797e-003 -9.160156e-001  4.010413e-001
    outer loop
      vertex -1.545040e+000  2.816637e+001  6.897845e+001
      vertex -3.024840e+000  2.733314e+001  6.704196e+001
      vertex  3.562965e+000  2.726821e+001  6.704196e+001
    endloop
  endfacet
  facet normal -4.429483e-002 -9.457663e-001  3.218139e-001
    outer loop
      vertex -1.545040e+000  2.816637e+001  6.897845e+001
      vertex  3.562965e+000  2.726821e+001  6.704196e+001
      vertex  4.170833e+000  2.789867e+001  6.897845e+001
    endloop
  endfacet
  facet normal  1.667737e-001 -4.436126e-001  8.805648e-001
    outer loop
      vertex -1.196923e+001  2.750886e+001  7.000000e+001
      vertex -1.255348e+001  2.526147e+001  6.897845e+001
      vertex -7.197337e+000  2.727508e+001  6.897845e+001
    endloop
  endfacet
  facet normal  1.567553e-001 -5.061523e-001  8.480788e-001
    outer loop
      vertex -1.196923e+001  2.750886e+001  7.000000e+001
      vertex -7.197337e+000  2.727508e+001  6.897845e+001
      vertex -5.673587e+000  2.945862e+001  7.000000e+001
    endloop
  endfacet
  facet normal  2.071639e-001 -8.836214e-001  4.198767e-001
    outer loop
      vertex -7.197337e+000  2.727508e+001  6.897845e+001
      vertex -9.439039e+000  2.582933e+001  6.704196e+001
      vertex -3.024840e+000  2.733314e+001  6.704196e+001
    endloop
  endfacet
  facet normal  1.489449e-001 -9.445617e-001  2.926069e-001
    outer loop
      vertex -7.197337e+000  2.727508e+001  6.897845e+001
      vertex -3.024840e+000  2.733314e+001  6.704196e+001
      vertex -1.545040e+000  2.816637e+001  6.897845e+001
    endloop
  endfacet
  facet normal  2.560063e-001 -4.058093e-001  8.773708e-001
    outer loop
      vertex -1.768721e+001  2.423144e+001  7.000000e+001
      vertex -1.739306e+001  2.220839e+001  6.897845e+001
      vertex -1.255348e+001  2.526147e+001  6.897845e+001
    endloop
  endfacet
  facet normal  2.607080e-001 -4.548461e-001  8.515553e-001
    outer loop
      vertex -1.768721e+001  2.423144e+001  7.000000e+001
      vertex -1.255348e+001  2.526147e+001  6.897845e+001
      vertex -1.196923e+001  2.750886e+001  7.000000e+001
    endloop
  endfacet
  facet normal  4.106013e-001 -8.074561e-001  4.235816e-001
    outer loop
      vertex -1.255348e+001  2.526147e+001  6.897845e+001
      vertex -1.531151e+001  2.284311e+001  6.704196e+001
      vertex -9.439039e+000  2.582933e+001  6.704196e+001
    endloop
  endfacet
  facet normal  3.378408e-001 -8.986456e-001  2.798208e-001
    outer loop
      vertex -1.255348e+001  2.526147e+001  6.897845e+001
      vertex -9.439039e+000  2.582933e+001  6.704196e+001
      vertex -7.197337e+000  2.727508e+001  6.897845e+001
    endloop
  endfacet
  facet normal  3.380070e-001 -3.513836e-001  8.730869e-001
    outer loop
      vertex -2.255155e+001  1.978453e+001  7.000000e+001
      vertex -2.151696e+001  1.824149e+001  6.897845e+001
      vertex -1.739306e+001  2.220839e+001  6.897845e+001
    endloop
  endfacet
  facet normal  3.487957e-001 -3.815370e-001  8.560206e-001
    outer loop
      vertex -2.255155e+001  1.978453e+001  7.000000e+001
      vertex -1.739306e+001  2.220839e+001  6.897845e+001
      vertex -1.768721e+001  2.423144e+001  7.000000e+001
    endloop
  endfacet
  facet normal  5.942214e-001 -6.905246e-001  4.124036e-001
    outer loop
      vertex -1.739306e+001  2.220839e+001  6.897845e+001
      vertex -2.030520e+001  1.854586e+001  6.704196e+001
      vertex -1.531151e+001  2.284311e+001  6.704196e+001
    endloop
  endfacet
  facet normal  5.115693e-001 -8.109157e-001  2.840996e-001
    outer loop
      vertex -1.739306e+001  2.220839e+001  6.897845e+001
      vertex -1.531151e+001  2.284311e+001  6.704196e+001
      vertex -1.255348e+001  2.526147e+001  6.897845e+001
    endloop
  endfacet
  facet normal  6.601722e-001 -6.862985e-001  3.052326e-001
    outer loop
      vertex -2.151696e+001  1.824149e+001  6.897845e+001
      vertex -2.030520e+001  1.854586e+001  6.704196e+001
      vertex -1.739306e+001  2.220839e+001  6.897845e+001
    endloop
  endfacet
  facet normal  0.000000e+000  0.000000e+000 -1.000000e+000
    outer loop
      vertex  2.600000e+001  1.758427e-014  0.000000e+000
      vertex -2.524449e+001  6.222207e+000  0.000000e+000
      vertex  2.524449e+001  6.222207e+000  0.000000e+000
    endloop
  endfacet
  facet normal  0.000000e+000  0.000000e+000 -1.000000e+000
    outer loop
      vertex  2.524449e+001  6.222207e+000  0.000000e+000
      vertex -2.524449e+001  6.222207e+000  0.000000e+000
      vertex -2.302186e+001  1.208280e+001  0.000000e+000
    endloop
  endfacet
  facet normal  0.000000e+000  0.000000e+000 -1.000000e+000
    outer loop
      vertex  2.524449e+001  6.222207e+000  0.000000e+000
      vertex -2.302186e+001  1.208280e+001  0.000000e+000
      vertex  2.302186e+001  1.208280e+001  0.000000e+000
    endloop
  endfacet
  facet normal  0.000000e+000  0.000000e+000 -1.000000e+000
    outer loop
      vertex  2.302186e+001  1.208280e+001  0.000000e+000
      vertex -2.302186e+001  1.208280e+001  0.000000e+000
      vertex -1.946128e+001  1.724119e+001  0.000000e+000
    endloop
  endfacet
  facet normal  0.000000e+000  0.000000e+000 -1.000000e+000
    outer loop
      vertex  2.302186e+001  1.208280e+001  0.000000e+000
      vertex -1.946128e+001  1.724119e+001  0.000000e+000
      vertex  1.946128e+001  1.724119e+001  0.000000e+000
    endloop
  endfacet
  facet normal  0.000000e+000  0.000000e+000 -1.000000e+000
    outer loop
      vertex  1.946128e+001  1.724119e+001  0.000000e+000
      vertex -1.946128e+001  1.724119e+001  0.000000e+000
      vertex -1.476968e+001  2.139758e+001  0.000000e+000
    endloop
  endfacet
  facet normal  0.000000e+000  0.000000e+000 -1.000000e+000
    outer loop
      vertex  1.946128e+001  1.724119e+001  0.000000e+000
      vertex -1.476968e+001  2.139758e+001  0.000000e+000
      vertex  1.476968e+001  2.139758e+001  0.000000e+000
    endloop
  endfacet
  facet normal  0.000000e+000  0.000000e+000 -1.000000e+000
    outer loop
      vertex  1.476968e+001  2.139758e+001  0.000000e+000
      vertex -1.476968e+001  2.139758e+001  0.000000e+000
      vertex -9.219728e+000  2.431042e+001  0.000000e+000
    endloop
  endfacet
  facet normal  0.000000e+000  0.000000e+000 -1.000000e+000
    outer loop
      vertex  1.476968e+001  2.139758e+001  0.000000e+000
      vertex -9.219728e+000  2.431042e+001  0.000000e+000
      vertex  9.219727e+000  2.431042e+001  0.000000e+000
    endloop
  endfacet
  facet normal  0.000000e+000  0.000000e+000 -1.000000e+000
    outer loop
      vertex  9.219727e+000  2.431042e+001  0.000000e+000
      vertex -9.219728e+000  2.431042e+001  0.000000e+000
      vertex -3.133954e+000  2.581043e+001  0.000000e+000
    endloop
  endfacet
  facet normal  0.000000e+000  0.000000e+000 -1.000000e+000
    outer loop
      vertex  9.219727e+000  2.431042e+001  0.000000e+000
      vertex -3.133954e+000  2.581043e+001  0.000000e+000
      vertex  3.133954e+000  2.581043e+001  0.000000e+000
    endloop
  endfacet
  facet normal  -0.000000e+000  0.000000e+000 -1.000000e+000
    outer loop
      vertex -2.524449e+001  6.222207e+000  0.000000e+000
      vertex  2.600000e+001  1.758427e-014  0.000000e+000
      vertex -2.600000e+001 -1.587052e-007  0.000000e+000
    endloop
  endfacet
  facet normal  0.000000e+000  0.000000e+000 -1.000000e+000
    outer loop
      vertex -2.600000e+001 -1.587052e-007  0.000000e+000
      vertex  2.600000e+001  1.758427e-014  0.000000e+000
      vertex  2.524449e+001 -6.222207e+000  0.000000e+000
    endloop
  endfacet
  facet normal  0.000000e+000  0.000000e+000 -1.000000e+000
    outer loop
      vertex -2.600000e+001 -1.587052e-007  0.000000e+000
      vertex  2.524449e+001 -6.222207e+000  0.000000e+000
      vertex -2.524449e+001 -6.222207e+000  0.000000e+000
    endloop
  endfacet
  facet normal  0.000000e+000  0.000000e+000 -1.000000e+000
    outer loop
      vertex -2.524449e+001 -6.222207e+000  0.000000e+000
      vertex  2.524449e+001 -6.222207e+000  0.000000e+000
      vertex  2.302186e+001 -1.208280e+001  0.000000e+000
    endloop
  endfacet
  facet normal  0.000000e+000  0.000000e+000 -1.000000e+000
    outer loop
      vertex -2.524449e+001 -6.222207e+000  0.000000e+000
      vertex  2.302186e+001 -1.208280e+001  0.000000e+000
      vertex -2.302186e+001 -1.208280e+001  0.000000e+000
    endloop
  endfacet
  facet normal  0.000000e+000  0.000000e+000 -1.000000e+000
    outer loop
      vertex -2.302186e+001 -1.208280e+001  0.000000e+000
      vertex  2.302186e+001 -1.208280e+001  0.000000e+000
      vertex  1.946128e+001 -1.724119e+001  0.000000e+000
    endloop
  endfacet
  facet normal  0.000000e+000  0.000000e+000 -1.000000e+000
    outer loop
      vertex -2.302186e+001 -1.208280e+001  0.000000e+000
      vertex  1.946128e+001 -1.724119e+001  0.000000e+000
      vertex -1.946128e+001 -1.724119e+001  0.000000e+000
    endloop
  endfacet
  facet normal  0.000000e+000  0.000000e+000 -1.000000e+000
    outer loop
      vertex -1.946128e+001 -1.724119e+001  0.000000e+000
      vertex  1.946128e+001 -1.724119e+001  0.000000e+000
      vertex  1.476968e+001 -2.139758e+001  0.000000e+000
    endloop
  endfacet
  facet normal  0.000000e+000  0.000000e+000 -1.000000e+000
    outer loop
      vertex -1.946128e+001 -1.724119e+001  0.000000e+000
      vertex  1.476968e+001 -2.139758e+001  0.000000e+000
      vertex -1.476968e+001 -2.139758e+001  0.000000e+000
    endloop
  endfacet
  facet normal  0.000000e+000  0.000000e+000 -1.000000e+000
    outer loop
      vertex -1.476968e+001 -2.139758e+001  0.000000e+000
      vertex  1.476968e+001 -2.139758e+001  0.000000e+000
      vertex  9.219728e+000 -2.431042e+001  0.000000e+000
    endloop
  endfacet
  facet normal  0.000000e+000  0.000000e+000 -9.999999e-001
    outer loop
      vertex -1.476968e+001 -2.139758e+001  0.000000e+000
      vertex  9.219728e+000 -2.431042e+001  0.000000e+000
      vertex -9.219728e+000 -2.431042e+001  0.000000e+000
    endloop
  endfacet
  facet normal  0.000000e+000  0.000000e+000 -1.000000e+000
    outer loop
      vertex -9.219728e+000 -2.431042e+001  0.000000e+000
      vertex  9.219728e+000 -2.431042e+001  0.000000e+000
      vertex  3.133954e+000 -2.581043e+001  0.000000e+000
    endloop
  endfacet
  facet normal  0.000000e+000  0.000000e+000 -1.000000e+000
    outer loop
      vertex -9.219728e+000 -2.431042e+001  0.000000e+000
      vertex  3.133954e+000 -2.581043e+001  0.000000e+000
      vertex -3.133954e+000 -2.581043e+001  0.000000e+000
    endloop
  endfacet
  facet normal -7.048732e-001 -7.942016e-002 -7.048732e-001
    outer loop
      vertex -2.600000e+001 -1.587052e-007  0.000000e+000
      vertex -2.924784e+001 -6.675628e+000  4.000000e+000
      vertex -3.000000e+001  1.699650e-014  4.000000e+000
    endloop
  endfacet
  facet normal -6.994275e-001 -8.492582e-002 -7.096400e-001
    outer loop
      vertex -2.600000e+001 -1.587052e-007  0.000000e+000
      vertex -2.524449e+001 -6.222207e+000  0.000000e+000
      vertex -2.924784e+001 -6.675628e+000  4.000000e+000
    endloop
  endfacet
  facet normal  6.994275e-001 -8.492582e-002 -7.096400e-001
    outer loop
      vertex  2.600000e+001  1.758427e-014  0.000000e+000
      vertex  2.924784e+001 -6.675628e+000  4.000000e+000
      vertex  2.524449e+001 -6.222207e+000  0.000000e+000
    endloop
  endfacet
  facet normal  7.048732e-001 -7.942016e-002 -7.048732e-001
    outer loop
      vertex  2.600000e+001  1.758427e-014  0.000000e+000
      vertex  3.000000e+001 -3.399299e-014  4.000000e+000
      vertex  2.924784e+001 -6.675628e+000  4.000000e+000
    endloop
  endfacet
  facet normal -6.734220e-001 -2.356405e-001 -7.006970e-001
    outer loop
      vertex -2.524449e+001 -6.222207e+000  0.000000e+000
      vertex -2.702907e+001 -1.301651e+001  4.000000e+000
      vertex -2.924784e+001 -6.675628e+000  4.000000e+000
    endloop
  endfacet
  facet normal -6.070306e-001 -3.814225e-001 -6.971591e-001
    outer loop
      vertex -2.302186e+001 -1.208280e+001  0.000000e+000
      vertex -2.345494e+001 -1.870469e+001  4.000000e+000
      vertex -2.702907e+001 -1.301651e+001  4.000000e+000
    endloop
  endfacet
  facet normal -6.547496e-001 -2.483138e-001 -7.138930e-001
    outer loop
      vertex -2.302186e+001 -1.208280e+001  0.000000e+000
      vertex -2.702907e+001 -1.301651e+001  4.000000e+000
      vertex -2.524449e+001 -6.222207e+000  0.000000e+000
    endloop
  endfacet
  facet normal -5.089013e-001 -5.089013e-001 -6.942903e-001
    outer loop
      vertex -1.946128e+001 -1.724119e+001  0.000000e+000
      vertex -1.870469e+001 -2.345494e+001  4.000000e+000
      vertex -2.345494e+001 -1.870469e+001  4.000000e+000
    endloop
  endfacet
  facet normal -5.734118e-001 -3.957976e-001 -7.173167e-001
    outer loop
      vertex -1.946128e+001 -1.724119e+001  0.000000e+000
      vertex -2.345494e+001 -1.870469e+001  4.000000e+000
      vertex -2.302186e+001 -1.208280e+001  0.000000e+000
    endloop
  endfacet
  facet normal -3.840135e-001 -6.111541e-001 -6.921158e-001
    outer loop
      vertex -1.476968e+001 -2.139758e+001  0.000000e+000
      vertex -1.301651e+001 -2.702907e+001  4.000000e+000
      vertex -1.870469e+001 -2.345494e+001  4.000000e+000
    endloop
  endfacet
  facet normal -4.602278e-001 -5.194896e-001 -7.199451e-001
    outer loop
      vertex -1.476968e+001 -2.139758e+001  0.000000e+000
      vertex -1.870469e+001 -2.345494e+001  4.000000e+000
      vertex -1.946128e+001 -1.724119e+001  0.000000e+000
    endloop
  endfacet
  facet normal -2.388525e-001 -6.826013e-001 -6.906553e-001
    outer loop
      vertex -9.219728e+000 -2.431042e+001  0.000000e+000
      vertex -6.675628e+000 -2.924784e+001  4.000000e+000
      vertex -1.301651e+001 -2.702907e+001  4.000000e+000
    endloop
  endfacet
  facet normal -3.216336e-001 -6.128217e-001 -7.218043e-001
    outer loop
      vertex -9.219728e+000 -2.431042e+001  0.000000e+000
      vertex -1.301651e+001 -2.702907e+001  4.000000e+000
      vertex -1.476968e+001 -2.139758e+001  0.000000e+000
    endloop
  endfacet
  facet normal -8.104930e-002 -7.193322e-001 -6.899219e-001
    outer loop
      vertex -3.133954e+000 -2.581043e+001  0.000000e+000
      vertex -3.215608e-014 -3.000000e+001  4.000000e+000
      vertex -6.675628e+000 -2.924784e+001  4.000000e+000
    endloop
  endfacet
  facet normal -1.653525e-001 -6.708620e-001 -7.229125e-001
    outer loop
      vertex -3.133954e+000 -2.581043e+001  0.000000e+000
      vertex -6.675628e+000 -2.924784e+001  4.000000e+000
      vertex -9.219728e+000 -2.431042e+001  0.000000e+000
    endloop
  endfacet
  facet normal  8.104930e-002 -7.193322e-001 -6.899219e-001
    outer loop
      vertex  3.133954e+000 -2.581043e+001  0.000000e+000
      vertex  6.675628e+000 -2.924784e+001  4.000000e+000
      vertex -3.215608e-014 -3.000000e+001  4.000000e+000
    endloop
  endfacet
  facet normal  0.000000e+000 -6.905538e-001 -7.232808e-001
    outer loop
      vertex  3.133954e+000 -2.581043e+001  0.000000e+000
      vertex -3.215608e-014 -3.000000e+001  4.000000e+000
      vertex -3.133954e+000 -2.581043e+001  0.000000e+000
    endloop
  endfacet
  facet normal  2.388525e-001 -6.826013e-001 -6.906553e-001
    outer loop
      vertex  9.219728e+000 -2.431042e+001  0.000000e+000
      vertex  1.301651e+001 -2.702907e+001  4.000000e+000
      vertex  6.675628e+000 -2.924784e+001  4.000000e+000
    endloop
  endfacet
  facet normal  1.653525e-001 -6.708620e-001 -7.229125e-001
    outer loop
      vertex  9.219728e+000 -2.431042e+001  0.000000e+000
      vertex  6.675628e+000 -2.924784e+001  4.000000e+000
      vertex  3.133954e+000 -2.581043e+001  0.000000e+000
    endloop
  endfacet
  facet normal  3.840135e-001 -6.111541e-001 -6.921158e-001
    outer loop
      vertex  1.476968e+001 -2.139758e+001  0.000000e+000
      vertex  1.870469e+001 -2.345494e+001  4.000000e+000
      vertex  1.301651e+001 -2.702907e+001  4.000000e+000
    endloop
  endfacet
  facet normal  3.216336e-001 -6.128217e-001 -7.218043e-001
    outer loop
      vertex  1.476968e+001 -2.139758e+001  0.000000e+000
      vertex  1.301651e+001 -2.702907e+001  4.000000e+000
      vertex  9.219728e+000 -2.431042e+001  0.000000e+000
    endloop
  endfacet
  facet normal  5.089013e-001 -5.089013e-001 -6.942903e-001
    outer loop
      vertex  1.946128e+001 -1.724119e+001  0.000000e+000
      vertex  2.345494e+001 -1.870469e+001  4.000000e+000
      vertex  1.870469e+001 -2.345494e+001  4.000000e+000
    endloop
  endfacet
  facet normal  4.602278e-001 -5.194896e-001 -7.199451e-001
    outer loop
      vertex  1.946128e+001 -1.724119e+001  0.000000e+000
      vertex  1.870469e+001 -2.345494e+001  4.000000e+000
      vertex  1.476968e+001 -2.139758e+001  0.000000e+000
    endloop
  endfacet
  facet normal  6.070306e-001 -3.814225e-001 -6.971591e-001
    outer loop
      vertex  2.302186e+001 -1.208280e+001  0.000000e+000
      vertex  2.702907e+001 -1.301651e+001  4.000000e+000
      vertex  2.345494e+001 -1.870469e+001  4.000000e+000
    endloop
  endfacet
  facet normal  5.734118e-001 -3.957976e-001 -7.173167e-001
    outer loop
      vertex  2.302186e+001 -1.208280e+001  0.000000e+000
      vertex  2.345494e+001 -1.870469e+001  4.000000e+000
      vertex  1.946128e+001 -1.724119e+001  0.000000e+000
    endloop
  endfacet
  facet normal  6.734220e-001 -2.356405e-001 -7.006970e-001
    outer loop
      vertex  2.524449e+001 -6.222207e+000  0.000000e+000
      vertex  2.924784e+001 -6.675628e+000  4.000000e+000
      vertex  2.702907e+001 -1.301651e+001  4.000000e+000
    endloop
  endfacet
  facet normal  6.547496e-001 -2.483138e-001 -7.138930e-001
    outer loop
      vertex  2.524449e+001 -6.222207e+000  0.000000e+000
      vertex  2.702907e+001 -1.301651e+001  4.000000e+000
      vertex  2.302186e+001 -1.208280e+001  0.000000e+000
    endloop
  endfacet
  facet normal  7.048732e-001  7.942016e-002 -7.048732e-001
    outer loop
      vertex  2.600000e+001  1.758427e-014  0.000000e+000
      vertex  2.924784e+001  6.675628e+000  4.000000e+000
      vertex  3.000000e+001 -3.399299e-014  4.000000e+000
    endloop
  endfacet
  facet normal  6.994275e-001  8.492582e-002 -7.096400e-001
    outer loop
      vertex  2.600000e+001  1.758427e-014  0.000000e+000
      vertex  2.524449e+001  6.222207e+000  0.000000e+000
      vertex  2.924784e+001  6.675628e+000  4.000000e+000
    endloop
  endfacet
  facet normal -6.994275e-001  8.492582e-002 -7.096400e-001
    outer loop
      vertex -2.600000e+001 -1.587052e-007  0.000000e+000
      vertex -2.924784e+001  6.675628e+000  4.000000e+000
      vertex -2.524449e+001  6.222207e+000  0.000000e+000
    endloop
  endfacet
  facet normal -7.048732e-001  7.942016e-002 -7.048732e-001
    outer loop
      vertex -2.600000e+001 -1.587052e-007  0.000000e+000
      vertex -3.000000e+001  1.699650e-014  4.000000e+000
      vertex -2.924784e+001  6.675628e+000  4.000000e+000
    endloop
  endfacet
  facet normal  6.734220e-001  2.356405e-001 -7.006970e-001
    outer loop
      vertex  2.524449e+001  6.222207e+000  0.000000e+000
      vertex  2.702907e+001  1.301651e+001  4.000000e+000
      vertex  2.924784e+001  6.675628e+000  4.000000e+000
    endloop
  endfacet
  facet normal  6.070306e-001  3.814225e-001 -6.971591e-001
    outer loop
      vertex  2.302186e+001  1.208280e+001  0.000000e+000
      vertex  2.345494e+001  1.870469e+001  4.000000e+000
      vertex  2.702907e+001  1.301651e+001  4.000000e+000
    endloop
  endfacet
  facet normal  6.547496e-001  2.483138e-001 -7.138930e-001
    outer loop
      vertex  2.302186e+001  1.208280e+001  0.000000e+000
      vertex  2.702907e+001  1.301651e+001  4.000000e+000
      vertex  2.524449e+001  6.222207e+000  0.000000e+000
    endloop
  endfacet
  facet normal  5.089013e-001  5.089013e-001 -6.942903e-001
    outer loop
      vertex  1.946128e+001  1.724119e+001  0.000000e+000
      vertex  1.870469e+001  2.345494e+001  4.000000e+000
      vertex  2.345494e+001  1.870469e+001  4.000000e+000
    endloop
  endfacet
  facet normal  5.734118e-001  3.957976e-001 -7.173167e-001
    outer loop
      vertex  1.946128e+001  1.724119e+001  0.000000e+000
      vertex  2.345494e+001  1.870469e+001  4.000000e+000
      vertex  2.302186e+001  1.208280e+001  0.000000e+000
    endloop
  endfacet
  facet normal  3.840135e-001  6.111541e-001 -6.921158e-001
    outer loop
      vertex  1.476968e+001  2.139758e+001  0.000000e+000
      vertex  1.301651e+001  2.702907e+001  4.000000e+000
      vertex  1.870469e+001  2.345494e+001  4.000000e+000
    endloop
  endfacet
  facet normal  4.602278e-001  5.194896e-001 -7.199451e-001
    outer loop
      vertex  1.476968e+001  2.139758e+001  0.000000e+000
      vertex  1.870469e+001  2.345494e+001  4.000000e+000
      vertex  1.946128e+001  1.724119e+001  0.000000e+000
    endloop
  endfacet
  facet normal  2.388525e-001  6.826013e-001 -6.906554e-001
    outer loop
      vertex  9.219727e+000  2.431042e+001  0.000000e+000
      vertex  6.675628e+000  2.924784e+001  4.000000e+000
      vertex  1.301651e+001  2.702907e+001  4.000000e+000
    endloop
  endfacet
  facet normal  3.216336e-001  6.128217e-001 -7.218043e-001
    outer loop
      vertex  9.219727e+000  2.431042e+001  0.000000e+000
      vertex  1.301651e+001  2.702907e+001  4.000000e+000
      vertex  1.476968e+001  2.139758e+001  0.000000e+000
    endloop
  endfacet
  facet normal  8.104930e-002  7.193322e-001 -6.899219e-001
    outer loop
      vertex  3.133954e+000  2.581043e+001  0.000000e+000
      vertex  8.498248e-015  3.000000e+001  4.000000e+000
      vertex  6.675628e+000  2.924784e+001  4.000000e+000
    endloop
  endfacet
  facet normal  1.653526e-001  6.708620e-001 -7.229127e-001
    outer loop
      vertex  3.133954e+000  2.581043e+001  0.000000e+000
      vertex  6.675628e+000  2.924784e+001  4.000000e+000
      vertex  9.219727e+000  2.431042e+001  0.000000e+000
    endloop
  endfacet
  facet normal -8.104930e-002  7.193322e-001 -6.899219e-001
    outer loop
      vertex -3.133954e+000  2.581043e+001  0.000000e+000
      vertex -6.675628e+000  2.924784e+001  4.000000e+000
      vertex  8.498248e-015  3.000000e+001  4.000000e+000
    endloop
  endfacet
  facet normal  0.000000e+000  6.905538e-001 -7.232809e-001
    outer loop
      vertex -3.133954e+000  2.581043e+001  0.000000e+000
      vertex  8.498248e-015  3.000000e+001  4.000000e+000
      vertex  3.133954e+000  2.581043e+001  0.000000e+000
    endloop
  endfacet
  facet normal -2.388525e-001  6.826013e-001 -6.906553e-001
    outer loop
      vertex -9.219728e+000  2.431042e+001  0.000000e+000
      vertex -1.301651e+001  2.702907e+001  4.000000e+000
      vertex -6.675628e+000  2.924784e+001  4.000000e+000
    endloop
  endfacet
  facet normal -1.653526e-001  6.708621e-001 -7.229127e-001
    outer loop
      vertex -9.219728e+000  2.431042e+001  0.000000e+000
      vertex -6.675628e+000  2.924784e+001  4.000000e+000
      vertex -3.133954e+000  2.581043e+001  0.000000e+000
    endloop
  endfacet
  facet normal -3.840135e-001  6.111541e-001 -6.921158e-001
    outer loop
      vertex -1.476968e+001  2.139758e+001  0.000000e+000
      vertex -1.870469e+001  2.345494e+001  4.000000e+000
      vertex -1.301651e+001  2.702907e+001  4.000000e+000
    endloop
  endfacet
  facet normal -3.216336e-001  6.128217e-001 -7.218043e-001
    outer loop
      vertex -1.476968e+001  2.139758e+001  0.000000e+000
      vertex -1.301651e+001  2.702907e+001  4.000000e+000
      vertex -9.219728e+000  2.431042e+001  0.000000e+000
    endloop
  endfacet
  facet normal -5.089013e-001  5.089013e-001 -6.942903e-001
    outer loop
      vertex -1.946128e+001  1.724119e+001  0.000000e+000
      vertex -2.345494e+001  1.870469e+001  4.000000e+000
      vertex -1.870469e+001  2.345494e+001  4.000000e+000
    endloop
  endfacet
  facet normal -4.602278e-001  5.194896e-001 -7.199451e-001
    outer loop
      vertex -1.946128e+001  1.724119e+001  0.000000e+000
      vertex -1.870469e+001  2.345494e+001  4.000000e+000
      vertex -1.476968e+001  2.139758e+001  0.000000e+000
    endloop
  endfacet
  facet normal -6.070306e-001  3.814225e-001 -6.971591e-001
    outer loop
      vertex -2.302186e+001  1.208280e+001  0.000000e+000
      vertex -2.702907e+001  1.301651e+001  4.000000e+000
      vertex -2.345494e+001  1.870469e+001  4.000000e+000
    endloop
  endfacet
  facet normal -5.734118e-001  3.957976e-001 -7.173167e-001
    outer loop
      vertex -2.302186e+001  1.208280e+001  0.000000e+000
      vertex -2.345494e+001  1.870469e+001  4.000000e+000
      vertex -1.946128e+001  1.724119e+001  0.000000e+000
    endloop
  endfacet
  facet normal -6.734220e-001  2.356405e-001 -7.006970e-001
    outer loop
      vertex -2.524449e+001  6.222207e+000  0.000000e+000
      vertex -2.924784e+001  6.675628e+000  4.000000e+000
      vertex -2.702907e+001  1.301651e+001  4.000000e+000
    endloop
  endfacet
  facet normal -6.547496e-001  2.483138e-001 -7.138930e-001
    outer loop
      vertex -2.524449e+001  6.222207e+000  0.000000e+000
      vertex -2.702907e+001  1.301651e+001  4.000000e+000
      vertex -2.302186e+001  1.208280e+001  0.000000e+000
    endloop
  endfacet
  facet normal  0.000000e+000  0.000000e+000  1.000000e+000
    outer loop
      vertex -1.407414e+000 -2.746396e+001  5.000000e+000
      vertex  4.739180e+000 -2.708856e+001  5.000000e+000
      vertex -7.483433e+000 -2.646220e+001  5.000000e+000
    endloop
  endfacet
  facet normal  -0.000000e+000  0.000000e+000  1.000000e+000
    outer loop
      vertex -7.483433e+000 -2.646220e+001  5.000000e+000
      vertex  4.739180e+000 -2.708856e+001  5.000000e+000
      vertex  1.064813e+001 -2.535483e+001  5.000000e+000
    endloop
  endfacet
  facet normal  0.000000e+000  0.000000e+000  1.000000e+000
    outer loop
      vertex -7.483433e+000 -2.646220e+001  5.000000e+000
      vertex  1.064813e+001 -2.535483e+001  5.000000e+000
      vertex -1.318420e+001 -2.413352e+001  5.000000e+000
    endloop
  endfacet
  facet normal  -0.000000e+000  0.000000e+000  1.000000e+000
    outer loop
      vertex -1.318420e+001 -2.413352e+001  5.000000e+000
      vertex  1.064813e+001 -2.535483e+001  5.000000e+000
      vertex  1.602314e+001 -2.234970e+001  5.000000e+000
    endloop
  endfacet
  facet normal  0.000000e+000  0.000000e+000  1.000000e+000
    outer loop
      vertex -1.318420e+001 -2.413352e+001  5.000000e+000
      vertex  1.602314e+001 -2.234970e+001  5.000000e+000
      vertex -1.822386e+001 -2.059468e+001  5.000000e+000
    endloop
  endfacet
  facet normal  -0.000000e+000  0.000000e+000  1.000000e+000
    outer loop
      vertex  7.483433e+000  2.646220e+001  5.000000e+000
      vertex -1.064813e+001  2.535483e+001  5.000000e+000
      vertex  1.318420e+001  2.413352e+001  5.000000e+000
    endloop
  endfacet
  facet normal  0.000000e+000  0.000000e+000  1.000000e+000
    outer loop
      vertex  1.318420e+001  2.413352e+001  5.000000e+000
      vertex -1.064813e+001  2.535483e+001  5.000000e+000
      vertex -1.602314e+001  2.234970e+001  5.000000e+000
    endloop
  endfacet
  facet normal  -0.000000e+000  0.000000e+000  1.000000e+000
    outer loop
      vertex  1.318420e+001  2.413352e+001  5.000000e+000
      vertex -1.602314e+001  2.234970e+001  5.000000e+000
      vertex  1.822386e+001  2.059468e+001  5.000000e+000
    endloop
  endfacet
  facet normal  0.000000e+000  0.000000e+000  1.000000e+000
    outer loop
      vertex  1.822386e+001  2.059468e+001  5.000000e+000
      vertex -1.602314e+001  2.234970e+001  5.000000e+000
      vertex -2.059468e+001  1.822386e+001  5.000000e+000
    endloop
  endfacet
  facet normal  -0.000000e+000  0.000000e+000  1.000000e+000
    outer loop
      vertex  1.822386e+001  2.059468e+001  5.000000e+000
      vertex -2.059468e+001  1.822386e+001  5.000000e+000
      vertex  2.234970e+001  1.602314e+001  5.000000e+000
    endloop
  endfacet
  facet normal  0.000000e+000  0.000000e+000  1.000000e+000
    outer loop
      vertex  2.234970e+001  1.602314e+001  5.000000e+000
      vertex -2.059468e+001  1.822386e+001  5.000000e+000
      vertex -2.413352e+001  1.318420e+001  5.000000e+000
    endloop
  endfacet
  facet normal  -0.000000e+000  0.000000e+000  1.000000e+000
    outer loop
      vertex  2.234970e+001  1.602314e+001  5.000000e+000
      vertex -2.413352e+001  1.318420e+001  5.000000e+000
      vertex  2.535483e+001  1.064813e+001  5.000000e+000
    endloop
  endfacet
  facet normal  0.000000e+000  0.000000e+000  1.000000e+000
    outer loop
      vertex  2.535483e+001  1.064813e+001  5.000000e+000
      vertex -2.413352e+001  1.318420e+001  5.000000e+000
      vertex -2.646220e+001  7.483433e+000  5.000000e+000
    endloop
  endfacet
  facet normal  -0.000000e+000  0.000000e+000  1.000000e+000
    outer loop
      vertex  2.535483e+001  1.064813e+001  5.000000e+000
      vertex -2.646220e+001  7.483433e+000  5.000000e+000
      vertex  2.708856e+001  4.739180e+000  5.000000e+000
    endloop
  endfacet
  facet normal  0.000000e+000  0.000000e+000  1.000000e+000
    outer loop
      vertex  2.708856e+001  4.739180e+000  5.000000e+000
      vertex -2.646220e+001  7.483433e+000  5.000000e+000
      vertex -2.746396e+001  1.407414e+000  5.000000e+000
    endloop
  endfacet
  facet normal  -0.000000e+000  0.000000e+000  1.000000e+000
    outer loop
      vertex  2.708856e+001  4.739180e+000  5.000000e+000
      vertex -2.746396e+001  1.407414e+000  5.000000e+000
      vertex  2.746396e+001 -1.407414e+000  5.000000e+000
    endloop
  endfacet
  facet normal  0.000000e+000  0.000000e+000  1.000000e+000
    outer loop
      vertex  2.746396e+001 -1.407414e+000  5.000000e+000
      vertex -2.746396e+001  1.407414e+000  5.000000e+000
      vertex -2.708856e+001 -4.739180e+000  5.000000e+000
    endloop
  endfacet
  facet normal  -0.000000e+000  0.000000e+000  1.000000e+000
    outer loop
      vertex  2.746396e+001 -1.407414e+000  5.000000e+000
      vertex -2.708856e+001 -4.739180e+000  5.000000e+000
      vertex  2.646220e+001 -7.483433e+000  5.000000e+000
    endloop
  endfacet
  facet normal  0.000000e+000  0.000000e+000  1.000000e+000
    outer loop
      vertex  2.646220e+001 -7.483433e+000  5.000000e+000
      vertex -2.708856e+001 -4.739180e+000  5.000000e+000
      vertex -2.535483e+001 -1.064813e+001  5.000000e+000
    endloop
  endfacet
  facet normal  -0.000000e+000  0.000000e+000  1.000000e+000
    outer loop
      vertex  2.646220e+001 -7.483433e+000  5.000000e+000
      vertex -2.535483e+001 -1.064813e+001  5.000000e+000
      vertex  2.413352e+001 -1.318420e+001  5.000000e+000
    endloop
  endfacet
  facet normal  0.000000e+000  0.000000e+000  1.000000e+000
    outer loop
      vertex  2.413352e+001 -1.318420e+001  5.000000e+000
      vertex -2.535483e+001 -1.064813e+001  5.000000e+000
      vertex -2.234970e+001 -1.602314e+001  5.000000e+000
    endloop
  endfacet
  facet normal  -0.000000e+000  0.000000e+000  1.000000e+000
    outer loop
      vertex  2.413352e+001 -1.318420e+001  5.000000e+000
      vertex -2.234970e+001 -1.602314e+001  5.000000e+000
      vertex  2.059468e+001 -1.822386e+001  5.000000e+000
    endloop
  endfacet
  facet normal  0.000000e+000  0.000000e+000  1.000000e+000
    outer loop
      vertex  2.059468e+001 -1.822386e+001  5.000000e+000
      vertex -2.234970e+001 -1.602314e+001  5.000000e+000
      vertex -1.822386e+001 -2.059468e+001  5.000000e+000
    endloop
  endfacet
  facet normal  -0.000000e+000  0.000000e+000  1.000000e+000
    outer loop
      vertex  2.059468e+001 -1.822386e+001  5.000000e+000
      vertex -1.822386e+001 -2.059468e+001  5.000000e+000
      vertex  1.602314e+001 -2.234970e+001  5.000000e+000
    endloop
  endfacet
  facet normal  0.000000e+000  0.000000e+000  1.000000e+000
    outer loop
      vertex -4.739180e+000  2.708856e+001  5.000000e+000
      vertex -1.064813e+001  2.535483e+001  5.000000e+000
      vertex  1.407414e+000  2.746396e+001  5.000000e+000
    endloop
  endfacet
  facet normal  0.000000e+000  0.000000e+000  1.000000e+000
    outer loop
      vertex  1.407414e+000  2.746396e+001  5.000000e+000
      vertex -1.064813e+001  2.535483e+001  5.000000e+000
      vertex  7.483433e+000  2.646220e+001  5.000000e+000
    endloop
  endfacet
endsolid CATIA STL
