solid CATIA STL
  facet normal -5.000000e-001  8.660254e-001  0.000000e+000
    outer loop
      vertex  2.131628e-014 -3.500000e+001  0.000000e+000
      vertex  2.131628e-014 -3.500000e+001  5.000000e+001
      vertex  3.031089e+001 -1.750000e+001  0.000000e+000
    endloop
  endfacet
  facet normal -5.000000e-001  8.660254e-001  0.000000e+000
    outer loop
      vertex  3.031089e+001 -1.750000e+001  0.000000e+000
      vertex  2.131628e-014 -3.500000e+001  5.000000e+001
      vertex  3.031089e+001 -1.750000e+001  5.000000e+001
    endloop
  endfacet
  facet normal  5.000000e-001  8.660254e-001  0.000000e+000
    outer loop
      vertex -3.031089e+001 -1.750000e+001  0.000000e+000
      vertex -3.031089e+001 -1.750000e+001  5.000000e+001
      vertex  2.131628e-014 -3.500000e+001  0.000000e+000
    endloop
  endfacet
  facet normal  5.000000e-001  8.660254e-001  -0.000000e+000
    outer loop
      vertex  2.131628e-014 -3.500000e+001  0.000000e+000
      vertex -3.031089e+001 -1.750000e+001  5.000000e+001
      vertex  2.131628e-014 -3.500000e+001  5.000000e+001
    endloop
  endfacet
  facet normal  1.000000e+000  0.000000e+000  0.000000e+000
    outer loop
      vertex -3.031089e+001  1.750000e+001  0.000000e+000
      vertex -3.031089e+001  1.750000e+001  5.000000e+001
      vertex -3.031089e+001 -1.750000e+001  0.000000e+000
    endloop
  endfacet
  facet normal  1.000000e+000  0.000000e+000  0.000000e+000
    outer loop
      vertex -3.031089e+001 -1.750000e+001  0.000000e+000
      vertex -3.031089e+001  1.750000e+001  5.000000e+001
      vertex -3.031089e+001 -1.750000e+001  5.000000e+001
    endloop
  endfacet
  facet normal  5.000000e-001 -8.660254e-001  0.000000e+000
    outer loop
      vertex  0.000000e+000  3.500000e+001  0.000000e+000
      vertex  0.000000e+000  3.500000e+001  5.000000e+001
      vertex -3.031089e+001  1.750000e+001  0.000000e+000
    endloop
  endfacet
  facet normal  5.000000e-001 -8.660254e-001  0.000000e+000
    outer loop
      vertex -3.031089e+001  1.750000e+001  0.000000e+000
      vertex  0.000000e+000  3.500000e+001  5.000000e+001
      vertex -3.031089e+001  1.750000e+001  5.000000e+001
    endloop
  endfacet
  facet normal -5.000000e-001 -8.660254e-001  -0.000000e+000
    outer loop
      vertex  3.031089e+001  1.750000e+001  0.000000e+000
      vertex  3.031089e+001  1.750000e+001  5.000000e+001
      vertex  0.000000e+000  3.500000e+001  0.000000e+000
    endloop
  endfacet
  facet normal -5.000000e-001 -8.660254e-001  0.000000e+000
    outer loop
      vertex  0.000000e+000  3.500000e+001  0.000000e+000
      vertex  3.031089e+001  1.750000e+001  5.000000e+001
      vertex  0.000000e+000  3.500000e+001  5.000000e+001
    endloop
  endfacet
  facet normal -1.000000e+000  0.000000e+000  0.000000e+000
    outer loop
      vertex  3.031089e+001 -1.750000e+001  0.000000e+000
      vertex  3.031089e+001 -1.750000e+001  5.000000e+001
      vertex  3.031089e+001  1.750000e+001  0.000000e+000
    endloop
  endfacet
  facet normal -1.000000e+000  0.000000e+000  0.000000e+000
    outer loop
      vertex  3.031089e+001  1.750000e+001  0.000000e+000
      vertex  3.031089e+001 -1.750000e+001  5.000000e+001
      vertex  3.031089e+001  1.750000e+001  5.000000e+001
    endloop
  endfacet
  facet normal  0.000000e+000  0.000000e+000 -1.000000e+000
    outer loop
      vertex  1.598721e-014 -3.269060e+001  0.000000e+000
      vertex -2.831089e+001 -1.634530e+001  0.000000e+000
      vertex  2.831089e+001 -1.634530e+001  0.000000e+000
    endloop
  endfacet
  facet normal  0.000000e+000  0.000000e+000 -1.000000e+000
    outer loop
      vertex  1.154632e-014  3.269060e+001  0.000000e+000
      vertex  2.831089e+001  1.634530e+001  0.000000e+000
      vertex -2.831089e+001  1.634530e+001  0.000000e+000
    endloop
  endfacet
  facet normal  0.000000e+000  0.000000e+000 -1.000000e+000
    outer loop
      vertex -2.831089e+001  1.634530e+001  0.000000e+000
      vertex  2.831089e+001  1.634530e+001  0.000000e+000
      vertex  2.831089e+001 -1.634530e+001  0.000000e+000
    endloop
  endfacet
  facet normal  0.000000e+000  0.000000e+000 -1.000000e+000
    outer loop
      vertex -2.831089e+001  1.634530e+001  0.000000e+000
      vertex  2.831089e+001 -1.634530e+001  0.000000e+000
      vertex -2.831089e+001 -1.634530e+001  0.000000e+000
    endloop
  endfacet
  facet normal -5.000000e-001  8.660254e-001 -2.960595e-016
    outer loop
      vertex  1.065814e-014  3.500000e+001  5.000000e+000
      vertex  1.243450e-014  3.500000e+001  2.000000e+000
      vertex -3.031089e+001  1.750000e+001  5.000000e+000
    endloop
  endfacet
  facet normal -5.000000e-001  8.660254e-001  0.000000e+000
    outer loop
      vertex -3.031089e+001  1.750000e+001  5.000000e+000
      vertex  1.243450e-014  3.500000e+001  2.000000e+000
      vertex -3.031089e+001  1.750000e+001  2.000000e+000
    endloop
  endfacet
  facet normal  5.000000e-001  8.660254e-001  -0.000000e+000
    outer loop
      vertex  3.031089e+001  1.750000e+001  5.000000e+000
      vertex  3.031089e+001  1.750000e+001  2.000000e+000
      vertex  1.065814e-014  3.500000e+001  5.000000e+000
    endloop
  endfacet
  facet normal  5.000000e-001  8.660254e-001  2.960595e-016
    outer loop
      vertex  1.065814e-014  3.500000e+001  5.000000e+000
      vertex  3.031089e+001  1.750000e+001  2.000000e+000
      vertex  1.243450e-014  3.500000e+001  2.000000e+000
    endloop
  endfacet
  facet normal  1.000000e+000  0.000000e+000  0.000000e+000
    outer loop
      vertex  3.031089e+001 -1.750000e+001  5.000000e+000
      vertex  3.031089e+001 -1.750000e+001  2.000000e+000
      vertex  3.031089e+001  1.750000e+001  5.000000e+000
    endloop
  endfacet
  facet normal  1.000000e+000  0.000000e+000  0.000000e+000
    outer loop
      vertex  3.031089e+001  1.750000e+001  5.000000e+000
      vertex  3.031089e+001 -1.750000e+001  2.000000e+000
      vertex  3.031089e+001  1.750000e+001  2.000000e+000
    endloop
  endfacet
  facet normal  5.000000e-001 -8.660254e-001  2.960595e-016
    outer loop
      vertex  3.552714e-015 -3.500000e+001  5.000000e+000
      vertex  5.329071e-015 -3.500000e+001  2.000000e+000
      vertex  3.031089e+001 -1.750000e+001  5.000000e+000
    endloop
  endfacet
  facet normal  5.000000e-001 -8.660254e-001  0.000000e+000
    outer loop
      vertex  3.031089e+001 -1.750000e+001  5.000000e+000
      vertex  5.329071e-015 -3.500000e+001  2.000000e+000
      vertex  3.031089e+001 -1.750000e+001  2.000000e+000
    endloop
  endfacet
  facet normal -5.000000e-001 -8.660254e-001  0.000000e+000
    outer loop
      vertex -3.031089e+001 -1.750000e+001  5.000000e+000
      vertex -3.031089e+001 -1.750000e+001  2.000000e+000
      vertex  3.552714e-015 -3.500000e+001  5.000000e+000
    endloop
  endfacet
  facet normal -5.000000e-001 -8.660254e-001 -2.960595e-016
    outer loop
      vertex  3.552714e-015 -3.500000e+001  5.000000e+000
      vertex -3.031089e+001 -1.750000e+001  2.000000e+000
      vertex  5.329071e-015 -3.500000e+001  2.000000e+000
    endloop
  endfacet
  facet normal -1.000000e+000  0.000000e+000  0.000000e+000
    outer loop
      vertex -3.031089e+001  1.750000e+001  5.000000e+000
      vertex -3.031089e+001  1.750000e+001  2.000000e+000
      vertex -3.031089e+001 -1.750000e+001  5.000000e+000
    endloop
  endfacet
  facet normal -1.000000e+000  0.000000e+000  0.000000e+000
    outer loop
      vertex -3.031089e+001 -1.750000e+001  5.000000e+000
      vertex -3.031089e+001  1.750000e+001  2.000000e+000
      vertex -3.031089e+001 -1.750000e+001  2.000000e+000
    endloop
  endfacet
  facet normal -9.760331e-002 -1.690539e-001 -9.807621e-001
    outer loop
      vertex -2.831089e+001 -1.634530e+001  0.000000e+000
      vertex  1.598721e-014 -3.269060e+001  0.000000e+000
      vertex -2.907669e+001 -1.678744e+001  1.524228e-001
    endloop
  endfacet
  facet normal -9.760330e-002 -1.690539e-001 -9.807622e-001
    outer loop
      vertex -2.907669e+001 -1.678744e+001  1.524228e-001
      vertex  1.598721e-014 -3.269060e+001  0.000000e+000
      vertex -2.917552e-009 -3.357487e+001  1.524228e-001
    endloop
  endfacet
  facet normal -2.798795e-001 -4.847654e-001 -8.286555e-001
    outer loop
      vertex -2.907669e+001 -1.678744e+001  1.524228e-001
      vertex -2.917552e-009 -3.357487e+001  1.524228e-001
      vertex -2.973897e+001 -1.716980e+001  5.997929e-001
    endloop
  endfacet
  facet normal -2.798794e-001 -4.847654e-001 -8.286556e-001
    outer loop
      vertex -2.973897e+001 -1.716980e+001  5.997929e-001
      vertex -2.917552e-009 -3.357487e+001  1.524228e-001
      vertex  1.598721e-014 -3.433961e+001  5.997929e-001
    endloop
  endfacet
  facet normal -4.166944e-001 -7.217359e-001 -5.526871e-001
    outer loop
      vertex -2.973897e+001 -1.716980e+001  5.997929e-001
      vertex  1.598721e-014 -3.433961e+001  5.997929e-001
      vertex -3.015639e+001 -1.741080e+001  1.229217e+000
    endloop
  endfacet
  facet normal -4.166938e-001 -7.217346e-001 -5.526894e-001
    outer loop
      vertex -3.015639e+001 -1.741080e+001  1.229217e+000
      vertex  1.598721e-014 -3.433961e+001  5.997929e-001
      vertex -1.874303e-006 -3.482161e+001  1.229217e+000
    endloop
  endfacet
  facet normal -4.902489e-001 -8.491359e-001 -1.965303e-001
    outer loop
      vertex -3.015639e+001 -1.741080e+001  1.229217e+000
      vertex -1.874303e-006 -3.482161e+001  1.229217e+000
      vertex -3.031089e+001 -1.750000e+001  2.000000e+000
    endloop
  endfacet
  facet normal -4.902492e-001 -8.491365e-001 -1.965276e-001
    outer loop
      vertex -3.031089e+001 -1.750000e+001  2.000000e+000
      vertex -1.874303e-006 -3.482161e+001  1.229217e+000
      vertex  5.329071e-015 -3.500000e+001  2.000000e+000
    endloop
  endfacet
  facet normal -1.952067e-001  0.000000e+000 -9.807622e-001
    outer loop
      vertex -2.831089e+001  1.634530e+001  0.000000e+000
      vertex -2.831089e+001 -1.634530e+001  0.000000e+000
      vertex -2.907669e+001  1.678744e+001  1.524228e-001
    endloop
  endfacet
  facet normal -1.952067e-001  -0.000000e+000 -9.807621e-001
    outer loop
      vertex -2.907669e+001  1.678744e+001  1.524228e-001
      vertex -2.831089e+001 -1.634530e+001  0.000000e+000
      vertex -2.907669e+001 -1.678744e+001  1.524228e-001
    endloop
  endfacet
  facet normal -5.597591e-001  0.000000e+000 -8.286554e-001
    outer loop
      vertex -2.907669e+001  1.678744e+001  1.524228e-001
      vertex -2.907669e+001 -1.678744e+001  1.524228e-001
      vertex -2.973897e+001  1.716980e+001  5.997929e-001
    endloop
  endfacet
  facet normal -5.597591e-001  -0.000000e+000 -8.286555e-001
    outer loop
      vertex -2.973897e+001  1.716980e+001  5.997929e-001
      vertex -2.907669e+001 -1.678744e+001  1.524228e-001
      vertex -2.973897e+001 -1.716980e+001  5.997929e-001
    endloop
  endfacet
  facet normal -8.333889e-001  0.000000e+000 -5.526870e-001
    outer loop
      vertex -2.973897e+001  1.716980e+001  5.997929e-001
      vertex -2.973897e+001 -1.716980e+001  5.997929e-001
      vertex -3.015639e+001  1.741080e+001  1.229217e+000
    endloop
  endfacet
  facet normal -8.333877e-001  4.564870e-008 -5.526887e-001
    outer loop
      vertex -3.015639e+001  1.741080e+001  1.229217e+000
      vertex -2.973897e+001 -1.716980e+001  5.997929e-001
      vertex -3.015639e+001 -1.741080e+001  1.229217e+000
    endloop
  endfacet
  facet normal -9.804977e-001  5.370663e-008 -1.965302e-001
    outer loop
      vertex -3.015639e+001  1.741080e+001  1.229217e+000
      vertex -3.015639e+001 -1.741080e+001  1.229217e+000
      vertex -3.031089e+001  1.750000e+001  2.000000e+000
    endloop
  endfacet
  facet normal -9.804982e-001  -0.000000e+000 -1.965279e-001
    outer loop
      vertex -3.031089e+001  1.750000e+001  2.000000e+000
      vertex -3.015639e+001 -1.741080e+001  1.229217e+000
      vertex -3.031089e+001 -1.750000e+001  2.000000e+000
    endloop
  endfacet
  facet normal -9.760328e-002  1.690539e-001 -9.807621e-001
    outer loop
      vertex  1.154632e-014  3.269060e+001  0.000000e+000
      vertex -2.831089e+001  1.634530e+001  0.000000e+000
      vertex  2.917319e-009  3.357487e+001  1.524228e-001
    endloop
  endfacet
  facet normal -9.760333e-002  1.690539e-001 -9.807622e-001
    outer loop
      vertex  2.917319e-009  3.357487e+001  1.524228e-001
      vertex -2.831089e+001  1.634530e+001  0.000000e+000
      vertex -2.907669e+001  1.678744e+001  1.524228e-001
    endloop
  endfacet
  facet normal -2.798794e-001  4.847654e-001 -8.286556e-001
    outer loop
      vertex  2.917319e-009  3.357487e+001  1.524228e-001
      vertex -2.907669e+001  1.678744e+001  1.524228e-001
      vertex  5.884182e-015  3.433961e+001  5.997929e-001
    endloop
  endfacet
  facet normal -2.798795e-001  4.847654e-001 -8.286555e-001
    outer loop
      vertex  5.884182e-015  3.433961e+001  5.997929e-001
      vertex -2.907669e+001  1.678744e+001  1.524228e-001
      vertex -2.973897e+001  1.716980e+001  5.997929e-001
    endloop
  endfacet
  facet normal -4.166943e-001  7.217356e-001 -5.526876e-001
    outer loop
      vertex  5.884182e-015  3.433961e+001  5.997929e-001
      vertex -2.973897e+001  1.716980e+001  5.997929e-001
      vertex  1.874300e-006  3.482161e+001  1.229217e+000
    endloop
  endfacet
  facet normal -4.166937e-001  7.217347e-001 -5.526893e-001
    outer loop
      vertex  1.874300e-006  3.482161e+001  1.229217e+000
      vertex -2.973897e+001  1.716980e+001  5.997929e-001
      vertex -3.015639e+001  1.741080e+001  1.229217e+000
    endloop
  endfacet
  facet normal -4.902489e-001  8.491360e-001 -1.965299e-001
    outer loop
      vertex  1.874300e-006  3.482161e+001  1.229217e+000
      vertex -3.015639e+001  1.741080e+001  1.229217e+000
      vertex  1.243450e-014  3.500000e+001  2.000000e+000
    endloop
  endfacet
  facet normal -4.902492e-001  8.491365e-001 -1.965275e-001
    outer loop
      vertex  1.243450e-014  3.500000e+001  2.000000e+000
      vertex -3.015639e+001  1.741080e+001  1.229217e+000
      vertex -3.031089e+001  1.750000e+001  2.000000e+000
    endloop
  endfacet
  facet normal  9.760331e-002  1.690539e-001 -9.807621e-001
    outer loop
      vertex  2.831089e+001  1.634530e+001  0.000000e+000
      vertex  1.154632e-014  3.269060e+001  0.000000e+000
      vertex  2.907669e+001  1.678744e+001  1.524228e-001
    endloop
  endfacet
  facet normal  9.760330e-002  1.690539e-001 -9.807622e-001
    outer loop
      vertex  2.907669e+001  1.678744e+001  1.524228e-001
      vertex  1.154632e-014  3.269060e+001  0.000000e+000
      vertex  2.917319e-009  3.357487e+001  1.524228e-001
    endloop
  endfacet
  facet normal  2.798795e-001  4.847654e-001 -8.286555e-001
    outer loop
      vertex  2.907669e+001  1.678744e+001  1.524228e-001
      vertex  2.917319e-009  3.357487e+001  1.524228e-001
      vertex  2.973897e+001  1.716980e+001  5.997929e-001
    endloop
  endfacet
  facet normal  2.798794e-001  4.847654e-001 -8.286556e-001
    outer loop
      vertex  2.973897e+001  1.716980e+001  5.997929e-001
      vertex  2.917319e-009  3.357487e+001  1.524228e-001
      vertex  5.884182e-015  3.433961e+001  5.997929e-001
    endloop
  endfacet
  facet normal  4.166944e-001  7.217359e-001 -5.526871e-001
    outer loop
      vertex  2.973897e+001  1.716980e+001  5.997929e-001
      vertex  5.884182e-015  3.433961e+001  5.997929e-001
      vertex  3.015639e+001  1.741080e+001  1.229217e+000
    endloop
  endfacet
  facet normal  4.166938e-001  7.217346e-001 -5.526894e-001
    outer loop
      vertex  3.015639e+001  1.741080e+001  1.229217e+000
      vertex  5.884182e-015  3.433961e+001  5.997929e-001
      vertex  1.874300e-006  3.482161e+001  1.229217e+000
    endloop
  endfacet
  facet normal  4.902489e-001  8.491359e-001 -1.965303e-001
    outer loop
      vertex  3.015639e+001  1.741080e+001  1.229217e+000
      vertex  1.874300e-006  3.482161e+001  1.229217e+000
      vertex  3.031089e+001  1.750000e+001  2.000000e+000
    endloop
  endfacet
  facet normal  4.902492e-001  8.491365e-001 -1.965276e-001
    outer loop
      vertex  3.031089e+001  1.750000e+001  2.000000e+000
      vertex  1.874300e-006  3.482161e+001  1.229217e+000
      vertex  1.243450e-014  3.500000e+001  2.000000e+000
    endloop
  endfacet
  facet normal  1.952067e-001  0.000000e+000 -9.807622e-001
    outer loop
      vertex  2.831089e+001 -1.634530e+001  0.000000e+000
      vertex  2.831089e+001  1.634530e+001  0.000000e+000
      vertex  2.907669e+001 -1.678744e+001  1.524228e-001
    endloop
  endfacet
  facet normal  1.952067e-001  0.000000e+000 -9.807621e-001
    outer loop
      vertex  2.907669e+001 -1.678744e+001  1.524228e-001
      vertex  2.831089e+001  1.634530e+001  0.000000e+000
      vertex  2.907669e+001  1.678744e+001  1.524228e-001
    endloop
  endfacet
  facet normal  5.597591e-001  0.000000e+000 -8.286554e-001
    outer loop
      vertex  2.907669e+001 -1.678744e+001  1.524228e-001
      vertex  2.907669e+001  1.678744e+001  1.524228e-001
      vertex  2.973897e+001 -1.716980e+001  5.997929e-001
    endloop
  endfacet
  facet normal  5.597591e-001  0.000000e+000 -8.286555e-001
    outer loop
      vertex  2.973897e+001 -1.716980e+001  5.997929e-001
      vertex  2.907669e+001  1.678744e+001  1.524228e-001
      vertex  2.973897e+001  1.716980e+001  5.997929e-001
    endloop
  endfacet
  facet normal  8.333889e-001  0.000000e+000 -5.526870e-001
    outer loop
      vertex  2.973897e+001 -1.716980e+001  5.997929e-001
      vertex  2.973897e+001  1.716980e+001  5.997929e-001
      vertex  3.015639e+001 -1.741080e+001  1.229217e+000
    endloop
  endfacet
  facet normal  8.333877e-001 -4.564870e-008 -5.526887e-001
    outer loop
      vertex  3.015639e+001 -1.741080e+001  1.229217e+000
      vertex  2.973897e+001  1.716980e+001  5.997929e-001
      vertex  3.015639e+001  1.741080e+001  1.229217e+000
    endloop
  endfacet
  facet normal  9.804977e-001 -5.370663e-008 -1.965302e-001
    outer loop
      vertex  3.015639e+001 -1.741080e+001  1.229217e+000
      vertex  3.015639e+001  1.741080e+001  1.229217e+000
      vertex  3.031089e+001 -1.750000e+001  2.000000e+000
    endloop
  endfacet
  facet normal  9.804982e-001  0.000000e+000 -1.965279e-001
    outer loop
      vertex  3.031089e+001 -1.750000e+001  2.000000e+000
      vertex  3.015639e+001  1.741080e+001  1.229217e+000
      vertex  3.031089e+001  1.750000e+001  2.000000e+000
    endloop
  endfacet
  facet normal  9.760328e-002 -1.690539e-001 -9.807621e-001
    outer loop
      vertex  1.598721e-014 -3.269060e+001  0.000000e+000
      vertex  2.831089e+001 -1.634530e+001  0.000000e+000
      vertex -2.917552e-009 -3.357487e+001  1.524228e-001
    endloop
  endfacet
  facet normal  9.760333e-002 -1.690539e-001 -9.807622e-001
    outer loop
      vertex -2.917552e-009 -3.357487e+001  1.524228e-001
      vertex  2.831089e+001 -1.634530e+001  0.000000e+000
      vertex  2.907669e+001 -1.678744e+001  1.524228e-001
    endloop
  endfacet
  facet normal  2.798794e-001 -4.847654e-001 -8.286556e-001
    outer loop
      vertex -2.917552e-009 -3.357487e+001  1.524228e-001
      vertex  2.907669e+001 -1.678744e+001  1.524228e-001
      vertex  1.598721e-014 -3.433961e+001  5.997929e-001
    endloop
  endfacet
  facet normal  2.798795e-001 -4.847654e-001 -8.286555e-001
    outer loop
      vertex  1.598721e-014 -3.433961e+001  5.997929e-001
      vertex  2.907669e+001 -1.678744e+001  1.524228e-001
      vertex  2.973897e+001 -1.716980e+001  5.997929e-001
    endloop
  endfacet
  facet normal  4.166943e-001 -7.217356e-001 -5.526876e-001
    outer loop
      vertex  1.598721e-014 -3.433961e+001  5.997929e-001
      vertex  2.973897e+001 -1.716980e+001  5.997929e-001
      vertex -1.874303e-006 -3.482161e+001  1.229217e+000
    endloop
  endfacet
  facet normal  4.166937e-001 -7.217347e-001 -5.526893e-001
    outer loop
      vertex -1.874303e-006 -3.482161e+001  1.229217e+000
      vertex  2.973897e+001 -1.716980e+001  5.997929e-001
      vertex  3.015639e+001 -1.741080e+001  1.229217e+000
    endloop
  endfacet
  facet normal  4.902489e-001 -8.491360e-001 -1.965299e-001
    outer loop
      vertex -1.874303e-006 -3.482161e+001  1.229217e+000
      vertex  3.015639e+001 -1.741080e+001  1.229217e+000
      vertex  5.329071e-015 -3.500000e+001  2.000000e+000
    endloop
  endfacet
  facet normal  4.902492e-001 -8.491365e-001 -1.965275e-001
    outer loop
      vertex  5.329071e-015 -3.500000e+001  2.000000e+000
      vertex  3.015639e+001 -1.741080e+001  1.229217e+000
      vertex  3.031089e+001 -1.750000e+001  2.000000e+000
    endloop
  endfacet
  facet normal  -0.000000e+000  0.000000e+000  1.000000e+000
    outer loop
      vertex  3.031089e+001 -1.750000e+001  5.000000e+000
      vertex -3.031089e+001 -1.750000e+001  5.000000e+000
      vertex  3.552714e-015 -3.500000e+001  5.000000e+000
    endloop
  endfacet
  facet normal  0.000000e+000  0.000000e+000  1.000000e+000
    outer loop
      vertex -3.031089e+001 -1.750000e+001  5.000000e+000
      vertex  3.031089e+001 -1.750000e+001  5.000000e+000
      vertex -3.031089e+001  1.750000e+001  5.000000e+000
    endloop
  endfacet
  facet normal  -0.000000e+000  0.000000e+000  1.000000e+000
    outer loop
      vertex -3.031089e+001  1.750000e+001  5.000000e+000
      vertex  3.031089e+001 -1.750000e+001  5.000000e+000
      vertex  3.031089e+001  1.750000e+001  5.000000e+000
    endloop
  endfacet
  facet normal  0.000000e+000  0.000000e+000  1.000000e+000
    outer loop
      vertex -3.031089e+001  1.750000e+001  5.000000e+000
      vertex  3.031089e+001  1.750000e+001  5.000000e+000
      vertex  1.065814e-014  3.500000e+001  5.000000e+000
    endloop
  endfacet
endsolid CATIA STL
