solid CATIA STL
  facet normal  1.000000e+000  0.000000e+000  0.000000e+000
    outer loop
      vertex  1.500000e+001 -2.500000e+001  3.500000e+001
      vertex  1.500000e+001 -2.500000e+001 -5.500000e+001
      vertex  1.500000e+001 -5.000000e+000 -5.500000e+001
    endloop
  endfacet
  facet normal  1.000000e+000  0.000000e+000  -0.000000e+000
    outer loop
      vertex  1.500000e+001 -2.500000e+001  3.500000e+001
      vertex  1.500000e+001 -5.000000e+000 -5.500000e+001
      vertex  1.500000e+001 -5.000000e+000 -1.677124e+001
    endloop
  endfacet
  facet normal  1.000000e+000  0.000000e+000  -0.000000e+000
    outer loop
      vertex  1.500000e+001 -2.500000e+001  3.500000e+001
      vertex  1.500000e+001 -5.000000e+000 -1.677124e+001
      vertex  1.500000e+001 -5.000000e+000  5.000000e+000
    endloop
  endfacet
  facet normal  1.000000e+000  0.000000e+000  -0.000000e+000
    outer loop
      vertex  1.500000e+001 -2.500000e+001  3.500000e+001
      vertex  1.500000e+001 -5.000000e+000  5.000000e+000
      vertex  1.500000e+001 -5.000000e+000  3.297247e+001
    endloop
  endfacet
  facet normal  1.000000e+000  0.000000e+000  -0.000000e+000
    outer loop
      vertex  1.500000e+001 -2.500000e+001  3.500000e+001
      vertex  1.500000e+001 -5.000000e+000  3.297247e+001
      vertex  1.500000e+001  2.700000e+001  3.500000e+001
    endloop
  endfacet
  facet normal  1.000000e+000  0.000000e+000  0.000000e+000
    outer loop
      vertex  1.500000e+001  2.700000e+001  3.500000e+001
      vertex  1.500000e+001 -5.000000e+000  3.297247e+001
      vertex  1.500000e+001  3.006147e+001  3.439104e+001
    endloop
  endfacet
  facet normal  1.000000e+000  0.000000e+000  0.000000e+000
    outer loop
      vertex  1.500000e+001  3.006147e+001  3.439104e+001
      vertex  1.500000e+001 -5.000000e+000  3.297247e+001
      vertex  1.500000e+001  1.497141e+001  3.297247e+001
    endloop
  endfacet
  facet normal  1.000000e+000  -0.000000e+000  0.000000e+000
    outer loop
      vertex  1.500000e+001  3.006147e+001  3.439104e+001
      vertex  1.500000e+001  1.497141e+001  3.297247e+001
      vertex  1.500000e+001  3.265685e+001  3.265685e+001
    endloop
  endfacet
  facet normal  1.000000e+000  0.000000e+000  0.000000e+000
    outer loop
      vertex  1.500000e+001  3.265685e+001  3.265685e+001
      vertex  1.500000e+001  1.497141e+001  3.297247e+001
      vertex  1.500000e+001  3.439104e+001  3.006147e+001
    endloop
  endfacet
  facet normal  9.999999e-001  0.000000e+000  0.000000e+000
    outer loop
      vertex  1.500000e+001  3.439104e+001  3.006147e+001
      vertex  1.500000e+001  1.497141e+001  3.297247e+001
      vertex  1.500000e+001  1.841557e+001  3.228739e+001
    endloop
  endfacet
  facet normal  1.000000e+000  0.000000e+000  0.000000e+000
    outer loop
      vertex  1.500000e+001  3.439104e+001  3.006147e+001
      vertex  1.500000e+001  1.841557e+001  3.228739e+001
      vertex  1.500000e+001  2.133537e+001  3.033643e+001
    endloop
  endfacet
  facet normal  1.000000e+000  0.000000e+000  0.000000e+000
    outer loop
      vertex  1.500000e+001  3.439104e+001  3.006147e+001
      vertex  1.500000e+001  2.133537e+001  3.033643e+001
      vertex  1.500000e+001  3.500000e+001  2.700000e+001
    endloop
  endfacet
  facet normal  1.000000e+000  0.000000e+000  0.000000e+000
    outer loop
      vertex  1.500000e+001  3.500000e+001  2.700000e+001
      vertex  1.500000e+001  2.133537e+001  3.033643e+001
      vertex  1.500000e+001  2.328633e+001  2.741662e+001
    endloop
  endfacet
  facet normal  1.000000e+000  0.000000e+000  0.000000e+000
    outer loop
      vertex  1.500000e+001  3.500000e+001  2.700000e+001
      vertex  1.500000e+001  2.328633e+001  2.741662e+001
      vertex  1.500000e+001  2.397141e+001  2.397247e+001
    endloop
  endfacet
  facet normal  1.000000e+000  -0.000000e+000  0.000000e+000
    outer loop
      vertex  1.500000e+001  3.500000e+001  2.700000e+001
      vertex  1.500000e+001  2.397141e+001  2.397247e+001
      vertex  1.500000e+001  3.500000e+001  1.300000e+001
    endloop
  endfacet
  facet normal  1.000000e+000  0.000000e+000  0.000000e+000
    outer loop
      vertex  1.500000e+001  3.500000e+001  1.300000e+001
      vertex  1.500000e+001  2.397141e+001  2.397247e+001
      vertex  1.500000e+001  2.397141e+001  1.400000e+001
    endloop
  endfacet
  facet normal  1.000000e+000  0.000000e+000  0.000000e+000
    outer loop
      vertex  1.500000e+001  3.500000e+001  1.300000e+001
      vertex  1.500000e+001  2.397141e+001  1.400000e+001
      vertex  1.500000e+001  3.439104e+001  9.938533e+000
    endloop
  endfacet
  facet normal  1.000000e+000  0.000000e+000  0.000000e+000
    outer loop
      vertex  1.500000e+001  3.439104e+001  9.938533e+000
      vertex  1.500000e+001  2.397141e+001  1.400000e+001
      vertex  1.500000e+001  2.328633e+001  1.055585e+001
    endloop
  endfacet
  facet normal  1.000000e+000  0.000000e+000  0.000000e+000
    outer loop
      vertex  1.500000e+001  3.439104e+001  9.938533e+000
      vertex  1.500000e+001  2.328633e+001  1.055585e+001
      vertex  1.500000e+001  3.265685e+001  7.343146e+000
    endloop
  endfacet
  facet normal  1.000000e+000  0.000000e+000  0.000000e+000
    outer loop
      vertex  1.500000e+001  3.265685e+001  7.343146e+000
      vertex  1.500000e+001  2.328633e+001  1.055585e+001
      vertex  1.500000e+001  2.133537e+001  7.636039e+000
    endloop
  endfacet
  facet normal  1.000000e+000  0.000000e+000  0.000000e+000
    outer loop
      vertex  1.500000e+001  3.265685e+001  7.343146e+000
      vertex  1.500000e+001  2.133537e+001  7.636039e+000
      vertex  1.500000e+001  3.006147e+001  5.608963e+000
    endloop
  endfacet
  facet normal  1.000000e+000  0.000000e+000  0.000000e+000
    outer loop
      vertex  1.500000e+001  3.006147e+001  5.608963e+000
      vertex  1.500000e+001  2.133537e+001  7.636039e+000
      vertex  1.500000e+001  1.841557e+001  5.685084e+000
    endloop
  endfacet
  facet normal  1.000000e+000  0.000000e+000  0.000000e+000
    outer loop
      vertex  1.500000e+001  3.006147e+001  5.608963e+000
      vertex  1.500000e+001  1.841557e+001  5.685084e+000
      vertex  1.500000e+001  2.700000e+001  5.000000e+000
    endloop
  endfacet
  facet normal  1.000000e+000  0.000000e+000  0.000000e+000
    outer loop
      vertex  1.500000e+001  2.700000e+001  5.000000e+000
      vertex  1.500000e+001  1.841557e+001  5.685084e+000
      vertex  1.500000e+001  1.497141e+001  5.000000e+000
    endloop
  endfacet
  facet normal  1.000000e+000  0.000000e+000  0.000000e+000
    outer loop
      vertex  1.500000e+001  2.871459e+001 -5.500000e+001
      vertex  1.500000e+001  4.645751e+001 -5.500000e+001
      vertex  1.500000e+001 -5.000000e+000 -1.677124e+001
    endloop
  endfacet
  facet normal  1.000000e+000  -0.000000e+000  0.000000e+000
    outer loop
      vertex  1.500000e+001 -5.000000e+000 -1.677124e+001
      vertex  1.500000e+001  4.645751e+001 -5.500000e+001
      vertex  1.500000e+001  1.457513e+000  5.000000e+000
    endloop
  endfacet
  facet normal  1.000000e+000  0.000000e+000  0.000000e+000
    outer loop
      vertex  1.500000e+001 -5.000000e+000 -1.677124e+001
      vertex  1.500000e+001  1.457513e+000  5.000000e+000
      vertex  1.500000e+001 -5.000000e+000  5.000000e+000
    endloop
  endfacet
  facet normal  0.000000e+000 -1.000000e+000  -0.000000e+000
    outer loop
      vertex  1.000000e+001  1.897141e+001  1.400000e+001
      vertex  1.000000e+001  1.897141e+001  2.397247e+001
      vertex  0.000000e+000  1.897141e+001  1.400000e+001
    endloop
  endfacet
  facet normal  0.000000e+000 -1.000000e+000  0.000000e+000
    outer loop
      vertex  0.000000e+000  1.897141e+001  1.400000e+001
      vertex  1.000000e+001  1.897141e+001  2.397247e+001
      vertex  0.000000e+000  1.897141e+001  2.397247e+001
    endloop
  endfacet
  facet normal  0.000000e+000 -9.659259e-001  2.588190e-001
    outer loop
      vertex  0.000000e+000  1.843552e+001  1.200000e+001
      vertex  1.000000e+001  1.897141e+001  1.400000e+001
      vertex  0.000000e+000  1.897141e+001  1.400000e+001
    endloop
  endfacet
  facet normal  0.000000e+000 -9.659259e-001  2.588190e-001
    outer loop
      vertex  1.000000e+001  1.897141e+001  1.400000e+001
      vertex  0.000000e+000  1.843552e+001  1.200000e+001
      vertex  1.000000e+001  1.843552e+001  1.200000e+001
    endloop
  endfacet
  facet normal  0.000000e+000 -7.071068e-001  7.071068e-001
    outer loop
      vertex  1.000000e+001  1.843552e+001  1.200000e+001
      vertex  0.000000e+000  1.843552e+001  1.200000e+001
      vertex  0.000000e+000  1.697141e+001  1.053590e+001
    endloop
  endfacet
  facet normal  0.000000e+000 -7.071068e-001  7.071068e-001
    outer loop
      vertex  1.000000e+001  1.843552e+001  1.200000e+001
      vertex  0.000000e+000  1.697141e+001  1.053590e+001
      vertex  1.000000e+001  1.697141e+001  1.053590e+001
    endloop
  endfacet
  facet normal  0.000000e+000 -2.588190e-001  9.659259e-001
    outer loop
      vertex  1.000000e+001  1.697141e+001  1.053590e+001
      vertex  0.000000e+000  1.697141e+001  1.053590e+001
      vertex  0.000000e+000  1.497141e+001  1.000000e+001
    endloop
  endfacet
  facet normal  0.000000e+000 -2.588190e-001  9.659259e-001
    outer loop
      vertex  1.000000e+001  1.697141e+001  1.053590e+001
      vertex  0.000000e+000  1.497141e+001  1.000000e+001
      vertex  1.000000e+001  1.497141e+001  1.000000e+001
    endloop
  endfacet
  facet normal  -0.000000e+000 -2.588190e-001 -9.659259e-001
    outer loop
      vertex  0.000000e+000  1.697141e+001  2.743657e+001
      vertex  1.000000e+001  1.497141e+001  2.797247e+001
      vertex  0.000000e+000  1.497141e+001  2.797247e+001
    endloop
  endfacet
  facet normal  0.000000e+000 -2.588190e-001 -9.659259e-001
    outer loop
      vertex  1.000000e+001  1.497141e+001  2.797247e+001
      vertex  0.000000e+000  1.697141e+001  2.743657e+001
      vertex  1.000000e+001  1.697141e+001  2.743657e+001
    endloop
  endfacet
  facet normal  -0.000000e+000 -7.071068e-001 -7.071068e-001
    outer loop
      vertex  1.000000e+001  1.697141e+001  2.743657e+001
      vertex  0.000000e+000  1.697141e+001  2.743657e+001
      vertex  0.000000e+000  1.843552e+001  2.597247e+001
    endloop
  endfacet
  facet normal  0.000000e+000 -7.071068e-001 -7.071068e-001
    outer loop
      vertex  1.000000e+001  1.697141e+001  2.743657e+001
      vertex  0.000000e+000  1.843552e+001  2.597247e+001
      vertex  1.000000e+001  1.843552e+001  2.597247e+001
    endloop
  endfacet
  facet normal  -0.000000e+000 -9.659259e-001 -2.588190e-001
    outer loop
      vertex  1.000000e+001  1.843552e+001  2.597247e+001
      vertex  0.000000e+000  1.843552e+001  2.597247e+001
      vertex  0.000000e+000  1.897141e+001  2.397247e+001
    endloop
  endfacet
  facet normal  0.000000e+000 -9.659259e-001 -2.588190e-001
    outer loop
      vertex  1.000000e+001  1.843552e+001  2.597247e+001
      vertex  0.000000e+000  1.897141e+001  2.397247e+001
      vertex  1.000000e+001  1.897141e+001  2.397247e+001
    endloop
  endfacet
  facet normal  -0.000000e+000  0.000000e+000  1.000000e+000
    outer loop
      vertex  1.000000e+001  1.497141e+001  1.000000e+001
      vertex  0.000000e+000  1.497141e+001  1.000000e+001
      vertex  1.000000e+001  3.552714e-015  1.000000e+001
    endloop
  endfacet
  facet normal  0.000000e+000  0.000000e+000  1.000000e+000
    outer loop
      vertex  1.000000e+001  3.552714e-015  1.000000e+001
      vertex  0.000000e+000  1.497141e+001  1.000000e+001
      vertex  0.000000e+000  0.000000e+000  1.000000e+001
    endloop
  endfacet
  facet normal  0.000000e+000  0.000000e+000 -1.000000e+000
    outer loop
      vertex  1.000000e+001  1.421085e-014  2.797247e+001
      vertex  0.000000e+000  0.000000e+000  2.797247e+001
      vertex  1.000000e+001  1.497141e+001  2.797247e+001
    endloop
  endfacet
  facet normal  -0.000000e+000  0.000000e+000 -1.000000e+000
    outer loop
      vertex  1.000000e+001  1.497141e+001  2.797247e+001
      vertex  0.000000e+000  0.000000e+000  2.797247e+001
      vertex  0.000000e+000  1.497141e+001  2.797247e+001
    endloop
  endfacet
  facet normal -3.552714e-016  1.000000e+000 -5.930259e-016
    outer loop
      vertex  1.000000e+001  3.552714e-015  1.000000e+001
      vertex  0.000000e+000  0.000000e+000  1.000000e+001
      vertex  1.000000e+001  1.421085e-014  2.797247e+001
    endloop
  endfacet
  facet normal -1.421085e-015  1.000000e+000  0.000000e+000
    outer loop
      vertex  1.000000e+001  1.421085e-014  2.797247e+001
      vertex  0.000000e+000  0.000000e+000  1.000000e+001
      vertex  0.000000e+000  0.000000e+000  2.797247e+001
    endloop
  endfacet
  facet normal  2.216387e-001  9.751289e-001 -5.782766e-016
    outer loop
      vertex  1.000000e+001  3.552714e-015  1.000000e+001
      vertex  1.000000e+001  1.421085e-014  2.797247e+001
      vertex  1.216126e+001 -4.912373e-001  9.508762e+000
    endloop
  endfacet
  facet normal  2.216387e-001  9.751289e-001  -0.000000e+000
    outer loop
      vertex  1.216126e+001 -4.912373e-001  9.508762e+000
      vertex  1.000000e+001  1.421085e-014  2.797247e+001
      vertex  1.216126e+001 -4.912373e-001  2.846371e+001
    endloop
  endfacet
  facet normal  5.424538e-001  8.400857e-001  0.000000e+000
    outer loop
      vertex  1.216126e+001 -4.912373e-001  9.508762e+000
      vertex  1.216126e+001 -4.912373e-001  2.846371e+001
      vertex  1.322002e+001 -1.174890e+000  8.825109e+000
    endloop
  endfacet
  facet normal  5.424541e-001  8.400855e-001  1.971159e-008
    outer loop
      vertex  1.322002e+001 -1.174890e+000  8.825109e+000
      vertex  1.216126e+001 -4.912373e-001  2.846371e+001
      vertex  1.322002e+001 -1.174890e+000  2.914736e+001
    endloop
  endfacet
  facet normal  7.284226e-001  6.851282e-001  1.607571e-008
    outer loop
      vertex  1.322002e+001 -1.174890e+000  8.825109e+000
      vertex  1.322002e+001 -1.174890e+000  2.914736e+001
      vertex  1.401500e+001 -2.020108e+000  7.979892e+000
    endloop
  endfacet
  facet normal  7.284223e-001  6.851283e-001  -0.000000e+000
    outer loop
      vertex  1.401500e+001 -2.020108e+000  7.979892e+000
      vertex  1.322002e+001 -1.174890e+000  2.914736e+001
      vertex  1.401500e+001 -2.020108e+000  2.999258e+001
    endloop
  endfacet
  facet normal  8.889728e-001  4.579601e-001  0.000000e+000
    outer loop
      vertex  1.401500e+001 -2.020108e+000  7.979892e+000
      vertex  1.401500e+001 -2.020108e+000  2.999258e+001
      vertex  1.475720e+001 -3.460833e+000  6.539166e+000
    endloop
  endfacet
  facet normal  8.889728e-001  4.579600e-001  -0.000000e+000
    outer loop
      vertex  1.475720e+001 -3.460833e+000  6.539166e+000
      vertex  1.401500e+001 -2.020108e+000  2.999258e+001
      vertex  1.475720e+001 -3.460833e+000  3.143331e+001
    endloop
  endfacet
  facet normal  9.877855e-001  1.558201e-001  0.000000e+000
    outer loop
      vertex  1.475720e+001 -3.460833e+000  6.539166e+000
      vertex  1.475720e+001 -3.460833e+000  3.143331e+001
      vertex  1.500000e+001 -5.000000e+000  5.000000e+000
    endloop
  endfacet
  facet normal  9.877855e-001  1.558201e-001  -0.000000e+000
    outer loop
      vertex  1.500000e+001 -5.000000e+000  5.000000e+000
      vertex  1.475720e+001 -3.460833e+000  3.143331e+001
      vertex  1.500000e+001 -5.000000e+000  3.297247e+001
    endloop
  endfacet
  facet normal  2.588192e-001  -0.000000e+000  9.659258e-001
    outer loop
      vertex  1.000000e+001  1.497141e+001  1.000000e+001
      vertex  1.000000e+001  3.552714e-015  1.000000e+001
      vertex  1.250000e+001  1.497141e+001  9.330127e+000
    endloop
  endfacet
  facet normal  2.230122e-001  6.376053e-003  9.747948e-001
    outer loop
      vertex  1.250000e+001  1.497141e+001  9.330127e+000
      vertex  1.000000e+001  3.552714e-015  1.000000e+001
      vertex  1.216126e+001 -4.912373e-001  9.508762e+000
    endloop
  endfacet
  facet normal  5.414730e-001 -2.149369e-003  8.407155e-001
    outer loop
      vertex  1.250000e+001  1.497141e+001  9.330127e+000
      vertex  1.216126e+001 -4.912373e-001  9.508762e+000
      vertex  1.322002e+001 -1.174890e+000  8.825109e+000
    endloop
  endfacet
  facet normal  7.070754e-001  9.415364e-003  7.070754e-001
    outer loop
      vertex  1.250000e+001  1.497141e+001  9.330127e+000
      vertex  1.322002e+001 -1.174890e+000  8.825109e+000
      vertex  1.433013e+001  1.497141e+001  7.500000e+000
    endloop
  endfacet
  facet normal  7.312499e-001  5.702429e-003  6.820858e-001
    outer loop
      vertex  1.433013e+001  1.497141e+001  7.500000e+000
      vertex  1.322002e+001 -1.174890e+000  8.825109e+000
      vertex  1.401500e+001 -2.020108e+000  7.979892e+000
    endloop
  endfacet
  facet normal  8.875590e-001 -3.449618e-003  4.606812e-001
    outer loop
      vertex  1.433013e+001  1.497141e+001  7.500000e+000
      vertex  1.401500e+001 -2.020108e+000  7.979892e+000
      vertex  1.475720e+001 -3.460833e+000  6.539166e+000
    endloop
  endfacet
  facet normal  9.659259e-001  0.000000e+000  2.588191e-001
    outer loop
      vertex  1.500000e+001  1.497141e+001  5.000000e+000
      vertex  1.433013e+001  1.497141e+001  7.500000e+000
      vertex  1.500000e+001  1.457513e+000  5.000000e+000
    endloop
  endfacet
  facet normal  9.807496e-001  1.256606e-002  1.948646e-001
    outer loop
      vertex  1.500000e+001  1.457513e+000  5.000000e+000
      vertex  1.433013e+001  1.497141e+001  7.500000e+000
      vertex  1.475720e+001 -3.460833e+000  6.539166e+000
    endloop
  endfacet
  facet normal  9.877855e-001  0.000000e+000  1.558201e-001
    outer loop
      vertex  1.500000e+001  1.457513e+000  5.000000e+000
      vertex  1.475720e+001 -3.460833e+000  6.539166e+000
      vertex  1.500000e+001 -5.000000e+000  5.000000e+000
    endloop
  endfacet
  facet normal  9.659259e-001  0.000000e+000 -2.588192e-001
    outer loop
      vertex  1.500000e+001  1.497141e+001  3.297247e+001
      vertex  1.500000e+001 -5.000000e+000  3.297247e+001
      vertex  1.433013e+001  1.497141e+001  3.047247e+001
    endloop
  endfacet
  facet normal  9.899503e-001  1.561049e-002 -1.405511e-001
    outer loop
      vertex  1.433013e+001  1.497141e+001  3.047247e+001
      vertex  1.500000e+001 -5.000000e+000  3.297247e+001
      vertex  1.475720e+001 -3.460833e+000  3.143331e+001
    endloop
  endfacet
  facet normal  8.875589e-001 -3.449601e-003 -4.606813e-001
    outer loop
      vertex  1.433013e+001  1.497141e+001  3.047247e+001
      vertex  1.475720e+001 -3.460833e+000  3.143331e+001
      vertex  1.401500e+001 -2.020108e+000  2.999258e+001
    endloop
  endfacet
  facet normal  7.070903e-001  6.856704e-003 -7.070900e-001
    outer loop
      vertex  1.433013e+001  1.497141e+001  3.047247e+001
      vertex  1.401500e+001 -2.020108e+000  2.999258e+001
      vertex  1.250000e+001  1.497141e+001  2.864235e+001
    endloop
  endfacet
  facet normal  7.340871e-001  1.149932e-002 -6.789579e-001
    outer loop
      vertex  1.250000e+001  1.497141e+001  2.864235e+001
      vertex  1.401500e+001 -2.020108e+000  2.999258e+001
      vertex  1.322002e+001 -1.174890e+000  2.914736e+001
    endloop
  endfacet
  facet normal  5.414729e-001 -2.149420e-003 -8.407155e-001
    outer loop
      vertex  1.250000e+001  1.497141e+001  2.864235e+001
      vertex  1.322002e+001 -1.174890e+000  2.914736e+001
      vertex  1.216126e+001 -4.912373e-001  2.846371e+001
    endloop
  endfacet
  facet normal  2.230121e-001  6.375993e-003 -9.747948e-001
    outer loop
      vertex  1.216126e+001 -4.912373e-001  2.846371e+001
      vertex  1.000000e+001  1.421085e-014  2.797247e+001
      vertex  1.250000e+001  1.497141e+001  2.864235e+001
    endloop
  endfacet
  facet normal  2.588188e-001  0.000000e+000 -9.659258e-001
    outer loop
      vertex  1.250000e+001  1.497141e+001  2.864235e+001
      vertex  1.000000e+001  1.421085e-014  2.797247e+001
      vertex  1.000000e+001  1.497141e+001  2.797247e+001
    endloop
  endfacet
  facet normal  9.651152e-001 -2.586020e-001 -4.095851e-002
    outer loop
      vertex  1.500000e+001  2.397141e+001  2.397247e+001
      vertex  1.433013e+001  2.115328e+001  2.598108e+001
      vertex  1.433013e+001  2.147141e+001  2.397247e+001
    endloop
  endfacet
  facet normal  9.623634e-001 -2.665439e-001 -5.301895e-002
    outer loop
      vertex  1.500000e+001  2.397141e+001  2.397247e+001
      vertex  1.500000e+001  2.328633e+001  2.741662e+001
      vertex  1.433013e+001  2.115328e+001  2.598108e+001
    endloop
  endfacet
  facet normal  9.623634e-001 -5.301895e-002 -2.665439e-001
    outer loop
      vertex  1.500000e+001  1.497141e+001  3.297247e+001
      vertex  1.433013e+001  1.698002e+001  3.015434e+001
      vertex  1.500000e+001  1.841557e+001  3.228739e+001
    endloop
  endfacet
  facet normal  9.651152e-001 -4.095851e-002 -2.586020e-001
    outer loop
      vertex  1.500000e+001  1.497141e+001  3.297247e+001
      vertex  1.433013e+001  1.497141e+001  3.047247e+001
      vertex  1.433013e+001  1.698002e+001  3.015434e+001
    endloop
  endfacet
  facet normal  2.558421e-001 -1.512279e-001 -9.548167e-001
    outer loop
      vertex  1.000000e+001  1.497141e+001  2.797247e+001
      vertex  1.250000e+001  1.641448e+001  2.841379e+001
      vertex  1.250000e+001  1.497141e+001  2.864235e+001
    endloop
  endfacet
  facet normal  3.046960e-001 -2.465120e-001 -9.199958e-001
    outer loop
      vertex  1.000000e+001  1.497141e+001  2.797247e+001
      vertex  1.000000e+001  1.697141e+001  2.743657e+001
      vertex  1.250000e+001  1.641448e+001  2.841379e+001
    endloop
  endfacet
  facet normal  3.046960e-001 -9.199958e-001 -2.465120e-001
    outer loop
      vertex  1.000000e+001  1.897141e+001  2.397247e+001
      vertex  1.250000e+001  1.941273e+001  2.541554e+001
      vertex  1.000000e+001  1.843552e+001  2.597247e+001
    endloop
  endfacet
  facet normal  2.558421e-001 -9.548167e-001 -1.512279e-001
    outer loop
      vertex  1.000000e+001  1.897141e+001  2.397247e+001
      vertex  1.250000e+001  1.964129e+001  2.397247e+001
      vertex  1.250000e+001  1.941273e+001  2.541554e+001
    endloop
  endfacet
  facet normal  9.672403e-001 -2.261931e-001 -1.152512e-001
    outer loop
      vertex  1.500000e+001  2.328633e+001  2.741662e+001
      vertex  1.433013e+001  2.023002e+001  2.779308e+001
      vertex  1.433013e+001  2.115328e+001  2.598108e+001
    endloop
  endfacet
  facet normal  9.679077e-001 -1.777001e-001 -1.777001e-001
    outer loop
      vertex  1.500000e+001  2.133537e+001  3.033643e+001
      vertex  1.433013e+001  1.879202e+001  2.923108e+001
      vertex  1.433013e+001  2.023002e+001  2.779308e+001
    endloop
  endfacet
  facet normal  9.611349e-001 -2.295515e-001 -1.533814e-001
    outer loop
      vertex  1.500000e+001  2.133537e+001  3.033643e+001
      vertex  1.433013e+001  2.023002e+001  2.779308e+001
      vertex  1.500000e+001  2.328633e+001  2.741662e+001
    endloop
  endfacet
  facet normal  9.672403e-001 -1.152512e-001 -2.261931e-001
    outer loop
      vertex  1.500000e+001  1.841557e+001  3.228739e+001
      vertex  1.433013e+001  1.698002e+001  3.015434e+001
      vertex  1.433013e+001  1.879202e+001  2.923108e+001
    endloop
  endfacet
  facet normal  9.611349e-001 -1.533814e-001 -2.295515e-001
    outer loop
      vertex  1.500000e+001  1.841557e+001  3.228739e+001
      vertex  1.433013e+001  1.879202e+001  2.923108e+001
      vertex  1.500000e+001  2.133537e+001  3.033643e+001
    endloop
  endfacet
  facet normal  2.868820e-001 -6.773842e-001 -6.773842e-001
    outer loop
      vertex  1.250000e+001  1.771630e+001  2.775048e+001
      vertex  1.000000e+001  1.697141e+001  2.743657e+001
      vertex  1.000000e+001  1.843552e+001  2.597247e+001
    endloop
  endfacet
  facet normal  2.868820e-001 -6.773842e-001 -6.773842e-001
    outer loop
      vertex  1.250000e+001  1.874942e+001  2.671736e+001
      vertex  1.250000e+001  1.771630e+001  2.775048e+001
      vertex  1.000000e+001  1.843552e+001  2.597247e+001
    endloop
  endfacet
  facet normal  2.399253e-001 -8.649814e-001 -4.407302e-001
    outer loop
      vertex  1.250000e+001  1.874942e+001  2.671736e+001
      vertex  1.000000e+001  1.843552e+001  2.597247e+001
      vertex  1.250000e+001  1.941273e+001  2.541554e+001
    endloop
  endfacet
  facet normal  2.399253e-001 -4.407302e-001 -8.649814e-001
    outer loop
      vertex  1.250000e+001  1.641448e+001  2.841379e+001
      vertex  1.000000e+001  1.697141e+001  2.743657e+001
      vertex  1.250000e+001  1.771630e+001  2.775048e+001
    endloop
  endfacet
  facet normal  7.027137e-001 -7.027133e-001 -1.112987e-001
    outer loop
      vertex  1.250000e+001  1.964129e+001  2.397247e+001
      vertex  1.433013e+001  2.147141e+001  2.397247e+001
      vertex  1.250000e+001  1.941273e+001  2.541554e+001
    endloop
  endfacet
  facet normal  7.027137e-001 -7.027134e-001 -1.112988e-001
    outer loop
      vertex  1.250000e+001  1.941273e+001  2.541554e+001
      vertex  1.433013e+001  2.147141e+001  2.397247e+001
      vertex  1.433013e+001  2.115328e+001  2.598108e+001
    endloop
  endfacet
  facet normal  7.027136e-001 -6.339268e-001 -3.230020e-001
    outer loop
      vertex  1.250000e+001  1.941273e+001  2.541554e+001
      vertex  1.433013e+001  2.115328e+001  2.598108e+001
      vertex  1.250000e+001  1.874942e+001  2.671736e+001
    endloop
  endfacet
  facet normal  7.027136e-001 -6.339268e-001 -3.230020e-001
    outer loop
      vertex  1.250000e+001  1.874942e+001  2.671736e+001
      vertex  1.433013e+001  2.115328e+001  2.598108e+001
      vertex  1.433013e+001  2.023002e+001  2.779308e+001
    endloop
  endfacet
  facet normal  7.027136e-001 -5.030873e-001 -5.030873e-001
    outer loop
      vertex  1.250000e+001  1.874942e+001  2.671736e+001
      vertex  1.433013e+001  2.023002e+001  2.779308e+001
      vertex  1.250000e+001  1.771630e+001  2.775048e+001
    endloop
  endfacet
  facet normal  7.027136e-001 -5.030872e-001 -5.030872e-001
    outer loop
      vertex  1.250000e+001  1.771630e+001  2.775048e+001
      vertex  1.433013e+001  2.023002e+001  2.779308e+001
      vertex  1.433013e+001  1.879202e+001  2.923108e+001
    endloop
  endfacet
  facet normal  7.027137e-001 -3.230020e-001 -6.339269e-001
    outer loop
      vertex  1.250000e+001  1.771630e+001  2.775048e+001
      vertex  1.433013e+001  1.879202e+001  2.923108e+001
      vertex  1.250000e+001  1.641448e+001  2.841379e+001
    endloop
  endfacet
  facet normal  7.027137e-001 -3.230020e-001 -6.339268e-001
    outer loop
      vertex  1.250000e+001  1.641448e+001  2.841379e+001
      vertex  1.433013e+001  1.879202e+001  2.923108e+001
      vertex  1.433013e+001  1.698002e+001  3.015434e+001
    endloop
  endfacet
  facet normal  7.027137e-001 -1.112987e-001 -7.027134e-001
    outer loop
      vertex  1.250000e+001  1.641448e+001  2.841379e+001
      vertex  1.433013e+001  1.698002e+001  3.015434e+001
      vertex  1.250000e+001  1.497141e+001  2.864235e+001
    endloop
  endfacet
  facet normal  7.027137e-001 -1.112988e-001 -7.027133e-001
    outer loop
      vertex  1.250000e+001  1.497141e+001  2.864235e+001
      vertex  1.433013e+001  1.698002e+001  3.015434e+001
      vertex  1.433013e+001  1.497141e+001  3.047247e+001
    endloop
  endfacet
  facet normal  2.588188e-001 -9.659259e-001  0.000000e+000
    outer loop
      vertex  1.000000e+001  1.897141e+001  2.397247e+001
      vertex  1.000000e+001  1.897141e+001  1.400000e+001
      vertex  1.250000e+001  1.964129e+001  2.397247e+001
    endloop
  endfacet
  facet normal  2.588188e-001 -9.659259e-001  0.000000e+000
    outer loop
      vertex  1.250000e+001  1.964129e+001  2.397247e+001
      vertex  1.000000e+001  1.897141e+001  1.400000e+001
      vertex  1.250000e+001  1.964129e+001  1.400000e+001
    endloop
  endfacet
  facet normal  7.071070e-001 -7.071066e-001  0.000000e+000
    outer loop
      vertex  1.250000e+001  1.964129e+001  2.397247e+001
      vertex  1.250000e+001  1.964129e+001  1.400000e+001
      vertex  1.433013e+001  2.147141e+001  2.397247e+001
    endloop
  endfacet
  facet normal  7.071070e-001 -7.071066e-001  0.000000e+000
    outer loop
      vertex  1.433013e+001  2.147141e+001  2.397247e+001
      vertex  1.250000e+001  1.964129e+001  1.400000e+001
      vertex  1.433013e+001  2.147141e+001  1.400000e+001
    endloop
  endfacet
  facet normal  9.659258e-001 -2.588192e-001  0.000000e+000
    outer loop
      vertex  1.433013e+001  2.147141e+001  2.397247e+001
      vertex  1.433013e+001  2.147141e+001  1.400000e+001
      vertex  1.500000e+001  2.397141e+001  2.397247e+001
    endloop
  endfacet
  facet normal  9.659258e-001 -2.588192e-001  0.000000e+000
    outer loop
      vertex  1.500000e+001  2.397141e+001  2.397247e+001
      vertex  1.433013e+001  2.147141e+001  1.400000e+001
      vertex  1.500000e+001  2.397141e+001  1.400000e+001
    endloop
  endfacet
  facet normal  9.651152e-001 -4.095851e-002  2.586020e-001
    outer loop
      vertex  1.500000e+001  1.497141e+001  5.000000e+000
      vertex  1.433013e+001  1.698002e+001  7.818132e+000
      vertex  1.433013e+001  1.497141e+001  7.500000e+000
    endloop
  endfacet
  facet normal  9.623635e-001 -5.301887e-002  2.665438e-001
    outer loop
      vertex  1.500000e+001  1.497141e+001  5.000000e+000
      vertex  1.500000e+001  1.841557e+001  5.685084e+000
      vertex  1.433013e+001  1.698002e+001  7.818132e+000
    endloop
  endfacet
  facet normal  9.623634e-001 -2.665439e-001  5.301896e-002
    outer loop
      vertex  1.500000e+001  2.397141e+001  1.400000e+001
      vertex  1.433013e+001  2.115328e+001  1.199139e+001
      vertex  1.500000e+001  2.328633e+001  1.055585e+001
    endloop
  endfacet
  facet normal  9.651152e-001 -2.586019e-001  4.095849e-002
    outer loop
      vertex  1.500000e+001  2.397141e+001  1.400000e+001
      vertex  1.433013e+001  2.147141e+001  1.400000e+001
      vertex  1.433013e+001  2.115328e+001  1.199139e+001
    endloop
  endfacet
  facet normal  2.558421e-001 -9.548167e-001  1.512278e-001
    outer loop
      vertex  1.000000e+001  1.897141e+001  1.400000e+001
      vertex  1.250000e+001  1.941273e+001  1.255693e+001
      vertex  1.250000e+001  1.964129e+001  1.400000e+001
    endloop
  endfacet
  facet normal  3.046961e-001 -9.199958e-001  2.465120e-001
    outer loop
      vertex  1.000000e+001  1.897141e+001  1.400000e+001
      vertex  1.000000e+001  1.843552e+001  1.200000e+001
      vertex  1.250000e+001  1.941273e+001  1.255693e+001
    endloop
  endfacet
  facet normal  3.046960e-001 -2.465120e-001  9.199958e-001
    outer loop
      vertex  1.000000e+001  1.497141e+001  1.000000e+001
      vertex  1.250000e+001  1.641448e+001  9.558687e+000
      vertex  1.000000e+001  1.697141e+001  1.053590e+001
    endloop
  endfacet
  facet normal  2.558424e-001 -1.512285e-001  9.548165e-001
    outer loop
      vertex  1.000000e+001  1.497141e+001  1.000000e+001
      vertex  1.250000e+001  1.497141e+001  9.330127e+000
      vertex  1.250000e+001  1.641448e+001  9.558687e+000
    endloop
  endfacet
  facet normal  9.672403e-001 -1.152511e-001  2.261931e-001
    outer loop
      vertex  1.500000e+001  1.841557e+001  5.685084e+000
      vertex  1.433013e+001  1.879202e+001  8.741389e+000
      vertex  1.433013e+001  1.698002e+001  7.818132e+000
    endloop
  endfacet
  facet normal  9.679077e-001 -1.777001e-001  1.777000e-001
    outer loop
      vertex  1.500000e+001  2.133537e+001  7.636039e+000
      vertex  1.433013e+001  2.023002e+001  1.017940e+001
      vertex  1.433013e+001  1.879202e+001  8.741389e+000
    endloop
  endfacet
  facet normal  9.611349e-001 -1.533814e-001  2.295515e-001
    outer loop
      vertex  1.500000e+001  2.133537e+001  7.636039e+000
      vertex  1.433013e+001  1.879202e+001  8.741389e+000
      vertex  1.500000e+001  1.841557e+001  5.685084e+000
    endloop
  endfacet
  facet normal  9.672403e-001 -2.261931e-001  1.152513e-001
    outer loop
      vertex  1.500000e+001  2.328633e+001  1.055585e+001
      vertex  1.433013e+001  2.115328e+001  1.199139e+001
      vertex  1.433013e+001  2.023002e+001  1.017940e+001
    endloop
  endfacet
  facet normal  9.611349e-001 -2.295515e-001  1.533814e-001
    outer loop
      vertex  1.500000e+001  2.328633e+001  1.055585e+001
      vertex  1.433013e+001  2.023002e+001  1.017940e+001
      vertex  1.500000e+001  2.133537e+001  7.636039e+000
    endloop
  endfacet
  facet normal  2.868820e-001 -6.773842e-001  6.773842e-001
    outer loop
      vertex  1.250000e+001  1.874942e+001  1.125512e+001
      vertex  1.000000e+001  1.843552e+001  1.200000e+001
      vertex  1.000000e+001  1.697141e+001  1.053590e+001
    endloop
  endfacet
  facet normal  2.868823e-001 -6.773844e-001  6.773838e-001
    outer loop
      vertex  1.250000e+001  1.771630e+001  1.022199e+001
      vertex  1.250000e+001  1.874942e+001  1.125512e+001
      vertex  1.000000e+001  1.697141e+001  1.053590e+001
    endloop
  endfacet
  facet normal  2.399255e-001 -4.407297e-001  8.649816e-001
    outer loop
      vertex  1.250000e+001  1.771630e+001  1.022199e+001
      vertex  1.000000e+001  1.697141e+001  1.053590e+001
      vertex  1.250000e+001  1.641448e+001  9.558687e+000
    endloop
  endfacet
  facet normal  2.399253e-001 -8.649812e-001  4.407305e-001
    outer loop
      vertex  1.250000e+001  1.941273e+001  1.255693e+001
      vertex  1.000000e+001  1.843552e+001  1.200000e+001
      vertex  1.250000e+001  1.874942e+001  1.125512e+001
    endloop
  endfacet
  facet normal  7.027135e-001 -1.112992e-001  7.027135e-001
    outer loop
      vertex  1.250000e+001  1.497141e+001  9.330127e+000
      vertex  1.433013e+001  1.497141e+001  7.500000e+000
      vertex  1.250000e+001  1.641448e+001  9.558687e+000
    endloop
  endfacet
  facet normal  7.027137e-001 -1.112988e-001  7.027134e-001
    outer loop
      vertex  1.250000e+001  1.641448e+001  9.558687e+000
      vertex  1.433013e+001  1.497141e+001  7.500000e+000
      vertex  1.433013e+001  1.698002e+001  7.818132e+000
    endloop
  endfacet
  facet normal  7.027137e-001 -3.230016e-001  6.339270e-001
    outer loop
      vertex  1.250000e+001  1.641448e+001  9.558687e+000
      vertex  1.433013e+001  1.698002e+001  7.818132e+000
      vertex  1.250000e+001  1.771630e+001  1.022199e+001
    endloop
  endfacet
  facet normal  7.027137e-001 -3.230018e-001  6.339270e-001
    outer loop
      vertex  1.250000e+001  1.771630e+001  1.022199e+001
      vertex  1.433013e+001  1.698002e+001  7.818132e+000
      vertex  1.433013e+001  1.879202e+001  8.741389e+000
    endloop
  endfacet
  facet normal  7.027136e-001 -5.030875e-001  5.030870e-001
    outer loop
      vertex  1.250000e+001  1.771630e+001  1.022199e+001
      vertex  1.433013e+001  1.879202e+001  8.741389e+000
      vertex  1.250000e+001  1.874942e+001  1.125512e+001
    endloop
  endfacet
  facet normal  7.027137e-001 -5.030874e-001  5.030871e-001
    outer loop
      vertex  1.250000e+001  1.874942e+001  1.125512e+001
      vertex  1.433013e+001  1.879202e+001  8.741389e+000
      vertex  1.433013e+001  2.023002e+001  1.017940e+001
    endloop
  endfacet
  facet normal  7.027137e-001 -6.339268e-001  3.230022e-001
    outer loop
      vertex  1.250000e+001  1.874942e+001  1.125512e+001
      vertex  1.433013e+001  2.023002e+001  1.017940e+001
      vertex  1.250000e+001  1.941273e+001  1.255693e+001
    endloop
  endfacet
  facet normal  7.027136e-001 -6.339267e-001  3.230022e-001
    outer loop
      vertex  1.250000e+001  1.941273e+001  1.255693e+001
      vertex  1.433013e+001  2.023002e+001  1.017940e+001
      vertex  1.433013e+001  2.115328e+001  1.199139e+001
    endloop
  endfacet
  facet normal  7.027136e-001 -7.027134e-001  1.112987e-001
    outer loop
      vertex  1.250000e+001  1.941273e+001  1.255693e+001
      vertex  1.433013e+001  2.115328e+001  1.199139e+001
      vertex  1.250000e+001  1.964129e+001  1.400000e+001
    endloop
  endfacet
  facet normal  7.027137e-001 -7.027133e-001  1.112988e-001
    outer loop
      vertex  1.250000e+001  1.964129e+001  1.400000e+001
      vertex  1.433013e+001  2.115328e+001  1.199139e+001
      vertex  1.433013e+001  2.147141e+001  1.400000e+001
    endloop
  endfacet
  facet normal  -0.000000e+000  0.000000e+000  1.000000e+000
    outer loop
      vertex  1.000000e+001  2.700000e+001  4.000000e+001
      vertex  0.000000e+000  2.700000e+001  4.000000e+001
      vertex  1.000000e+001 -3.000000e+001  4.000000e+001
    endloop
  endfacet
  facet normal  0.000000e+000  0.000000e+000  1.000000e+000
    outer loop
      vertex  1.000000e+001 -3.000000e+001  4.000000e+001
      vertex  0.000000e+000  2.700000e+001  4.000000e+001
      vertex  0.000000e+000 -3.000000e+001  4.000000e+001
    endloop
  endfacet
  facet normal  0.000000e+000  1.564343e-001  9.876884e-001
    outer loop
      vertex  0.000000e+000  2.700000e+001  4.000000e+001
      vertex  1.000000e+001  2.700000e+001  4.000000e+001
      vertex  0.000000e+000  3.101722e+001  3.936374e+001
    endloop
  endfacet
  facet normal  -0.000000e+000  1.564343e-001  9.876884e-001
    outer loop
      vertex  0.000000e+000  3.101722e+001  3.936374e+001
      vertex  1.000000e+001  2.700000e+001  4.000000e+001
      vertex  1.000000e+001  3.101722e+001  3.936374e+001
    endloop
  endfacet
  facet normal  0.000000e+000  4.539909e-001  8.910064e-001
    outer loop
      vertex  0.000000e+000  3.101722e+001  3.936374e+001
      vertex  1.000000e+001  3.101722e+001  3.936374e+001
      vertex  0.000000e+000  3.464121e+001  3.751722e+001
    endloop
  endfacet
  facet normal  -0.000000e+000  4.539909e-001  8.910064e-001
    outer loop
      vertex  0.000000e+000  3.464121e+001  3.751722e+001
      vertex  1.000000e+001  3.101722e+001  3.936374e+001
      vertex  1.000000e+001  3.464121e+001  3.751722e+001
    endloop
  endfacet
  facet normal  0.000000e+000  7.071068e-001  7.071068e-001
    outer loop
      vertex  0.000000e+000  3.464121e+001  3.751722e+001
      vertex  1.000000e+001  3.464121e+001  3.751722e+001
      vertex  0.000000e+000  3.751722e+001  3.464121e+001
    endloop
  endfacet
  facet normal  -0.000000e+000  7.071068e-001  7.071068e-001
    outer loop
      vertex  0.000000e+000  3.751722e+001  3.464121e+001
      vertex  1.000000e+001  3.464121e+001  3.751722e+001
      vertex  1.000000e+001  3.751722e+001  3.464121e+001
    endloop
  endfacet
  facet normal  0.000000e+000  8.910064e-001  4.539909e-001
    outer loop
      vertex  0.000000e+000  3.751722e+001  3.464121e+001
      vertex  1.000000e+001  3.751722e+001  3.464121e+001
      vertex  0.000000e+000  3.936374e+001  3.101722e+001
    endloop
  endfacet
  facet normal  -0.000000e+000  8.910064e-001  4.539909e-001
    outer loop
      vertex  0.000000e+000  3.936374e+001  3.101722e+001
      vertex  1.000000e+001  3.751722e+001  3.464121e+001
      vertex  1.000000e+001  3.936374e+001  3.101722e+001
    endloop
  endfacet
  facet normal  0.000000e+000  9.876884e-001  1.564343e-001
    outer loop
      vertex  0.000000e+000  3.936374e+001  3.101722e+001
      vertex  1.000000e+001  3.936374e+001  3.101722e+001
      vertex  0.000000e+000  4.000000e+001  2.700000e+001
    endloop
  endfacet
  facet normal  -0.000000e+000  9.876884e-001  1.564343e-001
    outer loop
      vertex  0.000000e+000  4.000000e+001  2.700000e+001
      vertex  1.000000e+001  3.936374e+001  3.101722e+001
      vertex  1.000000e+001  4.000000e+001  2.700000e+001
    endloop
  endfacet
  facet normal  0.000000e+000  1.000000e+000  0.000000e+000
    outer loop
      vertex  0.000000e+000  4.000000e+001  1.300000e+001
      vertex  0.000000e+000  4.000000e+001  2.700000e+001
      vertex  1.000000e+001  4.000000e+001  1.300000e+001
    endloop
  endfacet
  facet normal  0.000000e+000  1.000000e+000  -0.000000e+000
    outer loop
      vertex  1.000000e+001  4.000000e+001  1.300000e+001
      vertex  0.000000e+000  4.000000e+001  2.700000e+001
      vertex  1.000000e+001  4.000000e+001  2.700000e+001
    endloop
  endfacet
  facet normal  0.000000e+000  9.876884e-001 -1.564344e-001
    outer loop
      vertex  0.000000e+000  4.000000e+001  1.300000e+001
      vertex  1.000000e+001  4.000000e+001  1.300000e+001
      vertex  0.000000e+000  3.936374e+001  8.982780e+000
    endloop
  endfacet
  facet normal  0.000000e+000  9.876884e-001 -1.564344e-001
    outer loop
      vertex  0.000000e+000  3.936374e+001  8.982780e+000
      vertex  1.000000e+001  4.000000e+001  1.300000e+001
      vertex  1.000000e+001  3.936374e+001  8.982780e+000
    endloop
  endfacet
  facet normal  0.000000e+000  8.910064e-001 -4.539908e-001
    outer loop
      vertex  0.000000e+000  3.936374e+001  8.982780e+000
      vertex  1.000000e+001  3.936374e+001  8.982780e+000
      vertex  0.000000e+000  3.751722e+001  5.358792e+000
    endloop
  endfacet
  facet normal  0.000000e+000  8.910064e-001 -4.539908e-001
    outer loop
      vertex  0.000000e+000  3.751722e+001  5.358792e+000
      vertex  1.000000e+001  3.936374e+001  8.982780e+000
      vertex  1.000000e+001  3.751722e+001  5.358792e+000
    endloop
  endfacet
  facet normal  0.000000e+000  7.071070e-001 -7.071065e-001
    outer loop
      vertex  0.000000e+000  3.751722e+001  5.358792e+000
      vertex  1.000000e+001  3.751722e+001  5.358792e+000
      vertex  0.000000e+000  3.464121e+001  2.482779e+000
    endloop
  endfacet
  facet normal  0.000000e+000  7.071070e-001 -7.071065e-001
    outer loop
      vertex  0.000000e+000  3.464121e+001  2.482779e+000
      vertex  1.000000e+001  3.751722e+001  5.358792e+000
      vertex  1.000000e+001  3.464121e+001  2.482779e+000
    endloop
  endfacet
  facet normal  0.000000e+000  4.539905e-001 -8.910066e-001
    outer loop
      vertex  0.000000e+000  3.464121e+001  2.482779e+000
      vertex  1.000000e+001  3.464121e+001  2.482779e+000
      vertex  0.000000e+000  3.101722e+001  6.362653e-001
    endloop
  endfacet
  facet normal  0.000000e+000  4.539905e-001 -8.910066e-001
    outer loop
      vertex  0.000000e+000  3.101722e+001  6.362653e-001
      vertex  1.000000e+001  3.464121e+001  2.482779e+000
      vertex  1.000000e+001  3.101722e+001  6.362653e-001
    endloop
  endfacet
  facet normal  0.000000e+000  1.564344e-001 -9.876884e-001
    outer loop
      vertex  0.000000e+000  3.101722e+001  6.362653e-001
      vertex  1.000000e+001  3.101722e+001  6.362653e-001
      vertex  0.000000e+000  2.700000e+001 -5.070164e-015
    endloop
  endfacet
  facet normal  0.000000e+000  1.564344e-001 -9.876884e-001
    outer loop
      vertex  0.000000e+000  2.700000e+001 -5.070164e-015
      vertex  1.000000e+001  3.101722e+001  6.362653e-001
      vertex  1.000000e+001  2.700000e+001 -5.070164e-015
    endloop
  endfacet
  facet normal  1.776357e-015 -3.069182e-015 -1.000000e+000
    outer loop
      vertex  1.000000e+001  1.145751e+001  4.263256e-014
      vertex  0.000000e+000  1.145751e+001  2.486900e-014
      vertex  1.000000e+001  2.700000e+001 -5.070164e-015
    endloop
  endfacet
  facet normal  -0.000000e+000 -1.926278e-015 -1.000000e+000
    outer loop
      vertex  1.000000e+001  2.700000e+001 -5.070164e-015
      vertex  0.000000e+000  1.145751e+001  2.486900e-014
      vertex  0.000000e+000  2.700000e+001 -5.070164e-015
    endloop
  endfacet
  facet normal  -0.000000e+000  8.000000e-001  6.000000e-001
    outer loop
      vertex  1.000000e+001  5.645751e+001 -6.000000e+001
      vertex  0.000000e+000  5.645751e+001 -6.000000e+001
      vertex  1.000000e+001  1.145751e+001  4.263256e-014
    endloop
  endfacet
  facet normal -1.065814e-015  8.000000e-001  6.000000e-001
    outer loop
      vertex  1.000000e+001  1.145751e+001  4.263256e-014
      vertex  0.000000e+000  5.645751e+001 -6.000000e+001
      vertex  0.000000e+000  1.145751e+001  2.486900e-014
    endloop
  endfacet
  facet normal  0.000000e+000  0.000000e+000 -1.000000e+000
    outer loop
      vertex  1.000000e+001  2.645751e+001 -6.000000e+001
      vertex  0.000000e+000  2.645751e+001 -6.000000e+001
      vertex  1.000000e+001  5.645751e+001 -6.000000e+001
    endloop
  endfacet
  facet normal  -0.000000e+000  0.000000e+000 -1.000000e+000
    outer loop
      vertex  1.000000e+001  5.645751e+001 -6.000000e+001
      vertex  0.000000e+000  2.645751e+001 -6.000000e+001
      vertex  0.000000e+000  5.645751e+001 -6.000000e+001
    endloop
  endfacet
  facet normal  0.000000e+000 -7.500000e-001 -6.614378e-001
    outer loop
      vertex  1.000000e+001  1.421085e-014 -3.000000e+001
      vertex  0.000000e+000  1.421085e-014 -3.000000e+001
      vertex  1.000000e+001  2.645751e+001 -6.000000e+001
    endloop
  endfacet
  facet normal  -0.000000e+000 -7.500000e-001 -6.614378e-001
    outer loop
      vertex  1.000000e+001  2.645751e+001 -6.000000e+001
      vertex  0.000000e+000  1.421085e-014 -3.000000e+001
      vertex  0.000000e+000  2.645751e+001 -6.000000e+001
    endloop
  endfacet
  facet normal -1.776357e-016  1.000000e+000  0.000000e+000
    outer loop
      vertex  1.000000e+001  1.421085e-014 -6.000000e+001
      vertex  0.000000e+000  1.243450e-014 -6.000000e+001
      vertex  1.000000e+001  1.421085e-014 -3.000000e+001
    endloop
  endfacet
  facet normal  0.000000e+000  1.000000e+000 -5.921190e-017
    outer loop
      vertex  1.000000e+001  1.421085e-014 -3.000000e+001
      vertex  0.000000e+000  1.243450e-014 -6.000000e+001
      vertex  0.000000e+000  1.421085e-014 -3.000000e+001
    endloop
  endfacet
  facet normal  0.000000e+000  0.000000e+000 -1.000000e+000
    outer loop
      vertex  1.000000e+001 -3.000000e+001 -6.000000e+001
      vertex  0.000000e+000 -3.000000e+001 -6.000000e+001
      vertex  1.000000e+001  1.421085e-014 -6.000000e+001
    endloop
  endfacet
  facet normal  0.000000e+000  0.000000e+000 -1.000000e+000
    outer loop
      vertex  1.000000e+001  1.421085e-014 -6.000000e+001
      vertex  0.000000e+000 -3.000000e+001 -6.000000e+001
      vertex  0.000000e+000  1.243450e-014 -6.000000e+001
    endloop
  endfacet
  facet normal  0.000000e+000 -1.000000e+000  0.000000e+000
    outer loop
      vertex  1.000000e+001 -3.000000e+001  4.000000e+001
      vertex  0.000000e+000 -3.000000e+001  4.000000e+001
      vertex  1.000000e+001 -3.000000e+001 -6.000000e+001
    endloop
  endfacet
  facet normal  0.000000e+000 -1.000000e+000  0.000000e+000
    outer loop
      vertex  1.000000e+001 -3.000000e+001 -6.000000e+001
      vertex  0.000000e+000 -3.000000e+001  4.000000e+001
      vertex  0.000000e+000 -3.000000e+001 -6.000000e+001
    endloop
  endfacet
  facet normal  9.715605e-001 -2.367917e-001  0.000000e+000
    outer loop
      vertex  1.500000e+001 -2.500000e+001 -5.500000e+001
      vertex  1.500000e+001 -2.500000e+001  3.500000e+001
      vertex  1.443930e+001 -2.730058e+001 -5.730058e+001
    endloop
  endfacet
  facet normal  9.715605e-001 -2.367917e-001  0.000000e+000
    outer loop
      vertex  1.443930e+001 -2.730058e+001 -5.730058e+001
      vertex  1.500000e+001 -2.500000e+001  3.500000e+001
      vertex  1.443930e+001 -2.730058e+001  3.730058e+001
    endloop
  endfacet
  facet normal  8.073972e-001 -5.900082e-001  0.000000e+000
    outer loop
      vertex  1.443930e+001 -2.730058e+001 -5.730058e+001
      vertex  1.443930e+001 -2.730058e+001  3.730058e+001
      vertex  1.354043e+001 -2.853063e+001 -5.853063e+001
    endloop
  endfacet
  facet normal  8.073972e-001 -5.900083e-001  0.000000e+000
    outer loop
      vertex  1.354043e+001 -2.853063e+001 -5.853063e+001
      vertex  1.443930e+001 -2.730058e+001  3.730058e+001
      vertex  1.354043e+001 -2.853063e+001  3.853064e+001
    endloop
  endfacet
  facet normal  5.784981e-001 -8.156838e-001  0.000000e+000
    outer loop
      vertex  1.354043e+001 -2.853063e+001 -5.853063e+001
      vertex  1.354043e+001 -2.853063e+001  3.853064e+001
      vertex  1.216126e+001 -2.950876e+001 -5.950876e+001
    endloop
  endfacet
  facet normal  5.784980e-001 -8.156838e-001  0.000000e+000
    outer loop
      vertex  1.216126e+001 -2.950876e+001 -5.950876e+001
      vertex  1.354043e+001 -2.853063e+001  3.853064e+001
      vertex  1.216126e+001 -2.950876e+001  3.950876e+001
    endloop
  endfacet
  facet normal  2.216389e-001 -9.751289e-001  0.000000e+000
    outer loop
      vertex  1.216126e+001 -2.950876e+001 -5.950876e+001
      vertex  1.216126e+001 -2.950876e+001  3.950876e+001
      vertex  1.000000e+001 -3.000000e+001 -6.000000e+001
    endloop
  endfacet
  facet normal  2.216389e-001 -9.751288e-001  0.000000e+000
    outer loop
      vertex  1.000000e+001 -3.000000e+001 -6.000000e+001
      vertex  1.216126e+001 -2.950876e+001  3.950876e+001
      vertex  1.000000e+001 -3.000000e+001  4.000000e+001
    endloop
  endfacet
  facet normal  5.390155e-001 -6.790649e-004 -8.422955e-001
    outer loop
      vertex  1.303446e+001  9.405358e+000  1.026078e+000
      vertex  1.234367e+001  1.029090e+001  5.833051e-001
      vertex  1.250000e+001  2.700000e+001  6.698730e-001
    endloop
  endfacet
  facet normal  9.659087e-001  5.956924e-003 -2.588146e-001
    outer loop
      vertex  1.433013e+001  2.700000e+001  2.500000e+000
      vertex  1.500000e+001  2.700000e+001  5.000000e+000
      vertex  1.462510e+001  5.256698e+000  3.100407e+000
    endloop
  endfacet
  facet normal  9.810759e-001  0.000000e+000 -1.936232e-001
    outer loop
      vertex  1.462510e+001  5.256698e+000  3.100407e+000
      vertex  1.500000e+001  2.700000e+001  5.000000e+000
      vertex  1.500000e+001  1.497141e+001  5.000000e+000
    endloop
  endfacet
  facet normal  9.810760e-001  0.000000e+000 -1.936232e-001
    outer loop
      vertex  1.462510e+001  5.256698e+000  3.100407e+000
      vertex  1.500000e+001  1.497141e+001  5.000000e+000
      vertex  1.500000e+001  1.457513e+000  5.000000e+000
    endloop
  endfacet
  facet normal  7.188632e-001  7.763869e-003 -6.951081e-001
    outer loop
      vertex  1.303446e+001  9.405358e+000  1.026078e+000
      vertex  1.250000e+001  2.700000e+001  6.698730e-001
      vertex  1.400858e+001  7.434551e+000  2.011481e+000
    endloop
  endfacet
  facet normal  7.070940e-001  6.034533e-003 -7.070938e-001
    outer loop
      vertex  1.400858e+001  7.434551e+000  2.011481e+000
      vertex  1.250000e+001  2.700000e+001  6.698730e-001
      vertex  1.433013e+001  2.700000e+001  2.500000e+000
    endloop
  endfacet
  facet normal  8.685720e-001 -1.900906e-003 -4.955595e-001
    outer loop
      vertex  1.400858e+001  7.434551e+000  2.011481e+000
      vertex  1.433013e+001  2.700000e+001  2.500000e+000
      vertex  1.462510e+001  5.256698e+000  3.100407e+000
    endloop
  endfacet
  facet normal  2.588182e-001  2.582891e-003 -9.659226e-001
    outer loop
      vertex  1.250000e+001  2.700000e+001  6.698730e-001
      vertex  1.234367e+001  1.029090e+001  5.833051e-001
      vertex  1.000000e+001  2.700000e+001 -5.070164e-015
    endloop
  endfacet
  facet normal  3.260874e-001  1.273983e-002 -9.452538e-001
    outer loop
      vertex  1.000000e+001  2.700000e+001 -5.070164e-015
      vertex  1.234367e+001  1.029090e+001  5.833051e-001
      vertex  1.079804e+001  1.132932e+001  6.409727e-002
    endloop
  endfacet
  facet normal  8.006079e-002  0.000000e+000 -9.967900e-001
    outer loop
      vertex  1.000000e+001  2.700000e+001 -5.070164e-015
      vertex  1.079804e+001  1.132932e+001  6.409727e-002
      vertex  1.000000e+001  1.145751e+001  4.263256e-014
    endloop
  endfacet
  facet normal  7.071036e-001  3.067974e-003  7.071033e-001
    outer loop
      vertex  1.250000e+001  2.700000e+001  3.933013e+001
      vertex  1.354043e+001 -2.853063e+001  3.853064e+001
      vertex  1.433013e+001  2.700000e+001  3.750000e+001
    endloop
  endfacet
  facet normal  2.588188e-001  -0.000000e+000  9.659259e-001
    outer loop
      vertex  1.000000e+001  2.700000e+001  4.000000e+001
      vertex  1.000000e+001 -3.000000e+001  4.000000e+001
      vertex  1.250000e+001  2.700000e+001  3.933013e+001
    endloop
  endfacet
  facet normal  2.212589e-001  1.756515e-003  9.752135e-001
    outer loop
      vertex  1.250000e+001  2.700000e+001  3.933013e+001
      vertex  1.000000e+001 -3.000000e+001  4.000000e+001
      vertex  1.216126e+001 -2.950876e+001  3.950876e+001
    endloop
  endfacet
  facet normal  5.789182e-001 -8.926883e-004  8.153851e-001
    outer loop
      vertex  1.250000e+001  2.700000e+001  3.933013e+001
      vertex  1.216126e+001 -2.950876e+001  3.950876e+001
      vertex  1.354043e+001 -2.853063e+001  3.853064e+001
    endloop
  endfacet
  facet normal  9.715604e-001  0.000000e+000  2.367917e-001
    outer loop
      vertex  1.500000e+001 -2.500000e+001  3.500000e+001
      vertex  1.500000e+001  2.700000e+001  3.500000e+001
      vertex  1.443930e+001 -2.730058e+001  3.730058e+001
    endloop
  endfacet
  facet normal  9.659253e-001  9.914280e-004  2.588190e-001
    outer loop
      vertex  1.443930e+001 -2.730058e+001  3.730058e+001
      vertex  1.500000e+001  2.700000e+001  3.500000e+001
      vertex  1.433013e+001  2.700000e+001  3.750000e+001
    endloop
  endfacet
  facet normal  8.076556e-001 -5.417978e-004  5.896543e-001
    outer loop
      vertex  1.443930e+001 -2.730058e+001  3.730058e+001
      vertex  1.433013e+001  2.700000e+001  3.750000e+001
      vertex  1.354043e+001 -2.853063e+001  3.853064e+001
    endloop
  endfacet
  facet normal  8.005836e-002  7.974322e-001  5.980741e-001
    outer loop
      vertex  1.000000e+001  5.645751e+001 -6.000000e+001
      vertex  1.000000e+001  1.145751e+001  4.263256e-014
      vertex  1.079804e+001  5.632932e+001 -5.993590e+001
    endloop
  endfacet
  facet normal  8.005836e-002  7.974322e-001  5.980741e-001
    outer loop
      vertex  1.079804e+001  5.632932e+001 -5.993590e+001
      vertex  1.000000e+001  1.145751e+001  4.263256e-014
      vertex  1.079804e+001  1.132932e+001  6.409727e-002
    endloop
  endfacet
  facet normal  3.184337e-001  7.583562e-001  5.687671e-001
    outer loop
      vertex  1.079804e+001  5.632932e+001 -5.993590e+001
      vertex  1.079804e+001  1.132932e+001  6.409727e-002
      vertex  1.234367e+001  5.529090e+001 -5.941669e+001
    endloop
  endfacet
  facet normal  3.184337e-001  7.583562e-001  5.687671e-001
    outer loop
      vertex  1.234367e+001  5.529090e+001 -5.941669e+001
      vertex  1.079804e+001  1.132932e+001  6.409727e-002
      vertex  1.234367e+001  1.029090e+001  5.833051e-001
    endloop
  endfacet
  facet normal  5.396317e-001  6.735210e-001  5.051407e-001
    outer loop
      vertex  1.234367e+001  5.529090e+001 -5.941669e+001
      vertex  1.234367e+001  1.029090e+001  5.833051e-001
      vertex  1.303446e+001  5.440536e+001 -5.897392e+001
    endloop
  endfacet
  facet normal  5.396317e-001  6.735210e-001  5.051407e-001
    outer loop
      vertex  1.303446e+001  5.440536e+001 -5.897392e+001
      vertex  1.234367e+001  1.029090e+001  5.833051e-001
      vertex  1.303446e+001  9.405358e+000  1.026078e+000
    endloop
  endfacet
  facet normal  7.111644e-001  5.624206e-001  4.218155e-001
    outer loop
      vertex  1.303446e+001  5.440536e+001 -5.897392e+001
      vertex  1.303446e+001  9.405358e+000  1.026078e+000
      vertex  1.400858e+001  5.243455e+001 -5.798852e+001
    endloop
  endfacet
  facet normal  7.111644e-001  5.624206e-001  4.218155e-001
    outer loop
      vertex  1.400858e+001  5.243455e+001 -5.798852e+001
      vertex  1.303446e+001  9.405358e+000  1.026078e+000
      vertex  1.400858e+001  7.434551e+000  2.011481e+000
    endloop
  endfacet
  facet normal  8.702085e-001  3.941469e-001  2.956102e-001
    outer loop
      vertex  1.400858e+001  5.243455e+001 -5.798852e+001
      vertex  1.400858e+001  7.434551e+000  2.011481e+000
      vertex  1.462510e+001  5.025670e+001 -5.689959e+001
    endloop
  endfacet
  facet normal  8.702085e-001  3.941469e-001  2.956102e-001
    outer loop
      vertex  1.462510e+001  5.025670e+001 -5.689959e+001
      vertex  1.400858e+001  7.434551e+000  2.011481e+000
      vertex  1.462510e+001  5.256698e+000  3.100407e+000
    endloop
  endfacet
  facet normal  9.810761e-001  1.548985e-001  1.161739e-001
    outer loop
      vertex  1.462510e+001  5.025670e+001 -5.689959e+001
      vertex  1.462510e+001  5.256698e+000  3.100407e+000
      vertex  1.500000e+001  4.645751e+001 -5.500000e+001
    endloop
  endfacet
  facet normal  9.810761e-001  1.548985e-001  1.161739e-001
    outer loop
      vertex  1.500000e+001  4.645751e+001 -5.500000e+001
      vertex  1.462510e+001  5.256698e+000  3.100407e+000
      vertex  1.500000e+001  1.457513e+000  5.000000e+000
    endloop
  endfacet
  facet normal  1.952438e-001  0.000000e+000 -9.807548e-001
    outer loop
      vertex  1.000000e+001  2.645751e+001 -6.000000e+001
      vertex  1.000000e+001  5.645751e+001 -6.000000e+001
      vertex  1.191485e+001  2.662959e+001 -5.961880e+001
    endloop
  endfacet
  facet normal  7.883412e-002 -7.678901e-003 -9.968582e-001
    outer loop
      vertex  1.191485e+001  2.662959e+001 -5.961880e+001
      vertex  1.000000e+001  5.645751e+001 -6.000000e+001
      vertex  1.079804e+001  5.632932e+001 -5.993590e+001
    endloop
  endfacet
  facet normal  3.195784e-001  1.900292e-003 -9.475579e-001
    outer loop
      vertex  1.191485e+001  2.662959e+001 -5.961880e+001
      vertex  1.079804e+001  5.632932e+001 -5.993590e+001
      vertex  1.234367e+001  5.529090e+001 -5.941669e+001
    endloop
  endfacet
  facet normal  5.523499e-001 -2.385894e-003 -8.336089e-001
    outer loop
      vertex  1.191485e+001  2.662959e+001 -5.961880e+001
      vertex  1.234367e+001  5.529090e+001 -5.941669e+001
      vertex  1.350275e+001  2.710394e+001 -5.856801e+001
    endloop
  endfacet
  facet normal  5.365885e-001 -3.341994e-003 -8.438374e-001
    outer loop
      vertex  1.350275e+001  2.710394e+001 -5.856801e+001
      vertex  1.234367e+001  5.529090e+001 -5.941669e+001
      vertex  1.303446e+001  5.440536e+001 -5.897392e+001
    endloop
  endfacet
  facet normal  8.268656e-001  5.821847e-003 -5.623694e-001
    outer loop
      vertex  1.350275e+001  2.710394e+001 -5.856801e+001
      vertex  1.303446e+001  5.440536e+001 -5.897392e+001
      vertex  1.461394e+001  2.784493e+001 -5.692653e+001
    endloop
  endfacet
  facet normal  6.971688e-001 -1.379309e-002 -7.167743e-001
    outer loop
      vertex  1.461394e+001  2.784493e+001 -5.692653e+001
      vertex  1.303446e+001  5.440536e+001 -5.897392e+001
      vertex  1.400858e+001  5.243455e+001 -5.798852e+001
    endloop
  endfacet
  facet normal  8.703439e-001  1.586529e-004 -4.924443e-001
    outer loop
      vertex  1.461394e+001  2.784493e+001 -5.692653e+001
      vertex  1.400858e+001  5.243455e+001 -5.798852e+001
      vertex  1.462510e+001  5.025670e+001 -5.689959e+001
    endloop
  endfacet
  facet normal  9.809789e-001 -2.550223e-004 -1.941140e-001
    outer loop
      vertex  1.462510e+001  5.025670e+001 -5.689959e+001
      vertex  1.500000e+001  4.645751e+001 -5.500000e+001
      vertex  1.461394e+001  2.784493e+001 -5.692653e+001
    endloop
  endfacet
  facet normal  9.805071e-001  0.000000e+000 -1.964833e-001
    outer loop
      vertex  1.461394e+001  2.784493e+001 -5.692653e+001
      vertex  1.500000e+001  4.645751e+001 -5.500000e+001
      vertex  1.500000e+001  2.871459e+001 -5.500000e+001
    endloop
  endfacet
  facet normal  5.519171e-001 -6.252322e-001 -5.517900e-001
    outer loop
      vertex  1.191485e+001  2.662959e+001 -5.961880e+001
      vertex  1.350275e+001  2.710394e+001 -5.856801e+001
      vertex  1.345392e+001 -1.384692e+000 -2.633645e+001
    endloop
  endfacet
  facet normal  5.853512e-001 -6.067555e-001 -5.377840e-001
    outer loop
      vertex  1.191485e+001  2.662959e+001 -5.961880e+001
      vertex  1.345392e+001 -1.384692e+000 -2.633645e+001
      vertex  1.231717e+001 -5.693451e-001 -2.849365e+001
    endloop
  endfacet
  facet normal  3.712937e-001 -6.967915e-001 -6.136957e-001
    outer loop
      vertex  1.191485e+001  2.662959e+001 -5.961880e+001
      vertex  1.231717e+001 -5.693451e-001 -2.849365e+001
      vertex  1.138246e+001 -1.949209e-001 -2.948429e+001
    endloop
  endfacet
  facet normal  2.181521e-001 -7.308587e-001 -6.467265e-001
    outer loop
      vertex  1.191485e+001  2.662959e+001 -5.961880e+001
      vertex  1.138246e+001 -1.949209e-001 -2.948429e+001
      vertex  1.078587e+001 -6.214553e-002 -2.983558e+001
    endloop
  endfacet
  facet normal  8.001445e-002 -7.438173e-001 -6.635763e-001
    outer loop
      vertex  1.191485e+001  2.662959e+001 -5.961880e+001
      vertex  1.078587e+001 -6.214553e-002 -2.983558e+001
      vertex  1.000000e+001  1.421085e-014 -3.000000e+001
    endloop
  endfacet
  facet normal  1.952423e-001 -7.355663e-001 -6.487085e-001
    outer loop
      vertex  1.191485e+001  2.662959e+001 -5.961880e+001
      vertex  1.000000e+001  1.421085e-014 -3.000000e+001
      vertex  1.000000e+001  2.645751e+001 -6.000000e+001
    endloop
  endfacet
  facet normal  7.997823e-001 -4.503815e-001 -3.968685e-001
    outer loop
      vertex  1.345392e+001 -1.384692e+000 -2.633645e+001
      vertex  1.350275e+001  2.710394e+001 -5.856801e+001
      vertex  1.443854e+001 -2.697966e+000 -2.286185e+001
    endloop
  endfacet
  facet normal  8.283987e-001 -4.191627e-001 -3.715620e-001
    outer loop
      vertex  1.443854e+001 -2.697966e+000 -2.286185e+001
      vertex  1.350275e+001  2.710394e+001 -5.856801e+001
      vertex  1.461394e+001  2.784493e+001 -5.692653e+001
    endloop
  endfacet
  facet normal  9.490163e-001 -2.371143e-001 -2.077136e-001
    outer loop
      vertex  1.443854e+001 -2.697966e+000 -2.286185e+001
      vertex  1.461394e+001  2.784493e+001 -5.692653e+001
      vertex  1.493799e+001 -4.215002e+000 -1.884815e+001
    endloop
  endfacet
  facet normal  9.806700e-001 -1.454896e-001 -1.308399e-001
    outer loop
      vertex  1.493799e+001 -4.215002e+000 -1.884815e+001
      vertex  1.461394e+001  2.784493e+001 -5.692653e+001
      vertex  1.500000e+001  2.871459e+001 -5.500000e+001
    endloop
  endfacet
  facet normal  9.968948e-001 -5.905847e-002 -5.208467e-002
    outer loop
      vertex  1.493799e+001 -4.215002e+000 -1.884815e+001
      vertex  1.500000e+001  2.871459e+001 -5.500000e+001
      vertex  1.500000e+001 -5.000000e+000 -1.677124e+001
    endloop
  endfacet
  facet normal  3.714210e-001  9.284645e-001  4.711108e-004
    outer loop
      vertex  1.138246e+001 -1.949209e-001 -2.948429e+001
      vertex  1.231717e+001 -5.693451e-001 -2.849365e+001
      vertex  1.216126e+001 -4.912373e-001 -5.950876e+001
    endloop
  endfacet
  facet normal  2.216387e-001  9.751288e-001  0.000000e+000
    outer loop
      vertex  1.000000e+001  1.421085e-014 -6.000000e+001
      vertex  1.000000e+001  1.421085e-014 -3.000000e+001
      vertex  1.216126e+001 -4.912373e-001 -5.950876e+001
    endloop
  endfacet
  facet normal  8.104337e-002  9.966537e-001 -1.065573e-002
    outer loop
      vertex  1.216126e+001 -4.912373e-001 -5.950876e+001
      vertex  1.000000e+001  1.421085e-014 -3.000000e+001
      vertex  1.078587e+001 -6.214553e-002 -2.983558e+001
    endloop
  endfacet
  facet normal  2.194484e-001  9.756162e-001 -3.936252e-003
    outer loop
      vertex  1.216126e+001 -4.912373e-001 -5.950876e+001
      vertex  1.078587e+001 -6.214553e-002 -2.983558e+001
      vertex  1.138246e+001 -1.949209e-001 -2.948429e+001
    endloop
  endfacet
  facet normal  5.789023e-001  8.153964e-001 -8.566355e-004
    outer loop
      vertex  1.216126e+001 -4.912373e-001 -5.950876e+001
      vertex  1.231717e+001 -5.693451e-001 -2.849365e+001
      vertex  1.354043e+001 -1.469367e+000 -5.853064e+001
    endloop
  endfacet
  facet normal  5.835516e-001  8.120759e-001 -5.677921e-004
    outer loop
      vertex  1.354043e+001 -1.469367e+000 -5.853064e+001
      vertex  1.231717e+001 -5.693451e-001 -2.849365e+001
      vertex  1.345392e+001 -1.384692e+000 -2.633645e+001
    endloop
  endfacet
  facet normal  8.071033e-001  5.904098e-001  6.159296e-004
    outer loop
      vertex  1.354043e+001 -1.469367e+000 -5.853064e+001
      vertex  1.345392e+001 -1.384692e+000 -2.633645e+001
      vertex  1.443930e+001 -2.699425e+000 -5.730058e+001
    endloop
  endfacet
  facet normal  8.001072e-001  5.998570e-001 -7.840865e-006
    outer loop
      vertex  1.443930e+001 -2.699425e+000 -5.730058e+001
      vertex  1.345392e+001 -1.384692e+000 -2.633645e+001
      vertex  1.443854e+001 -2.697966e+000 -2.286185e+001
    endloop
  endfacet
  facet normal  9.715579e-001  2.368024e-001  1.130376e-005
    outer loop
      vertex  1.443930e+001 -2.699425e+000 -5.730058e+001
      vertex  1.443854e+001 -2.697966e+000 -2.286185e+001
      vertex  1.500000e+001 -5.000000e+000 -5.500000e+001
    endloop
  endfacet
  facet normal  9.536137e-001  3.009930e-001 -4.900119e-003
    outer loop
      vertex  1.500000e+001 -5.000000e+000 -5.500000e+001
      vertex  1.443854e+001 -2.697966e+000 -2.286185e+001
      vertex  1.493799e+001 -4.215002e+000 -1.884815e+001
    endloop
  endfacet
  facet normal  9.968948e-001  7.874463e-002  0.000000e+000
    outer loop
      vertex  1.500000e+001 -5.000000e+000 -5.500000e+001
      vertex  1.493799e+001 -4.215002e+000 -1.884815e+001
      vertex  1.500000e+001 -5.000000e+000 -1.677124e+001
    endloop
  endfacet
  facet normal  2.216389e-001  0.000000e+000 -9.751288e-001
    outer loop
      vertex  1.000000e+001 -3.000000e+001 -6.000000e+001
      vertex  1.000000e+001  1.421085e-014 -6.000000e+001
      vertex  1.216126e+001 -2.950876e+001 -5.950876e+001
    endloop
  endfacet
  facet normal  2.216389e-001  0.000000e+000 -9.751289e-001
    outer loop
      vertex  1.216126e+001 -2.950876e+001 -5.950876e+001
      vertex  1.000000e+001  1.421085e-014 -6.000000e+001
      vertex  1.216126e+001 -4.912373e-001 -5.950876e+001
    endloop
  endfacet
  facet normal  5.784988e-001  0.000000e+000 -8.156832e-001
    outer loop
      vertex  1.216126e+001 -2.950876e+001 -5.950876e+001
      vertex  1.216126e+001 -4.912373e-001 -5.950876e+001
      vertex  1.354043e+001 -2.853063e+001 -5.853063e+001
    endloop
  endfacet
  facet normal  5.784972e-001 -1.149831e-007 -8.156844e-001
    outer loop
      vertex  1.354043e+001 -2.853063e+001 -5.853063e+001
      vertex  1.216126e+001 -4.912373e-001 -5.950876e+001
      vertex  1.354043e+001 -1.469367e+000 -5.853064e+001
    endloop
  endfacet
  facet normal  8.073969e-001 -8.317072e-008 -5.900089e-001
    outer loop
      vertex  1.354043e+001 -2.853063e+001 -5.853063e+001
      vertex  1.354043e+001 -1.469367e+000 -5.853064e+001
      vertex  1.443930e+001 -2.730058e+001 -5.730058e+001
    endloop
  endfacet
  facet normal  8.073977e-001  0.000000e+000 -5.900077e-001
    outer loop
      vertex  1.443930e+001 -2.730058e+001 -5.730058e+001
      vertex  1.354043e+001 -1.469367e+000 -5.853064e+001
      vertex  1.443930e+001 -2.699425e+000 -5.730058e+001
    endloop
  endfacet
  facet normal  9.715604e-001  0.000000e+000 -2.367917e-001
    outer loop
      vertex  1.443930e+001 -2.730058e+001 -5.730058e+001
      vertex  1.443930e+001 -2.699425e+000 -5.730058e+001
      vertex  1.500000e+001 -2.500000e+001 -5.500000e+001
    endloop
  endfacet
  facet normal  9.715604e-001  0.000000e+000 -2.367917e-001
    outer loop
      vertex  1.500000e+001 -2.500000e+001 -5.500000e+001
      vertex  1.443930e+001 -2.699425e+000 -5.730058e+001
      vertex  1.500000e+001 -5.000000e+000 -5.500000e+001
    endloop
  endfacet
  facet normal  9.679292e-001  4.901110e-002  2.463958e-001
    outer loop
      vertex  1.500000e+001  2.700000e+001  3.500000e+001
      vertex  1.500000e+001  3.006147e+001  3.439104e+001
      vertex  1.433013e+001  3.024468e+001  3.698609e+001
    endloop
  endfacet
  facet normal  9.679292e-001  2.463958e-001  4.901110e-002
    outer loop
      vertex  1.500000e+001  3.500000e+001  2.700000e+001
      vertex  1.433013e+001  3.698609e+001  3.024468e+001
      vertex  1.500000e+001  3.439104e+001  3.006147e+001
    endloop
  endfacet
  facet normal  9.694081e-001  2.040879e-001  1.363675e-001
    outer loop
      vertex  1.433013e+001  3.549468e+001  3.317175e+001
      vertex  1.500000e+001  3.265685e+001  3.265685e+001
      vertex  1.500000e+001  3.439104e+001  3.006147e+001
    endloop
  endfacet
  facet normal  9.694081e-001  1.363675e-001  2.040879e-001
    outer loop
      vertex  1.433013e+001  3.317175e+001  3.549468e+001
      vertex  1.500000e+001  3.006147e+001  3.439104e+001
      vertex  1.500000e+001  3.265685e+001  3.265685e+001
    endloop
  endfacet
  facet normal  2.558430e-001  1.512279e-001  9.548165e-001
    outer loop
      vertex  1.000000e+001  3.101722e+001  3.936374e+001
      vertex  1.000000e+001  2.700000e+001  4.000000e+001
      vertex  1.250000e+001  3.081022e+001  3.872665e+001
    endloop
  endfacet
  facet normal  2.558421e-001  1.512286e-001  9.548166e-001
    outer loop
      vertex  1.250000e+001  3.081022e+001  3.872665e+001
      vertex  1.000000e+001  2.700000e+001  4.000000e+001
      vertex  1.250000e+001  2.700000e+001  3.933013e+001
    endloop
  endfacet
  facet normal  7.027137e-001  1.112992e-001  7.027133e-001
    outer loop
      vertex  1.250000e+001  3.081022e+001  3.872665e+001
      vertex  1.250000e+001  2.700000e+001  3.933013e+001
      vertex  1.433013e+001  3.024468e+001  3.698609e+001
    endloop
  endfacet
  facet normal  7.027136e-001  1.112992e-001  7.027133e-001
    outer loop
      vertex  1.433013e+001  3.024468e+001  3.698609e+001
      vertex  1.250000e+001  2.700000e+001  3.933013e+001
      vertex  1.433013e+001  2.700000e+001  3.750000e+001
    endloop
  endfacet
  facet normal  9.651152e-001  4.095867e-002  2.586019e-001
    outer loop
      vertex  1.433013e+001  3.024468e+001  3.698609e+001
      vertex  1.433013e+001  2.700000e+001  3.750000e+001
      vertex  1.500000e+001  2.700000e+001  3.500000e+001
    endloop
  endfacet
  facet normal  2.558421e-001  9.548166e-001  1.512280e-001
    outer loop
      vertex  1.000000e+001  4.000000e+001  2.700000e+001
      vertex  1.000000e+001  3.936374e+001  3.101722e+001
      vertex  1.250000e+001  3.933013e+001  2.700000e+001
    endloop
  endfacet
  facet normal  2.558430e-001  9.548163e-001  1.512285e-001
    outer loop
      vertex  1.250000e+001  3.933013e+001  2.700000e+001
      vertex  1.000000e+001  3.936374e+001  3.101722e+001
      vertex  1.250000e+001  3.872665e+001  3.081022e+001
    endloop
  endfacet
  facet normal  7.027137e-001  7.027134e-001  1.112992e-001
    outer loop
      vertex  1.250000e+001  3.933013e+001  2.700000e+001
      vertex  1.250000e+001  3.872665e+001  3.081022e+001
      vertex  1.433013e+001  3.750000e+001  2.700000e+001
    endloop
  endfacet
  facet normal  7.027137e-001  7.027133e-001  1.112992e-001
    outer loop
      vertex  1.433013e+001  3.750000e+001  2.700000e+001
      vertex  1.250000e+001  3.872665e+001  3.081022e+001
      vertex  1.433013e+001  3.698609e+001  3.024468e+001
    endloop
  endfacet
  facet normal  9.651152e-001  2.586019e-001  4.095867e-002
    outer loop
      vertex  1.433013e+001  3.750000e+001  2.700000e+001
      vertex  1.433013e+001  3.698609e+001  3.024468e+001
      vertex  1.500000e+001  3.500000e+001  2.700000e+001
    endloop
  endfacet
  facet normal  2.558430e-001  8.613522e-001  4.388813e-001
    outer loop
      vertex  1.000000e+001  3.936374e+001  3.101722e+001
      vertex  1.000000e+001  3.751722e+001  3.464121e+001
      vertex  1.250000e+001  3.872665e+001  3.081022e+001
    endloop
  endfacet
  facet normal  2.558424e-001  8.613524e-001  4.388810e-001
    outer loop
      vertex  1.250000e+001  3.872665e+001  3.081022e+001
      vertex  1.000000e+001  3.751722e+001  3.464121e+001
      vertex  1.250000e+001  3.697528e+001  3.424747e+001
    endloop
  endfacet
  facet normal  7.027137e-001  6.339269e-001  3.230019e-001
    outer loop
      vertex  1.250000e+001  3.872665e+001  3.081022e+001
      vertex  1.250000e+001  3.697528e+001  3.424747e+001
      vertex  1.433013e+001  3.698609e+001  3.024468e+001
    endloop
  endfacet
  facet normal  7.027133e-001  6.339274e-001  3.230017e-001
    outer loop
      vertex  1.433013e+001  3.698609e+001  3.024468e+001
      vertex  1.250000e+001  3.697528e+001  3.424747e+001
      vertex  1.433013e+001  3.549468e+001  3.317175e+001
    endloop
  endfacet
  facet normal  9.630511e-001  2.399646e-001  1.222679e-001
    outer loop
      vertex  1.433013e+001  3.698609e+001  3.024468e+001
      vertex  1.433013e+001  3.549468e+001  3.317175e+001
      vertex  1.500000e+001  3.439104e+001  3.006147e+001
    endloop
  endfacet
  facet normal  2.558424e-001  6.835732e-001  6.835732e-001
    outer loop
      vertex  1.000000e+001  3.751722e+001  3.464121e+001
      vertex  1.000000e+001  3.464121e+001  3.751722e+001
      vertex  1.250000e+001  3.697528e+001  3.424747e+001
    endloop
  endfacet
  facet normal  2.558424e-001  6.835732e-001  6.835732e-001
    outer loop
      vertex  1.250000e+001  3.697528e+001  3.424747e+001
      vertex  1.000000e+001  3.464121e+001  3.751722e+001
      vertex  1.250000e+001  3.424747e+001  3.697528e+001
    endloop
  endfacet
  facet normal  7.027133e-001  5.030874e-001  5.030874e-001
    outer loop
      vertex  1.250000e+001  3.697528e+001  3.424747e+001
      vertex  1.250000e+001  3.424747e+001  3.697528e+001
      vertex  1.433013e+001  3.549468e+001  3.317175e+001
    endloop
  endfacet
  facet normal  7.027133e-001  5.030874e-001  5.030874e-001
    outer loop
      vertex  1.433013e+001  3.549468e+001  3.317175e+001
      vertex  1.250000e+001  3.424747e+001  3.697528e+001
      vertex  1.433013e+001  3.317175e+001  3.549468e+001
    endloop
  endfacet
  facet normal  9.623218e-001  1.922719e-001  1.922719e-001
    outer loop
      vertex  1.433013e+001  3.549468e+001  3.317175e+001
      vertex  1.433013e+001  3.317175e+001  3.549468e+001
      vertex  1.500000e+001  3.265685e+001  3.265685e+001
    endloop
  endfacet
  facet normal  2.558424e-001  4.388814e-001  8.613523e-001
    outer loop
      vertex  1.000000e+001  3.464121e+001  3.751722e+001
      vertex  1.000000e+001  3.101722e+001  3.936374e+001
      vertex  1.250000e+001  3.424747e+001  3.697528e+001
    endloop
  endfacet
  facet normal  2.558430e-001  4.388810e-001  8.613523e-001
    outer loop
      vertex  1.250000e+001  3.424747e+001  3.697528e+001
      vertex  1.000000e+001  3.101722e+001  3.936374e+001
      vertex  1.250000e+001  3.081022e+001  3.872665e+001
    endloop
  endfacet
  facet normal  7.027133e-001  3.230021e-001  6.339272e-001
    outer loop
      vertex  1.250000e+001  3.424747e+001  3.697528e+001
      vertex  1.250000e+001  3.081022e+001  3.872665e+001
      vertex  1.433013e+001  3.317175e+001  3.549468e+001
    endloop
  endfacet
  facet normal  7.027137e-001  3.230015e-001  6.339270e-001
    outer loop
      vertex  1.433013e+001  3.317175e+001  3.549468e+001
      vertex  1.250000e+001  3.081022e+001  3.872665e+001
      vertex  1.433013e+001  3.024468e+001  3.698609e+001
    endloop
  endfacet
  facet normal  9.630511e-001  1.222679e-001  2.399646e-001
    outer loop
      vertex  1.433013e+001  3.317175e+001  3.549468e+001
      vertex  1.433013e+001  3.024468e+001  3.698609e+001
      vertex  1.500000e+001  3.006147e+001  3.439104e+001
    endloop
  endfacet
  facet normal  9.659259e-001  2.588192e-001  -0.000000e+000
    outer loop
      vertex  1.500000e+001  3.500000e+001  2.700000e+001
      vertex  1.500000e+001  3.500000e+001  1.300000e+001
      vertex  1.433013e+001  3.750000e+001  2.700000e+001
    endloop
  endfacet
  facet normal  9.659259e-001  2.588192e-001  0.000000e+000
    outer loop
      vertex  1.433013e+001  3.750000e+001  2.700000e+001
      vertex  1.500000e+001  3.500000e+001  1.300000e+001
      vertex  1.433013e+001  3.750000e+001  1.300000e+001
    endloop
  endfacet
  facet normal  7.071069e-001  7.071066e-001  -0.000000e+000
    outer loop
      vertex  1.433013e+001  3.750000e+001  2.700000e+001
      vertex  1.433013e+001  3.750000e+001  1.300000e+001
      vertex  1.250000e+001  3.933013e+001  2.700000e+001
    endloop
  endfacet
  facet normal  7.071069e-001  7.071066e-001  0.000000e+000
    outer loop
      vertex  1.250000e+001  3.933013e+001  2.700000e+001
      vertex  1.433013e+001  3.750000e+001  1.300000e+001
      vertex  1.250000e+001  3.933013e+001  1.300000e+001
    endloop
  endfacet
  facet normal  2.588188e-001  9.659259e-001  -0.000000e+000
    outer loop
      vertex  1.250000e+001  3.933013e+001  2.700000e+001
      vertex  1.250000e+001  3.933013e+001  1.300000e+001
      vertex  1.000000e+001  4.000000e+001  2.700000e+001
    endloop
  endfacet
  facet normal  2.588188e-001  9.659259e-001  0.000000e+000
    outer loop
      vertex  1.000000e+001  4.000000e+001  2.700000e+001
      vertex  1.250000e+001  3.933013e+001  1.300000e+001
      vertex  1.000000e+001  4.000000e+001  1.300000e+001
    endloop
  endfacet
  facet normal  9.679292e-001  2.463958e-001 -4.901111e-002
    outer loop
      vertex  1.500000e+001  3.500000e+001  1.300000e+001
      vertex  1.500000e+001  3.439104e+001  9.938533e+000
      vertex  1.433013e+001  3.698609e+001  9.755322e+000
    endloop
  endfacet
  facet normal  9.679292e-001  4.901110e-002 -2.463956e-001
    outer loop
      vertex  1.500000e+001  2.700000e+001  5.000000e+000
      vertex  1.433013e+001  3.024468e+001  3.013906e+000
      vertex  1.500000e+001  3.006147e+001  5.608963e+000
    endloop
  endfacet
  facet normal  9.694080e-001  1.363674e-001 -2.040880e-001
    outer loop
      vertex  1.433013e+001  3.317175e+001  4.505322e+000
      vertex  1.500000e+001  3.265685e+001  7.343146e+000
      vertex  1.500000e+001  3.006147e+001  5.608963e+000
    endloop
  endfacet
  facet normal  9.694081e-001  2.040880e-001 -1.363674e-001
    outer loop
      vertex  1.433013e+001  3.549468e+001  6.828255e+000
      vertex  1.500000e+001  3.439104e+001  9.938533e+000
      vertex  1.500000e+001  3.265685e+001  7.343146e+000
    endloop
  endfacet
  facet normal  2.558429e-001  9.548165e-001 -1.512280e-001
    outer loop
      vertex  1.000000e+001  3.936374e+001  8.982780e+000
      vertex  1.000000e+001  4.000000e+001  1.300000e+001
      vertex  1.250000e+001  3.872665e+001  9.189781e+000
    endloop
  endfacet
  facet normal  2.558421e-001  9.548166e-001 -1.512286e-001
    outer loop
      vertex  1.250000e+001  3.872665e+001  9.189781e+000
      vertex  1.000000e+001  4.000000e+001  1.300000e+001
      vertex  1.250000e+001  3.933013e+001  1.300000e+001
    endloop
  endfacet
  facet normal  7.027137e-001  7.027133e-001 -1.112992e-001
    outer loop
      vertex  1.250000e+001  3.872665e+001  9.189781e+000
      vertex  1.250000e+001  3.933013e+001  1.300000e+001
      vertex  1.433013e+001  3.698609e+001  9.755322e+000
    endloop
  endfacet
  facet normal  7.027136e-001  7.027133e-001 -1.112992e-001
    outer loop
      vertex  1.433013e+001  3.698609e+001  9.755322e+000
      vertex  1.250000e+001  3.933013e+001  1.300000e+001
      vertex  1.433013e+001  3.750000e+001  1.300000e+001
    endloop
  endfacet
  facet normal  9.651152e-001  2.586019e-001 -4.095867e-002
    outer loop
      vertex  1.433013e+001  3.698609e+001  9.755322e+000
      vertex  1.433013e+001  3.750000e+001  1.300000e+001
      vertex  1.500000e+001  3.500000e+001  1.300000e+001
    endloop
  endfacet
  facet normal  2.558424e-001  1.512281e-001 -9.548166e-001
    outer loop
      vertex  1.000000e+001  2.700000e+001 -5.070164e-015
      vertex  1.000000e+001  3.101722e+001  6.362653e-001
      vertex  1.250000e+001  2.700000e+001  6.698730e-001
    endloop
  endfacet
  facet normal  2.558424e-001  1.512281e-001 -9.548166e-001
    outer loop
      vertex  1.250000e+001  2.700000e+001  6.698730e-001
      vertex  1.000000e+001  3.101722e+001  6.362653e-001
      vertex  1.250000e+001  3.081022e+001  1.273352e+000
    endloop
  endfacet
  facet normal  7.027135e-001  1.112989e-001 -7.027135e-001
    outer loop
      vertex  1.250000e+001  2.700000e+001  6.698730e-001
      vertex  1.250000e+001  3.081022e+001  1.273352e+000
      vertex  1.433013e+001  2.700000e+001  2.500000e+000
    endloop
  endfacet
  facet normal  7.027135e-001  1.112989e-001 -7.027135e-001
    outer loop
      vertex  1.433013e+001  2.700000e+001  2.500000e+000
      vertex  1.250000e+001  3.081022e+001  1.273352e+000
      vertex  1.433013e+001  3.024468e+001  3.013906e+000
    endloop
  endfacet
  facet normal  9.651152e-001  4.095852e-002 -2.586019e-001
    outer loop
      vertex  1.433013e+001  2.700000e+001  2.500000e+000
      vertex  1.433013e+001  3.024468e+001  3.013906e+000
      vertex  1.500000e+001  2.700000e+001  5.000000e+000
    endloop
  endfacet
  facet normal  2.558424e-001  4.388810e-001 -8.613524e-001
    outer loop
      vertex  1.000000e+001  3.101722e+001  6.362653e-001
      vertex  1.000000e+001  3.464121e+001  2.482779e+000
      vertex  1.250000e+001  3.081022e+001  1.273352e+000
    endloop
  endfacet
  facet normal  2.558424e-001  4.388810e-001 -8.613524e-001
    outer loop
      vertex  1.250000e+001  3.081022e+001  1.273352e+000
      vertex  1.000000e+001  3.464121e+001  2.482779e+000
      vertex  1.250000e+001  3.424747e+001  3.024718e+000
    endloop
  endfacet
  facet normal  7.027135e-001  3.230019e-001 -6.339270e-001
    outer loop
      vertex  1.250000e+001  3.081022e+001  1.273352e+000
      vertex  1.250000e+001  3.424747e+001  3.024718e+000
      vertex  1.433013e+001  3.024468e+001  3.013906e+000
    endloop
  endfacet
  facet normal  7.027135e-001  3.230020e-001 -6.339270e-001
    outer loop
      vertex  1.433013e+001  3.024468e+001  3.013906e+000
      vertex  1.250000e+001  3.424747e+001  3.024718e+000
      vertex  1.433013e+001  3.317175e+001  4.505322e+000
    endloop
  endfacet
  facet normal  9.630512e-001  1.222680e-001 -2.399645e-001
    outer loop
      vertex  1.433013e+001  3.024468e+001  3.013906e+000
      vertex  1.433013e+001  3.317175e+001  4.505322e+000
      vertex  1.500000e+001  3.006147e+001  5.608963e+000
    endloop
  endfacet
  facet normal  2.558424e-001  6.835735e-001 -6.835730e-001
    outer loop
      vertex  1.000000e+001  3.464121e+001  2.482779e+000
      vertex  1.000000e+001  3.751722e+001  5.358792e+000
      vertex  1.250000e+001  3.424747e+001  3.024718e+000
    endloop
  endfacet
  facet normal  2.558423e-001  6.835734e-001 -6.835731e-001
    outer loop
      vertex  1.250000e+001  3.424747e+001  3.024718e+000
      vertex  1.000000e+001  3.751722e+001  5.358792e+000
      vertex  1.250000e+001  3.697528e+001  5.752533e+000
    endloop
  endfacet
  facet normal  7.027135e-001  5.030875e-001 -5.030872e-001
    outer loop
      vertex  1.250000e+001  3.424747e+001  3.024718e+000
      vertex  1.250000e+001  3.697528e+001  5.752533e+000
      vertex  1.433013e+001  3.317175e+001  4.505322e+000
    endloop
  endfacet
  facet normal  7.027133e-001  5.030874e-001 -5.030874e-001
    outer loop
      vertex  1.433013e+001  3.317175e+001  4.505322e+000
      vertex  1.250000e+001  3.697528e+001  5.752533e+000
      vertex  1.433013e+001  3.549468e+001  6.828255e+000
    endloop
  endfacet
  facet normal  9.623217e-001  1.922720e-001 -1.922720e-001
    outer loop
      vertex  1.433013e+001  3.317175e+001  4.505322e+000
      vertex  1.433013e+001  3.549468e+001  6.828255e+000
      vertex  1.500000e+001  3.265685e+001  7.343146e+000
    endloop
  endfacet
  facet normal  2.558424e-001  8.613523e-001 -4.388814e-001
    outer loop
      vertex  1.000000e+001  3.751722e+001  5.358792e+000
      vertex  1.000000e+001  3.936374e+001  8.982780e+000
      vertex  1.250000e+001  3.697528e+001  5.752533e+000
    endloop
  endfacet
  facet normal  2.558428e-001  8.613524e-001 -4.388810e-001
    outer loop
      vertex  1.250000e+001  3.697528e+001  5.752533e+000
      vertex  1.000000e+001  3.936374e+001  8.982780e+000
      vertex  1.250000e+001  3.872665e+001  9.189781e+000
    endloop
  endfacet
  facet normal  7.027133e-001  6.339272e-001 -3.230021e-001
    outer loop
      vertex  1.250000e+001  3.697528e+001  5.752533e+000
      vertex  1.250000e+001  3.872665e+001  9.189781e+000
      vertex  1.433013e+001  3.549468e+001  6.828255e+000
    endloop
  endfacet
  facet normal  7.027137e-001  6.339270e-001 -3.230015e-001
    outer loop
      vertex  1.433013e+001  3.549468e+001  6.828255e+000
      vertex  1.250000e+001  3.872665e+001  9.189781e+000
      vertex  1.433013e+001  3.698609e+001  9.755322e+000
    endloop
  endfacet
  facet normal  9.630512e-001  2.399646e-001 -1.222679e-001
    outer loop
      vertex  1.433013e+001  3.549468e+001  6.828255e+000
      vertex  1.433013e+001  3.698609e+001  9.755322e+000
      vertex  1.500000e+001  3.439104e+001  9.938533e+000
    endloop
  endfacet
  facet normal -1.000000e+000  0.000000e+000  0.000000e+000
    outer loop
      vertex  0.000000e+000  0.000000e+000  1.000000e+001
      vertex  0.000000e+000 -3.000000e+001  4.000000e+001
      vertex  0.000000e+000  0.000000e+000  2.797247e+001
    endloop
  endfacet
  facet normal -1.000000e+000  0.000000e+000  0.000000e+000
    outer loop
      vertex  0.000000e+000  4.000000e+001  2.700000e+001
      vertex  0.000000e+000  4.000000e+001  1.300000e+001
      vertex  0.000000e+000  1.897141e+001  1.400000e+001
    endloop
  endfacet
  facet normal -9.999999e-001  0.000000e+000  0.000000e+000
    outer loop
      vertex  0.000000e+000  4.000000e+001  2.700000e+001
      vertex  0.000000e+000  1.897141e+001  1.400000e+001
      vertex  0.000000e+000  1.897141e+001  2.397247e+001
    endloop
  endfacet
  facet normal -1.000000e+000  0.000000e+000  0.000000e+000
    outer loop
      vertex  0.000000e+000  4.000000e+001  2.700000e+001
      vertex  0.000000e+000  1.897141e+001  2.397247e+001
      vertex  0.000000e+000  1.843552e+001  2.597247e+001
    endloop
  endfacet
  facet normal -1.000000e+000  0.000000e+000  0.000000e+000
    outer loop
      vertex  0.000000e+000  4.000000e+001  2.700000e+001
      vertex  0.000000e+000  1.843552e+001  2.597247e+001
      vertex  0.000000e+000  1.697141e+001  2.743657e+001
    endloop
  endfacet
  facet normal -1.000000e+000  0.000000e+000  0.000000e+000
    outer loop
      vertex  0.000000e+000  4.000000e+001  2.700000e+001
      vertex  0.000000e+000  1.697141e+001  2.743657e+001
      vertex  0.000000e+000  1.497141e+001  2.797247e+001
    endloop
  endfacet
  facet normal -1.000000e+000  0.000000e+000  0.000000e+000
    outer loop
      vertex  0.000000e+000  4.000000e+001  2.700000e+001
      vertex  0.000000e+000  1.497141e+001  2.797247e+001
      vertex  0.000000e+000  3.936374e+001  3.101722e+001
    endloop
  endfacet
  facet normal -1.000000e+000  0.000000e+000  0.000000e+000
    outer loop
      vertex  0.000000e+000  1.421085e-014 -3.000000e+001
      vertex  0.000000e+000  1.243450e-014 -6.000000e+001
      vertex  0.000000e+000 -3.000000e+001 -6.000000e+001
    endloop
  endfacet
  facet normal -1.000000e+000  0.000000e+000  0.000000e+000
    outer loop
      vertex  0.000000e+000  1.421085e-014 -3.000000e+001
      vertex  0.000000e+000 -3.000000e+001 -6.000000e+001
      vertex  0.000000e+000 -3.000000e+001  4.000000e+001
    endloop
  endfacet
  facet normal -1.000000e+000  0.000000e+000  0.000000e+000
    outer loop
      vertex  0.000000e+000  1.421085e-014 -3.000000e+001
      vertex  0.000000e+000 -3.000000e+001  4.000000e+001
      vertex  0.000000e+000  0.000000e+000  1.000000e+001
    endloop
  endfacet
  facet normal -1.000000e+000  0.000000e+000  0.000000e+000
    outer loop
      vertex  0.000000e+000  1.421085e-014 -3.000000e+001
      vertex  0.000000e+000  0.000000e+000  1.000000e+001
      vertex  0.000000e+000  1.145751e+001  2.486900e-014
    endloop
  endfacet
  facet normal -1.000000e+000  0.000000e+000  -0.000000e+000
    outer loop
      vertex  0.000000e+000  1.421085e-014 -3.000000e+001
      vertex  0.000000e+000  1.145751e+001  2.486900e-014
      vertex  0.000000e+000  5.645751e+001 -6.000000e+001
    endloop
  endfacet
  facet normal -9.999999e-001  0.000000e+000  0.000000e+000
    outer loop
      vertex  0.000000e+000  1.421085e-014 -3.000000e+001
      vertex  0.000000e+000  5.645751e+001 -6.000000e+001
      vertex  0.000000e+000  2.645751e+001 -6.000000e+001
    endloop
  endfacet
  facet normal -1.000000e+000  0.000000e+000  0.000000e+000
    outer loop
      vertex  0.000000e+000  1.497141e+001  2.797247e+001
      vertex  0.000000e+000  0.000000e+000  2.797247e+001
      vertex  0.000000e+000 -3.000000e+001  4.000000e+001
    endloop
  endfacet
  facet normal -1.000000e+000  0.000000e+000  0.000000e+000
    outer loop
      vertex  0.000000e+000  1.497141e+001  2.797247e+001
      vertex  0.000000e+000 -3.000000e+001  4.000000e+001
      vertex  0.000000e+000  2.700000e+001  4.000000e+001
    endloop
  endfacet
  facet normal -1.000000e+000  0.000000e+000  -0.000000e+000
    outer loop
      vertex  0.000000e+000  1.497141e+001  2.797247e+001
      vertex  0.000000e+000  2.700000e+001  4.000000e+001
      vertex  0.000000e+000  3.101722e+001  3.936374e+001
    endloop
  endfacet
  facet normal -1.000000e+000  0.000000e+000  -0.000000e+000
    outer loop
      vertex  0.000000e+000  1.497141e+001  2.797247e+001
      vertex  0.000000e+000  3.101722e+001  3.936374e+001
      vertex  0.000000e+000  3.464121e+001  3.751722e+001
    endloop
  endfacet
  facet normal -1.000000e+000  0.000000e+000  -0.000000e+000
    outer loop
      vertex  0.000000e+000  1.497141e+001  2.797247e+001
      vertex  0.000000e+000  3.464121e+001  3.751722e+001
      vertex  0.000000e+000  3.751722e+001  3.464121e+001
    endloop
  endfacet
  facet normal -9.999999e-001  0.000000e+000  -0.000000e+000
    outer loop
      vertex  0.000000e+000  1.497141e+001  2.797247e+001
      vertex  0.000000e+000  3.751722e+001  3.464121e+001
      vertex  0.000000e+000  3.936374e+001  3.101722e+001
    endloop
  endfacet
  facet normal -1.000000e+000  0.000000e+000  0.000000e+000
    outer loop
      vertex  0.000000e+000  1.145751e+001  2.486900e-014
      vertex  0.000000e+000  0.000000e+000  1.000000e+001
      vertex  0.000000e+000  1.497141e+001  1.000000e+001
    endloop
  endfacet
  facet normal -1.000000e+000  0.000000e+000  -0.000000e+000
    outer loop
      vertex  0.000000e+000  1.145751e+001  2.486900e-014
      vertex  0.000000e+000  1.497141e+001  1.000000e+001
      vertex  0.000000e+000  3.936374e+001  8.982780e+000
    endloop
  endfacet
  facet normal -1.000000e+000  0.000000e+000  0.000000e+000
    outer loop
      vertex  0.000000e+000  1.145751e+001  2.486900e-014
      vertex  0.000000e+000  3.936374e+001  8.982780e+000
      vertex  0.000000e+000  3.751722e+001  5.358792e+000
    endloop
  endfacet
  facet normal -1.000000e+000  0.000000e+000  0.000000e+000
    outer loop
      vertex  0.000000e+000  1.145751e+001  2.486900e-014
      vertex  0.000000e+000  3.751722e+001  5.358792e+000
      vertex  0.000000e+000  3.464121e+001  2.482779e+000
    endloop
  endfacet
  facet normal -1.000000e+000  0.000000e+000  0.000000e+000
    outer loop
      vertex  0.000000e+000  1.145751e+001  2.486900e-014
      vertex  0.000000e+000  3.464121e+001  2.482779e+000
      vertex  0.000000e+000  3.101722e+001  6.362653e-001
    endloop
  endfacet
  facet normal -1.000000e+000  0.000000e+000  0.000000e+000
    outer loop
      vertex  0.000000e+000  1.145751e+001  2.486900e-014
      vertex  0.000000e+000  3.101722e+001  6.362653e-001
      vertex  0.000000e+000  2.700000e+001 -5.070164e-015
    endloop
  endfacet
  facet normal -9.999999e-001  0.000000e+000  0.000000e+000
    outer loop
      vertex  0.000000e+000  3.936374e+001  8.982780e+000
      vertex  0.000000e+000  1.497141e+001  1.000000e+001
      vertex  0.000000e+000  1.697141e+001  1.053590e+001
    endloop
  endfacet
  facet normal -1.000000e+000  0.000000e+000  0.000000e+000
    outer loop
      vertex  0.000000e+000  3.936374e+001  8.982780e+000
      vertex  0.000000e+000  1.697141e+001  1.053590e+001
      vertex  0.000000e+000  1.843552e+001  1.200000e+001
    endloop
  endfacet
  facet normal -9.999999e-001  0.000000e+000  0.000000e+000
    outer loop
      vertex  0.000000e+000  3.936374e+001  8.982780e+000
      vertex  0.000000e+000  1.843552e+001  1.200000e+001
      vertex  0.000000e+000  1.897141e+001  1.400000e+001
    endloop
  endfacet
  facet normal -1.000000e+000  0.000000e+000  0.000000e+000
    outer loop
      vertex  0.000000e+000  3.936374e+001  8.982780e+000
      vertex  0.000000e+000  1.897141e+001  1.400000e+001
      vertex  0.000000e+000  4.000000e+001  1.300000e+001
    endloop
  endfacet
endsolid CATIA STL
